<svg width="188" height="65" viewBox="0 0 188 65" fill="none" xmlns="http://www.w3.org/2000/svg">
<path d="M-0.000212945 27.3123L-0.000211015 49.385C-0.000210266 57.96 7.41408 65 16.4955 65L170.704 65C179.785 65 187.2 57.96 187.2 49.385L187.2 27.3123C187.2 18.7373 179.785 11.6973 170.704 11.6973L24.6556 11.6973C20.6194 7.56858 14.6968 2.91054 5.74696 0.0522046C4.95727 -0.212456 4.16759 0.581524 4.56244 1.26964C5.87858 3.70452 8.46699 7.35684 8.7741 13.497C3.55338 16.1436 -0.000213468 21.331 -0.000212945 27.3123Z" fill="#309AB0"/>
<path d="M33.384 48.273C36.597 48.273 38.613 46.341 38.613 43.905C38.613 41.616 37.227 40.566 35.442 39.789L33.237 38.844C32.04 38.34 30.696 37.773 30.696 36.282C30.696 34.896 31.83 34.014 33.573 34.014C35.001 34.014 36.135 34.581 37.08 35.463L38.109 34.224C37.017 33.09 35.4 32.313 33.573 32.313C30.78 32.313 28.722 34.035 28.722 36.408C28.722 38.655 30.423 39.747 31.851 40.356L34.077 41.322C35.526 41.973 36.639 42.477 36.639 44.052C36.639 45.564 35.421 46.572 33.405 46.572C31.809 46.572 30.255 45.816 29.142 44.661L27.987 45.984C29.331 47.391 31.2 48.273 33.384 48.273ZM41.6303 48H43.5833V40.734H50.7653V48H52.6973V32.607H50.7653V39.054H43.5833V32.607H41.6303V48ZM62.5996 48.273C66.4636 48.273 69.1726 45.186 69.1726 40.251C69.1726 35.316 66.4636 32.313 62.5996 32.313C58.7356 32.313 56.0266 35.316 56.0266 40.251C56.0266 45.186 58.7356 48.273 62.5996 48.273ZM62.5996 46.572C59.8276 46.572 58.0216 44.094 58.0216 40.251C58.0216 36.387 59.8276 34.014 62.5996 34.014C65.3506 34.014 67.1776 36.387 67.1776 40.251C67.1776 44.094 65.3506 46.572 62.5996 46.572ZM72.4945 48H74.4475V41.889H76.9885C80.3485 41.889 82.6585 40.377 82.6585 37.122C82.6585 33.762 80.3485 32.607 76.8835 32.607H72.4945V48ZM74.4475 40.314V34.182H76.6525C79.3615 34.182 80.7265 34.896 80.7265 37.122C80.7265 39.327 79.4455 40.314 76.7365 40.314H74.4475ZM90.4594 48H92.3074V39.915C92.3074 38.298 92.1604 36.66 92.0764 35.106H92.1604L93.8194 38.277L99.4264 48H101.421V32.607H99.5734V40.608C99.5734 42.204 99.7204 43.926 99.8254 45.48H99.7204L98.0824 42.309L92.4754 32.607H90.4594V48ZM111.306 48.273C115.17 48.273 117.879 45.186 117.879 40.251C117.879 35.316 115.17 32.313 111.306 32.313C107.442 32.313 104.733 35.316 104.733 40.251C104.733 45.186 107.442 48.273 111.306 48.273ZM111.306 46.572C108.534 46.572 106.728 44.094 106.728 40.251C106.728 36.387 108.534 34.014 111.306 34.014C114.057 34.014 115.884 36.387 115.884 40.251C115.884 44.094 114.057 46.572 111.306 46.572ZM122.758 48H125.068L127.357 38.718C127.609 37.5 127.882 36.387 128.134 35.211H128.218C128.47 36.387 128.701 37.5 128.974 38.718L131.305 48H133.636L136.828 32.607H134.959L133.342 40.986C133.048 42.624 132.754 44.283 132.46 45.963H132.355C131.998 44.283 131.641 42.624 131.263 40.986L129.1 32.607H127.336L125.215 40.986C124.837 42.645 124.459 44.304 124.102 45.963H124.018C123.724 44.304 123.409 42.645 123.115 40.986L121.498 32.607H119.482L122.758 48Z" fill="white"/>
<path d="M167.607 35.7598V35.7278C167.607 32.844 165.567 30.1846 162.49 30.1846C160.041 30.1846 158.628 31.9789 158.126 33.6771C157.655 31.9789 156.211 30.1846 153.762 30.1846C150.685 30.1846 148.645 32.844 148.645 35.7278V35.7598C148.613 36.4007 148.645 42.777 158.126 47.9998C167.607 42.809 167.639 36.4007 167.607 35.7598Z" fill="white"/>
</svg>
