<svg width="399" height="260" viewBox="0 0 399 260" fill="none" xmlns="http://www.w3.org/2000/svg">
<g filter="url(#filter0_d)">
<rect x="4" width="391" height="252" rx="8" fill="white" fill-opacity="0.5" shape-rendering="crispEdges"/>
</g>
<path d="M53.974 68.407H46.184V61.776H52.91V60.389H38.052V61.776H44.74V68.407H37.064V69.794H44.74V76.444H46.184V69.794H53.974V68.407ZM39.382 63.087C40.104 64.474 40.826 66.317 41.092 67.438L42.422 66.982C42.175 65.861 41.396 64.075 40.617 62.707L39.382 63.087ZM49.452 67.495C50.193 66.355 51.105 64.55 51.789 63.03L50.307 62.612C49.832 63.98 48.958 65.918 48.255 67.096L49.452 67.495ZM60.966 65.69H68.129V67.552H60.966V65.69ZM71.283 70.174H65.45V68.616H69.535V64.626H59.617V68.616H64.025V70.174H57.926V75.608H59.332V71.466H64.025V76.463H65.45V71.466H69.858V74.126C69.858 74.354 69.763 74.411 69.478 74.43C69.193 74.449 68.186 74.449 67.046 74.411C67.236 74.791 67.464 75.304 67.54 75.703C69.003 75.703 69.953 75.703 70.542 75.475C71.131 75.266 71.283 74.886 71.283 74.145V70.174ZM69.44 59.249C69.079 59.933 68.395 60.94 67.863 61.567L69.003 62.042C69.554 61.472 70.276 60.598 70.903 59.762L69.44 59.249ZM72.442 62.042H65.336V59.097H63.911V62.042H59.94L61.118 61.51C60.795 60.883 60.13 59.952 59.503 59.287L58.249 59.8C58.819 60.484 59.446 61.415 59.731 62.042H56.691V66.089H58.04V63.277H71.055V66.089H72.442V62.042ZM91.461 62.745C91.119 61.985 90.283 60.826 89.504 60.009L88.554 60.541C89.314 61.396 90.131 62.612 90.454 63.372L91.461 62.745ZM83.709 61.453H80.574C80.365 60.769 79.947 59.819 79.567 59.097L78.275 59.382C78.56 60.028 78.921 60.807 79.13 61.453H75.083V62.707H83.709V61.453ZM76.755 69.794C76.413 71.333 75.805 72.891 75.007 73.955C75.292 74.126 75.805 74.468 76.033 74.639C76.812 73.518 77.534 71.751 77.933 70.041L76.755 69.794ZM77.344 65.367H81.619V67.647H77.344V65.367ZM82.93 68.787V64.208H76.109V68.787H78.959V74.924C78.959 75.114 78.902 75.171 78.693 75.171C78.503 75.19 77.876 75.19 77.211 75.171C77.382 75.494 77.572 75.988 77.61 76.33C78.598 76.349 79.244 76.311 79.662 76.121C80.118 75.912 80.232 75.589 80.232 74.943V68.787H82.93ZM83.405 72.891C83.215 71.979 82.607 70.611 81.999 69.585L80.992 70.041C81.562 71.067 82.151 72.473 82.341 73.385L83.405 72.891ZM92.05 65.291V64.018H87.718C87.832 62.346 87.832 60.693 87.851 59.154H86.521C86.502 60.693 86.502 62.346 86.407 64.018H83.88V65.291H86.331C85.989 69.3 85.039 73.252 82.303 75.646C82.683 75.855 83.101 76.197 83.329 76.482C86.236 73.841 87.243 69.566 87.623 65.291H92.05ZM89.523 74.924C89.333 74.924 89.181 74.886 89.067 74.829C88.953 74.753 88.915 74.506 88.915 74.107V66.792H87.661V73.955C87.661 75.152 87.794 75.456 88.098 75.684C88.383 75.912 88.858 76.007 89.276 76.007H90.492C90.834 76.007 91.29 75.969 91.575 75.817C91.841 75.684 92.05 75.456 92.164 75.076C92.278 74.696 92.354 73.689 92.373 72.834C92.012 72.739 91.537 72.511 91.271 72.264C91.252 73.233 91.233 73.974 91.176 74.316C91.138 74.601 91.043 74.772 90.891 74.829C90.796 74.905 90.568 74.924 90.34 74.924H89.523ZM107.364 62.498H97.541V60.959H107.364V62.498ZM107.364 65.063H97.541V63.524H107.364V65.063ZM108.77 59.876H96.154V66.146H108.77V59.876ZM103.355 72.055H109.625V70.801H103.355V68.692H110.86V67.419H94.178V68.692H101.968V74.411C100.334 73.974 99.118 73.1 98.377 71.39C98.567 70.782 98.738 70.155 98.871 69.49L97.446 69.3C96.933 72.074 95.736 74.202 93.76 75.475C94.064 75.703 94.615 76.235 94.805 76.482C96.04 75.57 97.028 74.392 97.769 72.91C99.308 75.475 101.721 76.083 105.54 76.083H110.708C110.784 75.665 111.012 75.057 111.202 74.734C110.233 74.753 106.3 74.753 105.597 74.753C104.799 74.753 104.039 74.715 103.355 74.639V72.055ZM117.016 62.422H118.403V61.358H121.101V60.218H118.403V59.097H117.016V60.218H113.216V61.358H117.016V62.422ZM120.778 71.295V72.625H116.199V71.295H120.778ZM126.896 72.625H122.127V71.295H126.896V72.625ZM122.127 74.905V73.537H126.896V74.905H122.127ZM116.199 74.905V73.537H120.778V74.905H116.199ZM114.907 76.444H116.199V75.893H126.896V76.444H128.264V70.307H114.907V76.444ZM115.382 69.984C116.731 69.756 118.384 69.433 120.037 69.091L119.98 68.236C118.118 68.521 116.294 68.787 114.983 68.939L115.382 69.984ZM115.705 67.039C117.016 67.305 118.707 67.799 119.6 68.179L119.98 67.362C119.087 66.982 117.396 66.526 116.104 66.298L115.705 67.039ZM128.074 69.262C126.896 68.901 124.692 68.483 123.058 68.293L122.754 69.11C124.426 69.338 126.63 69.832 127.789 70.174L128.074 69.262ZM126.82 66.241C125.794 66.602 124.027 67.153 122.811 67.419L123.286 68.103C124.483 67.894 126.212 67.495 127.39 67.039L126.82 66.241ZM122.127 63.828H128.359V62.821H114.679V63.828H120.759V64.892H113.596V68.046H114.926V65.918H120.759V69.756H122.127V65.918H128.036V68.046H129.423V64.892H122.127V63.828ZM125.889 60.218V59.097H124.502V60.218H121.88V61.358H124.502V62.422H125.889V61.358H129.898V60.218H125.889ZM137.118 61.51L137.213 62.555L141.355 62.308C142.837 64.094 145.174 65.158 147.321 65.139C148.499 65.139 148.993 64.759 149.202 63.049C148.86 62.954 148.442 62.764 148.157 62.536C148.081 63.619 147.948 63.942 147.359 63.942C145.858 63.98 144.186 63.334 142.951 62.194L148.936 61.833L148.841 60.807L146.409 60.959L146.979 60.123C146.181 59.781 144.68 59.344 143.578 59.078L142.989 59.838C144.091 60.161 145.554 60.617 146.333 60.959L142.077 61.206C141.64 60.598 141.336 59.895 141.203 59.116H139.949C140.063 59.914 140.31 60.636 140.671 61.301L137.118 61.51ZM134.762 64.778H136.092V61.225C136.662 60.693 137.194 60.123 137.612 59.534L136.301 59.116C135.313 60.484 133.508 61.795 131.798 62.593C132.102 62.821 132.577 63.353 132.805 63.619C133.432 63.258 134.116 62.821 134.762 62.346V64.778ZM133.489 76.482C134.439 75.931 135.351 74.962 135.902 74.069L134.591 73.651C134.059 74.563 133.147 75.418 132.235 75.912L133.489 76.482ZM137.612 74.126C137.783 74.848 137.935 75.779 137.973 76.33L139.303 76.197C139.246 75.646 139.075 74.734 138.866 74.05L137.612 74.126ZM141.469 74.145C141.83 74.829 142.153 75.722 142.267 76.273L143.654 76.045C143.502 75.475 143.122 74.601 142.78 73.955L141.469 74.145ZM145.155 74.069C145.972 74.791 146.979 75.836 147.435 76.501L148.803 76.064C148.309 75.361 147.283 74.373 146.466 73.651L145.155 74.069ZM142.951 68.483C143.426 68.027 143.977 67.381 144.509 66.754L143.483 66.317C143.179 66.849 142.609 67.628 142.191 68.122L142.951 68.483ZM136.377 66.735C136.852 67.286 137.346 68.027 137.574 68.54L138.429 68.084C138.22 67.609 137.707 66.868 137.232 66.336L136.377 66.735ZM135.503 68.806V66.013H139.759V68.806H135.503ZM145.421 68.806H141.108V66.013H145.421V68.806ZM141.108 71.39H147.397V70.497H141.108V69.642H146.808V65.158H134.211V69.642H139.759V70.497H133.546V71.39H139.759V72.378H132.121V73.328H148.898V72.378H141.108V71.39ZM151.9 71.238C151.615 72.758 151.197 74.449 150.665 75.627C150.969 75.703 151.501 75.855 151.748 75.988C152.223 74.829 152.698 73.062 153.04 71.466L151.9 71.238ZM154.085 71.352C154.313 72.644 154.541 74.297 154.598 75.399L155.719 75.133C155.643 74.031 155.396 72.397 155.149 71.105L154.085 71.352ZM156.327 70.991C156.783 72.112 157.277 73.613 157.505 74.544L158.569 74.145C158.341 73.214 157.828 71.77 157.334 70.668L156.327 70.991ZM156.251 66.393C156.498 66.963 156.745 67.609 156.973 68.236L153.116 68.787C154.826 67.039 156.498 64.816 157.961 62.536L156.821 61.814C156.308 62.707 155.738 63.619 155.149 64.455L152.679 64.664C153.857 63.239 155.016 61.396 155.966 59.591L154.75 59.04C153.838 61.149 152.318 63.353 151.862 63.904C151.406 64.474 151.064 64.873 150.722 64.949C150.874 65.291 151.083 65.899 151.14 66.165C151.406 66.032 151.862 65.918 154.256 65.652C153.439 66.735 152.736 67.552 152.375 67.913C151.729 68.597 151.254 69.072 150.836 69.167C150.988 69.509 151.197 70.136 151.273 70.421C151.653 70.193 152.28 70.041 157.296 69.281C157.391 69.623 157.486 69.965 157.543 70.212L158.664 69.851C158.455 68.901 157.866 67.286 157.296 66.108L156.251 66.393ZM160.716 70.117C160.355 71.732 159.766 73.309 158.911 74.411C159.234 74.544 159.804 74.772 160.07 74.962C160.849 73.822 161.552 72.112 161.951 70.364L160.716 70.117ZM166.454 68.73C166.606 69.129 166.739 69.509 166.815 69.851L167.936 69.3C167.632 68.198 166.758 66.469 165.903 65.177L164.858 65.633C165.257 66.279 165.675 66.982 165.998 67.685L161.59 68.122C163.281 66.431 164.972 64.303 166.435 62.08L165.314 61.377C164.82 62.194 164.269 63.011 163.699 63.79L161.248 64.018C162.179 62.802 163.129 61.282 163.889 59.8L162.673 59.287C161.951 61.035 160.716 62.897 160.336 63.372C159.956 63.866 159.671 64.208 159.367 64.265C159.519 64.588 159.709 65.196 159.785 65.443C160.051 65.348 160.488 65.253 162.806 64.987C162.008 66.013 161.286 66.811 160.944 67.153C160.298 67.799 159.842 68.255 159.424 68.331C159.576 68.692 159.785 69.319 159.842 69.585C160.146 69.452 160.583 69.357 162.977 69.11V74.886C162.977 75.076 162.92 75.133 162.711 75.152C162.521 75.152 161.856 75.152 161.134 75.133C161.305 75.494 161.476 75.988 161.533 76.349C162.54 76.349 163.262 76.349 163.699 76.14C164.174 75.912 164.269 75.589 164.269 74.905V68.958L166.454 68.73ZM165.276 70.421C165.979 71.77 166.739 73.575 167.024 74.715L168.24 74.278C167.917 73.119 167.176 71.371 166.416 70.041L165.276 70.421ZM175.992 67.381H172.002V63.41H175.992V67.381ZM172.002 73.195V68.635H175.992V73.195H172.002ZM173.598 59.059C173.465 59.952 173.123 61.225 172.838 62.137H170.71V75.969H172.002V74.468H177.284V62.137H174.13C174.453 61.32 174.795 60.275 175.118 59.344L173.598 59.059ZM186.575 62.08H180.894C181.217 61.187 181.483 60.275 181.711 59.344L180.362 59.021C179.754 61.624 178.728 64.246 177.455 65.918C177.759 66.108 178.367 66.488 178.614 66.716C179.279 65.823 179.868 64.664 180.4 63.391H185.226C184.979 70.953 184.694 73.841 184.067 74.506C183.877 74.753 183.668 74.791 183.288 74.791C182.851 74.791 181.711 74.791 180.476 74.677C180.742 75.076 180.913 75.646 180.951 76.064C182.015 76.121 183.098 76.159 183.763 76.083C184.409 76.026 184.846 75.855 185.264 75.323C186.024 74.392 186.271 71.466 186.575 62.802V62.08ZM183.573 70.63C182.965 69.509 181.654 67.685 180.59 66.336L179.488 66.982C180.533 68.35 181.806 70.231 182.376 71.371L183.573 70.63ZM191.933 66.089V62.65H196.778V66.089H191.933ZM203.105 62.65V66.089H198.165V62.65H203.105ZM196.778 69.148L195.79 69.851C196.892 70.649 198.241 71.827 198.887 72.587L200.008 71.694C199.381 71.029 198.184 70.022 197.158 69.281H198.165V67.362H204.492V61.377H198.165V59.135H196.778V61.377H190.565V67.362H196.778V69.148ZM190.147 75.266C191.059 73.993 191.819 72.017 192.332 70.554L191.116 70.079C190.641 71.542 189.805 73.442 188.855 74.639L190.147 75.266ZM196.265 74.734C195.182 74.734 194.992 74.62 194.992 74.069V70.003H193.548V74.088C193.548 75.646 194.08 76.083 196.151 76.083H200.046C201.832 76.083 202.288 75.418 202.478 72.853C202.06 72.739 201.471 72.53 201.129 72.283C201.034 74.411 200.882 74.734 199.932 74.734H196.265ZM201.927 70.592C202.972 71.96 204.207 73.822 204.758 74.981L206.031 74.278C205.461 73.138 204.169 71.295 203.162 69.984L201.927 70.592ZM209.907 61.909H223.093V63.771H224.442V60.75H217.412C217.146 60.18 216.728 59.477 216.291 58.964L215.094 59.344C215.379 59.762 215.702 60.275 215.93 60.75H208.615V63.771H209.907V61.909ZM211.902 72.112H221.174V73.005H211.902V72.112ZM211.902 70.421H221.174V71.295H211.902V70.421ZM211.902 68.768H221.174V69.623H211.902V68.768ZM222.58 73.841V67.932H210.534V73.841H214.163C212.947 74.506 210.401 75.19 208.387 75.494C208.634 75.76 208.995 76.216 209.147 76.482C211.237 76.14 213.802 75.418 215.36 74.582L214.239 73.841H218.419L217.716 74.658C219.92 75.247 222.143 75.988 223.492 76.501L224.423 75.589C222.979 75.076 220.699 74.392 218.514 73.841H222.58ZM216.937 66.298C216.975 66.013 217.013 65.709 217.051 65.367H220.585L220.509 66.298H216.937ZM212.301 65.367H215.854C215.816 65.709 215.778 65.994 215.74 66.298H212.187L212.301 65.367ZM215.987 63.638L215.93 64.512H212.396L212.51 63.638H215.987ZM220.642 64.512H217.108L217.184 63.638H220.718L220.642 64.512ZM221.991 64.398L222.124 62.802H211.351L211.142 64.398H207.988V65.481H211.009L210.781 67.134H221.744L221.896 65.481H225.069V64.398H221.991ZM233.087 60.256C232.802 61.529 232.251 63.41 231.795 64.512L232.745 64.816C233.258 63.752 233.847 61.985 234.341 60.579L233.087 60.256ZM229.249 64.474C229.116 63.372 228.679 61.624 228.128 60.313L227.102 60.56C227.615 61.89 228.033 63.638 228.128 64.759L229.249 64.474ZM228.679 67.875C228.318 69.566 227.444 71.675 226.608 72.777C226.817 73.176 227.159 73.803 227.292 74.259C228.337 72.91 229.211 70.288 229.629 68.217L228.679 67.875ZM233.828 66.773V66.583C234.113 66.83 234.455 67.115 234.588 67.305C236.032 65.671 237.02 63.182 237.552 60.389L236.222 60.161C235.823 62.498 235.044 64.626 233.828 66.089V65.443H231.244V59.116H229.914V65.443H226.969V66.773H229.914V76.463H231.244V66.773H233.828ZM231.491 68.426C231.871 69.167 232.897 71.504 233.258 72.454L234.227 71.428C233.923 70.839 232.612 68.407 232.232 67.894L231.491 68.426ZM238.122 59.724V61.016H240.421C240.839 63.296 241.656 65.405 242.739 66.849H235.025V68.16H237.096C236.773 71.58 235.842 74.05 233.638 75.513C233.904 75.741 234.398 76.254 234.55 76.52C236.982 74.772 238.027 72.074 238.445 68.16H241.485C241.276 72.682 241.01 74.392 240.63 74.81C240.459 75.019 240.307 75.057 240.022 75.057C239.699 75.057 238.977 75.038 238.16 74.962C238.35 75.323 238.483 75.855 238.502 76.235C239.338 76.292 240.155 76.292 240.63 76.235C241.143 76.197 241.466 76.064 241.789 75.646C242.34 74.981 242.606 73.024 242.872 67.476C242.891 67.362 242.891 67.172 242.891 67.039C243.005 67.191 243.138 67.343 243.271 67.476C243.518 67.134 244.031 66.64 244.354 66.412C242.929 65.101 241.903 62.517 241.485 59.724H238.122ZM246.9 71.238C246.615 72.758 246.197 74.449 245.665 75.627C245.969 75.703 246.501 75.855 246.748 75.988C247.223 74.829 247.698 73.062 248.04 71.466L246.9 71.238ZM249.085 71.352C249.313 72.644 249.541 74.297 249.598 75.399L250.719 75.133C250.643 74.031 250.396 72.397 250.149 71.105L249.085 71.352ZM251.327 70.991C251.783 72.112 252.277 73.613 252.505 74.544L253.569 74.145C253.341 73.214 252.828 71.77 252.334 70.668L251.327 70.991ZM251.251 66.393C251.498 66.963 251.745 67.609 251.973 68.236L248.116 68.787C249.826 67.039 251.498 64.816 252.961 62.536L251.821 61.814C251.308 62.707 250.738 63.619 250.149 64.455L247.679 64.664C248.857 63.239 250.016 61.396 250.966 59.591L249.75 59.04C248.838 61.149 247.318 63.353 246.862 63.904C246.406 64.474 246.064 64.873 245.722 64.949C245.874 65.291 246.083 65.899 246.14 66.165C246.406 66.032 246.862 65.918 249.256 65.652C248.439 66.735 247.736 67.552 247.375 67.913C246.729 68.597 246.254 69.072 245.836 69.167C245.988 69.509 246.197 70.136 246.273 70.421C246.653 70.193 247.28 70.041 252.296 69.281C252.391 69.623 252.486 69.965 252.543 70.212L253.664 69.851C253.455 68.901 252.866 67.286 252.296 66.108L251.251 66.393ZM255.716 70.117C255.355 71.732 254.766 73.309 253.911 74.411C254.234 74.544 254.804 74.772 255.07 74.962C255.849 73.822 256.552 72.112 256.951 70.364L255.716 70.117ZM261.454 68.73C261.606 69.129 261.739 69.509 261.815 69.851L262.936 69.3C262.632 68.198 261.758 66.469 260.903 65.177L259.858 65.633C260.257 66.279 260.675 66.982 260.998 67.685L256.59 68.122C258.281 66.431 259.972 64.303 261.435 62.08L260.314 61.377C259.82 62.194 259.269 63.011 258.699 63.79L256.248 64.018C257.179 62.802 258.129 61.282 258.889 59.8L257.673 59.287C256.951 61.035 255.716 62.897 255.336 63.372C254.956 63.866 254.671 64.208 254.367 64.265C254.519 64.588 254.709 65.196 254.785 65.443C255.051 65.348 255.488 65.253 257.806 64.987C257.008 66.013 256.286 66.811 255.944 67.153C255.298 67.799 254.842 68.255 254.424 68.331C254.576 68.692 254.785 69.319 254.842 69.585C255.146 69.452 255.583 69.357 257.977 69.11V74.886C257.977 75.076 257.92 75.133 257.711 75.152C257.521 75.152 256.856 75.152 256.134 75.133C256.305 75.494 256.476 75.988 256.533 76.349C257.54 76.349 258.262 76.349 258.699 76.14C259.174 75.912 259.269 75.589 259.269 74.905V68.958L261.454 68.73ZM260.276 70.421C260.979 71.77 261.739 73.575 262.024 74.715L263.24 74.278C262.917 73.119 262.176 71.371 261.416 70.041L260.276 70.421ZM272.873 70.402H274.127L274.507 63.03L274.545 60.788H272.455L272.493 63.03L272.873 70.402ZM273.5 75.095C274.165 75.095 274.716 74.601 274.716 73.841C274.716 73.081 274.165 72.568 273.5 72.568C272.835 72.568 272.284 73.081 272.284 73.841C272.284 74.601 272.816 75.095 273.5 75.095ZM288.111 59.173C287.047 62.061 285.28 64.892 283.418 66.716C283.684 67.039 284.083 67.761 284.216 68.084C284.862 67.419 285.508 66.659 286.097 65.804V76.425H287.446V63.733C288.206 62.422 288.89 60.997 289.422 59.591L288.111 59.173ZM293.526 75C292.196 75 291.949 74.753 291.949 73.651V66.887L294.723 65.804V72.245H296.015V65.291L299.055 64.113C299.017 66.583 298.903 69.49 298.713 71.276L299.872 71.618C300.176 69.376 300.366 65.747 300.423 63.011L300.48 62.745L299.435 62.422L299.169 62.631L296.015 63.847V59.135H294.723V64.341L291.949 65.424V61.016H290.6V65.956L288.187 66.906L288.719 68.141L290.6 67.419V73.651C290.6 75.741 291.265 76.273 293.507 76.273H298.504C300.575 76.273 301.012 75.437 301.259 72.796C300.86 72.72 300.309 72.492 299.967 72.264C299.815 74.487 299.606 75 298.466 75H293.526ZM248.173 91.244H252.999V94.892H248.173V91.244ZM250.13 98.179C250.206 97.495 250.263 96.811 250.301 96.146H254.329V89.971H246.862V96.146H248.933C248.743 99.585 248.287 103.461 245.703 105.513C246.045 105.722 246.482 106.178 246.672 106.482C248.667 104.829 249.56 102.207 249.978 99.452H253.094C252.923 103.195 252.733 104.639 252.391 105.019C252.22 105.19 252.068 105.228 251.745 105.228C251.403 105.228 250.51 105.228 249.579 105.133C249.807 105.456 249.94 105.988 249.978 106.368C250.89 106.406 251.821 106.425 252.296 106.368C252.866 106.33 253.189 106.216 253.512 105.836C254.025 105.247 254.215 103.518 254.443 98.787C254.443 98.616 254.462 98.179 254.462 98.179H250.13ZM257.635 91.377H256.267V101.827H257.635V91.377ZM260.884 89.477V104.582C260.884 104.943 260.732 105.057 260.39 105.057C260.029 105.076 258.832 105.095 257.502 105.038C257.73 105.437 257.939 106.083 258.015 106.463C259.744 106.463 260.808 106.444 261.435 106.216C262.024 105.969 262.29 105.532 262.29 104.582V89.477H260.884ZM267.021 92.099H280.036V94.683H281.461V90.788H274.45C274.241 90.237 273.861 89.515 273.519 88.983L272.075 89.401C272.322 89.819 272.569 90.313 272.778 90.788H265.653V94.683H267.021V92.099ZM278.972 95.88C277.908 96.868 276.274 98.103 274.83 99.034C274.431 98.027 273.766 97.02 272.892 96.146C273.386 95.823 273.823 95.5 274.241 95.139H278.953V93.904H268.028V95.139H272.36C270.555 96.374 267.971 97.324 265.577 97.894C265.824 98.16 266.223 98.73 266.356 99.015C268.18 98.464 270.137 97.723 271.828 96.773C272.189 97.134 272.493 97.495 272.74 97.894C271.087 99.129 267.914 100.478 265.539 101.048C265.805 101.333 266.109 101.846 266.261 102.15C268.522 101.447 271.448 100.117 273.31 98.844C273.538 99.281 273.69 99.737 273.823 100.174C271.942 101.884 268.256 103.651 265.216 104.354C265.482 104.677 265.805 105.19 265.957 105.551C268.674 104.715 271.923 103.138 274.089 101.485C274.26 103.024 273.918 104.335 273.348 104.753C272.987 105.095 272.626 105.152 272.132 105.152C271.733 105.152 271.106 105.114 270.422 105.057C270.631 105.437 270.783 105.988 270.783 106.387C271.391 106.406 271.98 106.425 272.417 106.425C273.253 106.425 273.747 106.273 274.355 105.76C275.381 104.962 275.856 102.625 275.21 100.174C275.495 100.022 275.818 99.832 276.103 99.642C277.129 102.378 278.934 104.582 281.347 105.665C281.537 105.304 281.955 104.772 282.259 104.506C279.884 103.594 278.079 101.447 277.205 98.939C278.231 98.255 279.276 97.495 280.131 96.792L278.972 95.88ZM289.992 97.381H286.002V93.41H289.992V97.381ZM286.002 103.195V98.635H289.992V103.195H286.002ZM287.598 89.059C287.465 89.952 287.123 91.225 286.838 92.137H284.71V105.969H286.002V104.468H291.284V92.137H288.13C288.453 91.32 288.795 90.275 289.118 89.344L287.598 89.059ZM300.575 92.08H294.894C295.217 91.187 295.483 90.275 295.711 89.344L294.362 89.021C293.754 91.624 292.728 94.246 291.455 95.918C291.759 96.108 292.367 96.488 292.614 96.716C293.279 95.823 293.868 94.664 294.4 93.391H299.226C298.979 100.953 298.694 103.841 298.067 104.506C297.877 104.753 297.668 104.791 297.288 104.791C296.851 104.791 295.711 104.791 294.476 104.677C294.742 105.076 294.913 105.646 294.951 106.064C296.015 106.121 297.098 106.159 297.763 106.083C298.409 106.026 298.846 105.855 299.264 105.323C300.024 104.392 300.271 101.466 300.575 92.802V92.08ZM297.573 100.63C296.965 99.509 295.654 97.685 294.59 96.336L293.488 96.982C294.533 98.35 295.806 100.231 296.376 101.371L297.573 100.63ZM318.967 93.315H312.393C312.222 92.27 312.108 91.149 312.051 89.952H307.434V91.206H310.854C310.892 91.947 310.968 92.65 311.063 93.315H304.147V106.444H305.553V94.702H310.493C309.847 97.685 308.289 99.737 305.743 100.972C306.047 101.238 306.484 101.77 306.693 102.093C309.22 100.801 310.778 98.692 311.576 95.785C312.393 98.635 313.856 100.763 316.345 101.998C316.573 101.618 317.029 101.067 317.333 100.763C314.844 99.699 313.419 97.609 312.697 94.702H317.542V104.601C317.542 104.905 317.466 105 317.124 105.019C316.744 105.038 315.566 105.038 314.331 105C314.54 105.38 314.749 106.026 314.806 106.425C316.421 106.425 317.504 106.425 318.15 106.197C318.777 105.95 318.967 105.494 318.967 104.601V93.315ZM337.15 95.158C336.219 96.317 334.737 97.742 333.426 98.844C332.666 97.305 332.172 95.557 331.792 93.543H338.803V92.175H330.614L331.868 91.738C331.659 91.016 331.127 89.876 330.595 89.021L329.189 89.458C329.664 90.294 330.158 91.434 330.367 92.175H322.216V93.543H329.17C327.46 95.823 324.629 97.989 321.722 99.3C321.95 99.585 322.349 100.155 322.501 100.497C323.698 99.927 324.857 99.243 325.959 98.483V103.651C325.959 104.525 325.332 105.076 324.952 105.285C325.199 105.551 325.579 106.102 325.712 106.406C326.206 106.064 326.928 105.798 332.856 103.917C332.742 103.594 332.59 103.024 332.533 102.625L327.384 104.221V97.362C328.6 96.355 329.664 95.253 330.538 94.094C331.545 99.3 333.35 102.872 338.29 105.988C338.461 105.551 338.917 105.038 339.278 104.753C336.884 103.347 335.25 101.827 334.072 99.984C335.459 98.882 337.112 97.362 338.347 96.013L337.15 95.158ZM348.189 99.946C347.961 98.996 347.353 97.381 346.802 96.165L345.719 96.545C345.966 97.096 346.175 97.685 346.384 98.293L343.135 98.73C344.769 97.02 346.346 94.835 347.695 92.669L346.498 91.947C346.061 92.802 345.51 93.657 344.959 94.436L342.679 94.664C343.819 93.239 344.94 91.396 345.852 89.591L344.56 89.04C343.705 91.111 342.261 93.277 341.843 93.847C341.425 94.398 341.064 94.816 340.741 94.892C340.893 95.215 341.102 95.88 341.178 96.146C341.444 96.032 341.881 95.937 344.104 95.671C343.344 96.716 342.66 97.533 342.337 97.875C341.729 98.559 341.254 99.034 340.855 99.129C341.026 99.471 341.216 100.136 341.292 100.421C341.672 100.212 342.28 100.06 346.745 99.376C346.859 99.756 346.954 100.098 347.03 100.383L348.189 99.946ZM341.653 101.238C341.463 102.758 341.178 104.449 340.741 105.608C341.064 105.703 341.634 105.893 341.919 106.045C342.299 104.867 342.679 103.081 342.888 101.447L341.653 101.238ZM343.857 101.352C344.066 102.625 344.294 104.297 344.332 105.399L345.529 105.152C345.453 104.05 345.225 102.416 344.997 101.143L343.857 101.352ZM345.985 100.953C346.346 101.998 346.783 103.423 346.935 104.316L348.075 103.936C347.904 103.043 347.448 101.675 347.068 100.63L345.985 100.953ZM350.051 96.526V91.966C351.077 91.833 352.122 91.681 353.167 91.491C353.186 93.277 353.243 94.968 353.338 96.526H350.051ZM357.974 97.856V96.526H354.649C354.554 94.93 354.497 93.163 354.516 91.263C355.694 91.035 356.777 90.769 357.708 90.484L356.701 89.363C354.82 89.971 351.533 90.56 348.74 90.94H348.721V103.993C348.721 104.81 348.341 105.228 348.075 105.437C348.284 105.665 348.607 106.216 348.721 106.539C349.063 106.273 349.614 106.007 353.376 104.715C353.319 104.43 353.243 103.879 353.224 103.499L350.051 104.487V97.856H353.433C353.851 102.796 354.763 106.235 356.625 106.235C357.803 106.235 358.221 105.418 358.411 102.625C358.05 102.511 357.594 102.226 357.309 101.941C357.252 103.993 357.1 104.924 356.758 104.924C355.808 104.924 355.067 102.169 354.725 97.856H357.974ZM46.925 122.783H43.866V121.187H46.925V122.783ZM51.428 123.942V126.507H48.274V123.942H51.428ZM43.866 123.942H46.925V126.507H43.866V123.942ZM39.667 123.942H42.517V126.507H39.667V123.942ZM42.517 122.783H38.318V127.666H52.815V122.783H48.274V121.187H53.613V119.933H37.387V121.187H42.517V122.783ZM48.369 131.105C47.685 132.036 46.811 132.758 45.747 133.328C44.417 133.081 43.068 132.815 41.7 132.587C42.042 132.15 42.403 131.637 42.764 131.105H48.369ZM53.917 131.105V129.889H50.649C50.763 129.661 50.839 129.414 50.915 129.186L49.566 128.787C49.433 129.186 49.281 129.528 49.091 129.889H43.562C43.923 129.338 44.246 128.768 44.493 128.217L43.125 127.894C42.802 128.521 42.422 129.205 41.985 129.889H37.083V131.105H41.187C40.617 131.922 40.028 132.701 39.477 133.309C40.978 133.556 42.46 133.841 43.885 134.126C42.061 134.734 39.819 135.057 37.026 135.228C37.254 135.551 37.501 136.064 37.596 136.463C41.168 136.178 43.961 135.627 46.07 134.62C48.578 135.19 50.744 135.836 52.321 136.425L53.594 135.418C52.017 134.848 49.908 134.278 47.59 133.746C48.597 133.043 49.414 132.169 50.041 131.105H53.917ZM66.571 122.061H63.74V121.016H66.685V120.142H63.74V119.097H62.657V122.897H65.45C65.431 124.569 65.374 125.177 65.26 125.367C65.184 125.481 65.07 125.5 64.937 125.481C64.766 125.481 64.424 125.481 64.025 125.443C64.139 125.671 64.215 126.013 64.234 126.241C64.671 126.26 65.127 126.26 65.374 126.241C65.754 126.241 66.02 126.127 66.191 125.899C66.457 125.576 66.514 124.759 66.571 122.498V122.061ZM63.417 123.41C63.189 124.322 62.714 125.386 62.182 126.032L63.075 126.336C63.626 125.633 64.082 124.474 64.31 123.562L63.417 123.41ZM65.165 131.105H68.661V129.965H65.165V128.445H63.778V129.965H60.377V131.105H63.778V132.682H57.641V133.86H63.778V136.463H65.165V133.86H71.549V132.682H65.165V131.105ZM73.012 127.666V126.545H70.789C70.941 124.721 71.074 121.947 71.15 119.819H67.198V120.845H69.839C69.82 121.244 69.801 121.662 69.782 122.08H67.312V123.087H69.763L69.687 124.322H67.217V125.329H69.611C69.592 125.766 69.554 126.184 69.516 126.545H59.351L59.275 125.082H61.802V124.151H59.218L59.161 122.954H61.802V122.023H59.104L59.066 121.073C60.016 120.807 61.118 120.465 61.935 120.066L61.27 119.23C60.358 119.629 58.8 120.199 57.755 120.465L58.078 126.545H56.045V127.666H60.111C58.99 128.958 57.299 130.136 55.722 130.725C56.007 130.972 56.406 131.428 56.577 131.732C58.439 130.934 60.415 129.395 61.574 127.666H67.483C68.623 129.376 70.504 130.858 72.461 131.599C72.632 131.276 73.031 130.763 73.335 130.535C71.625 130.003 69.915 128.92 68.813 127.666H73.012ZM92.031 128.882H84.241V125.804H90.967V124.455H84.241V121.377C86.483 121.111 88.554 120.75 90.169 120.256L89.105 119.135C86.255 120.028 80.745 120.522 76.261 120.731C76.394 121.054 76.565 121.605 76.622 121.985C78.579 121.89 80.726 121.757 82.816 121.529V124.455H76.28V125.804H82.816V128.882H75.007V130.269H82.816V134.468C82.816 134.867 82.645 135 82.227 135C81.79 135.019 80.308 135.038 78.712 134.981C78.94 135.361 79.206 135.988 79.32 136.387C81.315 136.406 82.531 136.368 83.234 136.14C83.937 135.912 84.241 135.494 84.241 134.487V130.269H92.031V128.882ZM110.195 121.13C109.492 120.503 108.086 119.686 106.927 119.173L106.11 120.047C107.269 120.598 108.656 121.472 109.321 122.118L110.195 121.13ZM102.595 132.036C99.517 132.682 96.287 133.328 94.235 133.727L94.501 135.152C96.705 134.658 99.802 133.993 102.709 133.366L102.595 132.036ZM100.6 129.718H96.743V126.431H100.6V129.718ZM95.432 125.196V130.934H101.987V125.196H95.432ZM108.561 124.873C107.953 126.849 107.136 128.597 106.11 130.155C105.635 128.312 105.312 126.032 105.122 123.524H110.727V122.137H105.027C104.989 121.168 104.97 120.18 104.97 119.154H103.488C103.507 120.161 103.526 121.149 103.583 122.137H94.33V123.524H103.659C103.906 126.602 104.324 129.414 104.989 131.637C103.735 133.157 102.215 134.411 100.429 135.361C100.752 135.608 101.303 136.159 101.531 136.444C103.032 135.551 104.362 134.468 105.54 133.176C106.395 135.228 107.535 136.463 108.96 136.463C110.423 136.463 110.955 135.532 111.202 132.283C110.803 132.15 110.29 131.827 109.967 131.485C109.853 134.012 109.625 135 109.093 135C108.162 135 107.307 133.822 106.604 131.865C108.029 129.984 109.15 127.761 109.986 125.215L108.561 124.873ZM129.841 125.975V124.531H121.994C122.26 122.536 122.279 120.655 122.298 119.135H120.778C120.759 120.636 120.778 122.536 120.493 124.531H113.254V125.975H120.265C119.486 129.566 117.586 133.214 112.874 135.266C113.273 135.551 113.729 136.045 113.938 136.425C118.555 134.316 120.607 130.668 121.519 127.02C123.02 131.333 125.433 134.696 129.081 136.425C129.328 136.007 129.803 135.418 130.145 135.095C126.478 133.594 124.008 130.155 122.678 125.975H129.841ZM133.584 129.281V127.894H135.978V129.281H133.584ZM133.584 125.595H135.978V126.963H133.584V125.595ZM139.74 125.595V126.963H137.251V125.595H139.74ZM139.74 129.281H137.251V127.894H139.74V129.281ZM144.737 123.505C144.775 122.175 144.775 120.769 144.775 119.344H143.445C143.445 120.788 143.445 122.175 143.407 123.505H141.146V124.835H143.369C143.198 128.388 142.685 131.447 141.051 133.689V133.613C139.778 133.765 138.486 133.898 137.251 134.012V132.511H140.975V131.428H137.251V130.269H140.937V124.626H137.251V123.429H141.279V122.327H137.251V120.94C138.638 120.788 139.93 120.617 140.956 120.389L140.253 119.306C138.296 119.743 134.876 120.085 132.064 120.237C132.216 120.522 132.349 120.978 132.406 121.282C133.527 121.244 134.762 121.168 135.978 121.073V122.327H131.874V123.429H135.978V124.626H132.425V130.269H135.978V131.428H132.387V132.511H135.978V134.145C134.42 134.297 132.995 134.43 131.855 134.525L132.064 135.76C134.192 135.532 137.137 135.209 140.006 134.867C139.759 135.095 139.493 135.323 139.189 135.532C139.531 135.76 140.025 136.235 140.234 136.539C143.578 134.031 144.452 129.889 144.68 124.835H147.397C147.207 131.732 146.979 134.24 146.542 134.791C146.352 135.038 146.181 135.095 145.858 135.095C145.497 135.095 144.661 135.076 143.749 135C143.958 135.361 144.11 135.95 144.148 136.33C145.022 136.387 145.915 136.406 146.447 136.33C147.017 136.273 147.397 136.121 147.72 135.627C148.366 134.829 148.537 132.188 148.746 124.227C148.746 124.037 148.765 123.505 148.765 123.505H144.737ZM155.453 119.173C154.389 122.061 152.641 124.892 150.76 126.716C151.026 127.02 151.444 127.799 151.577 128.122C152.223 127.457 152.869 126.697 153.458 125.861V136.425H154.864V123.676C155.605 122.365 156.289 120.978 156.802 119.61L155.453 119.173ZM168.202 123.619V122.27H160.298C160.678 121.434 161.039 120.579 161.343 119.705L159.994 119.344C159.063 122.118 157.524 124.854 155.814 126.621C156.137 126.849 156.688 127.324 156.916 127.571C157.866 126.507 158.797 125.139 159.614 123.619H160.925V136.444H162.35V131.846H168.031V130.516H162.35V127.647H167.765V126.336H162.35V123.619H168.202ZM185.967 123.315H179.393C179.222 122.27 179.108 121.149 179.051 119.952H174.434V121.206H177.854C177.892 121.947 177.968 122.65 178.063 123.315H171.147V136.444H172.553V124.702H177.493C176.847 127.685 175.289 129.737 172.743 130.972C173.047 131.238 173.484 131.77 173.693 132.093C176.22 130.801 177.778 128.692 178.576 125.785C179.393 128.635 180.856 130.763 183.345 131.998C183.573 131.618 184.029 131.067 184.333 130.763C181.844 129.699 180.419 127.609 179.697 124.702H184.542V134.601C184.542 134.905 184.466 135 184.124 135.019C183.744 135.038 182.566 135.038 181.331 135C181.54 135.38 181.749 136.026 181.806 136.425C183.421 136.425 184.504 136.425 185.15 136.197C185.777 135.95 185.967 135.494 185.967 134.601V123.315ZM204.15 125.158C203.219 126.317 201.737 127.742 200.426 128.844C199.666 127.305 199.172 125.557 198.792 123.543H205.803V122.175H197.614L198.868 121.738C198.659 121.016 198.127 119.876 197.595 119.021L196.189 119.458C196.664 120.294 197.158 121.434 197.367 122.175H189.216V123.543H196.17C194.46 125.823 191.629 127.989 188.722 129.3C188.95 129.585 189.349 130.155 189.501 130.497C190.698 129.927 191.857 129.243 192.959 128.483V133.651C192.959 134.525 192.332 135.076 191.952 135.285C192.199 135.551 192.579 136.102 192.712 136.406C193.206 136.064 193.928 135.798 199.856 133.917C199.742 133.594 199.59 133.024 199.533 132.625L194.384 134.221V127.362C195.6 126.355 196.664 125.253 197.538 124.094C198.545 129.3 200.35 132.872 205.29 135.988C205.461 135.551 205.917 135.038 206.278 134.753C203.884 133.347 202.25 131.827 201.072 129.984C202.459 128.882 204.112 127.362 205.347 126.013L204.15 125.158ZM224.461 122.745C224.119 121.985 223.283 120.826 222.504 120.009L221.554 120.541C222.314 121.396 223.131 122.612 223.454 123.372L224.461 122.745ZM216.709 121.453H213.574C213.365 120.769 212.947 119.819 212.567 119.097L211.275 119.382C211.56 120.028 211.921 120.807 212.13 121.453H208.083V122.707H216.709V121.453ZM209.755 129.794C209.413 131.333 208.805 132.891 208.007 133.955C208.292 134.126 208.805 134.468 209.033 134.639C209.812 133.518 210.534 131.751 210.933 130.041L209.755 129.794ZM210.344 125.367H214.619V127.647H210.344V125.367ZM215.93 128.787V124.208H209.109V128.787H211.959V134.924C211.959 135.114 211.902 135.171 211.693 135.171C211.503 135.19 210.876 135.19 210.211 135.171C210.382 135.494 210.572 135.988 210.61 136.33C211.598 136.349 212.244 136.311 212.662 136.121C213.118 135.912 213.232 135.589 213.232 134.943V128.787H215.93ZM216.405 132.891C216.215 131.979 215.607 130.611 214.999 129.585L213.992 130.041C214.562 131.067 215.151 132.473 215.341 133.385L216.405 132.891ZM225.05 125.291V124.018H220.718C220.832 122.346 220.832 120.693 220.851 119.154H219.521C219.502 120.693 219.502 122.346 219.407 124.018H216.88V125.291H219.331C218.989 129.3 218.039 133.252 215.303 135.646C215.683 135.855 216.101 136.197 216.329 136.482C219.236 133.841 220.243 129.566 220.623 125.291H225.05ZM222.523 134.924C222.333 134.924 222.181 134.886 222.067 134.829C221.953 134.753 221.915 134.506 221.915 134.107V126.792H220.661V133.955C220.661 135.152 220.794 135.456 221.098 135.684C221.383 135.912 221.858 136.007 222.276 136.007H223.492C223.834 136.007 224.29 135.969 224.575 135.817C224.841 135.684 225.05 135.456 225.164 135.076C225.278 134.696 225.354 133.689 225.373 132.834C225.012 132.739 224.537 132.511 224.271 132.264C224.252 133.233 224.233 133.974 224.176 134.316C224.138 134.601 224.043 134.772 223.891 134.829C223.796 134.905 223.568 134.924 223.34 134.924H222.523ZM239.509 131.2V132.492H231.643V131.2H239.509ZM231.643 134.791V133.499H239.509V134.791H231.643ZM230.256 136.425H231.643V135.798H239.509V136.368H240.934V130.193H230.256V136.425ZM238.217 128.255C238.616 127.685 239.091 126.83 239.509 126.013L238.312 125.633C238.103 126.279 237.609 127.286 237.267 127.913L238.217 128.255ZM231.51 126.032C231.985 126.735 232.422 127.647 232.574 128.255L233.657 127.856C233.486 127.248 233.011 126.374 232.517 125.709L231.51 126.032ZM230.37 125.5H234.854V128.331H230.37V125.5ZM240.573 128.331H236.051V125.5H240.573V128.331ZM229.154 129.3H241.846V124.512H229.154V129.3ZM233.125 122.555C234.037 122.004 234.873 121.358 235.595 120.655C236.317 121.339 237.172 121.985 238.084 122.555H233.125ZM235.386 119.04C233.6 121.339 230.237 123.011 226.798 123.923C227.045 124.189 227.444 124.74 227.596 125.006C229.192 124.512 230.807 123.866 232.251 123.049V123.581H238.844V122.992C240.326 123.828 241.96 124.474 243.499 124.911C243.708 124.569 244.088 124.075 244.392 123.809C241.428 123.125 238.141 121.586 236.355 119.857C236.45 119.743 236.526 119.61 236.621 119.496L235.386 119.04ZM253.759 127.609H255.184V122.517C255.64 122.137 256.039 121.738 256.419 121.32H262.537V120.047H246.539V121.32H254.538C252.448 123.315 249.294 124.968 246.178 125.975C246.52 126.203 247.014 126.811 247.242 127.077C249.465 126.222 251.764 125.082 253.759 123.638V127.609ZM255.64 123.752C257.787 124.588 260.447 125.994 261.872 126.944L262.841 125.975C261.378 125.044 258.699 123.695 256.571 122.859L255.64 123.752ZM255.298 134.734V132.625H261.245V131.409H255.298V129.49H262.309V128.236H246.805V129.49H253.892V134.734H250.377V130.497H249.009V134.734H245.969V136.007H263.088V134.734H255.298ZM270.65 127.286C269.966 127.514 269.282 127.742 268.617 127.951V124.208H270.688V122.897H268.617V119.116H267.23V122.897H264.912V124.208H267.23V128.369C266.299 128.654 265.444 128.882 264.76 129.072L265.102 130.459L267.23 129.775V134.696C267.23 134.981 267.116 135.057 266.85 135.076C266.622 135.095 265.805 135.095 264.893 135.076C265.083 135.437 265.292 136.007 265.349 136.368C266.641 136.368 267.439 136.349 267.914 136.121C268.427 135.893 268.617 135.513 268.617 134.696V129.319C269.339 129.072 270.08 128.844 270.802 128.597L270.65 127.286ZM272.664 127.571H279.466V129.319H272.664V127.571ZM272.664 124.759H279.466V126.488H272.664V124.759ZM282.145 132.055H276.806V130.44H280.853V123.638H276.787V121.928H281.955V120.712H276.787V119.097H275.4V123.638H271.334V130.44H275.419V132.055H270.156V133.309H275.419V136.463H276.806V133.309H282.145V132.055ZM287.56 119.116H286.23V122.916H283.836V124.227H286.23V128.35C285.242 128.635 284.33 128.92 283.608 129.129L283.969 130.478C284.653 130.269 285.432 130.022 286.23 129.756V134.677C286.23 134.962 286.135 135.038 285.907 135.038C285.698 135.038 284.938 135.038 284.121 135.019C284.311 135.418 284.482 135.988 284.539 136.349C285.736 136.368 286.458 136.311 286.914 136.083C287.389 135.836 287.56 135.475 287.56 134.696V129.3L289.384 128.692L289.194 127.419L287.56 127.932V124.227H289.46V122.916H287.56V119.116ZM300.385 128.217H290.011V136.463H291.284V129.414H299.093V135.114C299.093 135.304 299.017 135.361 298.846 135.361C298.656 135.38 298.048 135.38 297.345 135.361C297.516 135.684 297.687 136.14 297.744 136.463C298.77 136.482 299.435 136.463 299.853 136.254C300.29 136.064 300.385 135.76 300.385 135.133V128.217ZM296.623 133.328H293.659V131.542H296.623V133.328ZM297.744 130.516H292.576V134.354H297.744V130.516ZM298.01 126.108H292.386V124.379H298.01V126.108ZM299.34 123.334H291.132V127.153H299.34V123.334ZM295.958 121.054C295.749 120.446 295.388 119.648 295.046 119.059L293.792 119.401C294.058 119.895 294.324 120.522 294.533 121.054H289.821V122.289H300.898V121.054H295.958ZM317.409 122.289H311.158V120.769H317.409V122.289ZM317.409 124.854H311.158V123.315H317.409V124.854ZM318.815 119.705H309.79V125.937H318.815V119.705ZM306.807 119.173C305.971 120.503 304.28 122.08 302.779 123.049C303.026 123.334 303.368 123.866 303.52 124.189C305.192 123.068 307.035 121.301 308.156 119.686L306.807 119.173ZM307.149 123.315C306.028 125.272 304.185 127.191 302.475 128.445C302.722 128.787 303.102 129.509 303.216 129.794C303.957 129.224 304.717 128.521 305.439 127.742V136.444H306.826V126.146C307.396 125.386 307.947 124.588 308.384 123.809L307.149 123.315ZM309.828 132.226C310.702 133.062 311.709 134.221 312.165 134.981L313.248 134.221C312.754 133.48 311.709 132.359 310.835 131.58L309.828 132.226ZM320.05 130.041H317.219V128.426H319.708V127.21H308.631V128.426H315.813V130.041H308.194V131.257H315.813V134.867C315.813 135.114 315.737 135.19 315.433 135.209C315.167 135.228 314.217 135.228 313.153 135.19C313.343 135.57 313.552 136.083 313.609 136.482C315.034 136.482 315.927 136.463 316.497 136.254C317.048 136.026 317.219 135.665 317.219 134.905V131.257H320.05V130.041ZM338.442 122.764C337.834 121.871 336.504 120.541 335.421 119.61L334.338 120.351C335.44 121.32 336.732 122.688 337.302 123.581L338.442 122.764ZM336.751 126.906C336.105 128.122 335.269 129.281 334.262 130.364C333.939 129.11 333.673 127.647 333.483 126.032H338.917V124.683H333.331C333.179 122.992 333.103 121.168 333.103 119.268H331.659C331.678 121.13 331.754 122.954 331.925 124.683H327.574V121.377C328.733 121.13 329.835 120.826 330.747 120.503L329.74 119.344C327.954 120.009 324.895 120.655 322.235 121.054C322.425 121.396 322.615 121.89 322.691 122.232C323.812 122.08 325.009 121.89 326.187 121.662V124.683H322.121V126.032H326.187V129.357C324.534 129.699 322.995 130.022 321.855 130.212L322.254 131.637C323.394 131.39 324.762 131.067 326.187 130.763V134.62C326.187 134.962 326.073 135.057 325.731 135.057C325.408 135.076 324.287 135.095 323.071 135.038C323.28 135.437 323.527 136.083 323.603 136.463C325.142 136.463 326.168 136.425 326.757 136.197C327.346 135.969 327.574 135.551 327.574 134.639V130.421C328.733 130.155 329.911 129.889 331.07 129.604L330.975 128.331C329.854 128.578 328.695 128.825 327.574 129.072V126.032H332.039C332.286 128.084 332.647 129.965 333.103 131.542C331.754 132.796 330.196 133.841 328.6 134.62C328.961 134.924 329.36 135.399 329.569 135.741C330.994 135 332.343 134.05 333.578 132.948C334.452 135.171 335.592 136.501 337.093 136.501C338.518 136.501 339.012 135.589 339.278 132.454C338.879 132.321 338.385 131.998 338.081 131.694C337.967 134.126 337.739 135.095 337.226 135.095C336.276 135.095 335.421 133.879 334.699 131.884C336.029 130.535 337.15 129.034 338.005 127.419L336.751 126.906ZM345.985 124.835V122.555H348.208C347.714 123.353 347.144 124.113 346.555 124.835H345.985ZM348.436 130.934H344.18V129.091H348.436V130.934ZM344.18 134.069V132.074H348.436V134.069H344.18ZM349.671 119.781C349.272 120.674 348.854 121.529 348.341 122.346V121.301H345.985V119.268H344.655V121.301H341.748V122.555H344.655V124.835H340.893V126.089H345.396C343.971 127.514 342.318 128.692 340.475 129.604C340.741 129.889 341.197 130.478 341.368 130.763C341.881 130.478 342.394 130.174 342.869 129.851V136.368H344.18V135.247H348.436V136.102H349.785V127.932H345.358C346.004 127.362 346.593 126.735 347.163 126.089H350.64V124.835H348.189C349.253 123.429 350.203 121.871 350.944 120.142L349.671 119.781ZM357.233 120.123L357.005 120.18H351.438V136.463H352.825V121.529H356.359C355.751 123.049 354.858 125.063 354.041 126.678C356.036 128.331 356.625 129.756 356.625 130.953C356.644 131.637 356.492 132.207 356.074 132.435C355.827 132.568 355.504 132.644 355.181 132.663C354.763 132.701 354.193 132.682 353.566 132.625C353.813 133.024 353.965 133.613 353.984 134.012C354.573 134.05 355.238 134.05 355.751 133.993C356.226 133.936 356.682 133.803 357.024 133.556C357.727 133.119 358.012 132.245 357.993 131.086C357.993 129.737 357.48 128.255 355.485 126.488C356.397 124.74 357.442 122.574 358.24 120.788L357.233 120.123ZM46.925 152.783H43.866V151.187H46.925V152.783ZM51.428 153.942V156.507H48.274V153.942H51.428ZM43.866 153.942H46.925V156.507H43.866V153.942ZM39.667 153.942H42.517V156.507H39.667V153.942ZM42.517 152.783H38.318V157.666H52.815V152.783H48.274V151.187H53.613V149.933H37.387V151.187H42.517V152.783ZM48.369 161.105C47.685 162.036 46.811 162.758 45.747 163.328C44.417 163.081 43.068 162.815 41.7 162.587C42.042 162.15 42.403 161.637 42.764 161.105H48.369ZM53.917 161.105V159.889H50.649C50.763 159.661 50.839 159.414 50.915 159.186L49.566 158.787C49.433 159.186 49.281 159.528 49.091 159.889H43.562C43.923 159.338 44.246 158.768 44.493 158.217L43.125 157.894C42.802 158.521 42.422 159.205 41.985 159.889H37.083V161.105H41.187C40.617 161.922 40.028 162.701 39.477 163.309C40.978 163.556 42.46 163.841 43.885 164.126C42.061 164.734 39.819 165.057 37.026 165.228C37.254 165.551 37.501 166.064 37.596 166.463C41.168 166.178 43.961 165.627 46.07 164.62C48.578 165.19 50.744 165.836 52.321 166.425L53.594 165.418C52.017 164.848 49.908 164.278 47.59 163.746C48.597 163.043 49.414 162.169 50.041 161.105H53.917ZM73.012 158.464V157.058H65.222V153.467H71.606V152.08H65.222V149.097H63.759V152.08H57.546V153.467H63.759V157.058H56.064V158.464H62.049C60.833 160.611 59.256 162.644 58.724 163.195C58.173 163.86 57.736 164.316 57.337 164.411C57.527 164.772 57.736 165.494 57.812 165.798C58.553 165.513 59.598 165.437 69.877 164.62C70.257 165.228 70.561 165.779 70.808 166.273L72.157 165.532C71.283 163.879 69.44 161.371 67.73 159.509L66.495 160.079C67.35 161.067 68.262 162.245 69.06 163.385L59.674 164.05C61.099 162.492 62.543 160.516 63.816 158.464H73.012ZM80.27 163.157C79.681 164.05 78.522 165.152 77.382 165.76C77.667 165.95 78.123 166.33 78.332 166.577C79.453 165.931 80.688 164.772 81.448 163.727L80.27 163.157ZM83.633 156.298H80.137V154.55H83.633V156.298ZM83.633 159.091H80.137V157.324H83.633V159.091ZM83.633 161.903H80.137V160.117H83.633V161.903ZM84.849 153.486H78.959V162.967H84.849V153.486ZM82.246 163.822C82.987 164.582 83.861 165.646 84.241 166.349L85.286 165.627C84.887 164.924 83.994 163.917 83.215 163.195L82.246 163.822ZM89.941 164.905C89.941 165.171 89.846 165.266 89.542 165.285C89.238 165.285 88.193 165.285 87.072 165.247C87.243 165.627 87.433 166.178 87.49 166.558C88.991 166.558 89.941 166.539 90.511 166.311C91.062 166.083 91.271 165.722 91.271 164.905V153.22H89.941V164.905ZM87.927 154.759H86.654V162.511H87.927V154.759ZM85.571 150.902C85.191 150.256 84.602 149.439 84.089 148.812L82.892 149.325C83.253 149.781 83.671 150.37 83.994 150.902H76.204V156.507C76.204 159.262 76.09 163.081 74.684 165.798C75.007 165.931 75.596 166.33 75.824 166.577C77.325 163.689 77.553 159.433 77.553 156.507V152.156H91.974V150.902H85.571ZM100.03 155.12V158.141H96.306V157.571V155.12H100.03ZM101.398 159.433V153.847H96.306V152.023C98.415 151.776 100.752 151.339 102.291 150.674L101.379 149.515C99.897 150.199 97.161 150.693 94.919 150.959V157.571C94.919 160.022 94.824 163.29 93.608 165.589C93.931 165.741 94.501 166.235 94.748 166.482C95.812 164.544 96.173 161.789 96.287 159.433H101.398ZM111.107 155.5H104.571V152.061C106.737 151.719 109.131 151.206 110.765 150.522L109.796 149.344C108.257 150.047 105.502 150.655 103.165 150.997V157.305C103.165 159.908 102.937 163.233 100.695 165.532C100.999 165.722 101.569 166.216 101.797 166.482C104.21 164.031 104.571 160.136 104.571 157.305V156.849H107.516V166.406H108.903V156.849H111.107V155.5ZM128.739 159.072H114.394V166.425H115.743V160.212H127.352V164.772C127.352 165.038 127.276 165.095 126.991 165.114C126.706 165.133 125.756 165.133 124.654 165.095C124.844 165.456 125.034 165.931 125.11 166.311C126.516 166.311 127.447 166.292 128.017 166.102C128.568 165.893 128.739 165.532 128.739 164.791V159.072ZM123.761 163.936H119.258V162.283H123.761V163.936ZM125.11 161.371H117.966V164.867H125.11V161.371ZM118.802 154.702C119.22 154.36 119.619 153.98 119.961 153.6H123.362C123.666 153.98 124.046 154.36 124.445 154.702H118.802ZM124.502 157.191H118.65V155.614H124.502V157.191ZM129.651 153.6V152.422H120.911C121.215 151.966 121.5 151.491 121.747 150.978C124.046 150.826 126.25 150.617 127.903 150.275L126.934 149.268C124.122 149.8 118.859 150.085 114.584 150.142C114.717 150.427 114.869 150.921 114.888 151.225C116.56 151.225 118.365 151.168 120.151 151.073C119.885 151.567 119.581 152.004 119.239 152.422H113.387V153.6H118.118C116.655 154.892 114.793 155.861 112.722 156.526C113.026 156.792 113.539 157.324 113.767 157.609C115.021 157.115 116.237 156.507 117.358 155.766V158.103H125.87V155.785C126.953 156.507 128.169 157.115 129.328 157.514C129.518 157.172 129.936 156.678 130.221 156.412C128.283 155.899 126.269 154.835 124.92 153.6H129.651ZM138.942 161.428C140.937 160.725 142.229 159.167 142.229 157.115C142.229 155.785 141.659 154.93 140.614 154.93C139.835 154.93 139.17 155.405 139.17 156.298C139.17 157.191 139.816 157.647 140.595 157.647C140.709 157.647 140.804 157.647 140.918 157.628C140.823 158.92 139.987 159.813 138.524 160.421L138.942 161.428ZM155.016 152.422H156.403V151.358H159.101V150.218H156.403V149.097H155.016V150.218H151.216V151.358H155.016V152.422ZM158.778 161.295V162.625H154.199V161.295H158.778ZM164.896 162.625H160.127V161.295H164.896V162.625ZM160.127 164.905V163.537H164.896V164.905H160.127ZM154.199 164.905V163.537H158.778V164.905H154.199ZM152.907 166.444H154.199V165.893H164.896V166.444H166.264V160.307H152.907V166.444ZM153.382 159.984C154.731 159.756 156.384 159.433 158.037 159.091L157.98 158.236C156.118 158.521 154.294 158.787 152.983 158.939L153.382 159.984ZM153.705 157.039C155.016 157.305 156.707 157.799 157.6 158.179L157.98 157.362C157.087 156.982 155.396 156.526 154.104 156.298L153.705 157.039ZM166.074 159.262C164.896 158.901 162.692 158.483 161.058 158.293L160.754 159.11C162.426 159.338 164.63 159.832 165.789 160.174L166.074 159.262ZM164.82 156.241C163.794 156.602 162.027 157.153 160.811 157.419L161.286 158.103C162.483 157.894 164.212 157.495 165.39 157.039L164.82 156.241ZM160.127 153.828H166.359V152.821H152.679V153.828H158.759V154.892H151.596V158.046H152.926V155.918H158.759V159.756H160.127V155.918H166.036V158.046H167.423V154.892H160.127V153.828ZM163.889 150.218V149.097H162.502V150.218H159.88V151.358H162.502V152.422H163.889V151.358H167.898V150.218H163.889ZM175.118 151.51L175.213 152.555L179.355 152.308C180.837 154.094 183.174 155.158 185.321 155.139C186.499 155.139 186.993 154.759 187.202 153.049C186.86 152.954 186.442 152.764 186.157 152.536C186.081 153.619 185.948 153.942 185.359 153.942C183.858 153.98 182.186 153.334 180.951 152.194L186.936 151.833L186.841 150.807L184.409 150.959L184.979 150.123C184.181 149.781 182.68 149.344 181.578 149.078L180.989 149.838C182.091 150.161 183.554 150.617 184.333 150.959L180.077 151.206C179.64 150.598 179.336 149.895 179.203 149.116H177.949C178.063 149.914 178.31 150.636 178.671 151.301L175.118 151.51ZM172.762 154.778H174.092V151.225C174.662 150.693 175.194 150.123 175.612 149.534L174.301 149.116C173.313 150.484 171.508 151.795 169.798 152.593C170.102 152.821 170.577 153.353 170.805 153.619C171.432 153.258 172.116 152.821 172.762 152.346V154.778ZM171.489 166.482C172.439 165.931 173.351 164.962 173.902 164.069L172.591 163.651C172.059 164.563 171.147 165.418 170.235 165.912L171.489 166.482ZM175.612 164.126C175.783 164.848 175.935 165.779 175.973 166.33L177.303 166.197C177.246 165.646 177.075 164.734 176.866 164.05L175.612 164.126ZM179.469 164.145C179.83 164.829 180.153 165.722 180.267 166.273L181.654 166.045C181.502 165.475 181.122 164.601 180.78 163.955L179.469 164.145ZM183.155 164.069C183.972 164.791 184.979 165.836 185.435 166.501L186.803 166.064C186.309 165.361 185.283 164.373 184.466 163.651L183.155 164.069ZM180.951 158.483C181.426 158.027 181.977 157.381 182.509 156.754L181.483 156.317C181.179 156.849 180.609 157.628 180.191 158.122L180.951 158.483ZM174.377 156.735C174.852 157.286 175.346 158.027 175.574 158.54L176.429 158.084C176.22 157.609 175.707 156.868 175.232 156.336L174.377 156.735ZM173.503 158.806V156.013H177.759V158.806H173.503ZM183.421 158.806H179.108V156.013H183.421V158.806ZM179.108 161.39H185.397V160.497H179.108V159.642H184.808V155.158H172.211V159.642H177.759V160.497H171.546V161.39H177.759V162.378H170.121V163.328H186.898V162.378H179.108V161.39ZM189.9 161.238C189.615 162.758 189.197 164.449 188.665 165.627C188.969 165.703 189.501 165.855 189.748 165.988C190.223 164.829 190.698 163.062 191.04 161.466L189.9 161.238ZM192.085 161.352C192.313 162.644 192.541 164.297 192.598 165.399L193.719 165.133C193.643 164.031 193.396 162.397 193.149 161.105L192.085 161.352ZM194.327 160.991C194.783 162.112 195.277 163.613 195.505 164.544L196.569 164.145C196.341 163.214 195.828 161.77 195.334 160.668L194.327 160.991ZM194.251 156.393C194.498 156.963 194.745 157.609 194.973 158.236L191.116 158.787C192.826 157.039 194.498 154.816 195.961 152.536L194.821 151.814C194.308 152.707 193.738 153.619 193.149 154.455L190.679 154.664C191.857 153.239 193.016 151.396 193.966 149.591L192.75 149.04C191.838 151.149 190.318 153.353 189.862 153.904C189.406 154.474 189.064 154.873 188.722 154.949C188.874 155.291 189.083 155.899 189.14 156.165C189.406 156.032 189.862 155.918 192.256 155.652C191.439 156.735 190.736 157.552 190.375 157.913C189.729 158.597 189.254 159.072 188.836 159.167C188.988 159.509 189.197 160.136 189.273 160.421C189.653 160.193 190.28 160.041 195.296 159.281C195.391 159.623 195.486 159.965 195.543 160.212L196.664 159.851C196.455 158.901 195.866 157.286 195.296 156.108L194.251 156.393ZM198.716 160.117C198.355 161.732 197.766 163.309 196.911 164.411C197.234 164.544 197.804 164.772 198.07 164.962C198.849 163.822 199.552 162.112 199.951 160.364L198.716 160.117ZM204.454 158.73C204.606 159.129 204.739 159.509 204.815 159.851L205.936 159.3C205.632 158.198 204.758 156.469 203.903 155.177L202.858 155.633C203.257 156.279 203.675 156.982 203.998 157.685L199.59 158.122C201.281 156.431 202.972 154.303 204.435 152.08L203.314 151.377C202.82 152.194 202.269 153.011 201.699 153.79L199.248 154.018C200.179 152.802 201.129 151.282 201.889 149.8L200.673 149.287C199.951 151.035 198.716 152.897 198.336 153.372C197.956 153.866 197.671 154.208 197.367 154.265C197.519 154.588 197.709 155.196 197.785 155.443C198.051 155.348 198.488 155.253 200.806 154.987C200.008 156.013 199.286 156.811 198.944 157.153C198.298 157.799 197.842 158.255 197.424 158.331C197.576 158.692 197.785 159.319 197.842 159.585C198.146 159.452 198.583 159.357 200.977 159.11V164.886C200.977 165.076 200.92 165.133 200.711 165.152C200.521 165.152 199.856 165.152 199.134 165.133C199.305 165.494 199.476 165.988 199.533 166.349C200.54 166.349 201.262 166.349 201.699 166.14C202.174 165.912 202.269 165.589 202.269 164.905V158.958L204.454 158.73ZM203.276 160.421C203.979 161.77 204.739 163.575 205.024 164.715L206.24 164.278C205.917 163.119 205.176 161.371 204.416 160.041L203.276 160.421ZM213.669 151.985H208.558V153.315H213.669V156.222H208.824V157.514H213.669V158.027C213.669 158.597 213.612 159.3 213.441 160.06C211.408 160.402 209.451 160.744 208.045 160.934L208.349 162.34C209.66 162.093 211.351 161.77 213.023 161.447C212.377 163.043 211.123 164.639 208.767 165.608C209.109 165.893 209.527 166.33 209.774 166.672C214.334 164.563 215.056 160.687 215.056 158.027V149.211H213.669V151.985ZM225.126 160.535H219.369V157.533H224.423V156.222H219.369V153.315H224.803V151.985H219.369V149.211H217.963V166.463H219.369V161.865H225.126V160.535ZM231.966 155.69H239.129V157.552H231.966V155.69ZM242.283 160.174H236.45V158.616H240.535V154.626H230.617V158.616H235.025V160.174H228.926V165.608H230.332V161.466H235.025V166.463H236.45V161.466H240.858V164.126C240.858 164.354 240.763 164.411 240.478 164.43C240.193 164.449 239.186 164.449 238.046 164.411C238.236 164.791 238.464 165.304 238.54 165.703C240.003 165.703 240.953 165.703 241.542 165.475C242.131 165.266 242.283 164.886 242.283 164.145V160.174ZM240.44 149.249C240.079 149.933 239.395 150.94 238.863 151.567L240.003 152.042C240.554 151.472 241.276 150.598 241.903 149.762L240.44 149.249ZM243.442 152.042H236.336V149.097H234.911V152.042H230.94L232.118 151.51C231.795 150.883 231.13 149.952 230.503 149.287L229.249 149.8C229.819 150.484 230.446 151.415 230.731 152.042H227.691V156.089H229.04V153.277H242.055V156.089H243.442V152.042ZM251.992 157.381H248.002V153.41H251.992V157.381ZM248.002 163.195V158.635H251.992V163.195H248.002ZM249.598 149.059C249.465 149.952 249.123 151.225 248.838 152.137H246.71V165.969H248.002V164.468H253.284V152.137H250.13C250.453 151.32 250.795 150.275 251.118 149.344L249.598 149.059ZM262.575 152.08H256.894C257.217 151.187 257.483 150.275 257.711 149.344L256.362 149.021C255.754 151.624 254.728 154.246 253.455 155.918C253.759 156.108 254.367 156.488 254.614 156.716C255.279 155.823 255.868 154.664 256.4 153.391H261.226C260.979 160.953 260.694 163.841 260.067 164.506C259.877 164.753 259.668 164.791 259.288 164.791C258.851 164.791 257.711 164.791 256.476 164.677C256.742 165.076 256.913 165.646 256.951 166.064C258.015 166.121 259.098 166.159 259.763 166.083C260.409 166.026 260.846 165.855 261.264 165.323C262.024 164.392 262.271 161.466 262.575 152.802V152.08ZM259.573 160.63C258.965 159.509 257.654 157.685 256.59 156.336L255.488 156.982C256.533 158.35 257.806 160.231 258.376 161.371L259.573 160.63ZM279.086 152.992C278.934 158.255 278.725 160.174 278.364 160.63C278.193 160.858 278.022 160.896 277.737 160.877C277.414 160.896 276.654 160.877 275.837 160.801C276.027 161.181 276.179 161.751 276.198 162.15C277.091 162.207 277.908 162.207 278.402 162.15C278.915 162.093 279.276 161.941 279.599 161.504C280.131 160.82 280.321 158.616 280.53 152.308V151.643H270.042C270.46 150.94 270.859 150.199 271.201 149.42L269.776 149.002C268.674 151.586 266.812 154.037 264.722 155.576C265.083 155.804 265.634 156.336 265.9 156.602C267.059 155.652 268.18 154.417 269.187 152.992H279.086ZM274.089 156.222V159.281H269.149V156.222H274.089ZM271.524 164.715C269.51 164.715 269.149 164.449 269.149 163.423V160.554H275.476V154.949H267.762V163.423C267.762 165.532 268.636 166.045 271.6 166.045H278.763C281.328 166.045 281.898 165.342 282.183 162.853C281.784 162.777 281.176 162.568 280.834 162.34C280.625 164.297 280.359 164.715 278.744 164.715H271.524ZM298.504 153.885H295.312V152.707H298.504V153.885ZM290.847 153.885V152.707H293.982V153.885H290.847ZM286.534 152.707H289.555V153.885H286.534V152.707ZM290.847 150.845H293.982V151.757H290.847V150.845ZM299.853 151.757H295.312V150.845H300.727V149.819H284.349V150.845H289.555V151.757H285.242V154.816H299.853V151.757ZM292.405 163.005H297.307C296.68 163.499 295.882 163.917 294.97 164.259C293.982 163.917 293.07 163.518 292.291 163.081L292.405 163.005ZM291.911 159.794H298.086V160.573H291.911V159.794ZM291.911 158.274H298.086V159.053H291.911V158.274ZM298.561 162.055L298.333 162.112H293.602C293.887 161.865 294.134 161.618 294.362 161.352H299.321V157.495H291.303C291.455 157.267 291.607 157.058 291.759 156.83H300.385V155.842H292.367C292.481 155.614 292.595 155.367 292.709 155.158L291.493 154.816C290.885 156.165 289.878 157.419 288.757 158.35C288.89 158.16 289.023 157.989 289.137 157.818L287.921 157.4C287.085 158.844 285.375 160.516 283.779 161.542C284.007 161.751 284.387 162.188 284.558 162.454C285.128 162.055 285.736 161.599 286.287 161.086V166.444H287.541V159.87C287.921 159.452 288.244 159.053 288.567 158.635C288.852 158.844 289.308 159.224 289.498 159.433C289.897 159.072 290.315 158.654 290.714 158.179V161.352H292.899C292.462 161.732 291.93 162.112 291.322 162.473C290.98 162.207 290.657 161.922 290.391 161.637L289.441 162.017C289.726 162.359 290.049 162.644 290.391 162.948C289.916 163.195 289.403 163.423 288.852 163.613C289.099 163.784 289.479 164.164 289.631 164.373C290.22 164.164 290.79 163.898 291.322 163.632C291.987 164.031 292.671 164.411 293.431 164.734C291.892 165.133 290.144 165.361 288.434 165.494C288.643 165.76 288.871 166.178 288.966 166.482C291.056 166.273 293.146 165.931 294.951 165.304C296.566 165.855 298.352 166.216 300.157 166.444C300.309 166.121 300.594 165.684 300.841 165.418C299.34 165.285 297.858 165.038 296.49 164.696C297.668 164.126 298.656 163.423 299.34 162.511L298.561 162.055ZM287.446 154.987C286.743 156.089 285.223 157.343 283.893 158.122C284.14 158.331 284.52 158.768 284.748 159.015C286.154 158.141 287.75 156.735 288.7 155.386L287.446 154.987ZM302.912 156.83V158.369H320.164V156.83H302.912ZM323.85 153.277H325.902V154.664H323.85V153.277ZM329.037 153.277V154.664H327.156V153.277H329.037ZM325.902 158.882H327.156V156.45C328.049 156.925 329.094 157.609 329.645 158.103L330.272 157.267C329.683 156.773 328.6 156.089 327.688 155.671L327.156 156.317V155.614H330.253V152.346H327.156V151.377H330.728V150.294H327.156V149.097H325.902V150.294H322.14V151.377H325.902V152.346H322.691V155.614H325.446C324.553 156.64 323.109 157.628 321.817 158.103C322.083 158.331 322.444 158.768 322.634 159.034C323.755 158.521 324.99 157.59 325.902 156.602V158.882ZM331.184 163.176H336.618V162.074H331.184V160.592H337.872V159.414H323.223V160.592H329.797V164.734H326.434V161.599H325.085V164.734H321.969V165.95H339.088V164.734H331.184V163.176ZM333.179 152.422L336.466 152.403C336.143 153.524 335.611 154.493 334.946 155.291C334.148 154.379 333.559 153.391 333.179 152.422ZM339.031 152.403V151.225H333.749C334.015 150.636 334.224 150.028 334.414 149.401L333.122 149.116C332.609 151.016 331.659 152.802 330.424 153.923C330.69 154.151 331.184 154.626 331.374 154.873C331.754 154.493 332.134 154.037 332.495 153.562C332.875 154.417 333.426 155.291 334.129 156.108C333.141 156.963 331.906 157.609 330.443 158.084C330.69 158.312 331.108 158.844 331.26 159.091C332.685 158.559 333.939 157.894 334.965 157.001C335.896 157.875 337.055 158.635 338.423 159.148C338.575 158.844 338.955 158.312 339.221 158.065C337.872 157.609 336.732 156.944 335.82 156.146C336.694 155.139 337.359 153.904 337.815 152.403H339.031ZM357.746 157.799V156.374H350.013C350.089 155.652 350.108 154.911 350.108 154.246V152.004H356.929V150.579H341.995V152.004H348.645V154.227C348.645 154.892 348.626 155.633 348.531 156.374H341.33V157.799H348.246C347.581 160.459 345.738 163.252 340.855 165.247C341.159 165.532 341.596 166.064 341.767 166.425C346.593 164.43 348.664 161.637 349.519 158.863C351.02 162.549 353.547 165.152 357.328 166.406C357.537 166.026 357.955 165.437 358.278 165.133C354.44 164.031 351.856 161.39 350.526 157.799H357.746ZM53.898 181.909V180.503H37.121V181.909H44.379V196.425H45.88V186.431C48.046 187.59 50.592 189.148 51.884 190.212L52.872 188.939C51.371 187.799 48.388 186.089 46.127 185.006L45.88 185.291V181.909H53.898ZM68.68 183.562C68.262 185.671 67.35 187.514 65.982 188.692C66.324 188.844 66.894 189.243 67.16 189.452C67.806 188.844 68.357 188.084 68.832 187.21C69.953 188.141 71.15 189.205 71.796 189.927L72.803 188.958C72.043 188.179 70.58 186.963 69.383 186.032C69.649 185.329 69.877 184.588 70.029 183.79L68.68 183.562ZM59.731 183.562C59.18 186.013 58.002 188.046 56.273 189.338C56.596 189.547 57.147 190.003 57.394 190.25C58.325 189.471 59.142 188.464 59.788 187.267C60.472 187.932 61.175 188.635 61.555 189.11L62.524 188.141C62.049 187.59 61.175 186.754 60.377 186.051C60.662 185.348 60.928 184.607 61.118 183.809L59.731 183.562ZM65.165 183.125H72.708V181.738H65.165V179.116H63.721V181.738H56.444V183.125H63.721V187.761C61.973 190.516 58.838 193.138 55.779 194.392C56.102 194.677 56.558 195.228 56.767 195.57C59.294 194.392 61.84 192.34 63.721 189.927V196.444H65.165V189.87C67.008 192.34 69.592 194.468 72.214 195.627C72.423 195.247 72.898 194.677 73.259 194.373C70.029 193.157 66.856 190.478 65.165 187.628V183.125ZM81.942 191.428C83.937 190.725 85.229 189.167 85.229 187.115C85.229 185.785 84.659 184.93 83.614 184.93C82.835 184.93 82.17 185.405 82.17 186.298C82.17 187.191 82.816 187.647 83.595 187.647C83.709 187.647 83.804 187.647 83.918 187.628C83.823 188.92 82.987 189.813 81.524 190.421L81.942 191.428ZM100.79 194.601C99.118 194.601 98.795 194.392 98.795 193.423V190.459C101.987 189.623 105.521 188.54 107.934 187.343L106.775 186.241C104.913 187.286 101.778 188.369 98.795 189.186V184.892H97.351V193.423C97.351 195.456 98.13 195.988 100.809 195.988H106.68C109.15 195.988 109.701 195.152 109.967 192.207C109.549 192.112 108.941 191.865 108.561 191.618C108.371 194.126 108.162 194.601 106.661 194.601H100.79ZM103.507 181.662L103.754 181.586C103.526 180.883 102.956 179.781 102.462 178.964L101.094 179.344C101.531 180.085 101.949 180.978 102.177 181.662H94.71V185.576H96.097V183.03H108.77V185.576H110.214V181.662H103.507ZM115.021 182.631H127.884V185.443H129.328V181.282H122.64C122.374 180.598 121.88 179.667 121.443 178.945L120.018 179.344C120.36 179.914 120.702 180.655 120.968 181.282H113.634V185.443H115.021V182.631ZM126.611 185.956V184.645H116.351V185.956H126.611ZM125.3 194.848C124.521 194.848 124.388 194.753 124.388 194.202V189.49H129.86V188.141H113.159V189.49H118.213C117.985 192.853 117.187 194.468 112.912 195.304C113.178 195.57 113.539 196.121 113.653 196.482C118.365 195.475 119.353 193.423 119.638 189.49H122.982V194.221C122.982 195.722 123.419 196.159 125.148 196.159H128.055C129.556 196.159 129.955 195.513 130.126 192.891C129.727 192.796 129.157 192.587 128.834 192.34C128.758 194.506 128.644 194.848 127.922 194.848H125.3ZM135.465 179.61V180.94H138.847C136.966 183.03 134.135 185.177 131.779 186.279C132.102 186.583 132.482 187.058 132.653 187.419C135.313 185.994 138.543 183.372 140.5 180.959C142.457 183.486 145.459 185.937 148.328 187.286C148.518 186.925 148.993 186.336 149.278 186.051C146.276 184.797 143.008 182.251 141.241 179.61H135.465ZM141.165 191.485H146.561V190.231H141.165V187.324H145.82V186.051H135.218V187.324H139.721V190.231H134.401V191.485H139.721V194.639H132.52V195.931H148.575V194.639H141.165V191.485ZM167.613 181.852V180.446H151.387V181.852H159.785C157.904 185.101 154.655 188.255 150.912 190.136C151.197 190.459 151.653 191.01 151.862 191.371C154.503 189.984 156.821 188.027 158.74 185.842V196.406H160.241V183.942C160.716 183.239 161.172 182.555 161.59 181.852H167.613ZM160.621 185.937C162.863 187.419 165.675 189.661 167.024 191.105L168.145 190.022C166.758 188.578 163.87 186.45 161.666 185.025L160.621 185.937ZM182.509 191.2V192.492H174.643V191.2H182.509ZM174.643 194.791V193.499H182.509V194.791H174.643ZM173.256 196.425H174.643V195.798H182.509V196.368H183.934V190.193H173.256V196.425ZM181.217 188.255C181.616 187.685 182.091 186.83 182.509 186.013L181.312 185.633C181.103 186.279 180.609 187.286 180.267 187.913L181.217 188.255ZM174.51 186.032C174.985 186.735 175.422 187.647 175.574 188.255L176.657 187.856C176.486 187.248 176.011 186.374 175.517 185.709L174.51 186.032ZM173.37 185.5H177.854V188.331H173.37V185.5ZM183.573 188.331H179.051V185.5H183.573V188.331ZM172.154 189.3H184.846V184.512H172.154V189.3ZM176.125 182.555C177.037 182.004 177.873 181.358 178.595 180.655C179.317 181.339 180.172 181.985 181.084 182.555H176.125ZM178.386 179.04C176.6 181.339 173.237 183.011 169.798 183.923C170.045 184.189 170.444 184.74 170.596 185.006C172.192 184.512 173.807 183.866 175.251 183.049V183.581H181.844V182.992C183.326 183.828 184.96 184.474 186.499 184.911C186.708 184.569 187.088 184.075 187.392 183.809C184.428 183.125 181.141 181.586 179.355 179.857C179.45 179.743 179.526 179.61 179.621 179.496L178.386 179.04ZM196.759 187.609H198.184V182.517C198.64 182.137 199.039 181.738 199.419 181.32H205.537V180.047H189.539V181.32H197.538C195.448 183.315 192.294 184.968 189.178 185.975C189.52 186.203 190.014 186.811 190.242 187.077C192.465 186.222 194.764 185.082 196.759 183.638V187.609ZM198.64 183.752C200.787 184.588 203.447 185.994 204.872 186.944L205.841 185.975C204.378 185.044 201.699 183.695 199.571 182.859L198.64 183.752ZM198.298 194.734V192.625H204.245V191.409H198.298V189.49H205.309V188.236H189.805V189.49H196.892V194.734H193.377V190.497H192.009V194.734H188.969V196.007H206.088V194.734H198.298ZM215.873 190.402H217.127L217.507 183.03L217.545 180.788H215.455L215.493 183.03L215.873 190.402ZM216.5 195.095C217.165 195.095 217.716 194.601 217.716 193.841C217.716 193.081 217.165 192.568 216.5 192.568C215.835 192.568 215.284 193.081 215.284 193.841C215.284 194.601 215.816 195.095 216.5 195.095Z" fill="#3E3E3E"/>
<path d="M306.465 59.211C305.553 62.137 304.052 65.025 302.418 66.925C302.646 67.267 303.026 68.008 303.159 68.35C303.786 67.609 304.375 66.754 304.945 65.804V76.444H306.294V63.277C306.864 62.08 307.358 60.826 307.776 59.572L306.465 59.211ZM312.013 61.32V63.049H309.372V61.32H312.013ZM309.372 65.956V64.113H312.013V65.956H309.372ZM313.134 60.199H308.061V76.406H309.372V67.058H313.134V60.199ZM315.433 65.956V64.113H318.226V65.956H315.433ZM318.226 61.32V63.049H315.433V61.32H318.226ZM319.556 60.199H314.274V67.058H318.226V74.582C318.226 74.962 318.093 75.076 317.732 75.095C317.371 75.114 316.06 75.114 314.711 75.076C314.882 75.437 315.11 76.064 315.186 76.425C316.972 76.425 318.074 76.406 318.72 76.178C319.347 75.95 319.556 75.513 319.556 74.601V60.199ZM324.021 62.099H337.036V64.683H338.461V60.788H331.45C331.241 60.237 330.861 59.515 330.519 58.983L329.075 59.401C329.322 59.819 329.569 60.313 329.778 60.788H322.653V64.683H324.021V62.099ZM335.972 65.88C334.908 66.868 333.274 68.103 331.83 69.034C331.431 68.027 330.766 67.02 329.892 66.146C330.386 65.823 330.823 65.5 331.241 65.139H335.953V63.904H325.028V65.139H329.36C327.555 66.374 324.971 67.324 322.577 67.894C322.824 68.16 323.223 68.73 323.356 69.015C325.18 68.464 327.137 67.723 328.828 66.773C329.189 67.134 329.493 67.495 329.74 67.894C328.087 69.129 324.914 70.478 322.539 71.048C322.805 71.333 323.109 71.846 323.261 72.15C325.522 71.447 328.448 70.117 330.31 68.844C330.538 69.281 330.69 69.737 330.823 70.174C328.942 71.884 325.256 73.651 322.216 74.354C322.482 74.677 322.805 75.19 322.957 75.551C325.674 74.715 328.923 73.138 331.089 71.485C331.26 73.024 330.918 74.335 330.348 74.753C329.987 75.095 329.626 75.152 329.132 75.152C328.733 75.152 328.106 75.114 327.422 75.057C327.631 75.437 327.783 75.988 327.783 76.387C328.391 76.406 328.98 76.425 329.417 76.425C330.253 76.425 330.747 76.273 331.355 75.76C332.381 74.962 332.856 72.625 332.21 70.174C332.495 70.022 332.818 69.832 333.103 69.642C334.129 72.378 335.934 74.582 338.347 75.665C338.537 75.304 338.955 74.772 339.259 74.506C336.884 73.594 335.079 71.447 334.205 68.939C335.231 68.255 336.276 67.495 337.131 66.792L335.972 65.88ZM346.992 67.381H343.002V63.41H346.992V67.381ZM343.002 73.195V68.635H346.992V73.195H343.002ZM344.598 59.059C344.465 59.952 344.123 61.225 343.838 62.137H341.71V75.969H343.002V74.468H348.284V62.137H345.13C345.453 61.32 345.795 60.275 346.118 59.344L344.598 59.059ZM357.575 62.08H351.894C352.217 61.187 352.483 60.275 352.711 59.344L351.362 59.021C350.754 61.624 349.728 64.246 348.455 65.918C348.759 66.108 349.367 66.488 349.614 66.716C350.279 65.823 350.868 64.664 351.4 63.391H356.226C355.979 70.953 355.694 73.841 355.067 74.506C354.877 74.753 354.668 74.791 354.288 74.791C353.851 74.791 352.711 74.791 351.476 74.677C351.742 75.076 351.913 75.646 351.951 76.064C353.015 76.121 354.098 76.159 354.763 76.083C355.409 76.026 355.846 75.855 356.264 75.323C357.024 74.392 357.271 71.466 357.575 62.802V62.08ZM354.573 70.63C353.965 69.509 352.654 67.685 351.59 66.336L350.488 66.982C351.533 68.35 352.806 70.231 353.376 71.371L354.573 70.63ZM52.967 93.315H46.393C46.222 92.27 46.108 91.149 46.051 89.952H41.434V91.206H44.854C44.892 91.947 44.968 92.65 45.063 93.315H38.147V106.444H39.553V94.702H44.493C43.847 97.685 42.289 99.737 39.743 100.972C40.047 101.238 40.484 101.77 40.693 102.093C43.22 100.801 44.778 98.692 45.576 95.785C46.393 98.635 47.856 100.763 50.345 101.998C50.573 101.618 51.029 101.067 51.333 100.763C48.844 99.699 47.419 97.609 46.697 94.702H51.542V104.601C51.542 104.905 51.466 105 51.124 105.019C50.744 105.038 49.566 105.038 48.331 105C48.54 105.38 48.749 106.026 48.806 106.425C50.421 106.425 51.504 106.425 52.15 106.197C52.777 105.95 52.967 105.494 52.967 104.601V93.315ZM71.15 95.158C70.219 96.317 68.737 97.742 67.426 98.844C66.666 97.305 66.172 95.557 65.792 93.543H72.803V92.175H64.614L65.868 91.738C65.659 91.016 65.127 89.876 64.595 89.021L63.189 89.458C63.664 90.294 64.158 91.434 64.367 92.175H56.216V93.543H63.17C61.46 95.823 58.629 97.989 55.722 99.3C55.95 99.585 56.349 100.155 56.501 100.497C57.698 99.927 58.857 99.243 59.959 98.483V103.651C59.959 104.525 59.332 105.076 58.952 105.285C59.199 105.551 59.579 106.102 59.712 106.406C60.206 106.064 60.928 105.798 66.856 103.917C66.742 103.594 66.59 103.024 66.533 102.625L61.384 104.221V97.362C62.6 96.355 63.664 95.253 64.538 94.094C65.545 99.3 67.35 102.872 72.29 105.988C72.461 105.551 72.917 105.038 73.278 104.753C70.884 103.347 69.25 101.827 68.072 99.984C69.459 98.882 71.112 97.362 72.347 96.013L71.15 95.158ZM88.364 92.498H78.541V90.959H88.364V92.498ZM88.364 95.063H78.541V93.524H88.364V95.063ZM89.77 89.876H77.154V96.146H89.77V89.876ZM84.355 102.055H90.625V100.801H84.355V98.692H91.86V97.419H75.178V98.692H82.968V104.411C81.334 103.974 80.118 103.1 79.377 101.39C79.567 100.782 79.738 100.155 79.871 99.49L78.446 99.3C77.933 102.074 76.736 104.202 74.76 105.475C75.064 105.703 75.615 106.235 75.805 106.482C77.04 105.57 78.028 104.392 78.769 102.91C80.308 105.475 82.721 106.083 86.54 106.083H91.708C91.784 105.665 92.012 105.057 92.202 104.734C91.233 104.753 87.3 104.753 86.597 104.753C85.799 104.753 85.039 104.715 84.355 104.639V102.055ZM110.442 92.764C109.834 91.871 108.504 90.541 107.421 89.61L106.338 90.351C107.44 91.32 108.732 92.688 109.302 93.581L110.442 92.764ZM108.751 96.906C108.105 98.122 107.269 99.281 106.262 100.364C105.939 99.11 105.673 97.647 105.483 96.032H110.917V94.683H105.331C105.179 92.992 105.103 91.168 105.103 89.268H103.659C103.678 91.13 103.754 92.954 103.925 94.683H99.574V91.377C100.733 91.13 101.835 90.826 102.747 90.503L101.74 89.344C99.954 90.009 96.895 90.655 94.235 91.054C94.425 91.396 94.615 91.89 94.691 92.232C95.812 92.08 97.009 91.89 98.187 91.662V94.683H94.121V96.032H98.187V99.357C96.534 99.699 94.995 100.022 93.855 100.212L94.254 101.637C95.394 101.39 96.762 101.067 98.187 100.763V104.62C98.187 104.962 98.073 105.057 97.731 105.057C97.408 105.076 96.287 105.095 95.071 105.038C95.28 105.437 95.527 106.083 95.603 106.463C97.142 106.463 98.168 106.425 98.757 106.197C99.346 105.969 99.574 105.551 99.574 104.639V100.421C100.733 100.155 101.911 99.889 103.07 99.604L102.975 98.331C101.854 98.578 100.695 98.825 99.574 99.072V96.032H104.039C104.286 98.084 104.647 99.965 105.103 101.542C103.754 102.796 102.196 103.841 100.6 104.62C100.961 104.924 101.36 105.399 101.569 105.741C102.994 105 104.343 104.05 105.578 102.948C106.452 105.171 107.592 106.501 109.093 106.501C110.518 106.501 111.012 105.589 111.278 102.454C110.879 102.321 110.385 101.998 110.081 101.694C109.967 104.126 109.739 105.095 109.226 105.095C108.276 105.095 107.421 103.879 106.699 101.884C108.029 100.535 109.15 99.034 110.005 97.419L108.751 96.906ZM114.945 92.232H119.011C118.593 93.904 117.434 94.645 113.786 95.025C114.033 95.272 114.337 95.804 114.451 96.108C118.574 95.595 119.923 94.493 120.398 92.232H122.393V93.847C122.393 95.044 122.697 95.595 124.065 95.595H127.2C127.751 95.595 128.397 95.576 128.701 95.481C128.644 95.139 128.606 94.759 128.568 94.379C128.264 94.455 127.523 94.474 127.124 94.474H124.312C123.856 94.474 123.78 94.322 123.78 93.847V92.232H128.074V94.018H129.499V91.016H122.64C122.469 90.427 122.184 89.61 121.899 89.002L120.474 89.344C120.702 89.838 120.93 90.484 121.082 91.016H113.558V94.037H114.945V92.232ZM123.913 97.571V100.041H116.864C117.092 99.262 117.32 98.369 117.51 97.571H123.913ZM129.575 100.041H125.3V97.571H128.986V96.431H114.546V97.571H116.085C115.819 98.806 115.458 100.288 115.154 101.276H121.975C119.657 102.758 116.142 103.936 113.007 104.506C113.292 104.772 113.672 105.304 113.862 105.665C117.377 104.924 121.424 103.309 123.799 101.276H123.913V104.772C123.913 105.038 123.837 105.095 123.514 105.114C123.229 105.152 122.184 105.152 121.044 105.114C121.253 105.494 121.462 106.026 121.538 106.406C123.001 106.425 123.951 106.406 124.54 106.178C125.11 105.969 125.3 105.608 125.3 104.791V101.276H129.575V100.041ZM140.272 90.883H145.497V92.422H142.115V95.595H140.272V90.883ZM143.217 95.595V93.41H145.497V95.595H143.217ZM138.828 96.716H146.998V102.397C146.998 102.587 146.922 102.663 146.694 102.682C146.504 102.682 145.782 102.682 145.003 102.663C145.155 102.986 145.326 103.461 145.383 103.803C146.504 103.803 147.245 103.803 147.682 103.594C148.176 103.385 148.29 103.062 148.29 102.397V95.595H146.789V89.781H139.018V95.595H137.574V103.803H138.828V96.716ZM144.262 100.953H141.526V98.939H144.262V100.953ZM145.364 97.951H140.443V102.701H141.526V101.941H145.364V97.951ZM135.978 92.042C135.484 91.263 134.534 90.047 133.717 89.116L132.634 89.705C133.413 90.655 134.401 91.985 134.857 92.783L135.978 92.042ZM135.959 98.122L135.712 98.16H133.736C134.781 96.887 136.168 94.93 136.947 93.809L136.016 93.391L135.788 93.486H131.95V94.645H134.933C134.135 95.804 133.033 97.305 132.596 97.761C132.292 98.103 131.988 98.217 131.703 98.293C131.855 98.597 132.14 99.243 132.235 99.585C132.368 99.433 132.862 99.319 133.337 99.319H135.18C134.591 102.245 133.356 104.335 131.646 105.513C131.931 105.703 132.406 106.197 132.577 106.482C133.489 105.798 134.325 104.848 134.971 103.613C136.453 105.76 138.847 106.14 142.704 106.14C144.775 106.14 147.15 106.102 148.936 105.988C148.993 105.608 149.183 104.981 149.392 104.677C147.473 104.848 144.718 104.924 142.723 104.924C139.132 104.924 136.719 104.62 135.503 102.492C135.978 101.333 136.339 99.946 136.586 98.388L135.959 98.122ZM154.579 90.902H164.421V95.614H165.827V89.838H153.23V95.614H154.579V90.902ZM163.585 92.042H155.415V92.992H163.585V92.042ZM155.415 95.101H163.547V94.151H155.415V95.101ZM157.448 98.787H154.028V97.552H157.448V98.787ZM154.028 102.169H157.448V103.366C156.27 103.499 155.111 103.613 154.028 103.727V102.169ZM157.448 101.105H154.028V99.832H157.448V101.105ZM167.784 97.552V96.374H151.14V97.552H152.717V103.841C152.052 103.917 151.444 103.974 150.912 104.012L151.064 105.247C152.793 105.057 155.111 104.772 157.448 104.506V106.444H158.816V97.552H167.784ZM165.447 99.851C164.953 100.934 164.231 101.884 163.395 102.701C162.578 101.884 161.913 100.915 161.476 99.851H165.447ZM166.302 98.692L166.055 98.73H159.329V99.851H161.115L160.298 100.098C160.811 101.39 161.533 102.53 162.445 103.499C161.343 104.316 160.108 104.924 158.854 105.304C159.12 105.551 159.462 106.083 159.633 106.387C160.963 105.931 162.255 105.266 163.395 104.392C164.497 105.304 165.808 105.988 167.309 106.425C167.48 106.102 167.86 105.589 168.145 105.323C166.701 104.962 165.428 104.354 164.364 103.537C165.58 102.359 166.568 100.858 167.157 99.034L166.302 98.692ZM175.346 94.512C175.308 96.355 175.061 98.559 174.016 100.725C173.294 100.098 172.534 99.509 171.812 98.958C172.135 97.723 172.496 96.203 172.8 94.664L175.346 94.512ZM177.778 94.36L177.797 93.068L176.695 93.125V91.814H175.365V93.201L173.047 93.334C173.294 91.928 173.522 90.503 173.674 89.23L172.287 89.154C172.154 90.446 171.945 91.947 171.679 93.391C170.976 93.41 170.33 93.448 169.779 93.467L169.931 94.816L171.432 94.74C171.052 96.507 170.653 98.198 170.273 99.433C171.242 100.174 172.325 101.048 173.332 101.941C172.534 103.195 171.413 104.43 169.855 105.532C170.14 105.741 170.634 106.197 170.843 106.501C172.382 105.38 173.541 104.145 174.377 102.872C175.251 103.689 176.03 104.468 176.562 105.114L177.493 103.936C176.923 103.271 176.049 102.473 175.099 101.637C176.353 99.129 176.638 96.564 176.695 94.436L177.778 94.36ZM187.164 97.115H182.984V95.291C184.314 94.132 185.663 92.536 186.594 91.13L185.625 90.427L185.302 90.503H178.006V91.814H184.333C183.554 92.916 182.528 94.151 181.559 94.949V97.115H177.17V98.464H181.559V104.772C181.559 105.038 181.445 105.133 181.141 105.133C180.856 105.152 179.811 105.152 178.69 105.114C178.899 105.513 179.127 106.064 179.203 106.463C180.685 106.482 181.597 106.444 182.186 106.235C182.775 106.007 182.984 105.608 182.984 104.772V98.464H187.164V97.115ZM190.945 92.232H195.011C194.593 93.904 193.434 94.645 189.786 95.025C190.033 95.272 190.337 95.804 190.451 96.108C194.574 95.595 195.923 94.493 196.398 92.232H198.393V93.847C198.393 95.044 198.697 95.595 200.065 95.595H203.2C203.751 95.595 204.397 95.576 204.701 95.481C204.644 95.139 204.606 94.759 204.568 94.379C204.264 94.455 203.523 94.474 203.124 94.474H200.312C199.856 94.474 199.78 94.322 199.78 93.847V92.232H204.074V94.018H205.499V91.016H198.64C198.469 90.427 198.184 89.61 197.899 89.002L196.474 89.344C196.702 89.838 196.93 90.484 197.082 91.016H189.558V94.037H190.945V92.232ZM199.913 97.571V100.041H192.864C193.092 99.262 193.32 98.369 193.51 97.571H199.913ZM205.575 100.041H201.3V97.571H204.986V96.431H190.546V97.571H192.085C191.819 98.806 191.458 100.288 191.154 101.276H197.975C195.657 102.758 192.142 103.936 189.007 104.506C189.292 104.772 189.672 105.304 189.862 105.665C193.377 104.924 197.424 103.309 199.799 101.276H199.913V104.772C199.913 105.038 199.837 105.095 199.514 105.114C199.229 105.152 198.184 105.152 197.044 105.114C197.253 105.494 197.462 106.026 197.538 106.406C199.001 106.425 199.951 106.406 200.54 106.178C201.11 105.969 201.3 105.608 201.3 104.791V101.276H205.575V100.041ZM213.992 97.381H210.002V93.41H213.992V97.381ZM210.002 103.195V98.635H213.992V103.195H210.002ZM211.598 89.059C211.465 89.952 211.123 91.225 210.838 92.137H208.71V105.969H210.002V104.468H215.284V92.137H212.13C212.453 91.32 212.795 90.275 213.118 89.344L211.598 89.059ZM224.575 92.08H218.894C219.217 91.187 219.483 90.275 219.711 89.344L218.362 89.021C217.754 91.624 216.728 94.246 215.455 95.918C215.759 96.108 216.367 96.488 216.614 96.716C217.279 95.823 217.868 94.664 218.4 93.391H223.226C222.979 100.953 222.694 103.841 222.067 104.506C221.877 104.753 221.668 104.791 221.288 104.791C220.851 104.791 219.711 104.791 218.476 104.677C218.742 105.076 218.913 105.646 218.951 106.064C220.015 106.121 221.098 106.159 221.763 106.083C222.409 106.026 222.846 105.855 223.264 105.323C224.024 104.392 224.271 101.466 224.575 92.802V92.08ZM221.573 100.63C220.965 99.509 219.654 97.685 218.59 96.336L217.488 96.982C218.533 98.35 219.806 100.231 220.376 101.371L221.573 100.63ZM234.873 100.402H236.127L236.507 93.03L236.545 90.788H234.455L234.493 93.03L234.873 100.402ZM235.5 105.095C236.165 105.095 236.716 104.601 236.716 103.841C236.716 103.081 236.165 102.568 235.5 102.568C234.835 102.568 234.284 103.081 234.284 103.841C234.284 104.601 234.816 105.095 235.5 105.095Z" fill="#309AB0"/>
<path d="M46.832 37.299C49.017 37.299 50.742 36.425 52.099 34.861L50.673 33.182C49.661 34.286 48.488 34.976 46.924 34.976C43.934 34.976 42.048 32.515 42.048 28.49C42.048 24.511 44.072 22.073 46.993 22.073C48.373 22.073 49.431 22.694 50.305 23.591L51.754 21.889C50.719 20.762 49.063 19.75 46.947 19.75C42.669 19.75 39.311 23.062 39.311 28.582C39.311 34.125 42.577 37.299 46.832 37.299ZM72.1802 28.651V32.469H66.9132V28.651H72.1802ZM74.1582 34.263V26.857H64.9352V35.873H66.9132V34.263H74.1582ZM75.3082 22.924H63.8082V24.741H75.3082V22.924ZM79.0572 18.83H60.0592V38.863H62.1292V20.854H76.9642V36.241C76.9642 36.632 76.8262 36.77 76.4352 36.793C76.0442 36.793 74.7102 36.816 73.3992 36.747C73.6982 37.299 74.0432 38.265 74.1352 38.84C76.0672 38.863 77.2632 38.794 78.0222 38.449C78.7812 38.104 79.0572 37.46 79.0572 36.241V18.83ZM95.1802 20.67C94.8122 20.348 94.3292 20.003 93.7772 19.658C94.2372 19.221 94.6282 18.761 94.9732 18.301L93.5242 17.91C93.2712 18.232 92.9492 18.6 92.5582 18.922C92.0522 18.623 91.5002 18.347 91.0172 18.117L89.9822 19.014C90.4652 19.221 90.9712 19.497 91.4312 19.773C90.8562 20.187 90.1892 20.555 89.5452 20.831C89.9132 21.061 90.4652 21.59 90.7182 21.82C91.3622 21.498 92.0522 21.038 92.6962 20.555C93.2712 20.923 93.7772 21.291 94.1222 21.636L95.1802 20.67ZM86.4632 24.81H89.3612C89.6832 25.04 90.2122 25.569 90.4422 25.868H86.5092L86.4632 24.81ZM84.7842 27.478H100.263V30.261H102.379V25.868H100.631C100.815 23.798 101.022 20.854 101.137 18.531H95.6632V19.934H99.0442L98.9982 20.969H95.7782V22.349H98.9062L98.8142 23.407H95.6632V24.81H98.7222C98.6762 25.178 98.6302 25.523 98.6072 25.868H90.5802C91.2472 25.477 91.9832 25.04 92.6502 24.511C93.2942 24.948 93.8232 25.362 94.1912 25.73L95.2722 24.741C94.8812 24.373 94.3752 23.982 93.7542 23.568C94.2372 23.108 94.6512 22.648 95.0192 22.165L93.5702 21.705C93.2942 22.096 92.9492 22.464 92.5352 22.832C92.0062 22.51 91.4312 22.211 90.9252 21.958L89.8902 22.855C90.3732 23.085 90.9022 23.384 91.3852 23.683C90.7872 24.097 90.0972 24.465 89.4532 24.764V23.407H86.3482L86.2792 22.349H89.3612V20.969H86.2102L86.1412 20.049C87.2912 19.842 88.5332 19.52 89.5222 19.152L88.6022 17.887C87.4062 18.255 85.4282 18.83 84.0942 19.06L84.5082 25.868H82.7602V30.261H84.7842V27.478ZM102.77 32.722H93.8232V32.538C95.5712 31.779 97.3652 30.79 98.6992 29.755L97.4802 28.651L97.0202 28.766H86.6012V30.33H94.8352C93.8692 30.928 92.7422 31.48 91.7302 31.894V32.722H82.3002V34.47H91.7302V36.609C91.7302 36.908 91.6152 37 91.2472 37C90.9022 37 89.5682 37 88.3032 36.954C88.5792 37.46 88.8782 38.219 88.9932 38.771C90.7872 38.771 91.9602 38.771 92.7882 38.472C93.5932 38.196 93.8232 37.69 93.8232 36.678V34.47H102.77V32.722Z" fill="#EEB74D"/>
<defs>
<filter id="filter0_d" x="0" y="0" width="399" height="260" filterUnits="userSpaceOnUse" color-interpolation-filters="sRGB">
<feFlood flood-opacity="0" result="BackgroundImageFix"/>
<feColorMatrix in="SourceAlpha" type="matrix" values="0 0 0 0 0 0 0 0 0 0 0 0 0 0 0 0 0 0 127 0" result="hardAlpha"/>
<feOffset dy="4"/>
<feGaussianBlur stdDeviation="2"/>
<feComposite in2="hardAlpha" operator="out"/>
<feColorMatrix type="matrix" values="0 0 0 0 0 0 0 0 0 0 0 0 0 0 0 0 0 0 0.25 0"/>
<feBlend mode="normal" in2="BackgroundImageFix" result="effect1_dropShadow"/>
<feBlend mode="normal" in="SourceGraphic" in2="effect1_dropShadow" result="shape"/>
</filter>
</defs>
</svg>
