<svg width="615" height="221" viewBox="0 0 615 221" fill="none" xmlns="http://www.w3.org/2000/svg">
<g clip-path="url(#clip0)">
<path d="M129.283 51.8129C123.123 39.3014 112.281 33.4241 119.268 41.147C126.181 48.6838 144.596 106.728 115.637 125.75C86.8758 144.748 89.3725 91.7208 85.9561 94.6835C82.989 97.1998 59.2192 125.73 52.0204 134.435C54.6343 122.005 60.1129 96.7227 67.4917 76.2811C70.0418 69.5211 74.3667 67.8123 76.4361 62.4787C79.6239 53.1012 78.3614 45.6434 78.0691 44.8987C77.2967 41.8707 72.1572 43.0949 72.1572 43.0949C71.3841 43.7767 62.3544 66.3759 62.3544 66.3759C62.3544 66.3759 49.9945 79.4311 13.9575 75.1221C13.9575 75.1221 3.67914 73.8608 13.3929 77.9257C24.7882 82.5627 38.253 81.8661 59.9082 76.0518L58.5812 77.9739C50.1039 106.752 41.6659 147.827 41.6659 147.827C42.3344 147.939 42.8776 148.262 43.2745 148.213C43.6192 148.56 44.0161 148.511 45.0085 148.388C46.3978 148.215 47.0978 147.347 47.7979 146.479C57.4931 138.831 83.5922 110.402 83.5922 110.402C83.5922 110.402 79.6884 148.179 116.241 131.533C152.721 114.7 135.172 64.1629 129.283 51.8129Z" fill="#FFD77F" fill-opacity="0.3"/>
<path d="M194.443 97.8015C195.038 97.7275 198.121 92.8538 197.139 91.4138C196.283 89.7629 188.992 86.5685 184.574 87.508C180.082 88.2613 168.643 93.5874 159.071 108.444C149.573 123.487 150.909 131.131 155.849 133.641C160.591 136.176 169.115 136.679 180.377 128.251C188.599 122.153 191.097 115.79 191.692 115.716C192.486 115.617 199.17 120.449 204.758 122.488C211.088 124.826 217.533 124.806 225.493 120.693C233.329 116.791 238.333 109.921 238.511 109.313C238.49 108.73 237.666 106.099 236.872 106.198C235.879 106.321 227.019 118.746 216.281 119.495C205.615 120.429 197.709 113.016 198.19 111.589C199.068 110.113 203.133 102.97 201.848 102.348C200.762 101.702 195.664 100.383 195.215 100.83C194.693 101.09 190.732 111.149 188.256 114.385C185.581 117.646 180.587 122.953 175.113 125.976C169.764 128.788 164.948 129.777 162.316 126.785C158.995 123.097 166.508 112.011 169.11 108.564C171.784 105.302 178.21 97.28 182.013 95.8313C186.014 94.358 189.189 93.9635 192.124 96.1371C193.628 97.317 194.443 97.8015 194.443 97.8015Z" fill="#FFD77F" fill-opacity="0.3"/>
<path d="M302.137 101.213C298.199 104.436 281.191 115.726 263.412 116.568C245.362 117.248 244.455 104.865 244.455 104.865C244.455 104.865 254.6 93.0612 258.551 84.5652C262.428 75.8831 263.599 71.4421 263.599 71.4421C263.599 71.4421 293.484 69.096 295.553 67.4722C297.695 66.0347 298.677 63.7649 291.26 64.4911C283.844 65.2172 266.054 67.6226 266.054 67.6226C266.054 67.6226 266.559 51.94 265.024 48.0305C263.562 44.3071 258.716 38.8564 248.289 52.0621C239.262 63.5318 237.421 71.5703 237.421 71.5703C237.421 71.5703 216.216 73.2286 215.245 73.935C214.472 74.6168 212.193 81.5384 215.097 80.9823C218.001 80.4263 236.324 76.1974 236.324 76.1974C236.324 76.1974 233.521 94.5086 233.958 99.3354C234.595 104.138 239.574 122.653 256.057 122.753C272.342 122.878 300.861 110.158 307.412 101.925C313.692 93.5297 306.076 97.9904 302.137 101.213ZM260.709 51.8858C262.589 52.4332 261.145 67.8421 261.145 67.8421L248.244 69.4448C252.822 56.1849 258.63 51.363 260.709 51.8858ZM246.373 74.7537L258.511 72.2694C258.511 72.2694 248.866 90.6496 246.338 94.283C244.081 98.0778 242.91 98.809 242.2 97.5304C239.246 91.0638 246.373 74.7537 246.373 74.7537Z" fill="#FFD77F" fill-opacity="0.3"/>
<path d="M368.803 90.3926C366.714 91.4331 355.44 108.844 331.32 108.912C319.893 108.965 316.081 104.557 312.708 101.267C312.708 101.267 329.339 90.6095 331.931 85.0158C334.45 79.2359 334.576 75.3153 330.189 71.5648C325.803 67.8143 312.86 68.2507 302.913 83.7397C292.642 99.4642 309.748 117.059 331.288 113.602C355.408 109.824 362.178 102.15 369.952 92.7881C369.952 92.7881 371.634 89.6503 368.803 90.3926ZM309.23 95.0603C307.603 86.6716 320.223 75.3412 323.764 75.8775C327.504 76.3892 327.848 80.4466 324.191 85.9775C320.607 91.6944 309.199 96.0404 309.23 95.0603Z" fill="#FFD77F" fill-opacity="0.3"/>
<path d="M367.445 91.5376C365.324 93.5583 366.138 94.0429 367.152 94.5028C368.363 94.938 369.136 94.2562 369.136 94.2562C375.488 89.7573 380.745 78.7561 382.239 77.7895C383.931 76.7982 394.303 78.8288 395.473 81.8075C400.755 95.7949 409.414 101.943 418.804 102.534C428.195 103.125 435.842 97.6837 440.502 94.1761C445.36 90.6438 448.504 87.5197 450.479 85.1266C452.527 82.9197 450.146 79.5058 446.824 83.2378C443.303 86.9944 432.646 97.4951 417.907 96.007C406.636 94.869 400.79 79.9755 400.132 78.2999C399.474 76.6244 387.056 69.3811 383.379 66.9091C379.776 64.6233 374.867 61.1329 375.744 63.3669C376.621 65.601 379.721 79.8595 368.343 90.645L367.445 91.5376Z" fill="#FFD77F" fill-opacity="0.3"/>
<path d="M390.846 136.013C393.02 129.885 394.609 125.978 394.609 125.978C401.161 114.035 390.443 115.367 390.443 115.367C389.67 116.049 378.258 142.653 378.258 142.653C378.258 142.653 362.096 157.157 325.032 165.081C325.032 165.081 317.176 172.11 326.483 170.368C335.519 168.464 358.501 160.728 375.937 152.118L374.412 154.065C367.065 169.817 345.558 218.958 345.558 218.958C351.815 221.109 358.281 217.963 360.381 215.359C361.583 213.648 378.169 169.999 387.69 144.41C395.891 137.729 413.453 125.199 427.524 122.865C443.507 120.099 434.049 143.727 419.277 150.639C413.458 153.314 410.459 156.811 396.994 161.217C390.162 163.433 390.809 166.672 396.544 165.373C410.772 161.849 433.315 156.705 440.093 162.306C452.072 172.142 431.312 195.613 413.918 201.679C389.641 210.357 384.753 203.74 380.148 199.431C375.542 195.122 374.873 198.72 377.557 201.315C379.625 203.401 398.204 223.156 427.946 205.598C434.716 201.633 445.111 193.118 450.315 182.513C468.112 146.72 420.007 156.211 420.007 156.211C420.007 156.211 447.043 142.894 445.97 129.555C444.023 99.143 407.144 123.445 390.846 136.013Z" fill="#FFD77F" fill-opacity="0.3"/>
<path d="M459.509 188.01C457.389 190.03 458.203 190.515 459.216 190.975C460.428 191.41 461.201 190.728 461.201 190.728C467.553 186.229 472.809 175.228 474.303 174.261C475.996 173.27 486.368 175.301 487.537 178.28C492.82 192.267 501.478 198.415 510.869 199.006C520.26 199.596 527.907 194.156 532.566 190.648C537.424 187.116 540.569 183.992 542.544 181.599C544.592 179.392 542.211 175.978 538.888 179.71C535.367 183.466 524.711 193.967 509.972 192.479C498.701 191.341 492.855 176.447 492.197 174.772C491.539 173.096 479.121 165.853 475.444 163.381C471.841 161.095 466.932 157.605 467.809 159.839C468.686 162.073 471.786 176.332 460.408 187.117L459.509 188.01Z" fill="#FFD77F" fill-opacity="0.3"/>
<path d="M578.017 158.057C578.612 157.983 581.694 153.11 580.713 151.669C579.857 150.019 572.566 146.824 568.147 147.764C563.656 148.517 552.216 153.843 542.645 168.7C533.147 183.742 534.482 191.386 539.423 193.896C544.165 196.431 552.688 196.934 563.95 188.506C572.173 182.408 574.67 176.045 575.266 175.971C576.06 175.873 582.744 180.704 588.332 182.744C594.662 185.081 601.107 185.062 609.067 180.949C616.902 177.046 621.907 170.177 622.085 169.569C622.064 168.986 621.239 166.355 620.446 166.453C619.453 166.577 610.593 179.002 599.854 179.75C589.189 180.685 581.283 173.271 581.764 171.845C582.642 170.369 586.706 163.226 585.422 162.604C584.335 161.958 579.238 160.639 578.789 161.085C578.267 161.345 574.306 171.405 571.829 174.641C569.155 177.902 564.16 183.208 558.686 186.232C553.337 189.044 548.522 190.033 545.89 187.04C542.569 183.353 550.082 172.266 552.683 168.819C555.358 165.558 561.784 157.536 565.587 156.087C569.588 154.614 572.763 154.219 575.698 156.393C577.202 157.573 578.017 158.057 578.017 158.057Z" fill="#FFD77F" fill-opacity="0.3"/>
</g>
<defs>
<clipPath id="clip0">
<rect width="615" height="221" fill="white"/>
</clipPath>
</defs>
</svg>
