<svg width="399" height="260" viewBox="0 0 399 260" fill="none" xmlns="http://www.w3.org/2000/svg">
<g filter="url(#filter0_d)">
<rect x="4" width="391" height="252" rx="8" fill="white" fill-opacity="0.5" shape-rendering="crispEdges"/>
</g>
<path d="M53.746 64.493V63.087H46.222V59.116H44.759V63.087H37.292V64.493H43.03C41.643 67.704 39.306 70.782 36.798 72.321C37.121 72.587 37.577 73.1 37.805 73.442C40.541 71.58 42.992 68.198 44.455 64.493H44.759V71.504H40.351V72.91H44.759V76.444H46.222V72.91H50.63V71.504H46.222V64.493H46.488C47.913 68.198 50.364 71.618 53.176 73.385C53.404 73.005 53.898 72.492 54.259 72.188C51.637 70.706 49.243 67.704 47.875 64.493H53.746ZM68.68 63.562C68.262 65.671 67.35 67.514 65.982 68.692C66.324 68.844 66.894 69.243 67.16 69.452C67.806 68.844 68.357 68.084 68.832 67.21C69.953 68.141 71.15 69.205 71.796 69.927L72.803 68.958C72.043 68.179 70.58 66.963 69.383 66.032C69.649 65.329 69.877 64.588 70.029 63.79L68.68 63.562ZM59.731 63.562C59.18 66.013 58.002 68.046 56.273 69.338C56.596 69.547 57.147 70.003 57.394 70.25C58.325 69.471 59.142 68.464 59.788 67.267C60.472 67.932 61.175 68.635 61.555 69.11L62.524 68.141C62.049 67.59 61.175 66.754 60.377 66.051C60.662 65.348 60.928 64.607 61.118 63.809L59.731 63.562ZM65.165 63.125H72.708V61.738H65.165V59.116H63.721V61.738H56.444V63.125H63.721V67.761C61.973 70.516 58.838 73.138 55.779 74.392C56.102 74.677 56.558 75.228 56.767 75.57C59.294 74.392 61.84 72.34 63.721 69.927V76.444H65.165V69.87C67.008 72.34 69.592 74.468 72.214 75.627C72.423 75.247 72.898 74.677 73.259 74.373C70.029 73.157 66.856 70.478 65.165 67.628V63.125ZM85.21 65.994C84.678 64.702 83.462 62.84 82.208 61.453L80.954 62.08C82.151 63.467 83.367 65.405 83.88 66.716L85.21 65.994ZM82.512 69.68C81.258 70.212 79.985 70.763 78.769 71.276L78.484 60.066L77.04 60.123L77.363 71.865C76.375 72.283 75.482 72.644 74.741 72.929L75.254 74.392C77.344 73.48 80.213 72.226 82.835 71.029L82.512 69.68ZM92.373 75.304C91.404 73.898 89.39 71.789 87.699 70.079C89.029 67.533 89.751 64.303 90.207 60.237L88.668 60.085C87.832 68.293 85.818 72.891 79.301 75.285C79.643 75.57 80.232 76.216 80.422 76.501C83.386 75.266 85.457 73.613 86.939 71.371C88.554 73.081 90.321 75.076 91.195 76.387L92.373 75.304ZM100.106 61.681C99.726 60.978 98.909 59.895 98.168 59.154L96.952 59.667C97.674 60.446 98.472 61.567 98.814 62.289L100.106 61.681ZM96.059 76.33C97.199 75.209 97.845 73.404 98.282 71.827L97.104 71.447C96.724 72.91 96.021 74.582 94.957 75.57L96.059 76.33ZM99.498 71.865C99.859 73.1 100.049 74.639 100.011 75.665L101.246 75.494C101.246 74.468 101.037 72.929 100.676 71.713L99.498 71.865ZM102.291 71.694C102.766 72.739 103.203 74.126 103.336 75.019L104.514 74.696C104.362 73.822 103.887 72.473 103.393 71.447L102.291 71.694ZM106.395 63.619C106.243 64.379 106.072 65.139 105.901 65.747H101.246C101.664 65.063 102.063 64.341 102.405 63.619H106.395ZM98.719 69.148C99.346 68.464 99.916 67.742 100.448 66.982H107.82C107.668 67.742 107.497 68.521 107.345 69.148H98.719ZM108.656 69.148C108.884 68.16 109.15 66.849 109.378 65.747H107.212C107.459 64.759 107.725 63.448 107.934 62.327H102.994C103.412 61.396 103.754 60.427 104.077 59.458L102.671 59.097C102.348 60.18 101.949 61.263 101.493 62.327H94.615V63.619H100.866C99.232 66.792 96.857 69.642 93.646 71.485C93.893 71.77 94.254 72.34 94.425 72.663C95.546 71.998 96.572 71.238 97.484 70.383H109.207C108.903 73.404 108.58 74.658 108.2 75.057C108.01 75.209 107.82 75.247 107.478 75.247C107.117 75.247 106.205 75.247 105.255 75.133C105.483 75.494 105.635 76.045 105.673 76.425C106.642 76.482 107.573 76.482 108.048 76.444C108.618 76.406 108.979 76.292 109.34 75.931C109.929 75.304 110.29 73.727 110.632 69.756C110.67 69.566 110.689 69.148 110.689 69.148H108.656ZM107.535 73.537C107.288 72.853 106.68 71.789 106.091 71.029L105.103 71.409C105.673 72.188 106.262 73.29 106.49 73.974L107.535 73.537ZM129.974 68.407H122.184V61.776H128.91V60.389H114.052V61.776H120.74V68.407H113.064V69.794H120.74V76.444H122.184V69.794H129.974V68.407ZM115.382 63.087C116.104 64.474 116.826 66.317 117.092 67.438L118.422 66.982C118.175 65.861 117.396 64.075 116.617 62.707L115.382 63.087ZM125.452 67.495C126.193 66.355 127.105 64.55 127.789 63.03L126.307 62.612C125.832 63.98 124.958 65.918 124.255 67.096L125.452 67.495ZM134.154 64.17C134.781 64.854 135.541 65.804 135.902 66.393L136.605 65.88V68.046C135.655 68.654 134.743 69.186 134.059 69.585C134.135 68.483 134.154 67.419 134.154 66.507V64.17ZM136.605 61.092V65.538C136.187 64.968 135.522 64.17 134.914 63.581L134.154 64.075V61.092H136.605ZM148.575 61.567H141.127C141.393 60.864 141.659 60.142 141.868 59.382L140.481 59.097C139.93 61.13 139.018 63.106 137.783 64.474V59.8H132.957V66.507C132.957 69.243 132.862 72.986 131.665 75.665C131.931 75.779 132.444 76.235 132.634 76.501C133.527 74.563 133.907 71.998 134.059 69.68L134.591 70.763C135.237 70.269 135.921 69.756 136.605 69.224V74.753C136.605 75.019 136.51 75.114 136.263 75.114C136.054 75.114 135.294 75.133 134.458 75.095C134.61 75.437 134.781 75.988 134.819 76.33C136.035 76.33 136.738 76.311 137.194 76.083C137.631 75.874 137.783 75.494 137.783 74.772V65.158C138.087 65.367 138.372 65.633 138.543 65.804C138.638 65.709 138.714 65.614 138.809 65.5V73.613H145.972V65.386H144.87V72.473H139.911V65.5H138.809C139.417 64.759 140.025 63.866 140.519 62.859H147.283C147.283 71.333 147.207 74.335 146.808 74.886C146.637 75.133 146.485 75.209 146.143 75.19C145.763 75.19 144.737 75.19 143.635 75.114C143.882 75.475 144.034 76.026 144.053 76.406C145.003 76.444 146.048 76.482 146.675 76.406C147.283 76.349 147.663 76.178 148.005 75.646C148.575 74.791 148.575 71.846 148.575 62.289V61.567ZM144.585 71.219C144.224 70.307 143.635 69.148 142.951 67.913C143.464 66.83 143.901 65.69 144.281 64.588L143.274 64.303C143.008 65.139 142.704 65.994 142.343 66.83C141.868 66.013 141.355 65.177 140.899 64.436L140.044 64.854C140.633 65.804 141.26 66.887 141.849 67.951C141.26 69.167 140.633 70.307 139.968 71.2C140.234 71.333 140.671 71.637 140.861 71.808C141.374 71.029 141.925 70.079 142.438 69.053C142.932 70.041 143.388 70.953 143.673 71.694L144.585 71.219ZM157.353 63.885C157.353 65.956 157.182 68.54 155.643 70.991C154.807 70.307 153.952 69.623 153.135 69.015C153.515 67.59 153.914 65.861 154.256 64.094L157.353 63.885ZM158.74 61.624H157.353V62.555L154.522 62.707C154.712 61.529 154.902 60.351 155.035 59.268L153.572 59.173C153.477 60.275 153.287 61.529 153.097 62.783L150.703 62.897L150.874 64.303L152.831 64.17C152.432 66.165 151.995 68.065 151.558 69.433C152.603 70.212 153.781 71.162 154.845 72.112C153.895 73.29 152.565 74.411 150.741 75.399C151.083 75.646 151.52 76.121 151.729 76.463C153.572 75.456 154.921 74.297 155.928 73.081C156.783 73.898 157.543 74.677 158.075 75.304L159.12 74.202C158.531 73.556 157.695 72.758 156.764 71.922C158.531 69.167 158.74 66.222 158.74 63.904V63.809L159.538 63.752L159.557 62.441L158.74 62.479V61.624ZM161.609 73.214V62.498H165.713V73.214H161.609ZM160.26 61.149V75.969H161.609V74.563H165.713V75.703H167.1V61.149H160.26ZM186.442 62.764C185.834 61.871 184.504 60.541 183.421 59.61L182.338 60.351C183.44 61.32 184.732 62.688 185.302 63.581L186.442 62.764ZM184.751 66.906C184.105 68.122 183.269 69.281 182.262 70.364C181.939 69.11 181.673 67.647 181.483 66.032H186.917V64.683H181.331C181.179 62.992 181.103 61.168 181.103 59.268H179.659C179.678 61.13 179.754 62.954 179.925 64.683H175.574V61.377C176.733 61.13 177.835 60.826 178.747 60.503L177.74 59.344C175.954 60.009 172.895 60.655 170.235 61.054C170.425 61.396 170.615 61.89 170.691 62.232C171.812 62.08 173.009 61.89 174.187 61.662V64.683H170.121V66.032H174.187V69.357C172.534 69.699 170.995 70.022 169.855 70.212L170.254 71.637C171.394 71.39 172.762 71.067 174.187 70.763V74.62C174.187 74.962 174.073 75.057 173.731 75.057C173.408 75.076 172.287 75.095 171.071 75.038C171.28 75.437 171.527 76.083 171.603 76.463C173.142 76.463 174.168 76.425 174.757 76.197C175.346 75.969 175.574 75.551 175.574 74.639V70.421C176.733 70.155 177.911 69.889 179.07 69.604L178.975 68.331C177.854 68.578 176.695 68.825 175.574 69.072V66.032H180.039C180.286 68.084 180.647 69.965 181.103 71.542C179.754 72.796 178.196 73.841 176.6 74.62C176.961 74.924 177.36 75.399 177.569 75.741C178.994 75 180.343 74.05 181.578 72.948C182.452 75.171 183.592 76.501 185.093 76.501C186.518 76.501 187.012 75.589 187.278 72.454C186.879 72.321 186.385 71.998 186.081 71.694C185.967 74.126 185.739 75.095 185.226 75.095C184.276 75.095 183.421 73.879 182.699 71.884C184.029 70.535 185.15 69.034 186.005 67.419L184.751 66.906ZM192.465 76.007C193.548 75.114 194.232 73.67 194.688 72.359L193.548 71.941C193.149 73.157 192.427 74.525 191.382 75.323L192.465 76.007ZM198.051 75.152C197.253 75.152 197.12 75.076 197.12 74.658V72.017H195.828V74.677C195.828 75.969 196.246 76.311 197.937 76.311H200.977C202.269 76.311 202.687 75.855 202.82 73.974C202.478 73.898 201.946 73.727 201.661 73.518C201.604 74.962 201.471 75.152 200.844 75.152H198.051ZM201.433 72.53C200.749 71.941 199.4 71.162 198.279 70.649L197.481 71.428C198.583 71.979 199.913 72.815 200.559 73.404L201.433 72.53ZM202.231 72.264C203.295 73.385 204.435 74.924 204.891 75.95L206.031 75.361C205.537 74.316 204.359 72.834 203.295 71.751L202.231 72.264ZM200.92 65.576H197.994V64.55H200.92V65.576ZM200.92 67.438H197.994V66.393H200.92V67.438ZM200.92 69.376H197.994V68.274H200.92V69.376ZM196.778 70.896H197.994V70.326H205.708V69.376H202.117V68.274H204.948V67.438H202.117V66.393H204.891V65.576H202.117V64.55H205.385V63.619H201.889L202.345 63.391C202.098 62.954 201.604 62.289 201.129 61.814L200.141 62.251C200.502 62.65 200.882 63.182 201.129 63.619H198.298C198.545 63.163 198.792 62.688 199.001 62.213L197.804 61.89C197.12 63.505 195.98 65.158 194.764 66.26C195.049 66.45 195.543 66.849 195.752 67.039C196.094 66.716 196.436 66.317 196.778 65.899V70.896ZM199.191 60.598C198.925 60.028 198.469 59.306 198.051 58.755L196.835 59.173C197.158 59.591 197.462 60.123 197.728 60.598H190.128V66.26C190.128 69.015 190.014 72.891 188.646 75.627C188.931 75.779 189.501 76.216 189.71 76.463C191.135 73.689 191.42 69.642 191.439 66.735C191.686 66.944 191.99 67.267 192.142 67.438C192.598 67.001 193.092 66.507 193.548 65.956V70.896H194.764V64.322C195.22 63.657 195.619 62.973 195.98 62.27L194.783 61.928C194.004 63.562 192.75 65.196 191.439 66.355V66.26V61.776H206.031V60.598H199.191ZM222.029 64.588C221.725 65.215 221.326 65.842 220.87 66.431L217.906 66.602C218.571 65.557 219.426 64.056 220.072 62.992H225.126V61.681H220.851L221.269 61.529C221.155 60.864 220.699 59.838 220.262 59.097L219.027 59.458C219.407 60.142 219.749 61.035 219.939 61.681H215.341V62.992H218.609C218.001 64.075 216.975 65.842 216.614 66.241C216.348 66.583 215.854 66.697 215.512 66.773C215.626 67.077 215.778 67.742 215.835 68.084C216.158 67.951 216.671 67.856 219.863 67.628C218.514 69.053 216.804 70.326 214.999 71.2C215.246 71.466 215.607 71.922 215.759 72.207C218.97 70.592 221.725 67.875 223.283 65.006L222.029 64.588ZM212.453 61.453C212.168 60.788 211.579 59.8 211.028 59.021L209.983 59.572C210.496 60.351 211.085 61.415 211.37 62.118L212.453 61.453ZM214.961 62.327H207.912V63.486H214.961V62.327ZM208.691 68.407H214.258V67.286H208.691V68.407ZM208.691 64.816V65.937H214.239V64.816H208.691ZM213.061 74.126H209.907V70.991H213.061V74.126ZM223.321 67.97C221.782 71.105 218.4 73.784 214.258 75.285V69.813H208.691V76.197H209.907V75.304H214.22L213.954 75.399C214.201 75.665 214.581 76.178 214.733 76.501C217.013 75.665 219.065 74.506 220.775 73.081C222.029 74.202 223.397 75.57 224.081 76.463L225.183 75.57C224.423 74.677 222.998 73.309 221.725 72.245C222.941 71.105 223.929 69.832 224.689 68.445L223.321 67.97ZM240.364 62.498H230.541V60.959H240.364V62.498ZM240.364 65.063H230.541V63.524H240.364V65.063ZM241.77 59.876H229.154V66.146H241.77V59.876ZM236.355 72.055H242.625V70.801H236.355V68.692H243.86V67.419H227.178V68.692H234.968V74.411C233.334 73.974 232.118 73.1 231.377 71.39C231.567 70.782 231.738 70.155 231.871 69.49L230.446 69.3C229.933 72.074 228.736 74.202 226.76 75.475C227.064 75.703 227.615 76.235 227.805 76.482C229.04 75.57 230.028 74.392 230.769 72.91C232.308 75.475 234.721 76.083 238.54 76.083H243.708C243.784 75.665 244.012 75.057 244.202 74.734C243.233 74.753 239.3 74.753 238.597 74.753C237.799 74.753 237.039 74.715 236.355 74.639V72.055ZM247.926 61.149H251.574V64.455H247.926V61.149ZM253.037 72.435C252.22 72.644 251.422 72.853 250.643 73.043V69.566H252.942V68.312H250.643V65.69H252.866V59.914H246.691V65.69H249.37V73.385L247.888 73.765V67.495H246.71V74.05L245.722 74.278L246.064 75.589C248.021 75.076 250.662 74.335 253.189 73.67L253.037 72.435ZM255.127 64.645H260.694V67.001H255.127V64.645ZM260.694 61.206V63.467H255.127V61.206H260.694ZM262.157 68.844C261.397 69.547 260.219 70.421 259.212 71.067C258.756 70.212 258.395 69.262 258.129 68.255H261.986V59.952H253.778V73.974C253.778 74.753 253.379 75.152 253.075 75.304C253.303 75.589 253.607 76.159 253.721 76.463C254.082 76.216 254.671 76.026 258.566 74.962C258.509 74.658 258.49 74.088 258.49 73.67L255.127 74.487V68.255H256.951C257.863 71.998 259.554 74.905 262.404 76.311C262.594 75.931 263.012 75.38 263.335 75.114C261.872 74.487 260.694 73.423 259.782 72.074C260.827 71.466 262.1 70.611 263.05 69.832L262.157 68.844ZM278.706 72.492H274.146V71.067H278.706V72.492ZM274.146 68.616H278.706V69.946H274.146V68.616ZM268.655 65.253V63.885H272.74V65.253H268.655ZM278.402 63.885V65.253H274.146V63.885H278.402ZM282.069 69.946H280.112V67.571H274.146V66.241H279.808V62.897H274.146V61.795H281.708V60.636H274.146V59.116H272.74V60.636H265.33V61.795H272.74V62.897H267.306V66.241H272.74V67.571H266.774V68.616H272.74V69.946H264.969V71.067H272.74V72.492H266.603V73.575H272.74V74.886C272.74 75.209 272.626 75.323 272.265 75.342C271.942 75.342 270.802 75.361 269.662 75.323C269.852 75.646 270.08 76.159 270.156 76.52C271.733 76.52 272.721 76.501 273.31 76.292C273.88 76.083 274.146 75.76 274.146 74.886V73.575H278.706V74.43H280.112V71.067H282.069V69.946ZM289.802 72.91C288.548 73.727 286.135 74.468 284.178 74.791C284.463 75.057 284.843 75.513 285.033 75.855C287.009 75.399 289.498 74.43 290.866 73.404L289.802 72.91ZM294.4 73.575C296.205 74.24 298.618 75.209 299.872 75.817L300.746 74.924C299.435 74.316 297.022 73.404 295.236 72.815L294.4 73.575ZM295.521 63.657C295.255 64.208 294.78 65.006 294.4 65.538L295.065 65.747H289.821L290.6 65.538C290.429 65.025 290.03 64.246 289.593 63.657H295.521ZM293.165 70.763V69.338H299.112V68.255H293.165V66.887H300.043V65.747H295.692C296.11 65.272 296.566 64.626 297.003 63.999L295.768 63.657H300.708V62.479H297.782C298.276 61.757 298.903 60.712 299.435 59.743L297.991 59.344C297.668 60.199 297.06 61.453 296.528 62.232L297.288 62.479H294.989V59.116H293.64V62.479H291.379V59.116H290.049V62.479H287.731L288.681 62.099C288.415 61.339 287.731 60.161 287.066 59.306L285.869 59.724C286.458 60.579 287.104 61.719 287.389 62.479H284.33V63.657H289.232L288.225 63.923C288.624 64.474 289.004 65.215 289.194 65.747H285.09V66.887H291.778V68.255H286.059V69.338H291.778V70.763H284.273V71.96H291.778V76.463H293.165V71.96H300.784V70.763H293.165ZM309.372 70.288C309.22 69.281 308.726 67.571 308.27 66.26L307.187 66.545C307.396 67.115 307.586 67.78 307.757 68.426L305.021 68.787C306.541 67.02 308.042 64.835 309.258 62.65L308.004 61.928C307.586 62.783 307.111 63.657 306.598 64.455L304.622 64.645C305.648 63.239 306.674 61.396 307.491 59.61L306.18 59.078C305.439 61.111 304.166 63.277 303.748 63.828C303.387 64.398 303.064 64.797 302.741 64.873C302.893 65.215 303.121 65.88 303.197 66.146C303.463 66.032 303.862 65.956 305.8 65.709C305.135 66.716 304.527 67.495 304.242 67.818C303.672 68.521 303.254 68.977 302.855 69.072C303.007 69.452 303.235 70.117 303.311 70.421C303.653 70.231 304.242 70.098 308.023 69.547C308.099 69.927 308.175 70.307 308.213 70.63L309.372 70.288ZM303.653 71.238C303.482 72.796 303.197 74.506 302.741 75.684C303.045 75.779 303.577 75.969 303.824 76.102C304.242 74.905 304.584 73.1 304.793 71.428L303.653 71.238ZM305.496 71.39C305.705 72.663 305.895 74.354 305.914 75.437L307.035 75.247C306.978 74.145 306.769 72.492 306.56 71.2L305.496 71.39ZM307.263 71.029C307.605 71.998 308.004 73.29 308.156 74.126L309.201 73.784C309.03 72.967 308.631 71.694 308.251 70.744L307.263 71.029ZM313.153 69.281L312.925 69.338H309.923V70.516H312.374C311.69 72.359 310.341 73.841 308.897 74.563C309.163 74.791 309.524 75.266 309.714 75.57C311.633 74.487 313.286 72.454 313.97 69.585L313.153 69.281ZM311.937 64.949H317.846V66.64H311.937V64.949ZM311.937 62.232H317.846V63.885H311.937V62.232ZM318.758 68.426C318.245 69.072 317.371 69.946 316.63 70.63C316.25 69.927 315.965 69.205 315.737 68.445V67.761H319.214V61.111H314.939C315.186 60.598 315.471 59.99 315.737 59.42L314.16 59.097C314.027 59.686 313.78 60.465 313.514 61.111H310.607V67.761H314.388V74.886C314.388 75.114 314.312 75.171 314.065 75.19C313.837 75.209 313.039 75.209 312.146 75.171C312.336 75.551 312.488 76.083 312.564 76.482C313.78 76.482 314.578 76.463 315.072 76.235C315.585 76.007 315.737 75.627 315.737 74.905V71.333C316.63 73.176 317.827 74.715 319.328 75.646C319.556 75.285 319.955 74.772 320.259 74.525C319.043 73.898 317.979 72.853 317.162 71.561C317.998 70.934 318.967 70.06 319.822 69.281L318.758 68.426ZM338.271 62.555V61.282H325.997C326.415 60.674 326.795 60.028 327.118 59.382L325.864 58.983C324.952 60.845 323.432 62.65 321.836 63.79C322.121 64.056 322.558 64.626 322.71 64.892C323.527 64.246 324.325 63.448 325.047 62.555H338.271ZM323.774 76.463C324.477 75.456 325.218 73.879 325.693 72.644L324.363 72.302C323.888 73.537 323.109 75.019 322.444 75.931L323.774 76.463ZM327.536 72.834C327.764 73.974 327.935 75.437 327.935 76.311L329.322 76.102C329.303 75.247 329.094 73.822 328.847 72.72L327.536 72.834ZM331.45 72.796C331.925 73.917 332.419 75.38 332.59 76.273L333.977 75.988C333.787 75.095 333.274 73.651 332.742 72.568L331.45 72.796ZM335.364 72.72C336.048 73.898 336.903 75.475 337.264 76.425L338.632 75.836C338.214 74.905 337.34 73.347 336.637 72.207L335.364 72.72ZM326.32 67.02H328.296V70.25H326.32V67.02ZM331.716 67.02V70.25H329.512V67.02H331.716ZM335.022 67.02V70.25H332.932V67.02H335.022ZM336.333 70.25V67.02H338.48V65.747H336.333V63.657H335.022V65.747H332.932V63.657H331.716V65.747H329.512V63.657H328.296V65.747H326.32V63.657H325.047V65.747H322.767V67.02H325.047V70.25H322.14V71.523H338.879V70.25H336.333ZM37.121 96.165H37.14C37.406 96.051 37.824 95.937 39.781 95.709C39.116 96.754 38.527 97.59 38.223 97.932C37.672 98.635 37.235 99.129 36.855 99.205C36.988 99.528 37.197 100.155 37.254 100.421V100.44C37.596 100.269 38.166 100.117 42.46 99.452C42.536 99.737 42.612 100.003 42.65 100.231L43.695 99.813C43.505 98.882 42.954 97.362 42.403 96.184L41.434 96.545C41.681 97.115 41.947 97.78 42.156 98.445L38.812 98.901C40.332 97.096 41.795 94.835 43.03 92.555L41.928 91.909C41.51 92.802 41.016 93.714 40.522 94.55L38.508 94.721C39.553 93.296 40.579 91.434 41.377 89.648L40.199 89.116C39.458 91.168 38.147 93.353 37.729 93.904C37.368 94.493 37.026 94.873 36.741 94.949C36.855 95.272 37.026 95.804 37.121 96.089V96.165ZM37.596 101.257C37.406 102.777 37.121 104.449 36.703 105.627C36.969 105.703 37.501 105.893 37.729 106.007C38.128 104.848 38.489 103.062 38.679 101.428L37.596 101.257ZM39.572 101.371C39.781 102.663 40.009 104.316 40.047 105.437L41.111 105.171C41.035 104.069 40.826 102.435 40.579 101.181L39.572 101.371ZM41.624 101.01C42.061 102.15 42.517 103.689 42.707 104.696L43.695 104.335C43.505 103.366 43.03 101.865 42.574 100.687L41.624 101.01ZM46.45 92.935C46.583 92.46 46.735 91.909 46.868 91.358H50.991C50.915 91.833 50.82 92.384 50.706 92.935H46.45ZM52.967 97.191C52.074 97.837 50.63 98.673 49.395 99.3C49.015 98.635 48.521 98.008 47.875 97.476C48.369 97.096 48.806 96.697 49.224 96.279H54.278V95.101H51.542C51.865 93.581 52.226 91.795 52.435 90.408L51.523 90.256L51.295 90.332H47.115L47.4 89.192L46.07 89.04C45.766 90.617 45.272 92.669 44.873 93.961H50.516C50.421 94.36 50.345 94.74 50.269 95.101H43.619V96.279H47.666C46.545 97.229 45.044 98.046 43.619 98.597C43.847 98.825 44.246 99.319 44.379 99.547C45.234 99.167 46.146 98.654 46.982 98.103C47.286 98.388 47.571 98.673 47.799 98.977C46.792 99.889 45.12 100.82 43.79 101.276C44.056 101.523 44.36 101.96 44.531 102.245C45.785 101.694 47.286 100.763 48.35 99.851C48.559 100.231 48.711 100.611 48.825 100.991C47.59 102.397 45.234 103.917 43.277 104.563C43.562 104.81 43.904 105.247 44.075 105.551C45.785 104.848 47.761 103.556 49.11 102.245C49.281 103.518 49.034 104.582 48.616 104.962C48.35 105.285 48.046 105.323 47.647 105.323C47.286 105.323 46.887 105.285 46.374 105.228C46.583 105.608 46.678 106.102 46.697 106.444C47.115 106.463 47.552 106.482 47.894 106.463C48.597 106.463 49.015 106.349 49.49 105.912C50.478 105.114 50.839 102.606 49.851 100.269C50.193 100.117 50.554 99.946 50.896 99.756C51.352 102.112 52.169 104.24 53.499 105.38C53.689 105.057 54.069 104.601 54.373 104.373C53.119 103.404 52.321 101.39 51.884 99.243C52.606 98.844 53.309 98.445 53.898 98.027L52.967 97.191ZM62.942 101.428C64.937 100.725 66.229 99.167 66.229 97.115C66.229 95.785 65.659 94.93 64.614 94.93C63.835 94.93 63.17 95.405 63.17 96.298C63.17 97.191 63.816 97.647 64.595 97.647C64.709 97.647 64.804 97.647 64.918 97.628C64.823 98.92 63.987 99.813 62.524 100.421L62.942 101.428ZM85.191 92.099C84.811 91.32 83.899 89.99 83.139 89.021L81.923 89.648C82.645 90.636 83.519 92.023 83.899 92.84L85.191 92.099ZM89.39 92.764L89.086 92.859H75.976V94.227H88.041C85.932 97.096 82.17 100.497 78.712 102.492C78.636 102.473 78.56 102.454 78.465 102.454C77.496 102.454 76.261 103.48 75.007 104.848L76.052 106.14C76.945 104.886 77.838 103.784 78.446 103.784C78.864 103.784 79.453 104.392 80.232 104.886C81.486 105.684 83.044 105.912 85.324 105.912C87.148 105.912 90.397 105.798 91.803 105.703C91.822 105.285 92.05 104.544 92.221 104.183C90.397 104.373 87.585 104.525 85.381 104.525C83.253 104.525 81.714 104.392 80.517 103.632C80.327 103.518 80.175 103.404 80.023 103.29C83.899 100.896 88.117 96.963 90.454 93.486L89.39 92.764ZM96.572 101.162C96.61 100.611 96.629 100.098 96.629 99.585V99.262H100.809V101.162H96.572ZM100.809 96.241V98.16H96.629V96.241H100.809ZM102.177 95.082H95.337V99.585C95.337 101.485 95.204 103.917 93.931 105.703C94.254 105.836 94.805 106.273 94.995 106.52C95.869 105.342 96.268 103.784 96.477 102.283H100.809V104.81C100.809 105.057 100.733 105.133 100.448 105.152C100.201 105.171 99.346 105.171 98.396 105.133C98.567 105.475 98.776 106.007 98.852 106.368C100.144 106.368 100.961 106.368 101.493 106.14C102.006 105.912 102.177 105.551 102.177 104.829V95.082ZM108.295 104.677C108.295 104.962 108.2 105.038 107.877 105.057C107.592 105.076 106.566 105.076 105.407 105.038C105.616 105.418 105.844 106.007 105.92 106.387C107.364 106.406 108.314 106.368 108.922 106.14C109.492 105.912 109.682 105.532 109.682 104.677V94.702H108.295V104.677ZM105.787 95.272H104.476V102.986H105.787V95.272ZM106.509 92.099C107.06 91.32 107.687 90.389 108.2 89.515L106.718 89.021C106.3 89.933 105.578 91.187 104.932 92.099H99.27L100.201 91.738C99.84 90.997 99.042 89.876 98.301 89.078L97.009 89.572C97.655 90.332 98.396 91.358 98.738 92.099H94.083V93.391H110.936V92.099H106.509ZM114.945 92.232H119.011C118.593 93.904 117.434 94.645 113.786 95.025C114.033 95.272 114.337 95.804 114.451 96.108C118.574 95.595 119.923 94.493 120.398 92.232H122.393V93.847C122.393 95.044 122.697 95.595 124.065 95.595H127.2C127.751 95.595 128.397 95.576 128.701 95.481C128.644 95.139 128.606 94.759 128.568 94.379C128.264 94.455 127.523 94.474 127.124 94.474H124.312C123.856 94.474 123.78 94.322 123.78 93.847V92.232H128.074V94.018H129.499V91.016H122.64C122.469 90.427 122.184 89.61 121.899 89.002L120.474 89.344C120.702 89.838 120.93 90.484 121.082 91.016H113.558V94.037H114.945V92.232ZM123.913 97.571V100.041H116.864C117.092 99.262 117.32 98.369 117.51 97.571H123.913ZM129.575 100.041H125.3V97.571H128.986V96.431H114.546V97.571H116.085C115.819 98.806 115.458 100.288 115.154 101.276H121.975C119.657 102.758 116.142 103.936 113.007 104.506C113.292 104.772 113.672 105.304 113.862 105.665C117.377 104.924 121.424 103.309 123.799 101.276H123.913V104.772C123.913 105.038 123.837 105.095 123.514 105.114C123.229 105.152 122.184 105.152 121.044 105.114C121.253 105.494 121.462 106.026 121.538 106.406C123.001 106.425 123.951 106.406 124.54 106.178C125.11 105.969 125.3 105.608 125.3 104.791V101.276H129.575V100.041ZM136.111 89.173C135.047 92.061 133.28 94.892 131.418 96.716C131.684 97.039 132.083 97.761 132.216 98.084C132.862 97.419 133.508 96.659 134.097 95.804V106.425H135.446V93.733C136.206 92.422 136.89 90.997 137.422 89.591L136.111 89.173ZM141.526 105C140.196 105 139.949 104.753 139.949 103.651V96.887L142.723 95.804V102.245H144.015V95.291L147.055 94.113C147.017 96.583 146.903 99.49 146.713 101.276L147.872 101.618C148.176 99.376 148.366 95.747 148.423 93.011L148.48 92.745L147.435 92.422L147.169 92.631L144.015 93.847V89.135H142.723V94.341L139.949 95.424V91.016H138.6V95.956L136.187 96.906L136.719 98.141L138.6 97.419V103.651C138.6 105.741 139.265 106.273 141.507 106.273H146.504C148.575 106.273 149.012 105.437 149.259 102.796C148.86 102.72 148.309 102.492 147.967 102.264C147.815 104.487 147.606 105 146.466 105H141.526ZM153.344 95.595H156.555V89.135H155.358V94.36H153.344V89.515H152.052V96.754C152.052 99.509 151.881 103.309 150.722 106.007C151.121 106.102 151.691 106.311 151.995 106.463C152.812 104.43 153.154 101.884 153.268 99.509H155.244V106.444H156.574V98.274H153.325C153.344 97.742 153.344 97.248 153.344 96.735V95.595ZM159.253 97.438V95.367H161.894C161.818 95.975 161.628 96.697 161.305 97.438H159.253ZM159.253 92.232H161.97V94.265H159.253V92.232ZM165.865 94.265H163.243V92.232H165.865V94.265ZM165.865 97.438H162.597C162.901 96.659 163.072 95.956 163.167 95.367H165.865V97.438ZM168.164 101.314H164.801V99.053H163.49V101.314H159.766C160.811 100.497 161.552 99.547 162.065 98.597H167.233V91.054H162.122C162.388 90.56 162.692 89.952 162.977 89.363L161.4 89.116C161.248 89.667 160.906 90.446 160.621 91.054H157.923V98.597H160.659C160.127 99.338 159.424 100.079 158.455 100.725C158.645 100.858 158.968 101.086 159.215 101.314H157.163V102.587H163.49V106.444H164.801V102.587H168.164V101.314ZM186.86 91.396V90.104H171.546V95.633C171.546 98.616 171.394 102.758 169.722 105.722C170.064 105.836 170.653 106.197 170.919 106.425C172.686 103.347 172.933 98.787 172.933 95.652V91.396H186.86ZM175.992 95.5H183.611V96.773H175.992V95.5ZM175.992 93.372H183.611V94.588H175.992V93.372ZM184.998 97.742V92.422H174.662V97.742H184.998ZM187.088 101.903H180.666V101.542C182.281 101.029 183.991 100.288 185.245 99.49L184.39 98.749L184.086 98.825H174.605V99.851H182.376C181.445 100.269 180.305 100.687 179.298 100.953V101.903H173.066V103.043H179.298V104.867C179.298 105.114 179.203 105.19 178.899 105.19C178.595 105.209 177.455 105.209 176.258 105.171C176.429 105.513 176.657 105.969 176.752 106.33C178.291 106.33 179.279 106.33 179.887 106.14C180.476 105.95 180.666 105.627 180.666 104.905V103.043H187.088V101.903ZM188.988 97.723V98.749H192.541V100.63H193.833V98.749H197.386V97.723H193.833V96.355H196.911V95.329H195.315C195.543 94.911 195.79 94.455 196.037 93.98L195.068 93.676H197.424V92.65H193.833V91.434H196.683V90.427H193.833V89.097H192.541V90.427H189.691V91.434H192.541V92.65H188.855V93.676H194.935C194.764 94.151 194.46 94.816 194.194 95.329H192.294C192.142 94.835 191.857 94.208 191.534 93.695L190.527 94.018C190.774 94.417 191.002 94.892 191.135 95.329H189.539V96.355H192.541V97.723H188.988ZM198.146 102.758H204.112V101.561H198.146V100.155H197.747C199.001 99.186 199.78 98.065 200.293 96.887C200.939 97.362 201.509 97.818 201.87 98.236L202.668 97.267C202.212 96.773 201.509 96.241 200.692 95.728C200.977 94.702 201.072 93.657 201.091 92.707H202.991C202.991 97.761 203.086 100.497 205.005 100.497C205.974 100.497 206.221 99.775 206.335 97.723C206.088 97.533 205.727 97.21 205.48 96.925C205.442 98.255 205.366 99.262 205.1 99.262C204.207 99.262 204.245 96.545 204.283 91.51H201.091V89.173H199.856V91.51H197.633V92.707H199.856C199.837 93.429 199.761 94.227 199.571 95.006C199.039 94.702 198.507 94.398 197.975 94.151L197.253 95.006C197.88 95.329 198.583 95.747 199.229 96.146C198.735 97.362 197.918 98.54 196.493 99.528C196.683 99.68 196.949 99.927 197.12 100.155H196.759V101.561H190.812V102.758H196.759V104.753H189.121V105.969H205.955V104.753H198.146V102.758ZM223.967 93.315H217.393C217.222 92.27 217.108 91.149 217.051 89.952H212.434V91.206H215.854C215.892 91.947 215.968 92.65 216.063 93.315H209.147V106.444H210.553V94.702H215.493C214.847 97.685 213.289 99.737 210.743 100.972C211.047 101.238 211.484 101.77 211.693 102.093C214.22 100.801 215.778 98.692 216.576 95.785C217.393 98.635 218.856 100.763 221.345 101.998C221.573 101.618 222.029 101.067 222.333 100.763C219.844 99.699 218.419 97.609 217.697 94.702H222.542V104.601C222.542 104.905 222.466 105 222.124 105.019C221.744 105.038 220.566 105.038 219.331 105C219.54 105.38 219.749 106.026 219.806 106.425C221.421 106.425 222.504 106.425 223.15 106.197C223.777 105.95 223.967 105.494 223.967 104.601V93.315ZM242.15 95.158C241.219 96.317 239.737 97.742 238.426 98.844C237.666 97.305 237.172 95.557 236.792 93.543H243.803V92.175H235.614L236.868 91.738C236.659 91.016 236.127 89.876 235.595 89.021L234.189 89.458C234.664 90.294 235.158 91.434 235.367 92.175H227.216V93.543H234.17C232.46 95.823 229.629 97.989 226.722 99.3C226.95 99.585 227.349 100.155 227.501 100.497C228.698 99.927 229.857 99.243 230.959 98.483V103.651C230.959 104.525 230.332 105.076 229.952 105.285C230.199 105.551 230.579 106.102 230.712 106.406C231.206 106.064 231.928 105.798 237.856 103.917C237.742 103.594 237.59 103.024 237.533 102.625L232.384 104.221V97.362C233.6 96.355 234.664 95.253 235.538 94.094C236.545 99.3 238.35 102.872 243.29 105.988C243.461 105.551 243.917 105.038 244.278 104.753C241.884 103.347 240.25 101.827 239.072 99.984C240.459 98.882 242.112 97.362 243.347 96.013L242.15 95.158ZM252.714 104.829C250.871 104.829 250.491 104.506 250.491 103.157V96.754L254.405 95.519V102.416H255.792V95.082L260.2 93.714C260.105 96.07 259.953 98.806 259.687 100.516L260.865 100.82C261.245 98.711 261.492 95.253 261.606 92.631L261.663 92.384L260.599 92.061L260.2 92.365L255.792 93.733V89.135H254.405V94.151L250.491 95.367V90.408H249.123V95.785L245.646 96.868L246.026 98.122L249.123 97.153V103.119C249.123 105.532 249.959 106.121 252.771 106.121H259.402C262.157 106.121 262.727 105.133 263.012 102.055C262.632 101.96 262.043 101.713 261.701 101.485C261.454 104.202 261.15 104.829 259.383 104.829H252.714ZM282.031 90.921H277.129C277.034 90.389 276.806 89.572 276.578 88.964L275.267 89.135C275.457 89.667 275.609 90.37 275.723 90.921H270.289V92.08H282.031V90.921ZM277.585 92.099C277.167 92.745 276.35 93.695 275.723 94.322V98.293H276.806V94.322C277.357 93.79 278.06 93.125 278.611 92.479L277.585 92.099ZM274.279 92.498C274.602 92.973 274.963 93.619 275.115 94.075L275.97 93.638C275.799 93.239 275.438 92.612 275.077 92.156L274.279 92.498ZM273.728 94.588C273.671 96.26 273.614 96.887 273.481 97.077C273.386 97.191 273.291 97.229 273.139 97.21C272.987 97.21 272.683 97.21 272.265 97.172C272.398 97.438 272.493 97.818 272.531 98.122C272.911 98.141 273.31 98.141 273.557 98.103C273.918 98.084 274.146 97.97 274.317 97.742C274.602 97.419 274.659 96.488 274.735 94.075C274.735 93.904 274.754 93.619 274.754 93.619H270.574V94.588H271.657C271.467 95.975 271.03 97.02 270.061 97.666C270.289 97.856 270.593 98.255 270.688 98.464C271.866 97.628 272.436 96.317 272.664 94.588H273.728ZM269.89 98.654L269.643 97.381L268.294 97.875V94.227H269.662V92.916H268.294V89.116H267.059V92.916H265.007V94.227H267.059V98.312C266.204 98.635 265.444 98.92 264.798 99.129L265.197 100.478C265.767 100.25 266.413 100.022 267.059 99.756V104.734C267.059 104.981 266.964 105.038 266.736 105.038C266.546 105.057 265.862 105.057 265.121 105.038C265.292 105.418 265.463 105.95 265.52 106.292C266.584 106.292 267.268 106.254 267.705 106.045C268.142 105.817 268.294 105.456 268.294 104.734V99.281L269.89 98.654ZM273.158 102.34C273.234 101.865 273.253 101.39 273.253 100.953V100.782H279.371V102.34H273.158ZM279.371 99.642H273.253V98.407H271.923V100.934C271.923 102.397 271.638 104.373 269.719 105.722C270.042 105.893 270.536 106.254 270.764 106.501C271.942 105.665 272.588 104.582 272.911 103.48H279.371V106.482H280.701V98.388H279.371V99.642ZM281.024 92.897C280.302 93.334 279.048 93.771 277.908 94.056V96.355C277.908 97.077 277.68 97.381 277.471 97.495C277.642 97.723 277.87 98.198 277.965 98.426V98.445C278.174 98.293 278.554 98.103 280.454 97.476C280.416 97.286 280.34 96.925 280.302 96.678L278.82 97.096V94.702C279.181 94.626 279.542 94.512 279.903 94.398C280.207 95.937 280.701 97.438 281.575 98.217C281.727 97.97 282.012 97.628 282.24 97.476C281.442 96.83 280.948 95.519 280.663 94.151C281.119 93.98 281.518 93.809 281.898 93.619L281.024 92.897ZM300.613 91.852V90.446H284.387V91.852H292.785C290.904 95.101 287.655 98.255 283.912 100.136C284.197 100.459 284.653 101.01 284.862 101.371C287.503 99.984 289.821 98.027 291.74 95.842V106.406H293.241V93.942C293.716 93.239 294.172 92.555 294.59 91.852H300.613ZM293.621 95.937C295.863 97.419 298.675 99.661 300.024 101.105L301.145 100.022C299.758 98.578 296.87 96.45 294.666 95.025L293.621 95.937ZM317.428 98.54V103.955H312.222V97.343H318.207V90.826H316.687V95.956H312.222V89.116H310.702V95.956H306.351V90.845H304.888V97.343H310.702V103.955H305.572V98.54H304.052V105.342H317.428V106.425H318.948V98.54H317.428ZM321.912 96.83V98.369H339.164V96.83H321.912ZM356.226 90.275C355.77 91.738 354.934 93.809 354.269 95.063L355.333 95.519C356.055 94.284 356.929 92.365 357.632 90.788L356.226 90.275ZM350.735 94.873C350.488 93.695 349.652 91.814 348.816 90.37L347.695 90.883C348.512 92.346 349.272 94.246 349.538 95.462L350.735 94.873ZM345.491 91.928V101.39H342.907V91.928H345.491ZM346.821 102.682V90.636H341.596V104.525H342.907V102.682H346.821ZM350.07 98.787C349.405 101.257 348.094 103.879 346.669 105.133C346.992 105.38 347.41 105.855 347.638 106.178C349.139 104.677 350.45 101.865 351.153 99.091L350.07 98.787ZM358.107 97.552V96.222H353.281V89.116H351.932V96.222H347.562V97.552H351.932V106.463H353.281V97.552H358.107ZM354.136 99.3C355.371 101.447 356.644 104.335 357.138 106.083L358.316 105.418C357.822 103.727 356.492 100.915 355.219 98.768L354.136 99.3ZM52.226 120.275C51.77 121.738 50.934 123.809 50.269 125.063L51.333 125.519C52.055 124.284 52.929 122.365 53.632 120.788L52.226 120.275ZM46.735 124.873C46.488 123.695 45.652 121.814 44.816 120.37L43.695 120.883C44.512 122.346 45.272 124.246 45.538 125.462L46.735 124.873ZM41.491 121.928V131.39H38.907V121.928H41.491ZM42.821 132.682V120.636H37.596V134.525H38.907V132.682H42.821ZM46.07 128.787C45.405 131.257 44.094 133.879 42.669 135.133C42.992 135.38 43.41 135.855 43.638 136.178C45.139 134.677 46.45 131.865 47.153 129.091L46.07 128.787ZM54.107 127.552V126.222H49.281V119.116H47.932V126.222H43.562V127.552H47.932V136.463H49.281V127.552H54.107ZM50.136 129.3C51.371 131.447 52.644 134.335 53.138 136.083L54.316 135.418C53.822 133.727 52.492 130.915 51.219 128.768L50.136 129.3ZM61.669 127.799C61.669 129.395 62.98 130.687 64.557 130.687C66.153 130.687 67.445 129.395 67.445 127.799C67.445 126.203 66.153 124.911 64.557 124.911C62.98 124.911 61.669 126.203 61.669 127.799ZM62.638 127.799C62.638 126.735 63.512 125.88 64.557 125.88C65.621 125.88 66.476 126.735 66.476 127.799C66.476 128.863 65.621 129.718 64.557 129.718C63.512 129.718 62.638 128.863 62.638 127.799ZM174.985 160.193H177.93V158.939H174.985V156.241H177.968C178.253 156.45 178.576 156.735 178.728 156.906C180.761 155.709 181.939 153.942 182.319 151.111H185.226C185.093 153.581 184.922 154.55 184.675 154.835C184.561 154.987 184.371 155.025 184.105 155.006C183.82 155.006 183.079 155.006 182.3 154.93C182.49 155.272 182.623 155.766 182.661 156.146C183.497 156.184 184.295 156.203 184.732 156.146C185.207 156.108 185.549 155.994 185.834 155.671C186.252 155.196 186.423 153.866 186.594 150.484C186.613 150.294 186.613 149.895 186.613 149.895H178.31V151.111H180.951C180.685 153.353 179.792 154.835 178.101 155.804V154.987H174.757V152.65H177.721V151.396H174.757V149.116H173.446V151.396H170.425V152.65H173.446V154.987H170.064V156.241H173.712V163.214C172.99 162.549 172.477 161.637 172.078 160.383C172.135 159.528 172.173 158.616 172.192 157.685L170.9 157.609C170.862 160.934 170.672 163.898 169.589 165.798C169.912 165.95 170.482 166.311 170.71 166.482C171.28 165.456 171.603 164.202 171.831 162.758C173.218 165.342 175.46 165.969 179.507 165.969H186.765C186.86 165.551 187.107 164.905 187.354 164.563C186.176 164.62 180.4 164.62 179.469 164.601C177.588 164.601 176.125 164.449 174.985 163.993V160.193ZM180.267 158.369H184.789V161.865H180.267V158.369ZM178.937 163.043H186.176V157.191H178.937V163.043ZM192.123 165.741C192.636 164.715 192.978 163.062 193.206 161.846L192.237 161.542C192.047 162.701 191.667 164.316 191.154 165.266L192.123 165.741ZM195.581 165.19C194.992 165.19 194.897 165.114 194.897 164.677V161.276H193.738V164.696C193.738 165.893 194.08 166.216 195.429 166.216H197.709C198.849 166.216 199.153 165.684 199.286 163.461C198.963 163.366 198.507 163.195 198.241 163.005C198.203 164.924 198.089 165.19 197.576 165.19H195.581ZM197.842 162.929C197.481 162.226 196.74 161.048 196.113 160.193L195.201 160.611C195.828 161.504 196.55 162.72 196.892 163.442L197.842 162.929ZM199.001 161.77C199.628 163.005 200.35 164.696 200.692 165.665L201.737 165.209C201.395 164.259 200.635 162.625 200.008 161.409L199.001 161.77ZM198.013 159.11H194.118V156.944H198.013V159.11ZM204.036 153.391C203.58 154.588 202.991 155.728 202.288 156.754C202.098 155.386 201.965 153.866 201.87 152.289H205.936V151.092H204.359L205.195 150.427C204.701 150.009 203.77 149.363 203.086 148.926L202.231 149.553C202.915 149.99 203.808 150.674 204.283 151.092H201.832C201.794 150.446 201.794 149.762 201.794 149.097H200.445C200.464 149.762 200.483 150.427 200.502 151.092H190.318V155.063C190.318 158.065 190.185 162.511 188.684 165.722C188.969 165.836 189.558 166.235 189.805 166.482C191.382 163.1 191.648 158.236 191.648 155.063V152.289H200.559C200.692 154.341 200.901 156.355 201.167 158.179C200.559 158.844 199.875 159.471 199.172 159.984V155.937H192.94V160.136H198.944L198.754 160.269C199.058 160.478 199.552 160.953 199.761 161.181C200.331 160.744 200.901 160.269 201.414 159.718C202.155 163.651 203.257 166.387 204.644 166.387C205.841 166.387 206.278 165.475 206.487 162.454C206.126 162.302 205.67 162.017 205.385 161.713C205.328 163.993 205.119 165.057 204.834 165.057C204.112 165.038 203.162 162.416 202.516 158.502C203.637 157.115 204.568 155.481 205.233 153.714L204.036 153.391ZM199.552 153.619H192.541V154.645H199.552V153.619ZM209.584 159.281V157.894H211.978V159.281H209.584ZM209.584 155.595H211.978V156.963H209.584V155.595ZM215.74 155.595V156.963H213.251V155.595H215.74ZM215.74 159.281H213.251V157.894H215.74V159.281ZM220.737 153.505C220.775 152.175 220.775 150.769 220.775 149.344H219.445C219.445 150.788 219.445 152.175 219.407 153.505H217.146V154.835H219.369C219.198 158.388 218.685 161.447 217.051 163.689V163.613C215.778 163.765 214.486 163.898 213.251 164.012V162.511H216.975V161.428H213.251V160.269H216.937V154.626H213.251V153.429H217.279V152.327H213.251V150.94C214.638 150.788 215.93 150.617 216.956 150.389L216.253 149.306C214.296 149.743 210.876 150.085 208.064 150.237C208.216 150.522 208.349 150.978 208.406 151.282C209.527 151.244 210.762 151.168 211.978 151.073V152.327H207.874V153.429H211.978V154.626H208.425V160.269H211.978V161.428H208.387V162.511H211.978V164.145C210.42 164.297 208.995 164.43 207.855 164.525L208.064 165.76C210.192 165.532 213.137 165.209 216.006 164.867C215.759 165.095 215.493 165.323 215.189 165.532C215.531 165.76 216.025 166.235 216.234 166.539C219.578 164.031 220.452 159.889 220.68 154.835H223.397C223.207 161.732 222.979 164.24 222.542 164.791C222.352 165.038 222.181 165.095 221.858 165.095C221.497 165.095 220.661 165.076 219.749 165C219.958 165.361 220.11 165.95 220.148 166.33C221.022 166.387 221.915 166.406 222.447 166.33C223.017 166.273 223.397 166.121 223.72 165.627C224.366 164.829 224.537 162.188 224.746 154.227C224.746 154.037 224.765 153.505 224.765 153.505H220.737ZM230.313 151.985V160.06H228.603V151.985H230.313ZM231.434 150.598H227.482V163.271H228.603V161.428H231.434V150.598ZM235.937 149.762L235.747 149.8H232.555V166.444H233.695V151.054H235.329C235.063 152.46 234.664 154.113 234.227 155.785C235.291 157.571 235.709 158.73 235.709 159.813C235.709 160.44 235.614 161.105 235.367 161.314C235.253 161.428 235.101 161.466 234.911 161.466C234.683 161.466 234.36 161.466 234.037 161.447C234.208 161.77 234.322 162.245 234.341 162.568C234.702 162.587 235.082 162.587 235.367 162.53C235.671 162.511 235.975 162.397 236.184 162.207C236.64 161.827 236.868 160.877 236.868 159.87C236.868 158.692 236.374 157.4 235.329 155.633C235.88 153.695 236.374 151.776 236.773 150.199L235.937 149.762ZM239.889 154.759V160.136H238.388V154.759H239.889ZM240.915 161.428V153.486H237.4V162.72H238.388V161.428H240.915ZM244.183 149.99H237.077V151.339H242.074V164.563C242.074 164.848 241.998 164.943 241.694 164.943C241.409 164.962 240.459 164.981 239.414 164.943C239.604 165.304 239.832 165.931 239.87 166.311C241.181 166.292 242.055 166.273 242.568 166.045C243.1 165.798 243.252 165.361 243.252 164.582V151.339H244.183V149.99Z" fill="#3E3E3E"/>
<path d="M79.206 130.307H87.813V131.656H79.206V130.307ZM87.813 124.094V125.367H79.206V124.094H87.813ZM87.813 128.274V129.414H79.206V128.274H87.813ZM87.813 127.362H79.206V126.279H87.813V127.362ZM91.879 131.656H89.219V123.125H83.747C83.823 122.764 83.899 122.365 83.975 121.928H91.404V120.712H84.184L84.431 119.249L82.93 119.078C82.892 119.553 82.835 120.142 82.759 120.712H75.672V121.928H82.588C82.55 122.365 82.474 122.764 82.398 123.125H77.838V131.656H75.14V132.853H91.879V131.656ZM80.612 133.233C79.415 134.031 77.04 134.962 75.14 135.475C75.444 135.741 75.881 136.178 76.109 136.463C77.99 135.931 80.346 134.981 81.847 134.031L80.612 133.233ZM85.267 134.088C87.376 134.791 89.523 135.703 90.815 136.425L91.955 135.437C90.568 134.753 88.25 133.841 86.141 133.176L85.267 134.088ZM99.84 123.885L99.555 123.942H94.425V125.348H99.061C98.149 129.091 96.23 131.941 93.817 133.518C94.159 133.727 94.729 134.278 94.938 134.582C97.617 132.701 99.84 129.186 100.752 124.246L99.84 123.885ZM108.466 122.65C107.554 123.942 106.072 125.614 104.799 126.792C104.21 125.804 103.697 124.759 103.279 123.714V119.154H101.797V134.525C101.797 134.848 101.683 134.943 101.36 134.962C101.075 134.962 100.087 134.962 99.004 134.924C99.232 135.342 99.479 136.045 99.536 136.463C100.98 136.463 101.93 136.425 102.5 136.159C103.051 135.912 103.279 135.456 103.279 134.525V126.507C105.008 129.927 107.459 132.929 110.404 134.487C110.651 134.069 111.126 133.499 111.449 133.214C109.169 132.15 107.117 130.174 105.502 127.837C106.832 126.716 108.485 125.006 109.739 123.562L108.466 122.65ZM128.967 123.315H122.393C122.222 122.27 122.108 121.149 122.051 119.952H117.434V121.206H120.854C120.892 121.947 120.968 122.65 121.063 123.315H114.147V136.444H115.553V124.702H120.493C119.847 127.685 118.289 129.737 115.743 130.972C116.047 131.238 116.484 131.77 116.693 132.093C119.22 130.801 120.778 128.692 121.576 125.785C122.393 128.635 123.856 130.763 126.345 131.998C126.573 131.618 127.029 131.067 127.333 130.763C124.844 129.699 123.419 127.609 122.697 124.702H127.542V134.601C127.542 134.905 127.466 135 127.124 135.019C126.744 135.038 125.566 135.038 124.331 135C124.54 135.38 124.749 136.026 124.806 136.425C126.421 136.425 127.504 136.425 128.15 136.197C128.777 135.95 128.967 135.494 128.967 134.601V123.315ZM147.15 125.158C146.219 126.317 144.737 127.742 143.426 128.844C142.666 127.305 142.172 125.557 141.792 123.543H148.803V122.175H140.614L141.868 121.738C141.659 121.016 141.127 119.876 140.595 119.021L139.189 119.458C139.664 120.294 140.158 121.434 140.367 122.175H132.216V123.543H139.17C137.46 125.823 134.629 127.989 131.722 129.3C131.95 129.585 132.349 130.155 132.501 130.497C133.698 129.927 134.857 129.243 135.959 128.483V133.651C135.959 134.525 135.332 135.076 134.952 135.285C135.199 135.551 135.579 136.102 135.712 136.406C136.206 136.064 136.928 135.798 142.856 133.917C142.742 133.594 142.59 133.024 142.533 132.625L137.384 134.221V127.362C138.6 126.355 139.664 125.253 140.538 124.094C141.545 129.3 143.35 132.872 148.29 135.988C148.461 135.551 148.917 135.038 149.278 134.753C146.884 133.347 145.25 131.827 144.072 129.984C145.459 128.882 147.112 127.362 148.347 126.013L147.15 125.158ZM159.728 121.852H155.472L156.498 121.377C156.213 120.75 155.605 119.781 155.016 119.078L153.876 119.553C154.408 120.256 154.959 121.187 155.225 121.852H151.159V123.144H159.728V121.852ZM159.576 126.83C159.196 125.918 158.284 124.55 157.429 123.581L156.365 124.132C157.22 125.158 158.113 126.564 158.455 127.457L159.576 126.83ZM153.268 123.619C152.66 125.101 151.71 126.64 150.722 127.704C151.026 127.894 151.52 128.331 151.729 128.559C152.698 127.4 153.781 125.614 154.484 123.999L153.268 123.619ZM158.892 133.632C158.379 132.72 157.524 131.58 156.555 130.421C157.068 129.357 157.543 128.217 157.885 126.963L156.574 126.697C156.308 127.647 155.985 128.521 155.605 129.357C154.959 128.673 154.313 128.008 153.705 127.4L152.679 128.16C153.42 128.901 154.218 129.756 154.94 130.611C153.914 132.435 152.508 133.898 150.798 134.962C151.102 135.209 151.577 135.722 151.786 135.988C153.401 134.886 154.75 133.442 155.833 131.694C156.65 132.72 157.334 133.708 157.733 134.506L158.892 133.632ZM165.599 123.866C165.219 126.393 164.649 128.54 163.737 130.307C162.977 128.787 162.388 127.039 161.989 125.196C162.16 124.759 162.293 124.322 162.445 123.866H165.599ZM168.031 123.866V122.536H162.825C163.11 121.491 163.338 120.389 163.547 119.268L162.236 119.078C161.666 122.441 160.716 125.671 159.196 127.742C159.5 127.989 159.956 128.521 160.146 128.787C160.507 128.255 160.868 127.666 161.191 127.039C161.647 128.711 162.236 130.25 162.958 131.637C161.837 133.271 160.355 134.525 158.36 135.456C158.645 135.703 159.158 136.254 159.329 136.501C161.153 135.551 162.578 134.373 163.699 132.891C164.668 134.392 165.865 135.589 167.29 136.425C167.518 136.083 167.955 135.551 168.278 135.304C166.777 134.525 165.504 133.252 164.497 131.675C165.732 129.604 166.492 127.039 166.967 123.866H168.031ZM173.503 126.298V124.341H177.778V126.298H173.503ZM173.503 121.244H177.778V123.182H173.503V121.244ZM183.554 123.182H179.241V121.244H183.554V123.182ZM183.554 126.298H179.241V124.341H183.554V126.298ZM186.784 130.421V129.11H179.241V127.514H185.055V120.009H172.078V127.514H177.778V129.11H170.235V130.421H176.6C174.928 132.226 172.23 133.86 169.76 134.658C170.064 134.943 170.52 135.494 170.71 135.817C173.18 134.886 175.954 133.081 177.778 131.01V136.463H179.241V130.915C181.103 132.929 183.896 134.772 186.309 135.741C186.518 135.399 186.955 134.848 187.278 134.563C184.884 133.765 182.167 132.169 180.419 130.421H186.784ZM199.191 122.099C198.811 121.32 197.899 119.99 197.139 119.021L195.923 119.648C196.645 120.636 197.519 122.023 197.899 122.84L199.191 122.099ZM203.39 122.764L203.086 122.859H189.976V124.227H202.041C199.932 127.096 196.17 130.497 192.712 132.492C192.636 132.473 192.56 132.454 192.465 132.454C191.496 132.454 190.261 133.48 189.007 134.848L190.052 136.14C190.945 134.886 191.838 133.784 192.446 133.784C192.864 133.784 193.453 134.392 194.232 134.886C195.486 135.684 197.044 135.912 199.324 135.912C201.148 135.912 204.397 135.798 205.803 135.703C205.822 135.285 206.05 134.544 206.221 134.183C204.397 134.373 201.585 134.525 199.381 134.525C197.253 134.525 195.714 134.392 194.517 133.632C194.327 133.518 194.175 133.404 194.023 133.29C197.899 130.896 202.117 126.963 204.454 123.486L203.39 122.764ZM224.917 124.702C224.328 123.638 222.96 121.985 221.801 120.788L220.794 121.415C221.269 121.909 221.763 122.498 222.238 123.068L216.709 123.505C217.678 122.403 218.704 120.997 219.54 119.572L218.096 119.211C217.317 120.826 216.063 122.517 215.664 122.935C215.303 123.372 214.961 123.676 214.676 123.733C214.828 124.075 215.056 124.702 215.132 124.968C215.607 124.778 216.386 124.702 223.017 124.113C223.378 124.607 223.644 125.063 223.853 125.424L224.917 124.702ZM209.451 128.597C209.584 127.723 209.698 126.735 209.812 125.766H213.954V120.123H208.178V121.434H212.643V124.474H208.672C208.52 126.203 208.216 128.464 207.969 129.889H212.719C212.491 133.176 212.244 134.487 211.883 134.848C211.731 135.019 211.541 135.038 211.237 135.038C210.914 135.038 210.097 135.038 209.242 134.962C209.47 135.323 209.603 135.855 209.622 136.254C210.496 136.311 211.351 136.311 211.826 136.273C212.358 136.235 212.719 136.102 213.061 135.722C213.574 135.133 213.84 133.518 214.106 129.224C214.125 129.034 214.144 128.597 214.144 128.597H209.451ZM216.291 130.345V127.704H218.856V130.345H216.291ZM222.865 127.704V130.345H220.224V127.704H222.865ZM225.297 135.988C224.898 134.848 223.853 133.157 222.865 131.903L221.706 132.416C222.086 132.91 222.466 133.518 222.827 134.088L220.224 134.259V131.523H224.176V126.526H220.224V124.683H218.856V126.526H215.037V131.523H218.856V134.354C217.108 134.468 215.493 134.563 214.258 134.62L214.448 135.988C216.842 135.817 220.243 135.57 223.511 135.304C223.739 135.779 223.929 136.197 224.062 136.577L225.297 135.988ZM235.614 134.145V126.621H242.682V125.215H235.614V119.401H234.132V134.145H227.045V135.551H243.974V134.145H235.614ZM248.154 124.17C248.781 124.854 249.541 125.804 249.902 126.393L250.605 125.88V128.046C249.655 128.654 248.743 129.186 248.059 129.585C248.135 128.483 248.154 127.419 248.154 126.507V124.17ZM250.605 121.092V125.538C250.187 124.968 249.522 124.17 248.914 123.581L248.154 124.075V121.092H250.605ZM262.575 121.567H255.127C255.393 120.864 255.659 120.142 255.868 119.382L254.481 119.097C253.93 121.13 253.018 123.106 251.783 124.474V119.8H246.957V126.507C246.957 129.243 246.862 132.986 245.665 135.665C245.931 135.779 246.444 136.235 246.634 136.501C247.527 134.563 247.907 131.998 248.059 129.68L248.591 130.763C249.237 130.269 249.921 129.756 250.605 129.224V134.753C250.605 135.019 250.51 135.114 250.263 135.114C250.054 135.114 249.294 135.133 248.458 135.095C248.61 135.437 248.781 135.988 248.819 136.33C250.035 136.33 250.738 136.311 251.194 136.083C251.631 135.874 251.783 135.494 251.783 134.772V125.158C252.087 125.367 252.372 125.633 252.543 125.804C252.638 125.709 252.714 125.614 252.809 125.5V133.613H259.972V125.386H258.87V132.473H253.911V125.5H252.809C253.417 124.759 254.025 123.866 254.519 122.859H261.283C261.283 131.333 261.207 134.335 260.808 134.886C260.637 135.133 260.485 135.209 260.143 135.19C259.763 135.19 258.737 135.19 257.635 135.114C257.882 135.475 258.034 136.026 258.053 136.406C259.003 136.444 260.048 136.482 260.675 136.406C261.283 136.349 261.663 136.178 262.005 135.646C262.575 134.791 262.575 131.846 262.575 122.289V121.567ZM258.585 131.219C258.224 130.307 257.635 129.148 256.951 127.913C257.464 126.83 257.901 125.69 258.281 124.588L257.274 124.303C257.008 125.139 256.704 125.994 256.343 126.83C255.868 126.013 255.355 125.177 254.899 124.436L254.044 124.854C254.633 125.804 255.26 126.887 255.849 127.951C255.26 129.167 254.633 130.307 253.968 131.2C254.234 131.333 254.671 131.637 254.861 131.808C255.374 131.029 255.925 130.079 256.438 129.053C256.932 130.041 257.388 130.953 257.673 131.694L258.585 131.219ZM281.271 122.555V121.282H268.997C269.415 120.674 269.795 120.028 270.118 119.382L268.864 118.983C267.952 120.845 266.432 122.65 264.836 123.79C265.121 124.056 265.558 124.626 265.71 124.892C266.527 124.246 267.325 123.448 268.047 122.555H281.271ZM266.774 136.463C267.477 135.456 268.218 133.879 268.693 132.644L267.363 132.302C266.888 133.537 266.109 135.019 265.444 135.931L266.774 136.463ZM270.536 132.834C270.764 133.974 270.935 135.437 270.935 136.311L272.322 136.102C272.303 135.247 272.094 133.822 271.847 132.72L270.536 132.834ZM274.45 132.796C274.925 133.917 275.419 135.38 275.59 136.273L276.977 135.988C276.787 135.095 276.274 133.651 275.742 132.568L274.45 132.796ZM278.364 132.72C279.048 133.898 279.903 135.475 280.264 136.425L281.632 135.836C281.214 134.905 280.34 133.347 279.637 132.207L278.364 132.72ZM269.32 127.02H271.296V130.25H269.32V127.02ZM274.716 127.02V130.25H272.512V127.02H274.716ZM278.022 127.02V130.25H275.932V127.02H278.022ZM279.333 130.25V127.02H281.48V125.747H279.333V123.657H278.022V125.747H275.932V123.657H274.716V125.747H272.512V123.657H271.296V125.747H269.32V123.657H268.047V125.747H265.767V127.02H268.047V130.25H265.14V131.523H281.879V130.25H279.333ZM285.888 122.593H290.03C289.783 125.31 288.947 126.545 284.748 127.153C285.014 127.419 285.318 127.951 285.413 128.293C290.106 127.514 291.17 125.937 291.455 122.593H293.887V125.614C293.887 127.096 294.305 127.609 295.882 127.609H299.226C299.834 127.609 300.499 127.59 300.822 127.495C300.784 127.172 300.727 126.621 300.67 126.241C300.328 126.317 299.587 126.355 299.15 126.355H295.901C295.369 126.355 295.274 126.165 295.274 125.633V122.593H298.998V125.082H300.423V121.301H293.621C293.336 120.617 292.861 119.705 292.424 119.002L290.98 119.42C291.322 119.971 291.645 120.693 291.911 121.301H284.501V125.538H285.888V122.593ZM293.279 130.611H298.827V129.281H286.173V130.611H291.835V134.696H284.463V136.045H300.613V134.696H293.279V130.611ZM309.733 127.685C309.353 127.248 307.871 125.671 307.32 125.158V124.493H309.885V123.163H307.32V119.097H305.99V123.163H303.045V124.493H305.8C305.173 127.096 303.881 130.06 302.608 131.637C302.836 131.979 303.197 132.53 303.349 132.91C304.318 131.618 305.268 129.528 305.99 127.362V136.425H307.32V126.659C307.909 127.4 308.593 128.293 308.897 128.806L309.733 127.685ZM320.126 122.023V120.693H309.505V122.023H315.015C313.666 125.12 311.424 127.704 308.688 129.3C308.992 129.585 309.486 130.174 309.676 130.478C311.272 129.433 312.735 128.065 313.989 126.469V136.425H315.395V124.379C315.832 123.638 316.231 122.84 316.573 122.023H320.126ZM315.395 125.709C316.896 127.001 318.663 128.844 319.442 130.079L320.468 129.11C319.632 127.894 317.827 126.127 316.326 124.873L315.395 125.709ZM336.656 122.308H334.756V120.579H336.656V122.308ZM333.635 122.308H331.754V120.579H333.635V122.308ZM330.633 122.308H328.828V120.579H330.633V122.308ZM337.872 119.686H327.65V123.201H337.872V119.686ZM338.936 124.132H326.586V125.12H338.936V124.132ZM329.531 126.944H335.915V128.502H329.531V126.944ZM330.975 132.739V130.782C331.716 130.345 332.419 129.889 333.008 129.414H337.226V126.051H328.277V129.414H331.412C330.025 130.288 328.144 131.086 326.643 131.542C326.871 131.732 327.194 132.131 327.365 132.397C328.125 132.131 328.961 131.789 329.797 131.39V132.568C329.797 133.233 329.398 133.461 329.132 133.537C329.303 133.784 329.493 134.259 329.55 134.544C329.873 134.316 330.386 134.088 333.977 132.853C333.92 132.587 333.825 132.15 333.806 131.827L330.975 132.739ZM338.67 133.347C338.062 132.872 337.169 132.245 336.219 131.618C336.979 131.162 337.853 130.573 338.537 129.965L337.606 129.3C337.055 129.794 336.124 130.535 335.364 131.029C334.756 130.63 334.148 130.231 333.578 129.87L332.742 130.554C334.433 131.656 336.656 133.214 337.796 134.145L338.67 133.347ZM325.978 122.061C325.503 121.263 324.553 120.066 323.736 119.135L322.653 119.724C323.432 120.674 324.42 122.004 324.857 122.802L325.978 122.061ZM325.826 128.122L325.598 128.16H323.717C324.667 126.887 325.883 124.854 326.567 123.752L325.636 123.353L325.37 123.486H321.931V124.645H324.648C323.926 125.804 322.976 127.343 322.615 127.761C322.311 128.103 322.026 128.236 321.76 128.312C321.893 128.597 322.197 129.243 322.273 129.585C322.425 129.433 322.9 129.319 323.375 129.319H325.047C324.496 132.226 323.299 134.316 321.665 135.513C321.95 135.703 322.406 136.197 322.615 136.482C323.489 135.798 324.249 134.867 324.857 133.689C326.377 135.779 328.79 136.14 332.647 136.14C334.737 136.14 337.15 136.102 338.936 135.988C338.993 135.608 339.183 134.981 339.411 134.677C337.454 134.848 334.661 134.924 332.647 134.924C329.075 134.924 326.643 134.62 325.389 132.587C325.864 131.39 326.244 129.984 326.472 128.388L325.826 128.122ZM354.193 128.274H346.27V126.355H354.193V128.274ZM346.213 131.485C346.251 130.991 346.27 130.535 346.27 130.079V129.49H354.193V131.485H346.213ZM357.803 122.878V121.548H348.113C348.398 120.864 348.645 120.142 348.854 119.439L347.448 119.097C347.22 119.914 346.935 120.731 346.612 121.548H341.273V122.878H346.004C344.826 125.329 343.116 127.571 340.893 129.072C341.159 129.357 341.596 129.87 341.786 130.174C342.945 129.357 343.971 128.35 344.864 127.267V130.041C344.864 131.846 344.693 133.936 343.116 135.456C343.42 135.665 343.933 136.254 344.104 136.558C345.225 135.513 345.795 134.088 346.042 132.701H354.193V134.677C354.193 134.962 354.079 135.057 353.756 135.076C353.414 135.076 352.274 135.095 351.001 135.038C351.21 135.437 351.419 136.007 351.476 136.425C353.091 136.425 354.155 136.406 354.782 136.178C355.39 135.95 355.58 135.532 355.58 134.677V125.082H346.384C346.802 124.379 347.182 123.619 347.543 122.878H357.803ZM45.595 162.587C48.217 163.632 51.618 165.342 53.29 166.52L53.955 165.304C52.226 164.164 48.806 162.53 46.203 161.542L45.595 162.587ZM46.165 157.381V155.785H52.245V154.55H46.165V153.011H53.157V151.738H49.11C49.604 151.073 50.174 150.256 50.63 149.477L49.186 149.04C48.787 149.838 48.122 150.959 47.552 151.738H42.555L43.239 151.434C42.935 150.75 42.27 149.762 41.567 149.04L40.351 149.534C40.921 150.199 41.51 151.073 41.814 151.738H37.805V153.011H44.759V154.55H38.85V155.785H44.759V157.381H37.14V158.635H44.588C44.531 159.148 44.455 159.642 44.341 160.098H37.558V161.333H43.942C43.087 163.29 41.225 164.506 36.836 165.133C37.102 165.456 37.463 166.045 37.577 166.406C42.555 165.551 44.588 163.936 45.481 161.333H53.67V160.098H45.823C45.918 159.642 45.994 159.148 46.051 158.635H53.974V157.381H46.165ZM72.727 149.8H65.108V150.807H72.727V149.8ZM72.195 155.044V151.662H65.545V155.082H66.78V152.555H70.903V155.044H72.195ZM67.578 153.391C68.167 153.847 68.851 154.55 69.174 155.025L69.915 154.341C69.592 153.847 68.889 153.201 68.3 152.764L67.578 153.391ZM64.177 149.8H56.634V150.807H64.177V149.8ZM58.61 158.616H61.764V160.003H58.591C58.61 159.604 58.61 159.243 58.61 158.882V158.616ZM61.764 156.621V157.647H58.61V156.621H61.764ZM66.324 157.647H63.037V156.621H66.324V157.647ZM70.846 158.616V160.003H67.616V158.616H70.846ZM63.037 160.003V158.616H66.324V160.003H63.037ZM68.281 165.095C67.464 165.095 67.312 165 67.312 164.544V163.233H71.948V162.226H67.312V160.972H72.157V157.647H67.616V156.621H72.67V155.576H65.602C65.412 155.139 65.108 154.588 64.823 154.189L63.778 154.531V151.662H57.261V155.082H58.496V152.555H62.505V155.044H63.778V154.949C63.892 155.139 64.006 155.367 64.101 155.576H57.28V158.844C57.28 160.858 57.109 163.651 55.684 165.665C55.95 165.817 56.52 166.273 56.748 166.539C57.869 164.962 58.325 162.853 58.515 160.972H59.921V164.373C59.921 165 59.541 165.133 59.237 165.209C59.408 165.456 59.598 166.007 59.636 166.33C60.016 166.14 60.624 166.026 65.317 165.437C65.298 165.171 65.298 164.715 65.317 164.411L61.251 164.848V163.233H65.279V162.226H61.251V160.972H66.001V164.544C66.001 165.817 66.438 166.159 68.148 166.159H71.283C72.518 166.159 72.917 165.741 73.05 164.202C72.689 164.145 72.176 163.955 71.91 163.765C71.853 164.905 71.739 165.095 71.15 165.095H68.281ZM61.536 154.341C61.232 153.885 60.586 153.239 60.016 152.764L59.294 153.353C59.826 153.847 60.472 154.531 60.757 155.025L61.536 154.341ZM80.992 157.381H77.002V153.41H80.992V157.381ZM77.002 163.195V158.635H80.992V163.195H77.002ZM78.598 149.059C78.465 149.952 78.123 151.225 77.838 152.137H75.71V165.969H77.002V164.468H82.284V152.137H79.13C79.453 151.32 79.795 150.275 80.118 149.344L78.598 149.059ZM91.575 152.08H85.894C86.217 151.187 86.483 150.275 86.711 149.344L85.362 149.021C84.754 151.624 83.728 154.246 82.455 155.918C82.759 156.108 83.367 156.488 83.614 156.716C84.279 155.823 84.868 154.664 85.4 153.391H90.226C89.979 160.953 89.694 163.841 89.067 164.506C88.877 164.753 88.668 164.791 88.288 164.791C87.851 164.791 86.711 164.791 85.476 164.677C85.742 165.076 85.913 165.646 85.951 166.064C87.015 166.121 88.098 166.159 88.763 166.083C89.409 166.026 89.846 165.855 90.264 165.323C91.024 164.392 91.271 161.466 91.575 152.802V152.08ZM88.573 160.63C87.965 159.509 86.654 157.685 85.59 156.336L84.488 156.982C85.533 158.35 86.806 160.231 87.376 161.371L88.573 160.63ZM107.706 162.492H103.146V161.067H107.706V162.492ZM103.146 158.616H107.706V159.946H103.146V158.616ZM97.655 155.253V153.885H101.74V155.253H97.655ZM107.402 153.885V155.253H103.146V153.885H107.402ZM111.069 159.946H109.112V157.571H103.146V156.241H108.808V152.897H103.146V151.795H110.708V150.636H103.146V149.116H101.74V150.636H94.33V151.795H101.74V152.897H96.306V156.241H101.74V157.571H95.774V158.616H101.74V159.946H93.969V161.067H101.74V162.492H95.603V163.575H101.74V164.886C101.74 165.209 101.626 165.323 101.265 165.342C100.942 165.342 99.802 165.361 98.662 165.323C98.852 165.646 99.08 166.159 99.156 166.52C100.733 166.52 101.721 166.501 102.31 166.292C102.88 166.083 103.146 165.76 103.146 164.886V163.575H107.706V164.43H109.112V161.067H111.069V159.946ZM118.802 162.91C117.548 163.727 115.135 164.468 113.178 164.791C113.463 165.057 113.843 165.513 114.033 165.855C116.009 165.399 118.498 164.43 119.866 163.404L118.802 162.91ZM123.4 163.575C125.205 164.24 127.618 165.209 128.872 165.817L129.746 164.924C128.435 164.316 126.022 163.404 124.236 162.815L123.4 163.575ZM124.521 153.657C124.255 154.208 123.78 155.006 123.4 155.538L124.065 155.747H118.821L119.6 155.538C119.429 155.025 119.03 154.246 118.593 153.657H124.521ZM122.165 160.763V159.338H128.112V158.255H122.165V156.887H129.043V155.747H124.692C125.11 155.272 125.566 154.626 126.003 153.999L124.768 153.657H129.708V152.479H126.782C127.276 151.757 127.903 150.712 128.435 149.743L126.991 149.344C126.668 150.199 126.06 151.453 125.528 152.232L126.288 152.479H123.989V149.116H122.64V152.479H120.379V149.116H119.049V152.479H116.731L117.681 152.099C117.415 151.339 116.731 150.161 116.066 149.306L114.869 149.724C115.458 150.579 116.104 151.719 116.389 152.479H113.33V153.657H118.232L117.225 153.923C117.624 154.474 118.004 155.215 118.194 155.747H114.09V156.887H120.778V158.255H115.059V159.338H120.778V160.763H113.273V161.96H120.778V166.463H122.165V161.96H129.784V160.763H122.165ZM138.372 160.288C138.22 159.281 137.726 157.571 137.27 156.26L136.187 156.545C136.396 157.115 136.586 157.78 136.757 158.426L134.021 158.787C135.541 157.02 137.042 154.835 138.258 152.65L137.004 151.928C136.586 152.783 136.111 153.657 135.598 154.455L133.622 154.645C134.648 153.239 135.674 151.396 136.491 149.61L135.18 149.078C134.439 151.111 133.166 153.277 132.748 153.828C132.387 154.398 132.064 154.797 131.741 154.873C131.893 155.215 132.121 155.88 132.197 156.146C132.463 156.032 132.862 155.956 134.8 155.709C134.135 156.716 133.527 157.495 133.242 157.818C132.672 158.521 132.254 158.977 131.855 159.072C132.007 159.452 132.235 160.117 132.311 160.421C132.653 160.231 133.242 160.098 137.023 159.547C137.099 159.927 137.175 160.307 137.213 160.63L138.372 160.288ZM132.653 161.238C132.482 162.796 132.197 164.506 131.741 165.684C132.045 165.779 132.577 165.969 132.824 166.102C133.242 164.905 133.584 163.1 133.793 161.428L132.653 161.238ZM134.496 161.39C134.705 162.663 134.895 164.354 134.914 165.437L136.035 165.247C135.978 164.145 135.769 162.492 135.56 161.2L134.496 161.39ZM136.263 161.029C136.605 161.998 137.004 163.29 137.156 164.126L138.201 163.784C138.03 162.967 137.631 161.694 137.251 160.744L136.263 161.029ZM142.153 159.281L141.925 159.338H138.923V160.516H141.374C140.69 162.359 139.341 163.841 137.897 164.563C138.163 164.791 138.524 165.266 138.714 165.57C140.633 164.487 142.286 162.454 142.97 159.585L142.153 159.281ZM140.937 154.949H146.846V156.64H140.937V154.949ZM140.937 152.232H146.846V153.885H140.937V152.232ZM147.758 158.426C147.245 159.072 146.371 159.946 145.63 160.63C145.25 159.927 144.965 159.205 144.737 158.445V157.761H148.214V151.111H143.939C144.186 150.598 144.471 149.99 144.737 149.42L143.16 149.097C143.027 149.686 142.78 150.465 142.514 151.111H139.607V157.761H143.388V164.886C143.388 165.114 143.312 165.171 143.065 165.19C142.837 165.209 142.039 165.209 141.146 165.171C141.336 165.551 141.488 166.083 141.564 166.482C142.78 166.482 143.578 166.463 144.072 166.235C144.585 166.007 144.737 165.627 144.737 164.905V161.333C145.63 163.176 146.827 164.715 148.328 165.646C148.556 165.285 148.955 164.772 149.259 164.525C148.043 163.898 146.979 162.853 146.162 161.561C146.998 160.934 147.967 160.06 148.822 159.281L147.758 158.426ZM158.873 160.402H160.127L160.507 153.03L160.545 150.788H158.455L158.493 153.03L158.873 160.402ZM159.5 165.095C160.165 165.095 160.716 164.601 160.716 163.841C160.716 163.081 160.165 162.568 159.5 162.568C158.835 162.568 158.284 163.081 158.284 163.841C158.284 164.601 158.816 165.095 159.5 165.095Z" fill="#309AB0"/>
<path d="M40.231 37H45.889C49.638 37 52.375 35.39 52.375 32.032C52.375 29.732 50.972 28.421 49.04 28.007V27.892C50.558 27.386 51.455 25.845 51.455 24.235C51.455 21.176 48.948 20.049 45.475 20.049H40.231V37ZM42.899 27.133V22.142H45.245C47.637 22.142 48.833 22.809 48.833 24.58C48.833 26.167 47.752 27.133 45.176 27.133H42.899ZM42.899 34.907V29.134H45.59C48.281 29.134 49.753 29.985 49.753 31.894C49.753 33.964 48.235 34.907 45.59 34.907H42.899ZM72.6518 28.651V32.469H67.3848V28.651H72.6518ZM74.6298 34.263V26.857H65.4068V35.873H67.3848V34.263H74.6298ZM75.7798 22.924H64.2798V24.741H75.7798V22.924ZM79.5288 18.83H60.5308V38.863H62.6008V20.854H77.4358V36.241C77.4358 36.632 77.2978 36.77 76.9068 36.793C76.5158 36.793 75.1818 36.816 73.8708 36.747C74.1698 37.299 74.5148 38.265 74.6068 38.84C76.5388 38.863 77.7348 38.794 78.4938 38.449C79.2528 38.104 79.5288 37.46 79.5288 36.241V18.83ZM95.6518 20.67C95.2838 20.348 94.8008 20.003 94.2488 19.658C94.7088 19.221 95.0998 18.761 95.4448 18.301L93.9958 17.91C93.7428 18.232 93.4208 18.6 93.0298 18.922C92.5238 18.623 91.9718 18.347 91.4888 18.117L90.4538 19.014C90.9368 19.221 91.4428 19.497 91.9028 19.773C91.3278 20.187 90.6608 20.555 90.0168 20.831C90.3848 21.061 90.9368 21.59 91.1898 21.82C91.8338 21.498 92.5238 21.038 93.1678 20.555C93.7428 20.923 94.2488 21.291 94.5938 21.636L95.6518 20.67ZM86.9348 24.81H89.8328C90.1548 25.04 90.6838 25.569 90.9138 25.868H86.9808L86.9348 24.81ZM85.2558 27.478H100.735V30.261H102.851V25.868H101.103C101.287 23.798 101.494 20.854 101.609 18.531H96.1348V19.934H99.5158L99.4698 20.969H96.2498V22.349H99.3778L99.2858 23.407H96.1348V24.81H99.1938C99.1478 25.178 99.1018 25.523 99.0788 25.868H91.0518C91.7188 25.477 92.4548 25.04 93.1218 24.511C93.7658 24.948 94.2948 25.362 94.6628 25.73L95.7438 24.741C95.3528 24.373 94.8468 23.982 94.2258 23.568C94.7088 23.108 95.1228 22.648 95.4908 22.165L94.0418 21.705C93.7658 22.096 93.4208 22.464 93.0068 22.832C92.4778 22.51 91.9028 22.211 91.3968 21.958L90.3618 22.855C90.8448 23.085 91.3738 23.384 91.8568 23.683C91.2588 24.097 90.5688 24.465 89.9248 24.764V23.407H86.8198L86.7508 22.349H89.8328V20.969H86.6818L86.6128 20.049C87.7628 19.842 89.0048 19.52 89.9938 19.152L89.0738 17.887C87.8778 18.255 85.8998 18.83 84.5658 19.06L84.9798 25.868H83.2318V30.261H85.2558V27.478ZM103.242 32.722H94.2948V32.538C96.0428 31.779 97.8368 30.79 99.1708 29.755L97.9518 28.651L97.4918 28.766H87.0728V30.33H95.3068C94.3408 30.928 93.2138 31.48 92.2018 31.894V32.722H82.7718V34.47H92.2018V36.609C92.2018 36.908 92.0868 37 91.7188 37C91.3738 37 90.0398 37 88.7748 36.954C89.0508 37.46 89.3498 38.219 89.4648 38.771C91.2588 38.771 92.4318 38.771 93.2598 38.472C94.0648 38.196 94.2948 37.69 94.2948 36.678V34.47H103.242V32.722Z" fill="#EEB74D"/>
<defs>
<filter id="filter0_d" x="0" y="0" width="399" height="260" filterUnits="userSpaceOnUse" color-interpolation-filters="sRGB">
<feFlood flood-opacity="0" result="BackgroundImageFix"/>
<feColorMatrix in="SourceAlpha" type="matrix" values="0 0 0 0 0 0 0 0 0 0 0 0 0 0 0 0 0 0 127 0" result="hardAlpha"/>
<feOffset dy="4"/>
<feGaussianBlur stdDeviation="2"/>
<feComposite in2="hardAlpha" operator="out"/>
<feColorMatrix type="matrix" values="0 0 0 0 0 0 0 0 0 0 0 0 0 0 0 0 0 0 0.25 0"/>
<feBlend mode="normal" in2="BackgroundImageFix" result="effect1_dropShadow"/>
<feBlend mode="normal" in="SourceGraphic" in2="effect1_dropShadow" result="shape"/>
</filter>
</defs>
</svg>
