<svg width="399" height="260" viewBox="0 0 399 260" fill="none" xmlns="http://www.w3.org/2000/svg">
<g filter="url(#filter0_d)">
<rect x="4" width="391" height="252" rx="8" fill="white" fill-opacity="0.5" shape-rendering="crispEdges"/>
</g>
<path d="M53.442 62.764C52.834 61.871 51.504 60.541 50.421 59.61L49.338 60.351C50.44 61.32 51.732 62.688 52.302 63.581L53.442 62.764ZM51.751 66.906C51.105 68.122 50.269 69.281 49.262 70.364C48.939 69.11 48.673 67.647 48.483 66.032H53.917V64.683H48.331C48.179 62.992 48.103 61.168 48.103 59.268H46.659C46.678 61.13 46.754 62.954 46.925 64.683H42.574V61.377C43.733 61.13 44.835 60.826 45.747 60.503L44.74 59.344C42.954 60.009 39.895 60.655 37.235 61.054C37.425 61.396 37.615 61.89 37.691 62.232C38.812 62.08 40.009 61.89 41.187 61.662V64.683H37.121V66.032H41.187V69.357C39.534 69.699 37.995 70.022 36.855 70.212L37.254 71.637C38.394 71.39 39.762 71.067 41.187 70.763V74.62C41.187 74.962 41.073 75.057 40.731 75.057C40.408 75.076 39.287 75.095 38.071 75.038C38.28 75.437 38.527 76.083 38.603 76.463C40.142 76.463 41.168 76.425 41.757 76.197C42.346 75.969 42.574 75.551 42.574 74.639V70.421C43.733 70.155 44.911 69.889 46.07 69.604L45.975 68.331C44.854 68.578 43.695 68.825 42.574 69.072V66.032H47.039C47.286 68.084 47.647 69.965 48.103 71.542C46.754 72.796 45.196 73.841 43.6 74.62C43.961 74.924 44.36 75.399 44.569 75.741C45.994 75 47.343 74.05 48.578 72.948C49.452 75.171 50.592 76.501 52.093 76.501C53.518 76.501 54.012 75.589 54.278 72.454C53.879 72.321 53.385 71.998 53.081 71.694C52.967 74.126 52.739 75.095 52.226 75.095C51.276 75.095 50.421 73.879 49.699 71.884C51.029 70.535 52.15 69.034 53.005 67.419L51.751 66.906ZM69.364 62.498H59.541V60.959H69.364V62.498ZM69.364 65.063H59.541V63.524H69.364V65.063ZM70.77 59.876H58.154V66.146H70.77V59.876ZM65.355 72.055H71.625V70.801H65.355V68.692H72.86V67.419H56.178V68.692H63.968V74.411C62.334 73.974 61.118 73.1 60.377 71.39C60.567 70.782 60.738 70.155 60.871 69.49L59.446 69.3C58.933 72.074 57.736 74.202 55.76 75.475C56.064 75.703 56.615 76.235 56.805 76.482C58.04 75.57 59.028 74.392 59.769 72.91C61.308 75.475 63.721 76.083 67.54 76.083H72.708C72.784 75.665 73.012 75.057 73.202 74.734C72.233 74.753 68.3 74.753 67.597 74.753C66.799 74.753 66.039 74.715 65.355 74.639V72.055ZM78.56 59.192C77.61 62.061 76.09 64.911 74.399 66.754C74.646 67.096 75.026 67.875 75.14 68.179C75.786 67.457 76.394 66.602 76.983 65.671V76.463H78.332V63.239C78.921 62.061 79.434 60.807 79.852 59.553L78.56 59.192ZM87.68 71.428H84.469V68.483H87.68V71.428ZM89.542 65.329V64.246H86.616V62.099H85.457V64.246H82.607V65.329H85.457V67.419H83.386V72.473H88.801V67.419H86.616V65.329H89.542ZM81.828 74.05V61.491H90.188V74.05H81.828ZM80.517 60.256V76.425H81.828V75.304H90.188V76.273H91.537V60.256H80.517ZM110.746 67.799V66.374H103.013C103.089 65.652 103.108 64.911 103.108 64.246V62.004H109.929V60.579H94.995V62.004H101.645V64.227C101.645 64.892 101.626 65.633 101.531 66.374H94.33V67.799H101.246C100.581 70.459 98.738 73.252 93.855 75.247C94.159 75.532 94.596 76.064 94.767 76.425C99.593 74.43 101.664 71.637 102.519 68.863C104.02 72.549 106.547 75.152 110.328 76.406C110.537 76.026 110.955 75.437 111.278 75.133C107.44 74.031 104.856 71.39 103.526 67.799H110.746ZM122.26 74.487V69.661H128.359V68.293H122.26V64.151H129.062V62.764H122.26V59.116H120.816V62.764H116.959C117.377 61.795 117.719 60.769 118.023 59.724L116.598 59.42C115.857 62.118 114.641 64.74 113.083 66.412C113.463 66.602 114.09 67.02 114.375 67.248C115.078 66.393 115.743 65.348 116.351 64.151H120.816V68.293H115.173V69.661H120.816V74.487H113.121V75.855H129.955V74.487H122.26ZM148.556 64.892C147.568 64.227 145.706 63.22 144.262 62.479C144.319 62.327 144.376 62.137 144.414 61.947H148.594V60.769H144.642C144.699 60.275 144.737 59.705 144.775 59.116H143.483C143.445 59.724 143.407 60.275 143.331 60.769H139.36V61.947H143.084C142.59 63.505 141.488 64.379 138.942 64.93C139.17 65.158 139.493 65.633 139.607 65.956C141.773 65.462 143.027 64.702 143.768 63.543C145.212 64.303 146.808 65.272 147.682 65.88L148.556 64.892ZM134.838 61.681V66.07H133.584V61.681H134.838ZM137.156 66.07H135.826V61.681H137.156V66.07ZM135.826 71.96V67.267H137.156V71.96H135.826ZM133.584 67.267H134.838V71.96H133.584V67.267ZM138.258 60.484H132.501V74.601H133.584V73.157H138.258V60.484ZM143.806 69.737V72.074H141.165V69.737H143.806ZM145.003 73.138V68.692H139.987V74.202H141.165V73.138H145.003ZM149.145 66.127H138.733V67.343H146.599V74.81C146.599 75.095 146.504 75.171 146.2 75.19C145.877 75.209 144.813 75.209 143.597 75.171C143.787 75.532 144.034 76.083 144.11 76.463C145.611 76.463 146.58 76.444 147.169 76.235C147.739 76.007 147.929 75.627 147.929 74.848V67.343H149.145V66.127ZM153.154 64.17C153.781 64.854 154.541 65.804 154.902 66.393L155.605 65.88V68.046C154.655 68.654 153.743 69.186 153.059 69.585C153.135 68.483 153.154 67.419 153.154 66.507V64.17ZM155.605 61.092V65.538C155.187 64.968 154.522 64.17 153.914 63.581L153.154 64.075V61.092H155.605ZM167.575 61.567H160.127C160.393 60.864 160.659 60.142 160.868 59.382L159.481 59.097C158.93 61.13 158.018 63.106 156.783 64.474V59.8H151.957V66.507C151.957 69.243 151.862 72.986 150.665 75.665C150.931 75.779 151.444 76.235 151.634 76.501C152.527 74.563 152.907 71.998 153.059 69.68L153.591 70.763C154.237 70.269 154.921 69.756 155.605 69.224V74.753C155.605 75.019 155.51 75.114 155.263 75.114C155.054 75.114 154.294 75.133 153.458 75.095C153.61 75.437 153.781 75.988 153.819 76.33C155.035 76.33 155.738 76.311 156.194 76.083C156.631 75.874 156.783 75.494 156.783 74.772V65.158C157.087 65.367 157.372 65.633 157.543 65.804C157.638 65.709 157.714 65.614 157.809 65.5V73.613H164.972V65.386H163.87V72.473H158.911V65.5H157.809C158.417 64.759 159.025 63.866 159.519 62.859H166.283C166.283 71.333 166.207 74.335 165.808 74.886C165.637 75.133 165.485 75.209 165.143 75.19C164.763 75.19 163.737 75.19 162.635 75.114C162.882 75.475 163.034 76.026 163.053 76.406C164.003 76.444 165.048 76.482 165.675 76.406C166.283 76.349 166.663 76.178 167.005 75.646C167.575 74.791 167.575 71.846 167.575 62.289V61.567ZM163.585 71.219C163.224 70.307 162.635 69.148 161.951 67.913C162.464 66.83 162.901 65.69 163.281 64.588L162.274 64.303C162.008 65.139 161.704 65.994 161.343 66.83C160.868 66.013 160.355 65.177 159.899 64.436L159.044 64.854C159.633 65.804 160.26 66.887 160.849 67.951C160.26 69.167 159.633 70.307 158.968 71.2C159.234 71.333 159.671 71.637 159.861 71.808C160.374 71.029 160.925 70.079 161.438 69.053C161.932 70.041 162.388 70.953 162.673 71.694L163.585 71.219ZM183.478 61.852C182.452 65.291 180.742 67.989 178.557 70.079C176.41 67.875 174.852 65.082 173.807 61.852H183.478ZM184.295 60.389L184.067 60.465H170.919V61.852H172.363C173.541 65.5 175.175 68.616 177.474 71.067C175.232 72.872 172.61 74.145 169.779 74.981C170.102 75.266 170.52 75.912 170.672 76.273C173.522 75.342 176.182 73.993 178.481 72.055C180.59 73.974 183.174 75.38 186.385 76.254C186.594 75.874 186.993 75.285 187.316 74.981C184.219 74.221 181.654 72.853 179.564 71.048C182.167 68.54 184.143 65.177 185.245 60.826L184.295 60.389ZM203.067 63.79V65.823H192.066V65.025V63.79H203.067ZM204.454 66.925V62.669H192.066V61.301C196.265 61.149 201.015 60.769 204.188 60.199L203.219 59.154C200.312 59.705 195.068 60.085 190.679 60.237V65.025C190.679 68.122 190.508 72.606 188.703 75.76C189.083 75.855 189.71 76.159 189.995 76.368C191.477 73.689 191.933 69.965 192.047 66.925H204.454ZM201.129 71.618V69.661H203.618V71.618H201.129ZM197.462 71.618V69.661H199.894V71.618H197.462ZM193.871 71.618V69.661H196.246V71.618H193.871ZM204.967 68.483H192.56V76.425H193.871V72.777H196.246V76.216H197.462V72.777H199.894V76.216H201.129V72.777H203.618V75.038C203.618 75.209 203.58 75.266 203.371 75.266C203.181 75.285 202.611 75.285 201.927 75.266C202.098 75.608 202.269 76.102 202.307 76.463C203.333 76.463 203.998 76.444 204.416 76.235C204.872 76.007 204.967 75.684 204.967 75.038V68.483ZM212.453 67.875H220.262V68.825C220.034 69.034 219.806 69.224 219.578 69.414C217.127 69.585 214.657 69.737 212.453 69.87V67.875ZM220.262 62.232V63.98H212.453V62.232H220.262ZM220.262 66.811H212.453V65.063H220.262V66.811ZM223.473 65.158C222.941 65.956 222.352 66.716 221.687 67.438V60.978H216.481C216.804 60.465 217.127 59.876 217.393 59.325L215.702 59.059C215.531 59.61 215.246 60.332 214.923 60.978H211.047V69.946C209.945 70.003 208.957 70.06 208.102 70.098L208.311 71.504C210.819 71.333 214.239 71.067 217.716 70.782C214.885 72.663 211.541 74.069 207.931 75.019C208.216 75.304 208.672 75.969 208.862 76.292C213.099 75.038 217.032 73.214 220.262 70.687V74.468C220.262 74.867 220.129 75 219.73 75C219.312 75.019 217.887 75.038 216.386 74.962C216.614 75.38 216.842 76.045 216.918 76.444C218.837 76.463 220.072 76.444 220.775 76.216C221.478 75.95 221.687 75.475 221.687 74.487V69.471C222.865 68.388 223.91 67.191 224.822 65.861L223.473 65.158ZM232.992 67.381H229.002V63.41H232.992V67.381ZM229.002 73.195V68.635H232.992V73.195H229.002ZM230.598 59.059C230.465 59.952 230.123 61.225 229.838 62.137H227.71V75.969H229.002V74.468H234.284V62.137H231.13C231.453 61.32 231.795 60.275 232.118 59.344L230.598 59.059ZM243.575 62.08H237.894C238.217 61.187 238.483 60.275 238.711 59.344L237.362 59.021C236.754 61.624 235.728 64.246 234.455 65.918C234.759 66.108 235.367 66.488 235.614 66.716C236.279 65.823 236.868 64.664 237.4 63.391H242.226C241.979 70.953 241.694 73.841 241.067 74.506C240.877 74.753 240.668 74.791 240.288 74.791C239.851 74.791 238.711 74.791 237.476 74.677C237.742 75.076 237.913 75.646 237.951 76.064C239.015 76.121 240.098 76.159 240.763 76.083C241.409 76.026 241.846 75.855 242.264 75.323C243.024 74.392 243.271 71.466 243.575 62.802V62.08ZM240.573 70.63C239.965 69.509 238.654 67.685 237.59 66.336L236.488 66.982C237.533 68.35 238.806 70.231 239.376 71.371L240.573 70.63ZM253.702 59.173C253.645 62.061 253.759 71.295 245.874 75.285C246.311 75.57 246.767 76.007 247.014 76.387C251.65 73.917 253.664 69.661 254.538 65.861C255.45 69.395 257.483 74.088 262.233 76.311C262.442 75.912 262.86 75.437 263.259 75.114C256.552 72.131 255.412 64.189 255.127 61.928C255.222 60.807 255.241 59.857 255.26 59.173H253.702ZM271.942 71.428C273.937 70.725 275.229 69.167 275.229 67.115C275.229 65.785 274.659 64.93 273.614 64.93C272.835 64.93 272.17 65.405 272.17 66.298C272.17 67.191 272.816 67.647 273.595 67.647C273.709 67.647 273.804 67.647 273.918 67.628C273.823 68.92 272.987 69.813 271.524 70.421L271.942 71.428ZM292.614 74.145V66.621H299.682V65.215H292.614V59.401H291.132V74.145H284.045V75.551H300.974V74.145H292.614ZM305.154 64.17C305.781 64.854 306.541 65.804 306.902 66.393L307.605 65.88V68.046C306.655 68.654 305.743 69.186 305.059 69.585C305.135 68.483 305.154 67.419 305.154 66.507V64.17ZM307.605 61.092V65.538C307.187 64.968 306.522 64.17 305.914 63.581L305.154 64.075V61.092H307.605ZM319.575 61.567H312.127C312.393 60.864 312.659 60.142 312.868 59.382L311.481 59.097C310.93 61.13 310.018 63.106 308.783 64.474V59.8H303.957V66.507C303.957 69.243 303.862 72.986 302.665 75.665C302.931 75.779 303.444 76.235 303.634 76.501C304.527 74.563 304.907 71.998 305.059 69.68L305.591 70.763C306.237 70.269 306.921 69.756 307.605 69.224V74.753C307.605 75.019 307.51 75.114 307.263 75.114C307.054 75.114 306.294 75.133 305.458 75.095C305.61 75.437 305.781 75.988 305.819 76.33C307.035 76.33 307.738 76.311 308.194 76.083C308.631 75.874 308.783 75.494 308.783 74.772V65.158C309.087 65.367 309.372 65.633 309.543 65.804C309.638 65.709 309.714 65.614 309.809 65.5V73.613H316.972V65.386H315.87V72.473H310.911V65.5H309.809C310.417 64.759 311.025 63.866 311.519 62.859H318.283C318.283 71.333 318.207 74.335 317.808 74.886C317.637 75.133 317.485 75.209 317.143 75.19C316.763 75.19 315.737 75.19 314.635 75.114C314.882 75.475 315.034 76.026 315.053 76.406C316.003 76.444 317.048 76.482 317.675 76.406C318.283 76.349 318.663 76.178 319.005 75.646C319.575 74.791 319.575 71.846 319.575 62.289V61.567ZM315.585 71.219C315.224 70.307 314.635 69.148 313.951 67.913C314.464 66.83 314.901 65.69 315.281 64.588L314.274 64.303C314.008 65.139 313.704 65.994 313.343 66.83C312.868 66.013 312.355 65.177 311.899 64.436L311.044 64.854C311.633 65.804 312.26 66.887 312.849 67.951C312.26 69.167 311.633 70.307 310.968 71.2C311.234 71.333 311.671 71.637 311.861 71.808C312.374 71.029 312.925 70.079 313.438 69.053C313.932 70.041 314.388 70.953 314.673 71.694L315.585 71.219ZM338.271 62.555V61.282H325.997C326.415 60.674 326.795 60.028 327.118 59.382L325.864 58.983C324.952 60.845 323.432 62.65 321.836 63.79C322.121 64.056 322.558 64.626 322.71 64.892C323.527 64.246 324.325 63.448 325.047 62.555H338.271ZM323.774 76.463C324.477 75.456 325.218 73.879 325.693 72.644L324.363 72.302C323.888 73.537 323.109 75.019 322.444 75.931L323.774 76.463ZM327.536 72.834C327.764 73.974 327.935 75.437 327.935 76.311L329.322 76.102C329.303 75.247 329.094 73.822 328.847 72.72L327.536 72.834ZM331.45 72.796C331.925 73.917 332.419 75.38 332.59 76.273L333.977 75.988C333.787 75.095 333.274 73.651 332.742 72.568L331.45 72.796ZM335.364 72.72C336.048 73.898 336.903 75.475 337.264 76.425L338.632 75.836C338.214 74.905 337.34 73.347 336.637 72.207L335.364 72.72ZM326.32 67.02H328.296V70.25H326.32V67.02ZM331.716 67.02V70.25H329.512V67.02H331.716ZM335.022 67.02V70.25H332.932V67.02H335.022ZM336.333 70.25V67.02H338.48V65.747H336.333V63.657H335.022V65.747H332.932V63.657H331.716V65.747H329.512V63.657H328.296V65.747H326.32V63.657H325.047V65.747H322.767V67.02H325.047V70.25H322.14V71.523H338.879V70.25H336.333ZM354.63 73.062C353.585 72.055 351.476 70.516 349.842 69.414C350.108 68.73 350.279 68.046 350.431 67.324H348.987C348.512 69.566 347.467 71.884 343.99 73.043C344.313 73.29 344.693 73.765 344.845 74.107C347.068 73.271 348.417 72.036 349.272 70.592C350.849 71.732 352.673 73.176 353.604 74.107L354.63 73.062ZM357.119 61.89H350.26C350.412 61.035 350.507 60.142 350.583 59.173H349.101C349.044 60.142 348.949 61.054 348.797 61.89H341.881V76.444H343.268V63.277H348.474C347.847 65.196 346.612 66.659 344.066 67.59C344.37 67.837 344.769 68.312 344.94 68.654C347.068 67.837 348.379 66.659 349.196 65.177C350.887 66.203 352.806 67.552 353.832 68.426L354.782 67.324C353.642 66.393 351.457 65.006 349.728 64.018C349.804 63.771 349.88 63.543 349.956 63.277H355.732V74.639C355.732 74.962 355.637 75.076 355.295 75.095C354.934 75.095 353.775 75.114 352.54 75.057C352.73 75.437 352.92 76.083 352.977 76.482C354.554 76.482 355.675 76.463 356.321 76.216C356.929 75.988 357.119 75.532 357.119 74.639V61.89ZM50.953 94.455H44.379V93.581H50.953V94.455ZM50.953 96.07H44.379V95.196H50.953V96.07ZM50.953 97.704H44.379V96.811H50.953V97.704ZM43.163 92.821V98.464H52.207V92.821H47.742C47.913 92.536 48.046 92.213 48.217 91.871H53.67V90.845H50.535C50.839 90.408 51.181 89.895 51.504 89.401L50.174 89.116C49.965 89.591 49.547 90.313 49.186 90.845H46.089L46.374 90.75C46.203 90.275 45.766 89.553 45.348 89.059L44.208 89.42C44.531 89.838 44.873 90.389 45.063 90.845H41.928V91.871H46.868C46.754 92.194 46.621 92.517 46.488 92.821H43.163ZM40.769 90.978C40.522 90.465 39.99 89.705 39.515 89.135L38.356 89.439C38.774 90.028 39.325 90.826 39.572 91.358L40.769 90.978ZM41.567 94.721L41.339 94.778H39.382C40.313 93.904 41.434 92.764 42.08 92.023L41.225 91.548L40.902 91.681H37.368V92.84H39.838C39.192 93.524 38.451 94.265 38.128 94.531C37.786 94.835 37.482 94.949 37.254 95.025C37.387 95.291 37.653 95.88 37.748 96.184V96.203C37.862 96.051 38.375 95.937 38.831 95.937H40.56C39.838 97.628 38.565 98.958 37.14 99.756C37.387 99.946 37.748 100.459 37.881 100.763C38.831 100.174 39.743 99.376 40.522 98.331C41.624 100.041 43.448 100.364 46.906 100.364C49.186 100.364 51.922 100.288 53.822 100.193C53.898 99.832 54.031 99.243 54.24 98.958C52.15 99.148 49.129 99.205 46.887 99.205C43.771 99.205 42.042 99.015 41.073 97.495C41.472 96.773 41.833 95.975 42.099 95.101L41.567 94.721ZM40.636 103.442C41.586 104.145 42.688 105.19 43.182 105.893L44.227 105.038C43.695 104.335 42.574 103.347 41.624 102.682L40.636 103.442ZM49.794 100.516H48.426V101.542H37.121V102.663H48.426V104.829C48.426 105.076 48.331 105.152 48.027 105.152C47.723 105.171 46.659 105.19 45.443 105.152C45.633 105.513 45.842 105.988 45.918 106.368C47.457 106.368 48.426 106.368 49.034 106.159C49.642 105.95 49.794 105.608 49.794 104.848V102.663H53.841V101.542H49.794V100.516ZM64.272 96.146C63.835 95.215 62.866 93.638 62.03 92.498L60.966 93.03C61.327 93.543 61.707 94.17 62.068 94.759L58.059 95.082C58.781 94.075 59.503 92.859 60.111 91.624H64.462V90.332H56.045V91.624H58.572C57.983 92.935 57.223 94.132 56.938 94.493C56.634 94.949 56.349 95.253 56.083 95.31C56.235 95.671 56.444 96.336 56.52 96.621C56.938 96.431 57.603 96.336 62.695 95.88C62.866 96.203 63.018 96.507 63.132 96.773L64.272 96.146ZM64.462 102.587C63.303 102.777 62.125 102.986 60.985 103.176V100.326H64.12V99.034H60.985V96.887H59.579V99.034H56.311V100.326H59.579V103.404C58.154 103.632 56.843 103.841 55.817 103.993L56.045 105.437C58.287 105.038 61.498 104.468 64.538 103.898L64.462 102.587ZM71.093 93.942C70.599 96.64 69.687 98.92 68.49 100.782C67.73 99.509 67.084 98.084 66.571 96.564C66.894 95.728 67.16 94.854 67.407 93.942H71.093ZM71.758 92.555L71.53 92.612H67.749C67.977 91.567 68.186 90.484 68.376 89.401L67.046 89.173C66.799 90.997 66.419 92.802 65.944 94.417C65.773 93.771 65.621 93.125 65.488 92.441L64.386 92.65C64.652 93.923 64.937 95.139 65.279 96.279C64.975 97.02 64.633 97.723 64.234 98.312C64.5 98.616 64.937 99.281 65.089 99.604C65.374 99.148 65.64 98.635 65.906 98.122C66.4 99.49 66.989 100.763 67.673 101.884C66.438 103.423 64.994 104.544 63.36 105.266C63.664 105.532 64.101 106.159 64.291 106.52C65.887 105.741 67.312 104.62 68.547 103.157C69.573 104.506 70.77 105.627 72.214 106.444C72.442 106.083 72.879 105.589 73.183 105.361C71.682 104.582 70.428 103.48 69.364 102.055C70.96 99.718 72.119 96.697 72.632 92.84L71.758 92.555ZM90.967 93.315H84.393C84.222 92.27 84.108 91.149 84.051 89.952H79.434V91.206H82.854C82.892 91.947 82.968 92.65 83.063 93.315H76.147V106.444H77.553V94.702H82.493C81.847 97.685 80.289 99.737 77.743 100.972C78.047 101.238 78.484 101.77 78.693 102.093C81.22 100.801 82.778 98.692 83.576 95.785C84.393 98.635 85.856 100.763 88.345 101.998C88.573 101.618 89.029 101.067 89.333 100.763C86.844 99.699 85.419 97.609 84.697 94.702H89.542V104.601C89.542 104.905 89.466 105 89.124 105.019C88.744 105.038 87.566 105.038 86.331 105C86.54 105.38 86.749 106.026 86.806 106.425C88.421 106.425 89.504 106.425 90.15 106.197C90.777 105.95 90.967 105.494 90.967 104.601V93.315ZM109.15 95.158C108.219 96.317 106.737 97.742 105.426 98.844C104.666 97.305 104.172 95.557 103.792 93.543H110.803V92.175H102.614L103.868 91.738C103.659 91.016 103.127 89.876 102.595 89.021L101.189 89.458C101.664 90.294 102.158 91.434 102.367 92.175H94.216V93.543H101.17C99.46 95.823 96.629 97.989 93.722 99.3C93.95 99.585 94.349 100.155 94.501 100.497C95.698 99.927 96.857 99.243 97.959 98.483V103.651C97.959 104.525 97.332 105.076 96.952 105.285C97.199 105.551 97.579 106.102 97.712 106.406C98.206 106.064 98.928 105.798 104.856 103.917C104.742 103.594 104.59 103.024 104.533 102.625L99.384 104.221V97.362C100.6 96.355 101.664 95.253 102.538 94.094C103.545 99.3 105.35 102.872 110.29 105.988C110.461 105.551 110.917 105.038 111.278 104.753C108.884 103.347 107.25 101.827 106.072 99.984C107.459 98.882 109.112 97.362 110.347 96.013L109.15 95.158ZM124.996 91.586C123.4 90.712 120.322 89.686 118.004 89.135L117.32 90.294C119.676 90.883 122.735 92.023 124.274 92.897L124.996 91.586ZM118.498 96.602L118.251 96.659H113.121V98.008H117.643C116.693 100.782 114.831 102.967 112.741 104.202C113.064 104.43 113.634 104.962 113.843 105.266C116.275 103.708 118.46 100.896 119.429 97.02L118.498 96.602ZM128.321 94.36C127.219 95.595 125.433 97.21 123.932 98.35C123.248 97.134 122.716 95.804 122.298 94.398V92.992H115.591V94.36H120.816V104.62C120.816 104.924 120.702 105.019 120.36 105.038C120.056 105.057 118.935 105.057 117.776 105C118.004 105.399 118.232 106.026 118.289 106.406C119.866 106.406 120.873 106.387 121.481 106.159C122.089 105.931 122.298 105.494 122.298 104.639V97.913C123.799 101.276 126.079 103.841 129.271 105.228C129.48 104.829 129.936 104.278 130.24 103.993C127.884 103.1 126.003 101.485 124.597 99.395C126.174 98.293 128.112 96.659 129.594 95.272L128.321 94.36ZM148.803 92.954H143.331V91.605H147.701V90.541H143.331V89.135H141.963V90.541H137.764V91.605H141.963V92.954H136.7V94.037H148.803V92.954ZM139.626 96.127H145.649V97.951H139.626V96.127ZM141.165 102.796V100.554C141.849 100.079 142.476 99.528 142.989 98.977H147.017V95.101H138.334V98.977H141.355C140.082 100.136 138.087 101.105 136.263 101.694C136.51 101.941 136.928 102.473 137.061 102.739C138.03 102.359 139.037 101.865 139.987 101.314V102.53C139.987 103.195 139.607 103.366 139.36 103.461C139.531 103.689 139.721 104.202 139.759 104.487C140.082 104.259 140.595 104.05 144.3 102.834C144.243 102.606 144.186 102.188 144.186 101.884L141.165 102.796ZM148.746 103.138C148.062 102.53 146.998 101.77 145.877 101.048C146.713 100.592 147.682 99.984 148.48 99.357L147.416 98.692C146.827 99.224 145.82 99.965 144.984 100.497C144.433 100.174 143.92 99.87 143.426 99.623L142.552 100.402C144.414 101.428 146.694 102.986 147.796 104.012L148.746 103.138ZM135.959 92.042C135.484 91.263 134.534 90.047 133.717 89.116L132.634 89.705C133.413 90.655 134.401 91.985 134.857 92.783L135.959 92.042ZM135.75 98.122L135.503 98.16H133.66C134.572 96.868 135.75 94.835 136.396 93.752L135.465 93.391L135.237 93.486H131.95V94.645H134.496C133.831 95.804 132.9 97.343 132.539 97.78C132.273 98.122 131.988 98.236 131.703 98.312C131.855 98.597 132.159 99.243 132.235 99.585C132.349 99.452 132.862 99.319 133.28 99.319H134.971C134.42 102.226 133.242 104.316 131.646 105.513C131.95 105.703 132.387 106.197 132.577 106.463C133.451 105.779 134.192 104.848 134.838 103.632C136.32 105.76 138.733 106.14 142.609 106.14C144.718 106.14 147.112 106.102 148.898 105.988C148.974 105.608 149.145 104.981 149.354 104.677C147.416 104.848 144.623 104.924 142.628 104.924C138.999 104.924 136.586 104.62 135.332 102.511C135.807 101.333 136.149 99.946 136.377 98.388L135.75 98.122ZM152.888 92.593H157.03C156.783 95.31 155.947 96.545 151.748 97.153C152.014 97.419 152.318 97.951 152.413 98.293C157.106 97.514 158.17 95.937 158.455 92.593H160.887V95.614C160.887 97.096 161.305 97.609 162.882 97.609H166.226C166.834 97.609 167.499 97.59 167.822 97.495C167.784 97.172 167.727 96.621 167.67 96.241C167.328 96.317 166.587 96.355 166.15 96.355H162.901C162.369 96.355 162.274 96.165 162.274 95.633V92.593H165.998V95.082H167.423V91.301H160.621C160.336 90.617 159.861 89.705 159.424 89.002L157.98 89.42C158.322 89.971 158.645 90.693 158.911 91.301H151.501V95.538H152.888V92.593ZM160.279 100.611H165.827V99.281H153.173V100.611H158.835V104.696H151.463V106.045H167.613V104.696H160.279V100.611ZM176.733 97.685C176.353 97.248 174.871 95.671 174.32 95.158V94.493H176.885V93.163H174.32V89.097H172.99V93.163H170.045V94.493H172.8C172.173 97.096 170.881 100.06 169.608 101.637C169.836 101.979 170.197 102.53 170.349 102.91C171.318 101.618 172.268 99.528 172.99 97.362V106.425H174.32V96.659C174.909 97.4 175.593 98.293 175.897 98.806L176.733 97.685ZM187.126 92.023V90.693H176.505V92.023H182.015C180.666 95.12 178.424 97.704 175.688 99.3C175.992 99.585 176.486 100.174 176.676 100.478C178.272 99.433 179.735 98.065 180.989 96.469V106.425H182.395V94.379C182.832 93.638 183.231 92.84 183.573 92.023H187.126ZM182.395 95.709C183.896 97.001 185.663 98.844 186.442 100.079L187.468 99.11C186.632 97.894 184.827 96.127 183.326 94.873L182.395 95.709ZM196.873 100.402H198.127L198.507 93.03L198.545 90.788H196.455L196.493 93.03L196.873 100.402ZM197.5 105.095C198.165 105.095 198.716 104.601 198.716 103.841C198.716 103.081 198.165 102.568 197.5 102.568C196.835 102.568 196.284 103.081 196.284 103.841C196.284 104.601 196.816 105.095 197.5 105.095ZM53.974 188.407H46.184V181.776H52.91V180.389H38.052V181.776H44.74V188.407H37.064V189.794H44.74V196.444H46.184V189.794H53.974V188.407ZM39.382 183.087C40.104 184.474 40.826 186.317 41.092 187.438L42.422 186.982C42.175 185.861 41.396 184.075 40.617 182.707L39.382 183.087ZM49.452 187.495C50.193 186.355 51.105 184.55 51.789 183.03L50.307 182.612C49.832 183.98 48.958 185.918 48.255 187.096L49.452 187.495ZM58.154 184.17C58.781 184.854 59.541 185.804 59.902 186.393L60.605 185.88V188.046C59.655 188.654 58.743 189.186 58.059 189.585C58.135 188.483 58.154 187.419 58.154 186.507V184.17ZM60.605 181.092V185.538C60.187 184.968 59.522 184.17 58.914 183.581L58.154 184.075V181.092H60.605ZM72.575 181.567H65.127C65.393 180.864 65.659 180.142 65.868 179.382L64.481 179.097C63.93 181.13 63.018 183.106 61.783 184.474V179.8H56.957V186.507C56.957 189.243 56.862 192.986 55.665 195.665C55.931 195.779 56.444 196.235 56.634 196.501C57.527 194.563 57.907 191.998 58.059 189.68L58.591 190.763C59.237 190.269 59.921 189.756 60.605 189.224V194.753C60.605 195.019 60.51 195.114 60.263 195.114C60.054 195.114 59.294 195.133 58.458 195.095C58.61 195.437 58.781 195.988 58.819 196.33C60.035 196.33 60.738 196.311 61.194 196.083C61.631 195.874 61.783 195.494 61.783 194.772V185.158C62.087 185.367 62.372 185.633 62.543 185.804C62.638 185.709 62.714 185.614 62.809 185.5V193.613H69.972V185.386H68.87V192.473H63.911V185.5H62.809C63.417 184.759 64.025 183.866 64.519 182.859H71.283C71.283 191.333 71.207 194.335 70.808 194.886C70.637 195.133 70.485 195.209 70.143 195.19C69.763 195.19 68.737 195.19 67.635 195.114C67.882 195.475 68.034 196.026 68.053 196.406C69.003 196.444 70.048 196.482 70.675 196.406C71.283 196.349 71.663 196.178 72.005 195.646C72.575 194.791 72.575 191.846 72.575 182.289V181.567ZM68.585 191.219C68.224 190.307 67.635 189.148 66.951 187.913C67.464 186.83 67.901 185.69 68.281 184.588L67.274 184.303C67.008 185.139 66.704 185.994 66.343 186.83C65.868 186.013 65.355 185.177 64.899 184.436L64.044 184.854C64.633 185.804 65.26 186.887 65.849 187.951C65.26 189.167 64.633 190.307 63.968 191.2C64.234 191.333 64.671 191.637 64.861 191.808C65.374 191.029 65.925 190.079 66.438 189.053C66.932 190.041 67.388 190.953 67.673 191.694L68.585 191.219ZM88.478 181.852C87.452 185.291 85.742 187.989 83.557 190.079C81.41 187.875 79.852 185.082 78.807 181.852H88.478ZM89.295 180.389L89.067 180.465H75.919V181.852H77.363C78.541 185.5 80.175 188.616 82.474 191.067C80.232 192.872 77.61 194.145 74.779 194.981C75.102 195.266 75.52 195.912 75.672 196.273C78.522 195.342 81.182 193.993 83.481 192.055C85.59 193.974 88.174 195.38 91.385 196.254C91.594 195.874 91.993 195.285 92.316 194.981C89.219 194.221 86.654 192.853 84.564 191.048C87.167 188.54 89.143 185.177 90.245 180.826L89.295 180.389ZM108.067 183.79V185.823H97.066V185.025V183.79H108.067ZM109.454 186.925V182.669H97.066V181.301C101.265 181.149 106.015 180.769 109.188 180.199L108.219 179.154C105.312 179.705 100.068 180.085 95.679 180.237V185.025C95.679 188.122 95.508 192.606 93.703 195.76C94.083 195.855 94.71 196.159 94.995 196.368C96.477 193.689 96.933 189.965 97.047 186.925H109.454ZM106.129 191.618V189.661H108.618V191.618H106.129ZM102.462 191.618V189.661H104.894V191.618H102.462ZM98.871 191.618V189.661H101.246V191.618H98.871ZM109.967 188.483H97.56V196.425H98.871V192.777H101.246V196.216H102.462V192.777H104.894V196.216H106.129V192.777H108.618V195.038C108.618 195.209 108.58 195.266 108.371 195.266C108.181 195.285 107.611 195.285 106.927 195.266C107.098 195.608 107.269 196.102 107.307 196.463C108.333 196.463 108.998 196.444 109.416 196.235C109.872 196.007 109.967 195.684 109.967 195.038V188.483ZM117.453 187.875H125.262V188.825C125.034 189.034 124.806 189.224 124.578 189.414C122.127 189.585 119.657 189.737 117.453 189.87V187.875ZM125.262 182.232V183.98H117.453V182.232H125.262ZM125.262 186.811H117.453V185.063H125.262V186.811ZM128.473 185.158C127.941 185.956 127.352 186.716 126.687 187.438V180.978H121.481C121.804 180.465 122.127 179.876 122.393 179.325L120.702 179.059C120.531 179.61 120.246 180.332 119.923 180.978H116.047V189.946C114.945 190.003 113.957 190.06 113.102 190.098L113.311 191.504C115.819 191.333 119.239 191.067 122.716 190.782C119.885 192.663 116.541 194.069 112.931 195.019C113.216 195.304 113.672 195.969 113.862 196.292C118.099 195.038 122.032 193.214 125.262 190.687V194.468C125.262 194.867 125.129 195 124.73 195C124.312 195.019 122.887 195.038 121.386 194.962C121.614 195.38 121.842 196.045 121.918 196.444C123.837 196.463 125.072 196.444 125.775 196.216C126.478 195.95 126.687 195.475 126.687 194.487V189.471C127.865 188.388 128.91 187.191 129.822 185.861L128.473 185.158ZM144.034 182.099C143.787 181.32 143.179 180.104 142.628 179.192L141.393 179.591C141.906 180.541 142.495 181.814 142.704 182.593L144.034 182.099ZM136.111 179.135C135.104 182.004 133.451 184.816 131.703 186.659C131.931 187.001 132.349 187.723 132.501 188.046C133.033 187.438 133.584 186.754 134.097 186.032V196.482H135.446V183.866C136.206 182.479 136.89 181.016 137.441 179.515L136.111 179.135ZM148.005 185.804C147.131 186.735 145.744 187.97 144.528 188.844C143.863 187.343 143.312 185.728 142.913 184.056L142.97 183.961H148.879V182.631H136.7V183.961H141.374C139.911 186.222 137.745 188.255 135.56 189.585C135.864 189.851 136.339 190.44 136.548 190.744C137.308 190.212 138.068 189.604 138.809 188.939V193.822C138.809 194.696 138.239 195.209 137.897 195.456C138.144 195.684 138.505 196.216 138.619 196.52C139.018 196.197 139.626 195.931 143.787 194.392C143.711 194.088 143.616 193.556 143.578 193.176L140.196 194.373V187.59C140.823 186.906 141.45 186.203 141.982 185.424C143.217 190.003 145.288 193.917 148.347 195.912C148.594 195.57 149.05 195.038 149.392 194.772C147.644 193.746 146.2 191.998 145.06 189.889C146.314 189.053 147.853 187.837 149.031 186.773L148.005 185.804ZM167.575 182.042C167.176 181.32 166.283 180.275 165.504 179.515L164.478 180.123C165.257 180.883 166.112 182.004 166.492 182.688L167.575 182.042ZM152.128 196.482C153.002 195.475 153.933 193.955 154.617 192.644L153.306 192.302C152.679 193.575 151.691 195.038 150.836 195.931L152.128 196.482ZM158.246 181.947C157.98 182.954 157.638 183.885 157.258 184.721C156.536 184.018 155.51 183.163 154.579 182.517C154.674 182.327 154.788 182.137 154.902 181.947H158.246ZM158.949 180.731L158.702 180.788H155.491C155.719 180.313 155.928 179.819 156.118 179.344L154.788 178.945C154.104 181.054 152.66 183.562 150.893 185.082C151.064 185.367 151.387 185.937 151.501 186.26C152.432 185.462 153.287 184.474 154.009 183.391C154.978 184.094 156.042 185.044 156.688 185.766C155.339 188.027 153.401 189.585 151.14 190.535C151.444 190.763 151.919 191.314 152.109 191.618C155.738 189.946 158.683 186.659 159.804 181.092L158.949 180.731ZM155.111 186.013C153.648 186.393 152.223 186.773 151.197 186.982L151.558 188.103C152.698 187.742 153.952 187.362 155.263 186.925L155.111 186.013ZM156.555 192.834C156.783 193.955 156.935 195.418 156.954 196.292L158.322 196.102C158.303 195.247 158.113 193.803 157.866 192.701L156.555 192.834ZM168.164 190.991C167.461 189.281 165.846 186.621 164.345 184.474H167.974V183.125H163.908C163.965 182.536 163.984 181.947 163.984 181.396V179.325H162.635V181.396C162.635 181.928 162.616 182.517 162.54 183.125H159.519V184.474H162.331C161.856 186.621 160.64 188.996 157.714 190.953C158.075 191.2 158.55 191.58 158.778 191.865C161.59 189.984 162.901 187.685 163.49 185.481C164.896 187.571 166.283 190.041 166.91 191.618L168.164 190.991ZM160.469 192.796C160.944 193.917 161.419 195.38 161.59 196.273L162.958 195.988C162.787 195.095 162.255 193.632 161.742 192.549L160.469 192.796ZM164.364 192.701C165.314 193.879 166.378 195.494 166.834 196.501L168.164 195.893C167.651 194.886 166.53 193.309 165.58 192.169L164.364 192.701ZM185.15 187.286C185.834 187.286 186.518 187.248 186.841 187.172C186.784 186.849 186.727 186.317 186.689 185.937C186.328 186.032 185.568 186.051 185.112 186.051H181.616C181.008 186.051 180.856 185.823 180.856 185.139V182.992H185.967V181.738H180.856V179.116H179.469V185.101C179.469 186.697 179.925 187.286 181.597 187.286H185.15ZM172.61 188.825C173.636 189.452 174.947 190.326 175.612 190.877L176.372 190.098C175.688 189.566 174.358 188.711 173.351 188.122L172.61 188.825ZM172.458 187.039H176.391V190.877C174.871 191.637 173.37 192.397 172.306 192.872C172.42 192.036 172.458 191.2 172.458 190.478V187.039ZM177.74 185.823H171.147V190.459C171.147 192.074 171.033 194.069 169.95 195.513C170.235 195.703 170.729 196.197 170.919 196.501C171.717 195.513 172.097 194.202 172.287 192.948L172.781 194.088C173.845 193.48 175.137 192.739 176.391 191.998V194.924C176.391 195.171 176.334 195.247 176.068 195.247C175.821 195.247 175.042 195.266 174.13 195.228C174.32 195.57 174.51 196.045 174.586 196.406C175.764 196.406 176.6 196.387 177.075 196.178C177.588 195.969 177.74 195.646 177.74 194.924V185.823ZM175.384 180.921C175.783 181.51 176.182 182.156 176.562 182.802L172.667 183.068C173.598 182.08 174.51 180.807 175.308 179.572L173.902 179.097C173.104 180.636 171.85 182.175 171.489 182.574C171.109 182.973 170.786 183.258 170.482 183.315C170.653 183.657 170.862 184.36 170.938 184.645C171.375 184.436 172.04 184.36 177.189 183.942C177.436 184.417 177.645 184.854 177.797 185.234L179.013 184.683C178.538 183.562 177.455 181.776 176.524 180.484L175.384 180.921ZM181.92 195.038C181.027 195.038 180.856 194.924 180.856 194.297V191.447H186.176V190.174H180.856V187.913H179.469V194.297C179.469 195.855 179.944 196.292 181.787 196.292H185.15C186.727 196.292 187.145 195.646 187.316 193.176C186.936 193.081 186.385 192.872 186.062 192.644C185.967 194.677 185.834 195.038 185.036 195.038H181.92ZM202.193 188.274H194.27V186.355H202.193V188.274ZM194.213 191.485C194.251 190.991 194.27 190.535 194.27 190.079V189.49H202.193V191.485H194.213ZM205.803 182.878V181.548H196.113C196.398 180.864 196.645 180.142 196.854 179.439L195.448 179.097C195.22 179.914 194.935 180.731 194.612 181.548H189.273V182.878H194.004C192.826 185.329 191.116 187.571 188.893 189.072C189.159 189.357 189.596 189.87 189.786 190.174C190.945 189.357 191.971 188.35 192.864 187.267V190.041C192.864 191.846 192.693 193.936 191.116 195.456C191.42 195.665 191.933 196.254 192.104 196.558C193.225 195.513 193.795 194.088 194.042 192.701H202.193V194.677C202.193 194.962 202.079 195.057 201.756 195.076C201.414 195.076 200.274 195.095 199.001 195.038C199.21 195.437 199.419 196.007 199.476 196.425C201.091 196.425 202.155 196.406 202.782 196.178C203.39 195.95 203.58 195.532 203.58 194.677V185.082H194.384C194.802 184.379 195.182 183.619 195.543 182.878H205.803ZM213.669 182.574H215.056V179.116H213.669V180.332H208.197V181.567H213.669V182.574ZM211.199 183.961H213.935V185.918H211.199V183.961ZM215.151 183.961H217.982V185.918H215.151V183.961ZM219.198 183.961H222.048V185.918H219.198V183.961ZM209.926 186.925H223.378V182.973H209.926V186.925ZM214.068 191.143H219.768C218.951 192.017 217.83 192.72 216.538 193.309C215.873 192.682 214.771 191.903 213.764 191.333L214.068 191.143ZM220.699 190.098H215.417C215.664 189.851 215.892 189.604 216.12 189.319L214.714 189.015C213.916 190.003 212.396 190.953 210.192 191.599C210.477 191.789 210.857 192.264 211.047 192.568C211.655 192.378 212.206 192.15 212.7 191.903C213.612 192.435 214.6 193.176 215.303 193.784C213.27 194.487 210.933 194.924 208.691 195.114C208.919 195.418 209.204 196.007 209.299 196.349C214.315 195.779 219.616 194.202 221.839 190.611L220.965 190.041L220.699 190.098ZM208.349 191.01H209.679V188.996H223.302V191.01H224.689V187.856H208.349V191.01ZM219.369 180.332V179.116H217.982V182.574H219.369V181.548H224.765V180.332H219.369ZM232.935 189.946C233.296 190.668 233.676 191.485 234.018 192.321L229.629 193.043C231.586 190.63 233.543 187.609 235.158 184.474L233.79 183.828C233.448 184.588 233.068 185.329 232.669 186.051L229.078 186.298C230.37 184.436 231.605 182.042 232.555 179.743L231.149 179.154C230.275 181.719 228.717 184.493 228.242 185.196C227.786 185.918 227.444 186.431 227.064 186.526C227.235 186.906 227.463 187.609 227.558 187.894C227.881 187.78 228.451 187.666 231.928 187.362C230.655 189.509 229.42 191.295 228.888 191.903C228.166 192.853 227.653 193.461 227.178 193.594C227.368 193.974 227.615 194.677 227.672 194.981C228.147 194.715 228.869 194.544 234.493 193.537C234.797 194.335 235.025 195.114 235.139 195.703L236.412 195.133C236.051 193.67 235.063 191.314 234.094 189.49L232.935 189.946ZM243.518 180.959H235.063V182.308H242.093C241.865 190.459 241.599 193.499 240.972 194.183C240.763 194.43 240.554 194.506 240.174 194.487C239.718 194.487 238.559 194.487 237.286 194.392C237.552 194.791 237.723 195.38 237.742 195.798C238.882 195.855 240.041 195.893 240.706 195.817C241.409 195.741 241.827 195.57 242.245 195C243.024 194.05 243.252 190.915 243.518 181.719V180.959ZM259.706 192.492H255.146V191.067H259.706V192.492ZM255.146 188.616H259.706V189.946H255.146V188.616ZM249.655 185.253V183.885H253.74V185.253H249.655ZM259.402 183.885V185.253H255.146V183.885H259.402ZM263.069 189.946H261.112V187.571H255.146V186.241H260.808V182.897H255.146V181.795H262.708V180.636H255.146V179.116H253.74V180.636H246.33V181.795H253.74V182.897H248.306V186.241H253.74V187.571H247.774V188.616H253.74V189.946H245.969V191.067H253.74V192.492H247.603V193.575H253.74V194.886C253.74 195.209 253.626 195.323 253.265 195.342C252.942 195.342 251.802 195.361 250.662 195.323C250.852 195.646 251.08 196.159 251.156 196.52C252.733 196.52 253.721 196.501 254.31 196.292C254.88 196.083 255.146 195.76 255.146 194.886V193.575H259.706V194.43H261.112V191.067H263.069V189.946ZM270.802 192.91C269.548 193.727 267.135 194.468 265.178 194.791C265.463 195.057 265.843 195.513 266.033 195.855C268.009 195.399 270.498 194.43 271.866 193.404L270.802 192.91ZM275.4 193.575C277.205 194.24 279.618 195.209 280.872 195.817L281.746 194.924C280.435 194.316 278.022 193.404 276.236 192.815L275.4 193.575ZM276.521 183.657C276.255 184.208 275.78 185.006 275.4 185.538L276.065 185.747H270.821L271.6 185.538C271.429 185.025 271.03 184.246 270.593 183.657H276.521ZM274.165 190.763V189.338H280.112V188.255H274.165V186.887H281.043V185.747H276.692C277.11 185.272 277.566 184.626 278.003 183.999L276.768 183.657H281.708V182.479H278.782C279.276 181.757 279.903 180.712 280.435 179.743L278.991 179.344C278.668 180.199 278.06 181.453 277.528 182.232L278.288 182.479H275.989V179.116H274.64V182.479H272.379V179.116H271.049V182.479H268.731L269.681 182.099C269.415 181.339 268.731 180.161 268.066 179.306L266.869 179.724C267.458 180.579 268.104 181.719 268.389 182.479H265.33V183.657H270.232L269.225 183.923C269.624 184.474 270.004 185.215 270.194 185.747H266.09V186.887H272.778V188.255H267.059V189.338H272.778V190.763H265.273V191.96H272.778V196.463H274.165V191.96H281.784V190.763H274.165ZM290.372 190.288C290.22 189.281 289.726 187.571 289.27 186.26L288.187 186.545C288.396 187.115 288.586 187.78 288.757 188.426L286.021 188.787C287.541 187.02 289.042 184.835 290.258 182.65L289.004 181.928C288.586 182.783 288.111 183.657 287.598 184.455L285.622 184.645C286.648 183.239 287.674 181.396 288.491 179.61L287.18 179.078C286.439 181.111 285.166 183.277 284.748 183.828C284.387 184.398 284.064 184.797 283.741 184.873C283.893 185.215 284.121 185.88 284.197 186.146C284.463 186.032 284.862 185.956 286.8 185.709C286.135 186.716 285.527 187.495 285.242 187.818C284.672 188.521 284.254 188.977 283.855 189.072C284.007 189.452 284.235 190.117 284.311 190.421C284.653 190.231 285.242 190.098 289.023 189.547C289.099 189.927 289.175 190.307 289.213 190.63L290.372 190.288ZM284.653 191.238C284.482 192.796 284.197 194.506 283.741 195.684C284.045 195.779 284.577 195.969 284.824 196.102C285.242 194.905 285.584 193.1 285.793 191.428L284.653 191.238ZM286.496 191.39C286.705 192.663 286.895 194.354 286.914 195.437L288.035 195.247C287.978 194.145 287.769 192.492 287.56 191.2L286.496 191.39ZM288.263 191.029C288.605 191.998 289.004 193.29 289.156 194.126L290.201 193.784C290.03 192.967 289.631 191.694 289.251 190.744L288.263 191.029ZM294.153 189.281L293.925 189.338H290.923V190.516H293.374C292.69 192.359 291.341 193.841 289.897 194.563C290.163 194.791 290.524 195.266 290.714 195.57C292.633 194.487 294.286 192.454 294.97 189.585L294.153 189.281ZM292.937 184.949H298.846V186.64H292.937V184.949ZM292.937 182.232H298.846V183.885H292.937V182.232ZM299.758 188.426C299.245 189.072 298.371 189.946 297.63 190.63C297.25 189.927 296.965 189.205 296.737 188.445V187.761H300.214V181.111H295.939C296.186 180.598 296.471 179.99 296.737 179.42L295.16 179.097C295.027 179.686 294.78 180.465 294.514 181.111H291.607V187.761H295.388V194.886C295.388 195.114 295.312 195.171 295.065 195.19C294.837 195.209 294.039 195.209 293.146 195.171C293.336 195.551 293.488 196.083 293.564 196.482C294.78 196.482 295.578 196.463 296.072 196.235C296.585 196.007 296.737 195.627 296.737 194.905V191.333C297.63 193.176 298.827 194.715 300.328 195.646C300.556 195.285 300.955 194.772 301.259 194.525C300.043 193.898 298.979 192.853 298.162 191.561C298.998 190.934 299.967 190.06 300.822 189.281L299.758 188.426ZM310.873 190.402H312.127L312.507 183.03L312.545 180.788H310.455L310.493 183.03L310.873 190.402ZM311.5 195.095C312.165 195.095 312.716 194.601 312.716 193.841C312.716 193.081 312.165 192.568 311.5 192.568C310.835 192.568 310.284 193.081 310.284 193.841C310.284 194.601 310.816 195.095 311.5 195.095Z" fill="#3E3E3E"/>
<path d="M224.746 94.493V93.087H217.222V89.116H215.759V93.087H208.292V94.493H214.03C212.643 97.704 210.306 100.782 207.798 102.321C208.121 102.587 208.577 103.1 208.805 103.442C211.541 101.58 213.992 98.198 215.455 94.493H215.759V101.504H211.351V102.91H215.759V106.444H217.222V102.91H221.63V101.504H217.222V94.493H217.488C218.913 98.198 221.364 101.618 224.176 103.385C224.404 103.005 224.898 102.492 225.259 102.188C222.637 100.706 220.243 97.704 218.875 94.493H224.746ZM239.68 93.562C239.262 95.671 238.35 97.514 236.982 98.692C237.324 98.844 237.894 99.243 238.16 99.452C238.806 98.844 239.357 98.084 239.832 97.21C240.953 98.141 242.15 99.205 242.796 99.927L243.803 98.958C243.043 98.179 241.58 96.963 240.383 96.032C240.649 95.329 240.877 94.588 241.029 93.79L239.68 93.562ZM230.731 93.562C230.18 96.013 229.002 98.046 227.273 99.338C227.596 99.547 228.147 100.003 228.394 100.25C229.325 99.471 230.142 98.464 230.788 97.267C231.472 97.932 232.175 98.635 232.555 99.11L233.524 98.141C233.049 97.59 232.175 96.754 231.377 96.051C231.662 95.348 231.928 94.607 232.118 93.809L230.731 93.562ZM236.165 93.125H243.708V91.738H236.165V89.116H234.721V91.738H227.444V93.125H234.721V97.761C232.973 100.516 229.838 103.138 226.779 104.392C227.102 104.677 227.558 105.228 227.767 105.57C230.294 104.392 232.84 102.34 234.721 99.927V106.444H236.165V99.87C238.008 102.34 240.592 104.468 243.214 105.627C243.423 105.247 243.898 104.677 244.259 104.373C241.029 103.157 237.856 100.478 236.165 97.628V93.125ZM256.21 95.994C255.678 94.702 254.462 92.84 253.208 91.453L251.954 92.08C253.151 93.467 254.367 95.405 254.88 96.716L256.21 95.994ZM253.512 99.68C252.258 100.212 250.985 100.763 249.769 101.276L249.484 90.066L248.04 90.123L248.363 101.865C247.375 102.283 246.482 102.644 245.741 102.929L246.254 104.392C248.344 103.48 251.213 102.226 253.835 101.029L253.512 99.68ZM263.373 105.304C262.404 103.898 260.39 101.789 258.699 100.079C260.029 97.533 260.751 94.303 261.207 90.237L259.668 90.085C258.832 98.293 256.818 102.891 250.301 105.285C250.643 105.57 251.232 106.216 251.422 106.501C254.386 105.266 256.457 103.613 257.939 101.371C259.554 103.081 261.321 105.076 262.195 106.387L263.373 105.304ZM271.106 91.681C270.726 90.978 269.909 89.895 269.168 89.154L267.952 89.667C268.674 90.446 269.472 91.567 269.814 92.289L271.106 91.681ZM267.059 106.33C268.199 105.209 268.845 103.404 269.282 101.827L268.104 101.447C267.724 102.91 267.021 104.582 265.957 105.57L267.059 106.33ZM270.498 101.865C270.859 103.1 271.049 104.639 271.011 105.665L272.246 105.494C272.246 104.468 272.037 102.929 271.676 101.713L270.498 101.865ZM273.291 101.694C273.766 102.739 274.203 104.126 274.336 105.019L275.514 104.696C275.362 103.822 274.887 102.473 274.393 101.447L273.291 101.694ZM277.395 93.619C277.243 94.379 277.072 95.139 276.901 95.747H272.246C272.664 95.063 273.063 94.341 273.405 93.619H277.395ZM269.719 99.148C270.346 98.464 270.916 97.742 271.448 96.982H278.82C278.668 97.742 278.497 98.521 278.345 99.148H269.719ZM279.656 99.148C279.884 98.16 280.15 96.849 280.378 95.747H278.212C278.459 94.759 278.725 93.448 278.934 92.327H273.994C274.412 91.396 274.754 90.427 275.077 89.458L273.671 89.097C273.348 90.18 272.949 91.263 272.493 92.327H265.615V93.619H271.866C270.232 96.792 267.857 99.642 264.646 101.485C264.893 101.77 265.254 102.34 265.425 102.663C266.546 101.998 267.572 101.238 268.484 100.383H280.207C279.903 103.404 279.58 104.658 279.2 105.057C279.01 105.209 278.82 105.247 278.478 105.247C278.117 105.247 277.205 105.247 276.255 105.133C276.483 105.494 276.635 106.045 276.673 106.425C277.642 106.482 278.573 106.482 279.048 106.444C279.618 106.406 279.979 106.292 280.34 105.931C280.929 105.304 281.29 103.727 281.632 99.756C281.67 99.566 281.689 99.148 281.689 99.148H279.656ZM278.535 103.537C278.288 102.853 277.68 101.789 277.091 101.029L276.103 101.409C276.673 102.188 277.262 103.29 277.49 103.974L278.535 103.537ZM286.154 94.17C286.781 94.854 287.541 95.804 287.902 96.393L288.605 95.88V98.046C287.655 98.654 286.743 99.186 286.059 99.585C286.135 98.483 286.154 97.419 286.154 96.507V94.17ZM288.605 91.092V95.538C288.187 94.968 287.522 94.17 286.914 93.581L286.154 94.075V91.092H288.605ZM300.575 91.567H293.127C293.393 90.864 293.659 90.142 293.868 89.382L292.481 89.097C291.93 91.13 291.018 93.106 289.783 94.474V89.8H284.957V96.507C284.957 99.243 284.862 102.986 283.665 105.665C283.931 105.779 284.444 106.235 284.634 106.501C285.527 104.563 285.907 101.998 286.059 99.68L286.591 100.763C287.237 100.269 287.921 99.756 288.605 99.224V104.753C288.605 105.019 288.51 105.114 288.263 105.114C288.054 105.114 287.294 105.133 286.458 105.095C286.61 105.437 286.781 105.988 286.819 106.33C288.035 106.33 288.738 106.311 289.194 106.083C289.631 105.874 289.783 105.494 289.783 104.772V95.158C290.087 95.367 290.372 95.633 290.543 95.804C290.638 95.709 290.714 95.614 290.809 95.5V103.613H297.972V95.386H296.87V102.473H291.911V95.5H290.809C291.417 94.759 292.025 93.866 292.519 92.859H299.283C299.283 101.333 299.207 104.335 298.808 104.886C298.637 105.133 298.485 105.209 298.143 105.19C297.763 105.19 296.737 105.19 295.635 105.114C295.882 105.475 296.034 106.026 296.053 106.406C297.003 106.444 298.048 106.482 298.675 106.406C299.283 106.349 299.663 106.178 300.005 105.646C300.575 104.791 300.575 101.846 300.575 92.289V91.567ZM296.585 101.219C296.224 100.307 295.635 99.148 294.951 97.913C295.464 96.83 295.901 95.69 296.281 94.588L295.274 94.303C295.008 95.139 294.704 95.994 294.343 96.83C293.868 96.013 293.355 95.177 292.899 94.436L292.044 94.854C292.633 95.804 293.26 96.887 293.849 97.951C293.26 99.167 292.633 100.307 291.968 101.2C292.234 101.333 292.671 101.637 292.861 101.808C293.374 101.029 293.925 100.079 294.438 99.053C294.932 100.041 295.388 100.953 295.673 101.694L296.585 101.219ZM312.488 91.339H308.992C308.764 90.693 308.384 89.762 307.985 89.021L306.75 89.382C307.016 89.971 307.32 90.712 307.529 91.339H303.596V92.631H312.488V91.339ZM307.206 96.013C307.035 95.12 306.522 93.79 305.952 92.802L304.755 93.106C305.268 94.132 305.762 95.481 305.933 96.355L307.206 96.013ZM310.645 100.725V104.164H305.458V100.725H310.645ZM304.128 106.33H305.458V105.418H310.645V106.178H312.032V99.452H304.128V106.33ZM310.246 92.745C309.942 93.809 309.372 95.367 308.859 96.431H303.045V97.723H312.906V96.431H310.227C310.702 95.443 311.215 94.151 311.652 93.049L310.246 92.745ZM318.986 90.047L318.758 90.123H313.894V106.425H315.167V91.415H318.188C317.675 92.878 316.934 94.892 316.231 96.488C317.922 98.217 318.397 99.585 318.397 100.782C318.416 101.428 318.283 102.017 317.903 102.264C317.694 102.378 317.428 102.435 317.143 102.454C316.763 102.473 316.231 102.473 315.68 102.416C315.908 102.815 316.041 103.385 316.06 103.765C316.592 103.784 317.2 103.784 317.675 103.727C318.112 103.689 318.53 103.556 318.853 103.328C319.461 102.929 319.708 101.998 319.708 100.915C319.708 99.585 319.29 98.122 317.599 96.336C318.397 94.588 319.271 92.422 319.955 90.693L318.986 90.047ZM329.835 89.382V104.487C329.835 104.867 329.683 105 329.284 105C328.923 105.019 327.555 105.038 326.168 104.981C326.396 105.38 326.662 106.045 326.757 106.444C328.524 106.463 329.702 106.425 330.386 106.197C331.051 105.95 331.336 105.532 331.336 104.487V89.382H329.835ZM334.376 94.17C335.991 96.887 337.511 100.421 337.967 102.663L339.449 102.036C338.974 99.775 337.378 96.317 335.706 93.657L334.376 94.17ZM324.876 93.79C324.42 96.336 323.375 99.604 321.684 101.599C322.064 101.751 322.672 102.093 323.014 102.34C324.724 100.231 325.826 96.83 326.434 94.075L324.876 93.79ZM354.003 92.042C353.623 91.244 352.768 90.009 352.008 89.116L350.906 89.705C351.685 90.636 352.502 91.909 352.825 92.726L354.003 92.042ZM345.624 91.472C345.415 90.845 344.864 89.876 344.313 89.173L343.249 89.686C343.762 90.427 344.313 91.396 344.484 92.061L345.624 91.472ZM346.137 101.124V104.145H343.268V101.124H346.137ZM347.448 100.003H341.976V106.178H343.268V105.247H347.448V100.003ZM341.615 98.597H347.505V97.457H341.615V98.597ZM341.9 94.835V95.975H347.486V94.835H341.9ZM340.931 93.296H347.904L347.923 92.118H340.931V93.296ZM353.642 104.316V99.395H357.347V98.084H353.642V94.113H357.784V92.764H348.417V94.113H352.255V98.084H348.74V99.395H352.255V104.316H348.075V105.646H358.145V104.316H353.642ZM39.002 122.593H51.941V125.367H53.366V121.244H46.602C46.374 120.617 45.899 119.686 45.481 118.983L44.113 119.382C44.417 119.933 44.778 120.655 45.006 121.244H37.615V125.367H39.002V122.593ZM46.203 130.706H51.827V129.376H46.203V126.279H51.048V124.93H40.047V126.279H44.759V134.126C43.22 133.537 42.004 132.435 41.282 130.421C41.453 129.661 41.605 128.844 41.719 127.97L40.313 127.818C39.895 131.238 38.869 133.936 36.76 135.551C37.102 135.76 37.672 136.254 37.9 136.52C39.154 135.437 40.085 133.993 40.731 132.226C42.46 135.456 45.291 136.14 49.243 136.14H53.632C53.708 135.722 53.936 135.076 54.164 134.715C53.252 134.753 50.003 134.753 49.319 134.753C48.198 134.753 47.153 134.696 46.203 134.506V130.706ZM70.504 122.137C70.333 124.417 70.124 125.367 69.801 125.671C69.63 125.823 69.459 125.842 69.136 125.842C68.775 125.842 67.844 125.823 66.894 125.747C67.122 126.089 67.293 126.64 67.331 127.039C68.3 127.096 69.231 127.096 69.725 127.058C70.276 127.02 70.637 126.925 70.979 126.564C71.473 126.032 71.72 124.721 71.948 121.434C71.986 121.225 72.005 120.826 72.005 120.826H65.45C65.564 120.332 65.64 119.819 65.716 119.287L64.272 119.097C63.873 122.403 62.885 125.025 60.871 126.602C61.213 126.811 61.821 127.267 62.068 127.495C63.512 126.203 64.519 124.417 65.146 122.137H70.504ZM61.061 121.339C60.301 120.636 58.8 119.781 57.584 119.268L56.805 120.275C58.021 120.845 59.503 121.776 60.225 122.46L61.061 121.339ZM60.073 126.26C59.313 125.633 57.774 124.816 56.558 124.341L55.798 125.367C57.033 125.918 58.534 126.792 59.294 127.438L60.073 126.26ZM59.788 129.186C58.743 131.333 57.375 133.803 56.406 135.266L57.603 136.178C58.648 134.43 59.902 132.074 60.833 130.079L59.788 129.186ZM70.124 129.205C69.44 130.497 68.452 131.599 67.255 132.473C66.077 131.542 65.146 130.44 64.481 129.205H70.124ZM71.131 127.875L70.865 127.932H61.897V129.205H64.101L63.17 129.528C63.911 130.953 64.899 132.188 66.096 133.233C64.443 134.183 62.543 134.829 60.586 135.171C60.852 135.475 61.175 136.064 61.289 136.425C63.417 135.969 65.45 135.228 67.217 134.126C68.699 135.171 70.428 135.95 72.347 136.444C72.537 136.064 72.936 135.475 73.259 135.19C71.454 134.81 69.82 134.164 68.414 133.29C70.01 132.017 71.283 130.383 72.043 128.274L71.131 127.875ZM88.193 128.274H80.27V126.355H88.193V128.274ZM80.213 131.485C80.251 130.991 80.27 130.535 80.27 130.079V129.49H88.193V131.485H80.213ZM91.803 122.878V121.548H82.113C82.398 120.864 82.645 120.142 82.854 119.439L81.448 119.097C81.22 119.914 80.935 120.731 80.612 121.548H75.273V122.878H80.004C78.826 125.329 77.116 127.571 74.893 129.072C75.159 129.357 75.596 129.87 75.786 130.174C76.945 129.357 77.971 128.35 78.864 127.267V130.041C78.864 131.846 78.693 133.936 77.116 135.456C77.42 135.665 77.933 136.254 78.104 136.558C79.225 135.513 79.795 134.088 80.042 132.701H88.193V134.677C88.193 134.962 88.079 135.057 87.756 135.076C87.414 135.076 86.274 135.095 85.001 135.038C85.21 135.437 85.419 136.007 85.476 136.425C87.091 136.425 88.155 136.406 88.782 136.178C89.39 135.95 89.58 135.532 89.58 134.677V125.082H80.384C80.802 124.379 81.182 123.619 81.543 122.878H91.803ZM99.346 124.512C99.308 126.355 99.061 128.559 98.016 130.725C97.294 130.098 96.534 129.509 95.812 128.958C96.135 127.723 96.496 126.203 96.8 124.664L99.346 124.512ZM101.778 124.36L101.797 123.068L100.695 123.125V121.814H99.365V123.201L97.047 123.334C97.294 121.928 97.522 120.503 97.674 119.23L96.287 119.154C96.154 120.446 95.945 121.947 95.679 123.391C94.976 123.41 94.33 123.448 93.779 123.467L93.931 124.816L95.432 124.74C95.052 126.507 94.653 128.198 94.273 129.433C95.242 130.174 96.325 131.048 97.332 131.941C96.534 133.195 95.413 134.43 93.855 135.532C94.14 135.741 94.634 136.197 94.843 136.501C96.382 135.38 97.541 134.145 98.377 132.872C99.251 133.689 100.03 134.468 100.562 135.114L101.493 133.936C100.923 133.271 100.049 132.473 99.099 131.637C100.353 129.129 100.638 126.564 100.695 124.436L101.778 124.36ZM111.164 127.115H106.984V125.291C108.314 124.132 109.663 122.536 110.594 121.13L109.625 120.427L109.302 120.503H102.006V121.814H108.333C107.554 122.916 106.528 124.151 105.559 124.949V127.115H101.17V128.464H105.559V134.772C105.559 135.038 105.445 135.133 105.141 135.133C104.856 135.152 103.811 135.152 102.69 135.114C102.899 135.513 103.127 136.064 103.203 136.463C104.685 136.482 105.597 136.444 106.186 136.235C106.775 136.007 106.984 135.608 106.984 134.772V128.464H111.164V127.115ZM126.573 129.927H118.327V128.616H126.573V129.927ZM118.327 134.62V133.214H126.573V134.62H118.327ZM126.573 132.226H118.327V130.896H126.573V132.226ZM129.822 126.184V125.006H119.866C120.094 124.55 120.303 124.075 120.493 123.619H128.72V122.479H120.892C121.044 122.004 121.196 121.548 121.329 121.073C124.046 120.921 126.63 120.674 128.53 120.275L127.637 119.249C124.654 119.857 118.897 120.161 114.299 120.199C114.432 120.503 114.565 120.959 114.584 121.282C116.218 121.282 118.004 121.244 119.771 121.149C119.657 121.605 119.524 122.042 119.372 122.479H114.565V123.619H118.954C118.783 124.075 118.555 124.55 118.327 125.006H113.178V126.184H117.662C116.484 128.16 114.85 129.927 112.722 131.162C112.988 131.409 113.406 131.922 113.596 132.245C114.888 131.466 116.009 130.516 116.978 129.452V136.501H118.327V135.76H126.573V136.501H127.96V127.495H118.498C118.783 127.077 119.03 126.621 119.277 126.184H129.822ZM137.992 127.381H134.002V123.41H137.992V127.381ZM134.002 133.195V128.635H137.992V133.195H134.002ZM135.598 119.059C135.465 119.952 135.123 121.225 134.838 122.137H132.71V135.969H134.002V134.468H139.284V122.137H136.13C136.453 121.32 136.795 120.275 137.118 119.344L135.598 119.059ZM148.575 122.08H142.894C143.217 121.187 143.483 120.275 143.711 119.344L142.362 119.021C141.754 121.624 140.728 124.246 139.455 125.918C139.759 126.108 140.367 126.488 140.614 126.716C141.279 125.823 141.868 124.664 142.4 123.391H147.226C146.979 130.953 146.694 133.841 146.067 134.506C145.877 134.753 145.668 134.791 145.288 134.791C144.851 134.791 143.711 134.791 142.476 134.677C142.742 135.076 142.913 135.646 142.951 136.064C144.015 136.121 145.098 136.159 145.763 136.083C146.409 136.026 146.846 135.855 147.264 135.323C148.024 134.392 148.271 131.466 148.575 122.802V122.08ZM145.573 130.63C144.965 129.509 143.654 127.685 142.59 126.336L141.488 126.982C142.533 128.35 143.806 130.231 144.376 131.371L145.573 130.63ZM164.706 132.492H160.146V131.067H164.706V132.492ZM160.146 128.616H164.706V129.946H160.146V128.616ZM154.655 125.253V123.885H158.74V125.253H154.655ZM164.402 123.885V125.253H160.146V123.885H164.402ZM168.069 129.946H166.112V127.571H160.146V126.241H165.808V122.897H160.146V121.795H167.708V120.636H160.146V119.116H158.74V120.636H151.33V121.795H158.74V122.897H153.306V126.241H158.74V127.571H152.774V128.616H158.74V129.946H150.969V131.067H158.74V132.492H152.603V133.575H158.74V134.886C158.74 135.209 158.626 135.323 158.265 135.342C157.942 135.342 156.802 135.361 155.662 135.323C155.852 135.646 156.08 136.159 156.156 136.52C157.733 136.52 158.721 136.501 159.31 136.292C159.88 136.083 160.146 135.76 160.146 134.886V133.575H164.706V134.43H166.112V131.067H168.069V129.946ZM175.802 132.91C174.548 133.727 172.135 134.468 170.178 134.791C170.463 135.057 170.843 135.513 171.033 135.855C173.009 135.399 175.498 134.43 176.866 133.404L175.802 132.91ZM180.4 133.575C182.205 134.24 184.618 135.209 185.872 135.817L186.746 134.924C185.435 134.316 183.022 133.404 181.236 132.815L180.4 133.575ZM181.521 123.657C181.255 124.208 180.78 125.006 180.4 125.538L181.065 125.747H175.821L176.6 125.538C176.429 125.025 176.03 124.246 175.593 123.657H181.521ZM179.165 130.763V129.338H185.112V128.255H179.165V126.887H186.043V125.747H181.692C182.11 125.272 182.566 124.626 183.003 123.999L181.768 123.657H186.708V122.479H183.782C184.276 121.757 184.903 120.712 185.435 119.743L183.991 119.344C183.668 120.199 183.06 121.453 182.528 122.232L183.288 122.479H180.989V119.116H179.64V122.479H177.379V119.116H176.049V122.479H173.731L174.681 122.099C174.415 121.339 173.731 120.161 173.066 119.306L171.869 119.724C172.458 120.579 173.104 121.719 173.389 122.479H170.33V123.657H175.232L174.225 123.923C174.624 124.474 175.004 125.215 175.194 125.747H171.09V126.887H177.778V128.255H172.059V129.338H177.778V130.763H170.273V131.96H177.778V136.463H179.165V131.96H186.784V130.763H179.165ZM195.372 130.288C195.22 129.281 194.726 127.571 194.27 126.26L193.187 126.545C193.396 127.115 193.586 127.78 193.757 128.426L191.021 128.787C192.541 127.02 194.042 124.835 195.258 122.65L194.004 121.928C193.586 122.783 193.111 123.657 192.598 124.455L190.622 124.645C191.648 123.239 192.674 121.396 193.491 119.61L192.18 119.078C191.439 121.111 190.166 123.277 189.748 123.828C189.387 124.398 189.064 124.797 188.741 124.873C188.893 125.215 189.121 125.88 189.197 126.146C189.463 126.032 189.862 125.956 191.8 125.709C191.135 126.716 190.527 127.495 190.242 127.818C189.672 128.521 189.254 128.977 188.855 129.072C189.007 129.452 189.235 130.117 189.311 130.421C189.653 130.231 190.242 130.098 194.023 129.547C194.099 129.927 194.175 130.307 194.213 130.63L195.372 130.288ZM189.653 131.238C189.482 132.796 189.197 134.506 188.741 135.684C189.045 135.779 189.577 135.969 189.824 136.102C190.242 134.905 190.584 133.1 190.793 131.428L189.653 131.238ZM191.496 131.39C191.705 132.663 191.895 134.354 191.914 135.437L193.035 135.247C192.978 134.145 192.769 132.492 192.56 131.2L191.496 131.39ZM193.263 131.029C193.605 131.998 194.004 133.29 194.156 134.126L195.201 133.784C195.03 132.967 194.631 131.694 194.251 130.744L193.263 131.029ZM199.153 129.281L198.925 129.338H195.923V130.516H198.374C197.69 132.359 196.341 133.841 194.897 134.563C195.163 134.791 195.524 135.266 195.714 135.57C197.633 134.487 199.286 132.454 199.97 129.585L199.153 129.281ZM197.937 124.949H203.846V126.64H197.937V124.949ZM197.937 122.232H203.846V123.885H197.937V122.232ZM204.758 128.426C204.245 129.072 203.371 129.946 202.63 130.63C202.25 129.927 201.965 129.205 201.737 128.445V127.761H205.214V121.111H200.939C201.186 120.598 201.471 119.99 201.737 119.42L200.16 119.097C200.027 119.686 199.78 120.465 199.514 121.111H196.607V127.761H200.388V134.886C200.388 135.114 200.312 135.171 200.065 135.19C199.837 135.209 199.039 135.209 198.146 135.171C198.336 135.551 198.488 136.083 198.564 136.482C199.78 136.482 200.578 136.463 201.072 136.235C201.585 136.007 201.737 135.627 201.737 134.905V131.333C202.63 133.176 203.827 134.715 205.328 135.646C205.556 135.285 205.955 134.772 206.259 134.525C205.043 133.898 203.979 132.853 203.162 131.561C203.998 130.934 204.967 130.06 205.822 129.281L204.758 128.426ZM214.942 131.428C216.937 130.725 218.229 129.167 218.229 127.115C218.229 125.785 217.659 124.93 216.614 124.93C215.835 124.93 215.17 125.405 215.17 126.298C215.17 127.191 215.816 127.647 216.595 127.647C216.709 127.647 216.804 127.647 216.918 127.628C216.823 128.92 215.987 129.813 214.524 130.421L214.942 131.428ZM241.504 122.137C241.333 124.417 241.124 125.367 240.801 125.671C240.63 125.823 240.459 125.842 240.136 125.842C239.775 125.842 238.844 125.823 237.894 125.747C238.122 126.089 238.293 126.64 238.331 127.039C239.3 127.096 240.231 127.096 240.725 127.058C241.276 127.02 241.637 126.925 241.979 126.564C242.473 126.032 242.72 124.721 242.948 121.434C242.986 121.225 243.005 120.826 243.005 120.826H236.45C236.564 120.332 236.64 119.819 236.716 119.287L235.272 119.097C234.873 122.403 233.885 125.025 231.871 126.602C232.213 126.811 232.821 127.267 233.068 127.495C234.512 126.203 235.519 124.417 236.146 122.137H241.504ZM232.061 121.339C231.301 120.636 229.8 119.781 228.584 119.268L227.805 120.275C229.021 120.845 230.503 121.776 231.225 122.46L232.061 121.339ZM231.073 126.26C230.313 125.633 228.774 124.816 227.558 124.341L226.798 125.367C228.033 125.918 229.534 126.792 230.294 127.438L231.073 126.26ZM230.788 129.186C229.743 131.333 228.375 133.803 227.406 135.266L228.603 136.178C229.648 134.43 230.902 132.074 231.833 130.079L230.788 129.186ZM241.124 129.205C240.44 130.497 239.452 131.599 238.255 132.473C237.077 131.542 236.146 130.44 235.481 129.205H241.124ZM242.131 127.875L241.865 127.932H232.897V129.205H235.101L234.17 129.528C234.911 130.953 235.899 132.188 237.096 133.233C235.443 134.183 233.543 134.829 231.586 135.171C231.852 135.475 232.175 136.064 232.289 136.425C234.417 135.969 236.45 135.228 238.217 134.126C239.699 135.171 241.428 135.95 243.347 136.444C243.537 136.064 243.936 135.475 244.259 135.19C242.454 134.81 240.82 134.164 239.414 133.29C241.01 132.017 242.283 130.383 243.043 128.274L242.131 127.875ZM260.751 123.03H256.039V121.263H260.751V123.03ZM260.751 125.899H256.039V124.132H260.751V125.899ZM260.751 128.806H256.039V127.001H260.751V128.806ZM262.1 120.104H254.728V129.965H262.1V120.104ZM252.885 130.535C253.759 131.39 254.918 132.606 255.469 133.328L256.495 132.492C255.925 131.789 254.747 130.611 253.873 129.813L252.885 130.535ZM247.185 135.456C247.945 134.411 248.553 132.72 248.971 131.447L247.736 130.972C247.356 132.207 246.71 133.822 245.95 134.829L247.185 135.456ZM250.909 130.155V125.538C251.745 126.241 252.809 127.172 253.303 127.647L254.063 126.507C253.569 126.127 251.631 124.683 250.909 124.227V123.163H253.911V121.928H250.909V119.154H249.56V121.928H246.102V123.163H249.313C248.477 125.101 247.071 127.058 245.684 128.046C245.969 128.274 246.368 128.711 246.596 129.034C247.66 128.16 248.724 126.716 249.56 125.158V130.155H250.909ZM253.094 134.772C251.992 134.772 251.802 134.677 251.802 134.183V131.181H250.415V134.202C250.415 135.665 250.947 136.045 252.999 136.045H256.932C258.642 136.045 259.079 135.475 259.269 133.1C258.87 133.024 258.3 132.815 257.977 132.568C257.901 134.506 257.749 134.772 256.837 134.772H253.094ZM259.535 131.143C260.295 132.397 261.283 134.05 261.72 135.038L263.031 134.392C262.556 133.423 261.53 131.789 260.751 130.592L259.535 131.143ZM270.954 130.231H274.735V128.977H270.954V126.944H269.605V128.977H265.9V130.231H269.605V133.423C267.952 133.708 266.413 133.993 265.254 134.183L265.558 135.494C268.047 135.019 271.638 134.335 275.001 133.689L274.906 132.454C273.595 132.701 272.246 132.948 270.954 133.195V130.231ZM265.406 121.605H268.408C267.8 122.954 267.04 124.132 266.755 124.512C266.432 124.968 266.147 125.291 265.843 125.348C266.014 125.709 266.242 126.374 266.318 126.678C266.774 126.469 267.458 126.393 273.367 125.823C273.652 126.26 273.88 126.678 274.032 127.001L275.115 126.298C274.564 125.215 273.31 123.505 272.246 122.232L271.239 122.84C271.695 123.41 272.189 124.056 272.645 124.721L267.8 125.139C268.56 124.132 269.339 122.859 269.985 121.605H275.115V120.351H265.406V121.605ZM277.49 120.75H276.16V132.169H277.49V120.75ZM279.884 119.42V134.259C279.884 134.582 279.808 134.658 279.485 134.677C279.162 134.696 278.117 134.696 277.015 134.658C277.224 135.038 277.471 135.684 277.528 136.045C278.896 136.045 279.903 136.007 280.492 135.779C281.062 135.57 281.271 135.133 281.271 134.24V119.42H279.884ZM300.917 121.358H294.989L296.015 120.902C295.711 120.351 295.046 119.496 294.533 118.907L293.222 119.42C293.735 119.99 294.267 120.807 294.59 121.358H288.966V122.46H300.917V121.358ZM290.467 127.362H299.302V126.298H290.467V127.362ZM299.302 123.79H290.467V124.873H299.302V123.79ZM291.607 129.851H298.01V132.207H291.607V129.851ZM290.258 133.29H299.397V128.768H290.258V133.29ZM288.111 122.023C287.598 121.263 286.553 120.047 285.698 119.135L284.653 119.781C285.489 120.712 286.534 122.004 287.028 122.783L288.111 122.023ZM288.149 128.122L287.921 128.16H285.755C286.838 126.887 288.263 124.93 289.061 123.828L288.13 123.391L287.902 123.486H283.969V124.645H287.009C286.173 125.804 285.071 127.305 284.615 127.742C284.273 128.103 283.988 128.217 283.703 128.293C283.855 128.597 284.14 129.243 284.216 129.585C284.349 129.433 284.862 129.319 285.337 129.319H287.408C286.8 132.283 285.413 134.373 283.608 135.532C283.874 135.722 284.33 136.216 284.539 136.501C285.508 135.836 286.344 134.924 287.047 133.727C288.548 135.779 290.904 136.178 294.704 136.178C296.756 136.178 299.131 136.121 300.898 136.026C300.974 135.627 301.164 134.981 301.373 134.677C299.435 134.829 296.68 134.924 294.704 134.924C291.246 134.924 288.871 134.639 287.617 132.663C288.168 131.466 288.605 130.041 288.852 128.388L288.149 128.122ZM317.865 123.733C317.485 125.044 316.915 126.469 316.459 127.362C316.801 127.514 317.333 127.799 317.637 127.97C318.302 126.659 319.138 124.664 319.632 122.821L318.587 122.27L318.321 122.346H311.443C311.728 121.396 311.994 120.408 312.184 119.401L310.664 119.116C310.094 122.118 309.049 125.082 307.605 126.925C307.985 127.096 308.688 127.476 308.992 127.723C309.752 126.64 310.398 125.272 310.987 123.733H317.865ZM308.403 122.08H303.425V123.448H308.403V122.08ZM308.973 129.87H303.007V131.257H308.973V129.87ZM314.027 124.531H312.545V125.975C312.545 128.692 312.127 132.644 306.674 135.399C306.997 135.646 307.51 136.178 307.738 136.501C311.367 134.601 312.925 132.169 313.59 129.851C314.673 132.91 316.44 135.171 319.29 136.33C319.499 135.931 319.936 135.38 320.221 135.095C316.763 133.898 314.882 130.858 314.008 126.849C314.027 126.583 314.027 126.298 314.027 126.013V124.531ZM327.992 127.381H324.002V123.41H327.992V127.381ZM324.002 133.195V128.635H327.992V133.195H324.002ZM325.598 119.059C325.465 119.952 325.123 121.225 324.838 122.137H322.71V135.969H324.002V134.468H329.284V122.137H326.13C326.453 121.32 326.795 120.275 327.118 119.344L325.598 119.059ZM338.575 122.08H332.894C333.217 121.187 333.483 120.275 333.711 119.344L332.362 119.021C331.754 121.624 330.728 124.246 329.455 125.918C329.759 126.108 330.367 126.488 330.614 126.716C331.279 125.823 331.868 124.664 332.4 123.391H337.226C336.979 130.953 336.694 133.841 336.067 134.506C335.877 134.753 335.668 134.791 335.288 134.791C334.851 134.791 333.711 134.791 332.476 134.677C332.742 135.076 332.913 135.646 332.951 136.064C334.015 136.121 335.098 136.159 335.763 136.083C336.409 136.026 336.846 135.855 337.264 135.323C338.024 134.392 338.271 131.466 338.575 122.802V122.08ZM335.573 130.63C334.965 129.509 333.654 127.685 332.59 126.336L331.488 126.982C332.533 128.35 333.806 130.231 334.376 131.371L335.573 130.63ZM345.206 130.307H353.813V131.656H345.206V130.307ZM353.813 124.094V125.367H345.206V124.094H353.813ZM353.813 128.274V129.414H345.206V128.274H353.813ZM353.813 127.362H345.206V126.279H353.813V127.362ZM357.879 131.656H355.219V123.125H349.747C349.823 122.764 349.899 122.365 349.975 121.928H357.404V120.712H350.184L350.431 119.249L348.93 119.078C348.892 119.553 348.835 120.142 348.759 120.712H341.672V121.928H348.588C348.55 122.365 348.474 122.764 348.398 123.125H343.838V131.656H341.14V132.853H357.879V131.656ZM346.612 133.233C345.415 134.031 343.04 134.962 341.14 135.475C341.444 135.741 341.881 136.178 342.109 136.463C343.99 135.931 346.346 134.981 347.847 134.031L346.612 133.233ZM351.267 134.088C353.376 134.791 355.523 135.703 356.815 136.425L357.955 135.437C356.568 134.753 354.25 133.841 352.141 133.176L351.267 134.088ZM42.84 153.885L42.555 153.942H37.425V155.348H42.061C41.149 159.091 39.23 161.941 36.817 163.518C37.159 163.727 37.729 164.278 37.938 164.582C40.617 162.701 42.84 159.186 43.752 154.246L42.84 153.885ZM51.466 152.65C50.554 153.942 49.072 155.614 47.799 156.792C47.21 155.804 46.697 154.759 46.279 153.714V149.154H44.797V164.525C44.797 164.848 44.683 164.943 44.36 164.962C44.075 164.962 43.087 164.962 42.004 164.924C42.232 165.342 42.479 166.045 42.536 166.463C43.98 166.463 44.93 166.425 45.5 166.159C46.051 165.912 46.279 165.456 46.279 164.525V156.507C48.008 159.927 50.459 162.929 53.404 164.487C53.651 164.069 54.126 163.499 54.449 163.214C52.169 162.15 50.117 160.174 48.502 157.837C49.832 156.716 51.485 155.006 52.739 153.562L51.466 152.65ZM71.967 153.315H65.393C65.222 152.27 65.108 151.149 65.051 149.952H60.434V151.206H63.854C63.892 151.947 63.968 152.65 64.063 153.315H57.147V166.444H58.553V154.702H63.493C62.847 157.685 61.289 159.737 58.743 160.972C59.047 161.238 59.484 161.77 59.693 162.093C62.22 160.801 63.778 158.692 64.576 155.785C65.393 158.635 66.856 160.763 69.345 161.998C69.573 161.618 70.029 161.067 70.333 160.763C67.844 159.699 66.419 157.609 65.697 154.702H70.542V164.601C70.542 164.905 70.466 165 70.124 165.019C69.744 165.038 68.566 165.038 67.331 165C67.54 165.38 67.749 166.026 67.806 166.425C69.421 166.425 70.504 166.425 71.15 166.197C71.777 165.95 71.967 165.494 71.967 164.601V153.315ZM90.15 155.158C89.219 156.317 87.737 157.742 86.426 158.844C85.666 157.305 85.172 155.557 84.792 153.543H91.803V152.175H83.614L84.868 151.738C84.659 151.016 84.127 149.876 83.595 149.021L82.189 149.458C82.664 150.294 83.158 151.434 83.367 152.175H75.216V153.543H82.17C80.46 155.823 77.629 157.989 74.722 159.3C74.95 159.585 75.349 160.155 75.501 160.497C76.698 159.927 77.857 159.243 78.959 158.483V163.651C78.959 164.525 78.332 165.076 77.952 165.285C78.199 165.551 78.579 166.102 78.712 166.406C79.206 166.064 79.928 165.798 85.856 163.917C85.742 163.594 85.59 163.024 85.533 162.625L80.384 164.221V157.362C81.6 156.355 82.664 155.253 83.538 154.094C84.545 159.3 86.35 162.872 91.29 165.988C91.461 165.551 91.917 165.038 92.278 164.753C89.884 163.347 88.25 161.827 87.072 159.984C88.459 158.882 90.112 157.362 91.347 156.013L90.15 155.158ZM110.67 151.852C110.347 151.206 109.625 150.218 108.96 149.515L107.972 150.066C108.637 150.826 109.34 151.871 109.644 152.517L110.67 151.852ZM98.263 151.453C97.997 150.788 97.37 149.8 96.819 149.021L95.736 149.572C96.249 150.37 96.857 151.415 97.142 152.118L98.263 151.453ZM98.605 160.991V164.126H95.964V160.991H98.605ZM99.84 159.813H94.748V166.197H95.964V165.304H99.84V159.813ZM94.767 158.407H99.821V157.286H94.767V158.407ZM99.821 154.816H94.767V155.937H99.821V154.816ZM93.969 153.486H100.163V152.327H93.969V153.486ZM103.754 158.103H105.787V156.83H100.467V158.103H102.462V163.119C101.607 163.328 100.828 163.518 100.163 163.67L100.562 165.038C102.253 164.544 104.457 163.936 106.547 163.29L106.414 162.093C105.521 162.321 104.609 162.568 103.754 162.796V158.103ZM111.221 154.151V152.821H107.535C107.497 151.643 107.478 150.427 107.497 149.154H106.11C106.129 150.408 106.148 151.624 106.186 152.821H100.638V154.151H106.243C106.547 161.048 107.421 166.482 109.549 166.482C110.727 166.482 111.107 165.589 111.316 162.758C110.993 162.625 110.556 162.302 110.252 161.998C110.195 164.126 110.024 165.095 109.739 165.095C108.732 165.095 107.839 160.497 107.573 154.151H111.221ZM114.945 152.232H119.011C118.593 153.904 117.434 154.645 113.786 155.025C114.033 155.272 114.337 155.804 114.451 156.108C118.574 155.595 119.923 154.493 120.398 152.232H122.393V153.847C122.393 155.044 122.697 155.595 124.065 155.595H127.2C127.751 155.595 128.397 155.576 128.701 155.481C128.644 155.139 128.606 154.759 128.568 154.379C128.264 154.455 127.523 154.474 127.124 154.474H124.312C123.856 154.474 123.78 154.322 123.78 153.847V152.232H128.074V154.018H129.499V151.016H122.64C122.469 150.427 122.184 149.61 121.899 149.002L120.474 149.344C120.702 149.838 120.93 150.484 121.082 151.016H113.558V154.037H114.945V152.232ZM123.913 157.571V160.041H116.864C117.092 159.262 117.32 158.369 117.51 157.571H123.913ZM129.575 160.041H125.3V157.571H128.986V156.431H114.546V157.571H116.085C115.819 158.806 115.458 160.288 115.154 161.276H121.975C119.657 162.758 116.142 163.936 113.007 164.506C113.292 164.772 113.672 165.304 113.862 165.665C117.377 164.924 121.424 163.309 123.799 161.276H123.913V164.772C123.913 165.038 123.837 165.095 123.514 165.114C123.229 165.152 122.184 165.152 121.044 165.114C121.253 165.494 121.462 166.026 121.538 166.406C123.001 166.425 123.951 166.406 124.54 166.178C125.11 165.969 125.3 165.608 125.3 164.791V161.276H129.575V160.041ZM138.942 161.428C140.937 160.725 142.229 159.167 142.229 157.115C142.229 155.785 141.659 154.93 140.614 154.93C139.835 154.93 139.17 155.405 139.17 156.298C139.17 157.191 139.816 157.647 140.595 157.647C140.709 157.647 140.804 157.647 140.918 157.628C140.823 158.92 139.987 159.813 138.524 160.421L138.942 161.428ZM153.021 152.631H165.884V155.443H167.328V151.282H160.64C160.374 150.598 159.88 149.667 159.443 148.945L158.018 149.344C158.36 149.914 158.702 150.655 158.968 151.282H151.634V155.443H153.021V152.631ZM164.611 155.956V154.645H154.351V155.956H164.611ZM163.3 164.848C162.521 164.848 162.388 164.753 162.388 164.202V159.49H167.86V158.141H151.159V159.49H156.213C155.985 162.853 155.187 164.468 150.912 165.304C151.178 165.57 151.539 166.121 151.653 166.482C156.365 165.475 157.353 163.423 157.638 159.49H160.982V164.221C160.982 165.722 161.419 166.159 163.148 166.159H166.055C167.556 166.159 167.955 165.513 168.126 162.891C167.727 162.796 167.157 162.587 166.834 162.34C166.758 164.506 166.644 164.848 165.922 164.848H163.3ZM173.465 149.61V150.94H176.847C174.966 153.03 172.135 155.177 169.779 156.279C170.102 156.583 170.482 157.058 170.653 157.419C173.313 155.994 176.543 153.372 178.5 150.959C180.457 153.486 183.459 155.937 186.328 157.286C186.518 156.925 186.993 156.336 187.278 156.051C184.276 154.797 181.008 152.251 179.241 149.61H173.465ZM179.165 161.485H184.561V160.231H179.165V157.324H183.82V156.051H173.218V157.324H177.721V160.231H172.401V161.485H177.721V164.639H170.52V165.931H186.575V164.639H179.165V161.485ZM205.841 155.975V154.531H197.994C198.26 152.536 198.279 150.655 198.298 149.135H196.778C196.759 150.636 196.778 152.536 196.493 154.531H189.254V155.975H196.265C195.486 159.566 193.586 163.214 188.874 165.266C189.273 165.551 189.729 166.045 189.938 166.425C194.555 164.316 196.607 160.668 197.519 157.02C199.02 161.333 201.433 164.696 205.081 166.425C205.328 166.007 205.803 165.418 206.145 165.095C202.478 163.594 200.008 160.155 198.678 155.975H205.841ZM224.841 155.975V154.531H216.994C217.26 152.536 217.279 150.655 217.298 149.135H215.778C215.759 150.636 215.778 152.536 215.493 154.531H208.254V155.975H215.265C214.486 159.566 212.586 163.214 207.874 165.266C208.273 165.551 208.729 166.045 208.938 166.425C213.555 164.316 215.607 160.668 216.519 157.02C218.02 161.333 220.433 164.696 224.081 166.425C224.328 166.007 224.803 165.418 225.145 165.095C221.478 163.594 219.008 160.155 217.678 155.975H224.841ZM232.574 157.495L230.617 158.084V154.227H232.517V152.916H230.617V149.116H229.249V152.916H227.083V154.227H229.249V158.464C228.318 158.749 227.444 158.996 226.76 159.167L227.083 160.516L229.249 159.87V164.81C229.249 165.019 229.173 165.095 228.964 165.095C228.774 165.095 228.166 165.095 227.501 165.076C227.691 165.456 227.843 166.045 227.9 166.387C228.926 166.387 229.591 166.349 230.009 166.121C230.446 165.893 230.617 165.532 230.617 164.81V159.433C231.32 159.243 232.023 159.015 232.745 158.787L232.574 157.495ZM236.488 154.664L236.279 154.702H232.954V155.918H235.823C235.158 158.749 233.79 160.782 232.023 161.96C232.308 162.131 232.802 162.587 232.992 162.872C235.044 161.428 236.602 158.806 237.305 154.93L236.488 154.664ZM232.46 166.064H243.955V164.753H232.46V166.064ZM242.815 153.942C242.169 154.721 241.143 155.728 240.231 156.507C239.851 155.614 239.566 154.664 239.319 153.695H239.3C240.706 152.878 242.207 151.738 243.233 150.617L242.34 149.952L242.055 150.028H234.113V151.282H240.725C239.87 152.004 238.768 152.726 237.761 153.201V162.454C237.761 162.663 237.685 162.739 237.457 162.739C237.229 162.739 236.469 162.758 235.633 162.72C235.823 163.1 236.032 163.632 236.089 163.993C237.229 163.993 237.97 163.955 238.445 163.746C238.939 163.537 239.091 163.176 239.091 162.454V156.545C240.041 159.205 241.466 161.409 243.347 162.701C243.556 162.34 243.993 161.884 244.278 161.618C242.834 160.763 241.618 159.319 240.725 157.552C241.713 156.792 242.891 155.747 243.86 154.797L242.815 153.942ZM254.975 151.434C254.614 150.807 253.759 149.914 253.018 149.287L252.03 149.914C252.79 150.56 253.607 151.491 253.949 152.118L254.975 151.434ZM255.165 161.523C254.424 160.706 252.98 159.509 251.764 158.616C252.771 157.685 253.968 156.336 254.861 155.158L253.645 154.626C253.094 155.443 252.239 156.507 251.422 157.381V153.695H255.203V152.384H251.422V149.116H250.035V152.384H245.988V153.695H250.035V158.958C248.477 160.231 246.843 161.485 245.779 162.264L246.463 163.385C247.527 162.568 248.781 161.542 250.035 160.516V164.734C250.035 165.019 249.94 165.114 249.636 165.114C249.389 165.133 248.515 165.133 247.546 165.114C247.717 165.456 247.926 166.007 247.983 166.349C249.37 166.368 250.187 166.33 250.7 166.121C251.213 165.893 251.422 165.551 251.422 164.734V159.908C252.486 160.782 253.588 161.751 254.177 162.454L255.165 161.523ZM246.463 155.462C247.299 156.431 248.211 157.761 248.591 158.616L249.674 158.027C249.294 157.172 248.363 155.88 247.527 154.949L246.463 155.462ZM260.656 154.075C260.352 156.374 259.858 158.407 259.06 160.117C258.3 158.483 257.711 156.621 257.331 154.664C257.388 154.493 257.464 154.284 257.502 154.075H260.656ZM263.145 154.075V152.764H257.882C258.167 151.662 258.395 150.503 258.566 149.325L257.179 149.116C256.685 152.46 255.83 155.614 254.31 157.609C254.633 157.837 255.184 158.35 255.412 158.597C255.83 158.008 256.21 157.343 256.552 156.602C257.008 158.388 257.559 160.06 258.3 161.561C257.217 163.271 255.716 164.563 253.74 165.304C254.101 165.608 254.557 166.102 254.766 166.463C256.571 165.703 257.977 164.506 259.041 162.929C259.915 164.373 260.979 165.57 262.233 166.406C262.461 166.007 262.955 165.475 263.259 165.19C261.91 164.392 260.77 163.138 259.839 161.618C260.922 159.528 261.568 156.982 261.948 154.075H263.145ZM272.835 149.382V164.487C272.835 164.867 272.683 165 272.284 165C271.923 165.019 270.555 165.038 269.168 164.981C269.396 165.38 269.662 166.045 269.757 166.444C271.524 166.463 272.702 166.425 273.386 166.197C274.051 165.95 274.336 165.532 274.336 164.487V149.382H272.835ZM277.376 154.17C278.991 156.887 280.511 160.421 280.967 162.663L282.449 162.036C281.974 159.775 280.378 156.317 278.706 153.657L277.376 154.17ZM267.876 153.79C267.42 156.336 266.375 159.604 264.684 161.599C265.064 161.751 265.672 162.093 266.014 162.34C267.724 160.231 268.826 156.83 269.434 154.075L267.876 153.79ZM286.154 154.17C286.781 154.854 287.541 155.804 287.902 156.393L288.605 155.88V158.046C287.655 158.654 286.743 159.186 286.059 159.585C286.135 158.483 286.154 157.419 286.154 156.507V154.17ZM288.605 151.092V155.538C288.187 154.968 287.522 154.17 286.914 153.581L286.154 154.075V151.092H288.605ZM300.575 151.567H293.127C293.393 150.864 293.659 150.142 293.868 149.382L292.481 149.097C291.93 151.13 291.018 153.106 289.783 154.474V149.8H284.957V156.507C284.957 159.243 284.862 162.986 283.665 165.665C283.931 165.779 284.444 166.235 284.634 166.501C285.527 164.563 285.907 161.998 286.059 159.68L286.591 160.763C287.237 160.269 287.921 159.756 288.605 159.224V164.753C288.605 165.019 288.51 165.114 288.263 165.114C288.054 165.114 287.294 165.133 286.458 165.095C286.61 165.437 286.781 165.988 286.819 166.33C288.035 166.33 288.738 166.311 289.194 166.083C289.631 165.874 289.783 165.494 289.783 164.772V155.158C290.087 155.367 290.372 155.633 290.543 155.804C290.638 155.709 290.714 155.614 290.809 155.5V163.613H297.972V155.386H296.87V162.473H291.911V155.5H290.809C291.417 154.759 292.025 153.866 292.519 152.859H299.283C299.283 161.333 299.207 164.335 298.808 164.886C298.637 165.133 298.485 165.209 298.143 165.19C297.763 165.19 296.737 165.19 295.635 165.114C295.882 165.475 296.034 166.026 296.053 166.406C297.003 166.444 298.048 166.482 298.675 166.406C299.283 166.349 299.663 166.178 300.005 165.646C300.575 164.791 300.575 161.846 300.575 152.289V151.567ZM296.585 161.219C296.224 160.307 295.635 159.148 294.951 157.913C295.464 156.83 295.901 155.69 296.281 154.588L295.274 154.303C295.008 155.139 294.704 155.994 294.343 156.83C293.868 156.013 293.355 155.177 292.899 154.436L292.044 154.854C292.633 155.804 293.26 156.887 293.849 157.951C293.26 159.167 292.633 160.307 291.968 161.2C292.234 161.333 292.671 161.637 292.861 161.808C293.374 161.029 293.925 160.079 294.438 159.053C294.932 160.041 295.388 160.953 295.673 161.694L296.585 161.219ZM308.992 157.381H305.002V153.41H308.992V157.381ZM305.002 163.195V158.635H308.992V163.195H305.002ZM306.598 149.059C306.465 149.952 306.123 151.225 305.838 152.137H303.71V165.969H305.002V164.468H310.284V152.137H307.13C307.453 151.32 307.795 150.275 308.118 149.344L306.598 149.059ZM319.575 152.08H313.894C314.217 151.187 314.483 150.275 314.711 149.344L313.362 149.021C312.754 151.624 311.728 154.246 310.455 155.918C310.759 156.108 311.367 156.488 311.614 156.716C312.279 155.823 312.868 154.664 313.4 153.391H318.226C317.979 160.953 317.694 163.841 317.067 164.506C316.877 164.753 316.668 164.791 316.288 164.791C315.851 164.791 314.711 164.791 313.476 164.677C313.742 165.076 313.913 165.646 313.951 166.064C315.015 166.121 316.098 166.159 316.763 166.083C317.409 166.026 317.846 165.855 318.264 165.323C319.024 164.392 319.271 161.466 319.575 152.802V152.08ZM316.573 160.63C315.965 159.509 314.654 157.685 313.59 156.336L312.488 156.982C313.533 158.35 314.806 160.231 315.376 161.371L316.573 160.63ZM338.442 152.764C337.834 151.871 336.504 150.541 335.421 149.61L334.338 150.351C335.44 151.32 336.732 152.688 337.302 153.581L338.442 152.764ZM336.751 156.906C336.105 158.122 335.269 159.281 334.262 160.364C333.939 159.11 333.673 157.647 333.483 156.032H338.917V154.683H333.331C333.179 152.992 333.103 151.168 333.103 149.268H331.659C331.678 151.13 331.754 152.954 331.925 154.683H327.574V151.377C328.733 151.13 329.835 150.826 330.747 150.503L329.74 149.344C327.954 150.009 324.895 150.655 322.235 151.054C322.425 151.396 322.615 151.89 322.691 152.232C323.812 152.08 325.009 151.89 326.187 151.662V154.683H322.121V156.032H326.187V159.357C324.534 159.699 322.995 160.022 321.855 160.212L322.254 161.637C323.394 161.39 324.762 161.067 326.187 160.763V164.62C326.187 164.962 326.073 165.057 325.731 165.057C325.408 165.076 324.287 165.095 323.071 165.038C323.28 165.437 323.527 166.083 323.603 166.463C325.142 166.463 326.168 166.425 326.757 166.197C327.346 165.969 327.574 165.551 327.574 164.639V160.421C328.733 160.155 329.911 159.889 331.07 159.604L330.975 158.331C329.854 158.578 328.695 158.825 327.574 159.072V156.032H332.039C332.286 158.084 332.647 159.965 333.103 161.542C331.754 162.796 330.196 163.841 328.6 164.62C328.961 164.924 329.36 165.399 329.569 165.741C330.994 165 332.343 164.05 333.578 162.948C334.452 165.171 335.592 166.501 337.093 166.501C338.518 166.501 339.012 165.589 339.278 162.454C338.879 162.321 338.385 161.998 338.081 161.694C337.967 164.126 337.739 165.095 337.226 165.095C336.276 165.095 335.421 163.879 334.699 161.884C336.029 160.535 337.15 159.034 338.005 157.419L336.751 156.906ZM348.873 160.402H350.127L350.507 153.03L350.545 150.788H348.455L348.493 153.03L348.873 160.402ZM349.5 165.095C350.165 165.095 350.716 164.601 350.716 163.841C350.716 163.081 350.165 162.568 349.5 162.568C348.835 162.568 348.284 163.081 348.284 163.841C348.284 164.601 348.816 165.095 349.5 165.095Z" fill="#309AB0"/>
<path d="M43.474 27.8C44.026 25.96 44.555 24.097 45.038 22.165H45.153C45.659 24.074 46.165 25.96 46.74 27.8L47.407 30.077H42.784L43.474 27.8ZM38 37H40.714L42.163 32.17H48.051L49.477 37H52.306L46.694 20.049H43.612L38 37ZM71.6186 28.651V32.469H66.3516V28.651H71.6186ZM73.5966 34.263V26.857H64.3736V35.873H66.3516V34.263H73.5966ZM74.7466 22.924H63.2466V24.741H74.7466V22.924ZM78.4956 18.83H59.4976V38.863H61.5676V20.854H76.4026V36.241C76.4026 36.632 76.2646 36.77 75.8736 36.793C75.4826 36.793 74.1486 36.816 72.8376 36.747C73.1366 37.299 73.4816 38.265 73.5736 38.84C75.5056 38.863 76.7016 38.794 77.4606 38.449C78.2196 38.104 78.4956 37.46 78.4956 36.241V18.83ZM94.6186 20.67C94.2506 20.348 93.7676 20.003 93.2156 19.658C93.6756 19.221 94.0666 18.761 94.4116 18.301L92.9626 17.91C92.7096 18.232 92.3876 18.6 91.9966 18.922C91.4906 18.623 90.9386 18.347 90.4556 18.117L89.4206 19.014C89.9036 19.221 90.4096 19.497 90.8696 19.773C90.2946 20.187 89.6276 20.555 88.9836 20.831C89.3516 21.061 89.9036 21.59 90.1566 21.82C90.8006 21.498 91.4906 21.038 92.1346 20.555C92.7096 20.923 93.2156 21.291 93.5606 21.636L94.6186 20.67ZM85.9016 24.81H88.7996C89.1216 25.04 89.6506 25.569 89.8806 25.868H85.9476L85.9016 24.81ZM84.2226 27.478H99.7016V30.261H101.818V25.868H100.07C100.254 23.798 100.461 20.854 100.576 18.531H95.1016V19.934H98.4826L98.4366 20.969H95.2166V22.349H98.3446L98.2526 23.407H95.1016V24.81H98.1606C98.1146 25.178 98.0686 25.523 98.0456 25.868H90.0186C90.6856 25.477 91.4216 25.04 92.0886 24.511C92.7326 24.948 93.2616 25.362 93.6296 25.73L94.7106 24.741C94.3196 24.373 93.8136 23.982 93.1926 23.568C93.6756 23.108 94.0896 22.648 94.4576 22.165L93.0086 21.705C92.7326 22.096 92.3876 22.464 91.9736 22.832C91.4446 22.51 90.8696 22.211 90.3636 21.958L89.3286 22.855C89.8116 23.085 90.3406 23.384 90.8236 23.683C90.2256 24.097 89.5356 24.465 88.8916 24.764V23.407H85.7866L85.7176 22.349H88.7996V20.969H85.6486L85.5796 20.049C86.7296 19.842 87.9716 19.52 88.9606 19.152L88.0406 17.887C86.8446 18.255 84.8666 18.83 83.5326 19.06L83.9466 25.868H82.1986V30.261H84.2226V27.478ZM102.209 32.722H93.2616V32.538C95.0096 31.779 96.8036 30.79 98.1376 29.755L96.9186 28.651L96.4586 28.766H86.0396V30.33H94.2736C93.3076 30.928 92.1806 31.48 91.1686 31.894V32.722H81.7386V34.47H91.1686V36.609C91.1686 36.908 91.0536 37 90.6856 37C90.3406 37 89.0066 37 87.7416 36.954C88.0176 37.46 88.3166 38.219 88.4316 38.771C90.2256 38.771 91.3986 38.771 92.2266 38.472C93.0316 38.196 93.2616 37.69 93.2616 36.678V34.47H102.209V32.722Z" fill="#EEB74D"/>
<g clip-path="url(#clip0)">
<path d="M46.4083 223.806C46.5906 223.806 46.7467 223.882 46.9029 224.009C47.0591 224.161 47.1112 224.313 47.1112 224.516C47.1112 224.694 47.0591 224.846 46.929 224.973L43.3366 229.337V233.651C43.3366 233.905 43.2585 234.082 43.1283 234.234C42.9721 234.361 42.7899 234.437 42.5556 234.437C42.3213 234.437 42.1391 234.361 41.9829 234.234C41.8527 234.108 41.7746 233.905 41.7746 233.651V229.337L38.1822 224.973C38.0521 224.846 38 224.694 38 224.516C38 224.339 38.0781 224.161 38.2083 224.034C38.3644 223.882 38.5206 223.806 38.7289 223.806C38.9372 223.806 39.1194 223.908 39.2495 224.085L42.5816 228.145L45.8877 224.085C46.0179 223.908 46.2001 223.806 46.4083 223.806Z" fill="#58595B"/>
<path d="M48.6731 234.158C48.5429 234.031 48.4648 233.854 48.4648 233.625V224.618C48.4648 224.39 48.5429 224.212 48.6731 224.085C48.8033 223.958 49.0115 223.882 49.2458 223.882H54.8427C55.077 223.882 55.2592 223.933 55.3894 224.034C55.5195 224.136 55.5716 224.288 55.5716 224.491C55.5716 224.694 55.5195 224.846 55.3894 224.948C55.2592 225.049 55.077 225.1 54.8427 225.1H50.0007V228.398H54.5303C54.7646 228.398 54.9468 228.449 55.077 228.551C55.2071 228.652 55.2592 228.804 55.2592 229.007C55.2592 229.21 55.2071 229.363 55.077 229.464C54.9468 229.566 54.7646 229.616 54.5303 229.616H50.0007V233.067H54.8427C55.3373 233.067 55.5716 233.27 55.5716 233.676C55.5716 233.879 55.5195 234.031 55.3894 234.133C55.2592 234.234 55.077 234.285 54.8427 234.285H49.2458C48.9855 234.361 48.8033 234.285 48.6731 234.158Z" fill="#58595B"/>
<path d="M66.7132 233.752C66.7132 233.93 66.6351 234.108 66.479 234.234C66.3228 234.361 66.1405 234.437 65.9583 234.437C65.8282 234.437 65.698 234.412 65.5939 234.336C65.4897 234.26 65.3856 234.158 65.3335 234.006L64.3183 231.773H58.7475L57.7322 234.006C57.6801 234.133 57.576 234.26 57.4459 234.336C57.3157 234.412 57.1855 234.437 57.0554 234.437C56.8471 234.437 56.6649 234.361 56.5087 234.234C56.3525 234.108 56.2744 233.955 56.2744 233.752C56.2744 233.676 56.3004 233.575 56.3525 233.448L60.6738 224.313C60.7519 224.161 60.856 224.034 61.0122 223.933C61.1684 223.831 61.3246 223.806 61.5068 223.806C61.6891 223.806 61.8453 223.857 62.0015 223.933C62.1576 224.034 62.2618 224.136 62.3399 224.313L66.6351 233.448C66.6872 233.575 66.7132 233.676 66.7132 233.752ZM59.2941 230.555H63.7716L61.5329 225.633L59.2941 230.555Z" fill="#58595B"/>
<path d="M77.2562 224.034C77.3864 224.187 77.4645 224.364 77.4645 224.593V233.651C77.4645 233.879 77.3864 234.057 77.2562 234.209C77.1261 234.361 76.9178 234.412 76.6835 234.412C76.4492 234.412 76.267 234.336 76.1108 234.209C75.9806 234.082 75.9025 233.879 75.9025 233.651V229.667H69.9152V233.651C69.9152 233.879 69.8371 234.057 69.7069 234.209C69.5768 234.361 69.3685 234.412 69.1342 234.412C68.8999 234.412 68.7177 234.336 68.5615 234.209C68.4314 234.082 68.3533 233.879 68.3533 233.651V224.593C68.3533 224.364 68.4314 224.187 68.5615 224.034C68.6917 223.882 68.8999 223.831 69.1342 223.831C69.3685 223.831 69.5507 223.907 69.7069 224.034C69.8371 224.187 69.9152 224.364 69.9152 224.593V228.424H75.9025V224.593C75.9025 224.364 75.9806 224.187 76.1108 224.034C76.241 223.882 76.4492 223.831 76.6835 223.831C76.9178 223.806 77.1 223.882 77.2562 224.034Z" fill="#58595B"/>
<path d="M81.3432 234.158C81.161 233.981 81.0569 233.752 81.0569 233.473C81.0569 233.194 81.161 232.966 81.3432 232.788C81.5255 232.611 81.7597 232.509 82.0461 232.509C82.3325 232.509 82.5407 232.611 82.7229 232.788C82.9052 232.966 83.0093 233.194 83.0093 233.473C83.0093 233.752 82.9052 233.981 82.7229 234.158C82.5407 234.336 82.3064 234.437 82.0461 234.437C81.7597 234.412 81.5255 234.336 81.3432 234.158ZM81.7077 231.393C81.6036 231.291 81.5775 231.19 81.5515 231.037L81.0829 224.745C81.0569 224.466 81.135 224.237 81.2912 224.06C81.4734 223.882 81.7077 223.806 81.994 223.806C82.2804 223.806 82.5147 223.882 82.6969 224.06C82.8791 224.237 82.9572 224.466 82.9052 224.745L82.4366 231.037C82.4366 231.19 82.3845 231.316 82.3064 231.393C82.2283 231.469 82.1242 231.519 81.994 231.519C81.9159 231.519 81.8118 231.494 81.7077 231.393Z" fill="#58595B"/>
<path d="M107.759 230.449C108.866 225.88 105.963 221.302 101.276 220.223C96.5888 219.145 91.8918 221.974 90.785 226.542C89.6782 231.111 92.5808 235.689 97.268 236.768C101.955 237.847 106.652 235.017 107.759 230.449Z" fill="#FFD05D"/>
<path d="M103.835 221.243C104.694 222.563 105.215 224.136 105.215 225.81C105.215 230.504 101.31 234.31 96.4938 234.31C94.8278 234.31 93.2659 233.854 91.9382 233.067C93.5002 235.427 96.2075 237 99.2793 237C104.095 237 108 233.194 108 228.5C108 225.43 106.334 222.74 103.835 221.243Z" fill="#FDC453"/>
<path d="M91.7301 229.388C91.7301 225.024 95.3485 221.497 99.826 221.497C102.429 221.497 104.772 222.715 106.256 224.567C104.85 222.208 102.247 220.609 99.2273 220.609C94.7498 220.609 91.1313 224.136 91.1313 228.5C91.1313 230.302 91.7561 231.976 92.7974 233.321C92.1206 232.179 91.7301 230.834 91.7301 229.388Z" fill="#FFD77F"/>
<path d="M94.5675 228.627C94.4634 228.627 94.3592 228.576 94.2811 228.5C94.151 228.348 94.177 228.119 94.3332 227.993L95.5827 227.028L94.2811 226.293C94.0989 226.191 94.0468 225.963 94.151 225.81C94.2551 225.633 94.4894 225.582 94.6456 225.684L96.4158 226.698C96.5199 226.749 96.598 226.876 96.598 226.978C96.598 227.104 96.5459 227.206 96.4678 227.282L94.7757 228.576C94.7237 228.627 94.6456 228.627 94.5675 228.627Z" fill="#303030"/>
<path d="M103.965 228.627C103.887 228.627 103.809 228.601 103.731 228.551L102.039 227.257C101.935 227.181 101.882 227.079 101.908 226.952C101.908 226.825 101.987 226.724 102.091 226.673L103.861 225.658C104.043 225.557 104.251 225.607 104.356 225.785C104.46 225.963 104.408 226.166 104.225 226.267L102.924 227.003L104.173 227.967C104.329 228.094 104.356 228.322 104.225 228.475C104.199 228.601 104.095 228.627 103.965 228.627Z" fill="#303030"/>
<path d="M94.281 229.616C94.5674 232.052 96.702 233.955 99.2791 233.955C101.856 233.955 103.991 232.052 104.277 229.616H94.281Z" fill="#695342"/>
<path d="M95.8169 232.636C96.728 233.473 97.9255 233.981 99.2791 233.981C100.555 233.981 101.726 233.524 102.611 232.737L102.559 232.636C99.2011 231.037 95.869 232.611 95.8169 232.636Z" fill="#F06669"/>
</g>
<defs>
<filter id="filter0_d" x="0" y="0" width="399" height="260" filterUnits="userSpaceOnUse" color-interpolation-filters="sRGB">
<feFlood flood-opacity="0" result="BackgroundImageFix"/>
<feColorMatrix in="SourceAlpha" type="matrix" values="0 0 0 0 0 0 0 0 0 0 0 0 0 0 0 0 0 0 127 0" result="hardAlpha"/>
<feOffset dy="4"/>
<feGaussianBlur stdDeviation="2"/>
<feComposite in2="hardAlpha" operator="out"/>
<feColorMatrix type="matrix" values="0 0 0 0 0 0 0 0 0 0 0 0 0 0 0 0 0 0 0.25 0"/>
<feBlend mode="normal" in2="BackgroundImageFix" result="effect1_dropShadow"/>
<feBlend mode="normal" in="SourceGraphic" in2="effect1_dropShadow" result="shape"/>
</filter>
<clipPath id="clip0">
<rect width="70" height="17" fill="white" transform="translate(38 220)"/>
</clipPath>
</defs>
</svg>
