<svg width="70" height="17" viewBox="0 0 70 17" fill="none" xmlns="http://www.w3.org/2000/svg">
<g clip-path="url(#clip0)">
<path d="M8.40833 3.80603C8.59055 3.80603 8.74675 3.88215 8.90294 4.00902C9.05913 4.16125 9.11119 4.31349 9.11119 4.51648C9.11119 4.69409 9.05913 4.84633 8.92897 4.97319L5.33656 9.33737V13.6508C5.33656 13.9045 5.25846 14.0821 5.1283 14.2344C4.97211 14.3613 4.78988 14.4374 4.5556 14.4374C4.32131 14.4374 4.13909 14.3613 3.98289 14.2344C3.85273 14.1075 3.77464 13.9045 3.77464 13.6508V9.33737L0.182224 4.97319C0.052064 4.84633 0 4.69409 0 4.51648C0 4.33887 0.078096 4.16125 0.208256 4.03439C0.364448 3.88215 0.52064 3.80603 0.728896 3.80603C0.937151 3.80603 1.11938 3.90752 1.24954 4.08513L4.58163 8.14484L7.88769 4.08513C8.01785 3.90752 8.20007 3.80603 8.40833 3.80603Z" fill="#58595B"/>
<path d="M10.6731 14.1582C10.5429 14.0313 10.4648 13.8537 10.4648 13.6254V4.6179C10.4648 4.38954 10.5429 4.21193 10.6731 4.08507C10.8033 3.9582 11.0115 3.88208 11.2458 3.88208H16.8427C17.077 3.88208 17.2592 3.93283 17.3894 4.03432C17.5195 4.13581 17.5716 4.28805 17.5716 4.49104C17.5716 4.69402 17.5195 4.84626 17.3894 4.94775C17.2592 5.04924 17.077 5.09999 16.8427 5.09999H12.0007V8.3985H16.5303C16.7646 8.3985 16.9468 8.44924 17.077 8.55074C17.2071 8.65223 17.2592 8.80447 17.2592 9.00745C17.2592 9.21044 17.2071 9.36268 17.077 9.46417C16.9468 9.56566 16.7646 9.61641 16.5303 9.61641H12.0007V13.0672H16.8427C17.3373 13.0672 17.5716 13.2701 17.5716 13.6761C17.5716 13.8791 17.5195 14.0313 17.3894 14.1328C17.2592 14.2343 17.077 14.2851 16.8427 14.2851H11.2458C10.9855 14.3612 10.8033 14.2851 10.6731 14.1582Z" fill="#58595B"/>
<path d="M28.7132 13.7523C28.7132 13.9299 28.6351 14.1075 28.479 14.2344C28.3228 14.3613 28.1405 14.4374 27.9583 14.4374C27.8282 14.4374 27.698 14.412 27.5939 14.3359C27.4897 14.2598 27.3856 14.1583 27.3335 14.006L26.3183 11.7732H20.7475L19.7322 14.006C19.6801 14.1329 19.576 14.2598 19.4459 14.3359C19.3157 14.412 19.1855 14.4374 19.0554 14.4374C18.8471 14.4374 18.6649 14.3613 18.5087 14.2344C18.3525 14.1075 18.2744 13.9553 18.2744 13.7523C18.2744 13.6762 18.3004 13.5747 18.3525 13.4478L22.6738 4.31349C22.7519 4.16125 22.856 4.03439 23.0122 3.9329C23.1684 3.8314 23.3246 3.80603 23.5068 3.80603C23.6891 3.80603 23.8453 3.85678 24.0015 3.9329C24.1576 4.03439 24.2618 4.13588 24.3399 4.31349L28.6351 13.4478C28.6872 13.5747 28.7132 13.6762 28.7132 13.7523ZM21.2941 10.5553H25.7716L23.5329 5.6329L21.2941 10.5553Z" fill="#58595B"/>
<path d="M39.2565 4.03433C39.3866 4.18657 39.4647 4.36418 39.4647 4.59254V13.6507C39.4647 13.8791 39.3866 14.0567 39.2565 14.209C39.1263 14.3612 38.918 14.4119 38.6838 14.4119C38.4495 14.4119 38.2672 14.3358 38.111 14.209C37.9809 14.0821 37.9028 13.8791 37.9028 13.6507V9.66717H31.9154V13.6507C31.9154 13.8791 31.8373 14.0567 31.7072 14.209C31.577 14.3612 31.3688 14.4119 31.1345 14.4119C30.9002 14.4119 30.718 14.3358 30.5618 14.209C30.4316 14.0821 30.3535 13.8791 30.3535 13.6507V4.59254C30.3535 4.36418 30.4316 4.18657 30.5618 4.03433C30.6919 3.88209 30.9002 3.83135 31.1345 3.83135C31.3688 3.83135 31.551 3.90747 31.7072 4.03433C31.8373 4.18657 31.9154 4.36418 31.9154 4.59254V8.42388H37.9028V4.59254C37.9028 4.36418 37.9809 4.18657 38.111 4.03433C38.2412 3.88209 38.4495 3.83135 38.6838 3.83135C38.918 3.80597 39.1003 3.88209 39.2565 4.03433Z" fill="#58595B"/>
<path d="M43.3435 14.1583C43.1613 13.9807 43.0571 13.7523 43.0571 13.4732C43.0571 13.1941 43.1613 12.9657 43.3435 12.7881C43.5257 12.6105 43.76 12.509 44.0463 12.509C44.3327 12.509 44.541 12.6105 44.7232 12.7881C44.9054 12.9657 45.0095 13.1941 45.0095 13.4732C45.0095 13.7523 44.9054 13.9807 44.7232 14.1583C44.541 14.3359 44.3067 14.4374 44.0463 14.4374C43.76 14.412 43.5257 14.3359 43.3435 14.1583ZM43.7079 11.3926C43.6038 11.2911 43.5778 11.1896 43.5517 11.0374L43.0832 4.74484C43.0571 4.46573 43.1352 4.23737 43.2914 4.05976C43.4736 3.88215 43.7079 3.80603 43.9943 3.80603C44.2806 3.80603 44.5149 3.88215 44.6971 4.05976C44.8794 4.23737 44.9575 4.46573 44.9054 4.74484L44.4368 11.0374C44.4368 11.1896 44.3848 11.3165 44.3067 11.3926C44.2286 11.4687 44.1244 11.5195 43.9943 11.5195C43.9162 11.5195 43.8121 11.4941 43.7079 11.3926Z" fill="#58595B"/>
<path d="M69.7593 10.4489C70.866 5.88024 67.9635 1.30213 63.2763 0.223354C58.589 -0.855424 53.8921 1.97364 52.7853 6.54225C51.6785 11.1109 54.581 15.689 59.2682 16.7678C63.9555 17.8465 68.6525 15.0175 69.7593 10.4489Z" fill="#FFD05D"/>
<path d="M65.8351 1.24329C66.6941 2.56269 67.2148 4.13582 67.2148 5.81045C67.2148 10.5045 63.31 14.3105 58.4941 14.3105C56.828 14.3105 55.2661 13.8537 53.9385 13.0672C55.5004 15.4269 58.2077 17 61.2795 17C66.0954 17 70.0002 13.194 70.0002 8.5C70.0002 5.42985 68.3342 2.7403 65.8351 1.24329Z" fill="#FDC453"/>
<path d="M53.7301 9.38811C53.7301 5.02393 57.3485 1.49707 61.826 1.49707C64.4292 1.49707 66.7721 2.71498 68.2559 4.56722C66.8502 2.20752 64.247 0.609009 61.2273 0.609009C56.7498 0.609009 53.1313 4.13587 53.1313 8.50005C53.1313 10.3015 53.7561 11.9762 54.7974 13.3209C54.1206 12.1792 53.7301 10.8344 53.7301 9.38811Z" fill="#FFD77F"/>
<path d="M56.5677 8.62685C56.4636 8.62685 56.3595 8.5761 56.2814 8.49998C56.1512 8.34774 56.1772 8.11939 56.3334 7.99252L57.583 7.02834L56.2814 6.29252C56.0992 6.19103 56.0471 5.96267 56.1512 5.81043C56.2553 5.63282 56.4896 5.58207 56.6458 5.68356L58.416 6.69849C58.5201 6.74924 58.5982 6.8761 58.5982 6.97759C58.5982 7.10446 58.5462 7.20595 58.4681 7.28207L56.776 8.5761C56.7239 8.62685 56.6458 8.62685 56.5677 8.62685Z" fill="#303030"/>
<path d="M65.9655 8.62683C65.8874 8.62683 65.8093 8.60146 65.7312 8.55071L64.0391 7.25668C63.935 7.18056 63.8829 7.07907 63.909 6.9522C63.909 6.82534 63.9871 6.72384 64.0912 6.6731L65.8614 5.65817C66.0436 5.55668 66.2519 5.60743 66.356 5.78504C66.4601 5.96265 66.4081 6.16564 66.2258 6.26713L64.9242 7.00295L66.1738 7.96713C66.33 8.09399 66.356 8.32235 66.2258 8.47459C66.1998 8.60146 66.0957 8.62683 65.9655 8.62683Z" fill="#303030"/>
<path d="M56.2812 9.61646C56.5676 12.0523 58.7022 13.9553 61.2794 13.9553C63.8566 13.9553 65.9912 12.0523 66.2775 9.61646H56.2812Z" fill="#695342"/>
<path d="M57.8174 12.6359C58.7285 13.4732 59.926 13.9807 61.2796 13.9807C62.5552 13.9807 63.7266 13.524 64.6117 12.7374L64.5597 12.6359C61.2015 11.0374 57.8694 12.6105 57.8174 12.6359Z" fill="#F06669"/>
</g>
<defs>
<clipPath id="clip0">
<rect width="70" height="17" fill="white"/>
</clipPath>
</defs>
</svg>
