<svg width="940" height="754" viewBox="0 0 940 754" fill="none" xmlns="http://www.w3.org/2000/svg">
<path d="M176.754 170.834H186.267V172.304H176.754V170.834ZM186.267 163.946V165.353H176.754V163.946H186.267ZM186.267 168.566V169.826H176.754V168.566H186.267ZM186.267 167.558H176.754V166.361H186.267V167.558ZM190.761 172.304H187.821V162.875H181.773C181.857 162.476 181.941 162.035 182.025 161.552H190.236V160.208H182.256L182.529 158.591L180.87 158.402C180.828 158.927 180.765 159.578 180.681 160.208H172.848V161.552H180.492C180.45 162.035 180.366 162.476 180.282 162.875H175.242V172.304H172.26V173.627H190.761V172.304ZM178.308 174.047C176.985 174.929 174.36 175.958 172.26 176.525C172.596 176.819 173.079 177.302 173.331 177.617C175.41 177.029 178.014 175.979 179.673 174.929L178.308 174.047ZM183.453 174.992C185.784 175.769 188.157 176.777 189.585 177.575L190.845 176.483C189.312 175.727 186.75 174.719 184.419 173.984L183.453 174.992ZM199.56 163.715L199.245 163.778H193.575V165.332H198.699C197.691 169.469 195.57 172.619 192.903 174.362C193.281 174.593 193.911 175.202 194.142 175.538C197.103 173.459 199.56 169.574 200.568 164.114L199.56 163.715ZM209.094 162.35C208.086 163.778 206.448 165.626 205.041 166.928C204.39 165.836 203.823 164.681 203.361 163.526V158.486H201.723V175.475C201.723 175.832 201.597 175.937 201.24 175.958C200.925 175.958 199.833 175.958 198.636 175.916C198.888 176.378 199.161 177.155 199.224 177.617C200.82 177.617 201.87 177.575 202.5 177.281C203.109 177.008 203.361 176.504 203.361 175.475V166.613C205.272 170.393 207.981 173.711 211.236 175.433C211.509 174.971 212.034 174.341 212.391 174.026C209.871 172.85 207.603 170.666 205.818 168.083C207.288 166.844 209.115 164.954 210.501 163.358L209.094 162.35ZM209.252 210.468V208.914H191.318V210.468H200.6C198.521 214.059 194.93 217.545 190.793 219.624C191.108 219.981 191.612 220.59 191.843 220.989C194.762 219.456 197.324 217.293 199.445 214.878V226.554H201.104V212.778C201.629 212.001 202.133 211.245 202.595 210.468H209.252ZM201.524 214.983C204.002 216.621 207.11 219.099 208.601 220.695L209.84 219.498C208.307 217.902 205.115 215.55 202.679 213.975L201.524 214.983ZM230.546 208.473H219.479V209.901H230.546V208.473ZM230.42 217.965C229.916 217.02 228.887 215.571 227.9 214.395C228.593 213.345 229.454 212.022 230.063 210.951L228.677 210.573C228.194 211.56 227.207 213.156 226.325 214.437C227.522 215.844 228.635 217.482 229.16 218.574L230.42 217.965ZM225.086 210.594C224.603 211.581 223.658 213.156 222.818 214.416C223.952 215.823 224.981 217.44 225.443 218.532L226.724 217.944C226.241 217.02 225.275 215.571 224.351 214.374C225.065 213.345 225.863 212.001 226.451 210.951L225.086 210.594ZM223.091 218.028C222.629 217.083 221.705 215.613 220.781 214.395C221.474 213.345 222.272 212.001 222.839 210.93L221.474 210.573C220.991 211.56 220.109 213.156 219.269 214.437C220.34 215.865 221.327 217.482 221.768 218.574L223.091 218.028ZM219.248 219.645C219.038 218.553 218.45 216.705 217.883 215.34L216.686 215.655C216.938 216.306 217.169 217.02 217.4 217.713L214.103 218.154C215.783 216.222 217.421 213.786 218.765 211.392L217.421 210.594C216.98 211.539 216.434 212.505 215.909 213.387L213.746 213.555C214.88 211.98 216.014 209.964 216.938 207.969L215.552 207.402C214.691 209.67 213.221 212.085 212.78 212.694C212.339 213.345 211.982 213.765 211.625 213.849C211.793 214.248 212.024 214.92 212.108 215.235C212.402 215.088 212.843 215.004 215.006 214.752C214.25 215.865 213.599 216.747 213.284 217.125C212.675 217.881 212.192 218.406 211.73 218.511C211.919 218.889 212.15 219.645 212.234 219.96C212.654 219.75 213.284 219.603 217.736 218.931C217.841 219.351 217.925 219.75 217.967 220.044L219.248 219.645ZM212.633 220.863C212.423 222.585 212.108 224.454 211.625 225.756C211.94 225.882 212.591 226.092 212.864 226.239C213.326 224.916 213.725 222.9 213.935 221.094L212.633 220.863ZM214.775 221.031C215.027 222.438 215.258 224.265 215.3 225.441L216.56 225.231C216.497 224.013 216.245 222.207 215.972 220.821L214.775 221.031ZM216.812 220.632C217.211 221.745 217.652 223.215 217.841 224.181L218.996 223.782C218.828 222.837 218.345 221.388 217.925 220.275L216.812 220.632ZM225.653 224.685V220.695H229.895V219.288H219.941V220.695H224.12V224.685H218.786V226.113H230.735V224.685H225.653ZM234.41 226.05C235.481 225.063 236.342 223.509 236.93 222.249L235.628 221.661C235.124 222.879 234.2 224.391 233.15 225.315L234.41 226.05ZM247.346 217.188H237.308V215.739H247.346V217.188ZM247.346 219.666H237.308V218.217H247.346V219.666ZM248.879 214.668H235.817V220.737H241.088L240.374 221.409C241.529 222.081 242.957 223.068 243.629 223.761L244.595 222.795C243.944 222.186 242.684 221.325 241.592 220.737H248.879V214.668ZM240.878 225.126C239.786 225.126 239.597 225.021 239.597 224.538V221.829H238.064V224.538C238.064 226.029 238.631 226.428 240.752 226.428H244.7C246.38 226.428 246.863 225.861 247.031 223.551C246.632 223.446 246.023 223.236 245.687 223.005C245.582 224.874 245.456 225.126 244.553 225.126H240.878ZM247.325 222.018C248.375 223.152 249.53 224.685 249.992 225.735L251.315 225.063C250.79 224.034 249.614 222.522 248.564 221.472L247.325 222.018ZM245.666 210.258C245.435 210.867 245.057 211.686 244.7 212.337H239.849C239.681 211.728 239.303 210.888 238.925 210.258H245.666ZM246.296 212.337C246.611 211.791 246.947 211.182 247.283 210.531L246.065 210.258H250.244V208.977H243.545C243.293 208.431 242.957 207.759 242.6 207.276L241.088 207.591C241.34 208.011 241.613 208.494 241.823 208.977H234.326V210.258H238.799L237.476 210.552C237.791 211.098 238.064 211.791 238.232 212.337H233.381V213.618H251.315V212.337H246.296ZM272.084 211.455C271.706 210.615 270.782 209.334 269.921 208.431L268.871 209.019C269.711 209.964 270.614 211.308 270.971 212.148L272.084 211.455ZM263.516 210.027H260.051C259.82 209.271 259.358 208.221 258.938 207.423L257.51 207.738C257.825 208.452 258.224 209.313 258.455 210.027H253.982V211.413H263.516V210.027ZM255.83 219.246C255.452 220.947 254.78 222.669 253.898 223.845C254.213 224.034 254.78 224.412 255.032 224.601C255.893 223.362 256.691 221.409 257.132 219.519L255.83 219.246ZM256.481 214.353H261.206V216.873H256.481V214.353ZM262.655 218.133V213.072H255.116V218.133H258.266V224.916C258.266 225.126 258.203 225.189 257.972 225.189C257.762 225.21 257.069 225.21 256.334 225.189C256.523 225.546 256.733 226.092 256.775 226.47C257.867 226.491 258.581 226.449 259.043 226.239C259.547 226.008 259.673 225.651 259.673 224.937V218.133H262.655ZM263.18 222.669C262.97 221.661 262.298 220.149 261.626 219.015L260.513 219.519C261.143 220.653 261.794 222.207 262.004 223.215L263.18 222.669ZM272.735 214.269V212.862H267.947C268.073 211.014 268.073 209.187 268.094 207.486H266.624C266.603 209.187 266.603 211.014 266.498 212.862H263.705V214.269H266.393C266.036 218.679 264.986 223.068 261.962 225.693C262.361 225.924 262.844 226.323 263.096 226.638C266.309 223.698 267.401 218.994 267.821 214.269H272.735ZM269.942 224.916C269.732 224.916 269.564 224.874 269.438 224.811C269.312 224.727 269.27 224.454 269.27 224.013V215.928H267.884V223.845C267.884 225.168 268.031 225.504 268.367 225.756C268.682 226.008 269.207 226.113 269.669 226.113H271.013C271.391 226.113 271.895 226.071 272.21 225.903C272.504 225.756 272.735 225.504 272.861 225.084C272.987 224.664 273.071 223.551 273.092 222.606C272.693 222.501 272.168 222.249 271.874 221.976C271.853 223.047 271.832 223.866 271.769 224.244C271.727 224.559 271.622 224.748 271.454 224.811C271.349 224.895 271.097 224.916 270.845 224.916H269.942ZM284.39 222.333C287.288 223.488 291.047 225.378 292.895 226.68L293.63 225.336C291.719 224.076 287.939 222.27 285.062 221.178L284.39 222.333ZM285.02 216.579V214.815H291.74V213.45H285.02V211.749H292.748V210.342H288.275C288.821 209.607 289.451 208.704 289.955 207.843L288.359 207.36C287.918 208.242 287.183 209.481 286.553 210.342H281.03L281.786 210.006C281.45 209.25 280.715 208.158 279.938 207.36L278.594 207.906C279.224 208.641 279.875 209.607 280.211 210.342H275.78V211.749H283.466V213.45H276.935V214.815H283.466V216.579H275.045V217.965H283.277C283.214 218.532 283.13 219.078 283.004 219.582H275.507V220.947H282.563C281.618 223.11 279.56 224.454 274.709 225.147C275.003 225.504 275.402 226.155 275.528 226.554C281.03 225.609 283.277 223.824 284.264 220.947H293.315V219.582H284.642C284.747 219.078 284.831 218.532 284.894 217.965H293.651V216.579H285.02ZM314.378 208.2H305.957V209.313H314.378V208.2ZM313.79 213.996V210.258H306.44V214.038H307.805V211.245H312.362V213.996H313.79ZM308.687 212.169C309.338 212.673 310.094 213.429 310.451 213.975L311.27 213.219C310.934 212.673 310.136 211.959 309.485 211.476L308.687 212.169ZM304.928 208.2H296.591V209.313H304.928V208.2ZM298.775 217.965H302.261V219.477H298.754C298.775 219.036 298.775 218.637 298.775 218.238V217.965ZM302.261 215.739V216.873H298.775V215.739H302.261ZM307.301 216.873H303.668V215.739H307.301V216.873ZM312.299 217.965V219.477H308.729V217.965H312.299ZM303.668 219.477V217.965H307.301V219.477H303.668ZM309.464 225.105C308.561 225.105 308.393 225 308.393 224.496V223.047H313.517V221.934H308.393V220.548H313.748V216.873H308.729V215.739H314.315V214.584H306.503C306.293 214.101 305.957 213.492 305.642 213.051L304.487 213.429V210.258H297.284V214.038H298.649V211.245H303.08V213.996H304.487V213.912C304.613 214.143 304.739 214.353 304.844 214.584H297.305V218.196C297.305 220.422 297.116 223.509 295.541 225.735C295.835 225.903 296.465 226.407 296.717 226.701C297.956 224.958 298.46 222.627 298.67 220.548H300.224V224.307C300.224 225 299.804 225.147 299.468 225.231C299.657 225.504 299.867 226.113 299.909 226.47C300.329 226.26 301.001 226.134 306.188 225.483C306.167 225.189 306.167 224.685 306.188 224.349L301.694 224.832V223.047H306.146V221.934H301.694V220.548H306.944V224.496C306.944 225.903 307.427 226.281 309.317 226.281H312.782C314.147 226.281 314.588 225.819 314.735 224.118C314.336 224.055 313.769 223.845 313.475 223.635C313.412 224.895 313.286 225.105 312.635 225.105H309.464ZM302.009 213.219C301.673 212.715 300.959 212.001 300.329 211.476L299.531 212.127C300.119 212.673 300.833 213.429 301.148 213.975L302.009 213.219Z" fill="#58595B"/>
</svg>
