<svg width="50" height="26" viewBox="0 0 50 26" fill="none" xmlns="http://www.w3.org/2000/svg">
<path d="M6.1441 14.728L8.8641 10.024C9.5361 8.68004 10.1761 7.30404 10.7841 5.92804H10.9121C10.8481 7.46404 10.7201 9.73604 10.7201 11.24V14.728H6.1441ZM10.7201 25H16.0321V19.048H18.6561V14.728H16.0321V1.16003H8.9921L0.704102 15.112V19.048H10.7201V25Z" fill="#EEB74D"/>
<path d="M25.1321 25.448C27.0841 25.448 28.5241 23.88 28.5241 21.896C28.5241 19.912 27.0841 18.376 25.1321 18.376C23.1481 18.376 21.7401 19.912 21.7401 21.896C21.7401 23.88 23.1481 25.448 25.1321 25.448Z" fill="#EEB74D"/>
<path d="M36.4469 25H42.1749C42.5909 15.688 43.1669 11.176 48.6709 4.64804V1.16003H32.3509V5.92804H42.5909C38.1109 12.136 36.8949 17.16 36.4469 25Z" fill="#EEB74D"/>
<path fill-rule="evenodd" clip-rule="evenodd" d="M8.70755 0.660034H16.5321V14.228H19.1561V19.548H16.5321V25.5H10.2201V19.548H0.204102V14.9747L8.70755 0.660034ZM9.27665 1.66003L1.2041 15.2494V18.548H11.2201V24.5H15.5321V18.548H18.1561V15.228H15.5321V1.66003H9.27665ZM31.8509 0.660034H49.1709V4.83069L49.0531 4.97034C46.3363 8.19267 44.8564 10.8911 43.9958 13.9168C43.1299 16.9611 42.8826 20.3614 42.6744 25.0224L42.653 25.5H35.9175L35.9477 24.9715C36.3801 17.4031 37.5301 12.3815 41.6266 6.42804H31.8509V0.660034ZM32.8509 1.66003V5.42804H43.5683L42.9963 6.22063C38.6895 12.1886 37.4469 17.0249 36.9777 24.5H41.697C41.9011 20.0846 42.1629 16.7055 43.0339 13.6432C43.9285 10.4982 45.4574 7.71144 48.1709 4.46597V1.66003H32.8509ZM10.4584 5.42804H11.4334L11.4117 5.94885C11.3958 6.32996 11.3761 6.75334 11.3555 7.19733C11.2923 8.55976 11.2201 10.1162 11.2201 11.24V15.228H5.27742L8.42365 9.7869C9.089 8.45557 9.72337 7.09153 10.3268 5.72596L10.4584 5.42804ZM10.3095 8.18165C9.98514 8.87541 9.6524 9.56547 9.31132 10.2476L9.30454 10.2612L7.01079 14.228H10.2201V11.24C10.2201 10.3766 10.2619 9.26217 10.3095 8.18165ZM21.2401 21.896C21.2401 19.6607 22.8478 17.876 25.1321 17.876C27.3814 17.876 29.0241 19.6575 29.0241 21.896C29.0241 24.1285 27.3871 25.948 25.1321 25.948C22.8421 25.948 21.2401 24.1253 21.2401 21.896ZM25.1321 18.876C23.4484 18.876 22.2401 20.1634 22.2401 21.896C22.2401 23.6348 23.4542 24.948 25.1321 24.948C26.7811 24.948 28.0241 23.6316 28.0241 21.896C28.0241 20.1666 26.7868 18.876 25.1321 18.876Z" fill="#58595B"/>
</svg>
