<svg width="227" height="112" viewBox="0 0 227 112" fill="none" xmlns="http://www.w3.org/2000/svg">
<path d="M31.4582 101.218C39.2027 100.227 47.49 96.3815 56.3278 89.7405C62.289 85.2236 65.4702 80.2753 65.8716 74.8956L65.7877 74.2403C65.2159 69.7724 61.8852 66.9291 55.7359 65.718C49.3483 64.5374 41.9937 63.8438 33.6874 63.7564C27.6829 63.6772 22.1918 63.3507 17.2063 62.7172C12.2284 62.1433 9.09587 60.8489 7.68952 58.8491C7.45743 58.455 7.35211 58.1052 7.29874 57.6882C7.15388 56.5563 7.51468 55.1175 8.44833 53.4237C11.4799 48.2524 16.9173 42.9549 24.8873 37.5753C32.8649 32.2554 39.9455 28.4429 46.1444 26.2569C52.3433 24.071 56.9061 22.821 59.9443 22.4321C68.4037 21.3495 72.9764 23.4889 73.655 28.7909C73.9981 31.4717 73.3603 35.0046 71.6746 39.3376C71.6379 39.5239 71.6012 39.7103 71.6241 39.889C71.6393 40.0081 71.7218 40.1792 71.8118 40.4099C71.9019 40.6406 72.1035 40.7964 72.357 40.8851C72.6106 40.9737 72.8565 41.0028 73.0948 40.9723C73.5118 40.9189 73.8463 40.6945 74.0313 40.247C75.8714 35.2281 76.5826 31.3226 76.2166 28.4631C76.1327 27.8078 75.9893 27.1601 75.8015 26.6392C73.759 21.0879 68.3294 18.8765 59.5722 19.9973C53.2575 20.8054 45.4806 23.4356 36.2491 27.9472C21.2019 35.7462 11.2136 43.8059 6.1803 52.2609C5.06173 54.4021 4.57558 56.2808 4.79669 58.0084C4.88818 58.7233 5.09882 59.4229 5.48817 60.0996C7.21668 62.7242 10.6928 64.338 15.9319 65.0601C21.1709 65.7822 27.0424 66.2417 33.5906 66.3119C40.9881 66.3944 47.7164 66.9259 53.7161 67.914C59.7157 68.9021 62.9779 71.2092 63.4353 74.7836C63.0678 79.0085 60.2716 83.1809 55.0621 87.42C49.8525 91.6591 43.9772 94.9541 37.5399 97.1705C35.0393 97.9749 32.9252 98.4877 31.0784 98.7241C27.8019 99.1434 25.4986 98.6511 24.2357 97.299C23.9517 96.972 23.7716 96.5107 23.6877 95.8554C23.3446 93.1746 25.0013 89.0875 28.6057 83.6612C28.7616 83.4596 28.8502 83.2061 28.8121 82.9082C28.7587 82.4912 28.6015 82.2086 28.2731 82.0084C27.9447 81.8083 27.6316 81.7272 27.3338 81.7654C26.984 81.8707 26.7013 82.0279 26.4935 82.2967C22.5254 88.1934 20.751 92.78 21.1704 96.0565C21.5287 98.8564 23.2024 100.58 26.2359 101.1C27.913 101.43 29.6115 101.455 31.4582 101.218Z" fill="#3E3E3E"/>
<path d="M76.2773 71.9896C78.8985 71.6542 82.7165 67.8959 87.7235 60.6553C87.5553 61.7062 87.5505 62.615 87.6649 63.5086C88.1605 67.3808 90.4299 69.0279 94.5404 68.5019C97.8765 68.0749 101.931 66.1634 106.592 62.8422C108.755 61.2938 110.516 59.918 111.869 58.655C113.228 57.4517 114.046 56.7416 114.15 56.6072C114.469 56.2636 114.602 55.8833 114.548 55.4663C114.449 54.6919 113.979 54.3282 113.085 54.4426C112.847 54.4731 112.676 54.5555 112.513 54.6975C112.409 54.8319 111.643 55.4748 110.395 56.6033C109.087 57.7395 107.497 59.0329 105.505 60.4988C103.513 61.9648 101.55 63.1848 99.6232 64.2184C97.6892 65.1925 95.9478 65.7787 94.3989 65.9769C93.0287 66.1523 91.9931 66.1032 91.396 65.6952C90.7988 65.2873 90.3866 64.4318 90.2189 63.1212C90.1045 62.2276 90.146 61.1324 90.4105 59.8876C90.8066 57.7783 91.4119 55.8843 92.1149 54.2807L92.1502 53.6101C92.0968 53.1931 91.9395 52.9105 91.6112 52.7103C91.35 52.5621 91.0965 52.4734 90.8582 52.5039C90.3816 52.5649 90.1066 52.7818 89.9064 53.1101L88.1111 55.6407C87.1475 54.7347 85.9546 54.403 84.5248 54.586C83.6908 54.6927 82.8201 54.9858 81.7859 55.4209C79.0117 56.9264 76.8056 59.0857 75.3386 61.8165C73.8121 64.5549 73.0891 66.9483 73.1696 68.9967C73.4517 71.2008 74.4901 72.2184 76.2773 71.9896ZM75.9128 69.6143C75.8456 69.5624 75.7555 69.3317 75.7174 69.0339C75.6716 68.6764 75.7222 68.125 75.8766 67.4392C76.1916 65.643 76.9833 63.7858 78.2591 61.9271C79.4754 60.0761 81.0429 58.604 82.9769 57.6299C83.6017 57.3077 84.1821 57.1124 84.7183 57.0437C85.5523 56.937 86.1938 57.2182 86.6351 57.8277C83.1712 62.9333 80.2316 66.458 77.8239 68.4615C77.0065 69.1716 76.3298 69.561 75.9128 69.6143Z" fill="#3E3E3E"/>
<path d="M111.386 66.7093C111.743 66.6635 112.018 66.4467 112.27 66.0511C113.901 63.1783 115.844 60.3865 118.041 57.6834C120.246 55.0399 122.119 53.5892 123.668 53.3909C124.085 53.3376 124.338 53.4262 124.384 53.7837C124.468 54.439 124.352 55.4226 124.02 56.6155C123.563 58.2483 123.448 59.7161 123.616 61.0267C123.791 62.3969 124.695 63.3105 126.395 63.8195C127.073 63.9144 127.744 63.9497 128.518 63.8505C131.914 63.416 136.92 60.8983 143.544 56.357C147.945 53.3718 150.093 51.7043 150.115 51.3988C150.144 51.1529 150.173 50.907 150.158 50.7878C150.059 50.0134 149.655 49.7017 148.881 49.8008C148.643 49.8313 148.412 49.9214 148.189 50.071C145.914 51.6942 143.409 53.4075 140.561 55.2856C137.706 57.1042 135.23 58.5716 133.125 59.6281C130.952 60.6327 129.338 61.2632 128.265 61.4004C126.895 61.5758 126.186 61.2427 126.08 60.4086C125.996 59.7533 126.097 58.6505 126.51 57.1445C126.855 55.5866 127.016 54.4762 126.917 53.7017C126.665 51.7358 125.396 50.8084 123.177 50.9713C121.806 51.1467 120.334 51.9407 118.87 53.2784C117.132 54.833 115.491 56.6778 114.111 58.6708C115.184 56.1721 116.235 53.9789 117.317 52.024C117.465 51.7628 117.554 51.5093 117.523 51.271C117.478 50.9136 117.253 50.579 116.984 50.3712C116.716 50.1634 116.41 50.142 116.172 50.1725C115.755 50.2258 115.42 50.4503 115.16 50.7863C113.7 53.0924 112.219 56.1883 110.793 60.1853C110.039 62.3404 109.732 64.1962 109.923 65.6855C110.141 66.4447 110.611 66.8084 111.386 66.7093Z" fill="#3E3E3E"/>
<path d="M148.189 62.8467C150.453 62.557 153.508 60.4101 157.236 56.4211C158.083 55.4651 158.914 54.39 159.789 53.1881C160.43 58.1922 162.827 60.3678 167.057 59.8265C170.743 59.2942 175.057 57.0467 179.947 53.1512C184.399 49.6146 186.688 47.6264 186.865 47.1193C187.073 46.8505 187.221 46.5893 187.235 46.2243C187.197 45.9264 187.099 45.6362 186.823 45.3688C186.606 45.0938 186.293 45.0128 185.987 44.9913C185.63 45.0371 185.347 45.1943 185.072 45.4112C182.51 48.1005 179.381 50.6201 175.701 53.0892C172.08 55.5507 169.112 56.9599 166.789 57.2572C166.074 57.3487 165.403 57.3134 164.792 57.2705C163.413 56.9021 162.619 55.4295 162.299 52.9274C162.124 51.5572 162.104 49.9855 162.233 48.1526C163.391 46.7934 165.321 44.3667 168.014 40.8128C170.708 37.259 173.044 33.751 175.008 30.1695C177.023 26.5208 177.879 23.7471 177.613 21.6621C177.529 21.0068 177.199 20.3224 176.564 19.6166C175.936 18.9703 174.87 18.6829 173.5 18.8583C172.13 19.0337 170.836 19.8047 169.506 21.2464C167.331 23.644 165.352 27.1063 163.689 31.6181C161.967 36.1375 160.728 40.6554 160.042 45.2239C159.229 45.0252 158.372 44.9532 157.479 45.0676C155.632 45.3039 153.579 46.2933 151.423 47.9012C148.74 50.1216 146.907 52.3543 145.923 54.5995C144.939 56.8446 144.564 58.6485 144.739 60.0186C144.785 60.3761 144.89 60.7259 144.996 61.0757C145.655 62.4444 146.7 63.0373 148.189 62.8467ZM162.837 43.413C163.593 39.3806 164.788 35.4737 166.304 31.7073C168.914 25.1367 171.616 21.6425 174.297 21.2994C174.736 21.4247 174.938 21.5806 175.013 21.6921C175.088 21.8036 175.11 21.9823 175.133 22.161C175.354 23.8886 174.216 26.8196 171.71 30.8943C169.204 34.969 166.289 39.1567 162.837 43.413ZM147.877 60.4042C147.631 60.3752 147.452 60.398 147.385 60.3461C147.31 60.2346 147.287 60.0559 147.241 59.6984C147.127 58.8048 147.443 57.4928 148.198 55.8219C149.146 53.7631 150.712 51.8068 153.008 49.8781C154.77 48.5022 156.361 47.693 157.791 47.5101C158.506 47.4186 159.125 47.521 159.699 47.7503C159.428 49.4197 158.035 51.7778 155.443 54.713C151.968 58.3064 149.425 60.206 147.877 60.4042Z" fill="#3E3E3E"/>
<path d="M173.383 90.8048C178.781 89.9323 183.841 85.4701 188.555 77.3588C191.882 71.181 194.694 64.7662 196.916 58.0031C209.18 53.5273 217.173 48.3265 220.977 42.5719C221.125 42.3107 221.154 42.0648 221.124 41.8265C221.078 41.4691 220.921 41.1864 220.593 40.9863C220.264 40.7861 220.011 40.6975 219.772 40.728C219.355 40.7813 219.021 41.0058 218.828 41.3937C215.461 46.3053 208.524 50.7655 197.965 54.8415C201.042 44.8205 202.515 39.3036 202.393 38.3505C202.378 38.2313 202.296 38.0602 202.206 37.8296C202.056 37.6065 201.922 37.5026 201.661 37.3544C201.407 37.2658 201.161 37.2367 200.982 37.2596C200.506 37.3205 200.179 37.6046 199.994 38.0521C197.656 43.4374 195.046 47.6465 192.112 50.7466C190.783 52.1883 189.676 52.996 188.782 53.1104C188.603 53.1333 188.357 53.1042 188.104 53.0156C187.858 52.9865 187.597 52.8383 187.32 52.5709C187.044 52.3035 186.864 51.8422 186.772 51.1273C186.747 49.9802 186.952 48.743 187.454 47.4677C187.95 46.1328 188.468 44.9766 189.068 43.9915C189.661 42.9469 190.136 42.4017 190.478 42.2368C190.821 42.0719 191.096 41.855 191.303 41.5863C191.511 41.3175 191.6 41.0639 191.554 40.7065C191.447 39.8725 190.985 39.5684 190.091 39.6828C188.9 39.8353 187.726 41.0753 186.511 43.4105C184.808 46.656 184.071 49.4144 184.353 51.6186C184.612 53.6441 185.681 54.8999 187.515 55.5128C188.015 55.6306 188.559 55.6215 189.035 55.5605C190.227 55.408 191.417 54.7713 192.613 53.71C194.299 52.2226 195.933 50.3182 197.342 48.0793C196.626 50.5322 195.822 53.2387 194.81 56.214C190.435 57.9849 185.674 60.0475 180.57 62.2749C173.949 65.4231 169.355 68.7962 166.871 72.5655C164.438 76.2675 163.353 79.6155 163.75 82.7132C164.306 87.0621 166.519 89.6852 170.343 90.7094C171.335 90.8853 172.37 90.9344 173.383 90.8048ZM173.003 88.3104C172.288 88.4019 171.558 88.3742 170.865 88.1602C168.181 87.5349 166.663 85.61 166.259 82.4526C165.939 79.9505 166.907 77.102 169.206 73.7803C171.454 70.5258 175.602 67.4519 181.538 64.6335C185.607 62.8412 189.506 61.1313 193.248 59.623L193.762 59.3756C191.679 65.3338 189.244 70.9131 186.399 76.1211C183.463 81.0985 180.851 84.3392 178.561 85.8432C176.323 87.2801 174.433 88.1274 173.003 88.3104Z" fill="#3E3E3E"/>
</svg>
