<svg width="190" height="144" viewBox="0 0 190 144" fill="none" xmlns="http://www.w3.org/2000/svg">
<g clip-path="url(#clip0)">
<path d="M11.7095 25.2716L14.5795 25.1146L15.9553 25.7981L16.0181 26.4101L15.5299 27.01L12.3878 27.1948C9.63864 28.5305 7.71193 30.5148 6.60765 33.1478L6.88142 33.8069C7.22318 34.459 9.60384 33.5505 14.0234 31.0814L15.5055 30.792C16.3308 30.7989 16.8621 31.0651 17.0992 31.5905L17.2457 33.0186C17.5049 33.3127 16.6581 34.6594 14.7053 37.0587C11.3064 41.4388 8.51366 46.1461 6.32719 51.1807L6.36904 51.5887L6.83984 52.1589C9.44254 52.0751 13.1949 50.2471 18.0968 46.6749L13.6696 44.3803C12.9931 44.0374 12.6629 43.4986 12.6792 42.7639C12.7001 42.0746 12.928 41.616 13.3627 41.3882C15.6422 40.8337 18.4228 42.0373 21.7044 44.9992C22.6216 45.4548 23.0546 46.3267 23.0035 47.6146L22.0671 48.5353C21.5615 47.6251 19.5819 48.4238 16.1283 50.9312L9.41002 54.4378L6.71085 54.9208C5.76811 55.1091 4.7777 54.3861 3.73962 52.7517C2.71783 52.1694 4.81306 47.8085 10.0253 39.669L12.3199 35.2418L8.15433 36.8373L6.59027 36.9978C5.9521 37.4755 4.95937 36.7298 3.61207 34.7607L3.45861 33.2646C4.95344 29.0798 7.57238 26.4748 11.3154 25.4494L11.7095 25.2716ZM31.4216 27.8537L32.4416 27.749L33.8383 28.6365L34.1314 39.5326L34.4313 39.7767L38.7747 35.8953L40.5829 35.4349C42.4242 35.5209 43.6994 36.7874 44.4085 39.2343C45.2269 40.0666 44.7178 47.6091 42.8814 61.8618L42.6617 63.7397C42.7896 64.0931 42.2188 64.3349 40.9494 64.4651C39.4883 64.0652 38.3793 63.0795 37.6225 61.5079L37.476 60.0798L38.36 59.9892L40.0706 61.2568L40.2066 61.2428C41.2411 56.1432 41.8658 50.3984 42.0808 44.0085C42.3505 43.0646 42.043 41.6301 41.1583 39.7052L40.0877 38.6468L35.481 43.3111C35.1648 43.8017 34.4308 44.0144 33.2788 43.9493C32.2989 43.775 31.6671 43.1984 31.3834 42.2196C31.0568 42.1615 30.9637 38.5748 31.1043 31.4595L30.8462 28.9435L31.4216 27.8537ZM28.918 49.0008C29.9688 48.5265 32.6465 49.3971 36.951 51.6127L39.8577 52.4827L40.2884 53.3318L39.645 54.4286C35.7044 54.4205 32.0014 53.3802 28.5362 51.3076L28.1246 49.9755L28.918 49.0008ZM21.7167 52.4882L25.1587 52.5474L26.7768 52.244L27.8056 52.8944L27.8753 53.5744C27.8916 54.6264 26.4124 55.1675 23.4378 55.1978L21.2529 54.666L20.8554 53.4699L21.7167 52.4882ZM16.172 57.3862C16.2347 57.1049 17.464 57.2537 19.8598 57.8325C20.8537 58.1429 22.9194 58.183 26.0568 57.9527L26.8135 58.631L26.8833 59.311C26.9391 59.8551 26.5003 60.2666 25.5668 60.5456C23.0606 61.1233 20.326 61.0374 17.3629 60.2876C15.8332 59.6658 15.2223 59.2932 15.5303 59.17L15.5477 58L16.172 57.3862ZM8.21049 61.5014C9.73328 61.1619 10.4924 61.8628 10.4877 63.6042C13.4322 65.9592 17.4729 66.0487 22.6096 63.8725L23.3106 64.0068L23.4292 65.1628C23.8628 66.2636 21.9355 67.1256 17.6473 67.7487C13.767 68.33 10.3111 67.2414 7.27942 64.483C6.92718 63.2822 7.23754 62.2883 8.21049 61.5014Z" fill="#3E3E3E"/>
<path d="M92.0674 8.78239L93.6315 8.62195L95.2322 9.48852L95.1258 10.4615L102.364 13.3611L103.516 14.5485L103.691 16.2486C103.471 17.2331 102.314 17.7871 100.219 17.9103L99.8983 17.4622L100.594 15.5355C100.657 15.2541 98.5371 14.4637 94.2349 13.1642L90.1721 12.4127C87.7461 14.2192 85.5963 16.7074 83.7225 19.8774L83.9631 20.8835L83.4348 21.7623L82.7548 21.8321L81.501 20.9986L81.3825 19.8426C83.0854 15.4532 86.3163 11.892 91.0753 9.15903L92.0674 8.78239ZM99.173 18.4299C100.53 18.7031 101.136 19.0303 100.992 19.4116L101.218 20.2817C101.455 20.8071 100.448 21.4831 98.1966 22.3096C93.018 24.0777 88.1439 27.922 83.5744 33.8424C82.5736 34.3573 82.2789 36.1742 82.6905 39.293C83.0021 42.3305 84.5173 44.374 87.2363 45.4237C88.0756 45.5666 89.5234 44.2728 91.5797 41.5422L91.5657 41.4062C89.1792 40.918 86.9845 39.1732 84.9816 36.1719L84.8299 35.3628C84.5695 34.6107 85.822 34.0928 88.5875 33.8092C89.4674 33.9021 92.9786 32.6257 99.1208 29.9799C99.6823 29.6475 101.214 29.3987 103.717 29.2336C105.15 29.3614 106.143 30.1071 106.695 31.4706L106.772 32.2187C106.986 34.3041 105.407 36.7795 102.036 39.645C102.318 39.7077 102.476 40.3558 102.511 41.5892C103.07 42.1274 100.524 45.8931 94.8736 52.8864L94.6574 53.4583C95.0899 54.1012 97.896 52.8742 103.076 49.7774L104.232 49.6588C105.756 49.7773 106.617 50.3533 106.814 51.3867C108.063 51.9458 106.442 56.6932 101.953 65.629L100.678 67.2715L99.5503 67.6621C99.1063 67.7993 98.4338 67.2727 97.5329 66.0824C94.6024 65.65 92.0607 63.8721 89.9078 60.7486L89.6811 59.8786C88.5942 58.6615 90.7551 54.2709 96.1638 46.7069L97.9371 43.2265L97.6372 42.9824C96.2957 43.3033 93.6814 45.0603 89.7943 48.2536L89.2642 48.4454C88.8957 47.9793 87.4188 47.6497 84.8336 47.4568C82.0076 45.3645 80.3994 42.4142 80.0087 38.6061C79.3228 34.5992 81.9487 30.2754 87.8864 25.6349L85.2482 26.043C84.3869 26.1313 83.6696 25.8384 83.0966 25.1642L83.0059 24.2801C82.8454 23.6094 84.0393 23.1892 86.5873 23.0194C87.4452 23.3437 91.6404 21.8139 99.173 18.4299ZM101.391 32.0147C99.9474 31.3382 98.9314 33.0459 98.3433 37.1377L97.5395 39.3504L98.4235 39.2597C98.928 39.7119 100.212 38.389 102.277 35.2911L103.585 33.3015L103.466 32.1455C103.207 31.8514 102.515 31.8078 101.391 32.0147ZM95.9335 33.7428L95.2221 34.8465L95.3058 35.6626L95.5987 35.8387L96.3903 34.177L96.3764 34.0409L96.0695 33.7288L95.9335 33.7428ZM91.9318 35.5964L89.2204 36.6304L89.0304 36.7873L91.2867 38.6861L92.7775 39.1517L93.1507 38.7698L92.2997 35.8335L91.9318 35.5964ZM103.097 52.6614L97.3845 55.9273L101.897 59.7249C102.224 59.7831 102.89 57.7906 103.895 53.7477L103.634 52.5376L103.097 52.6614ZM93.1666 55.6728C92.6052 56.0053 92.3093 57.3642 92.2792 59.7495C92.7348 60.619 94.1321 61.7355 96.471 63.099L98.3158 63.6657L100.075 62.7293L100.532 63.1635L101.297 61.9167L94.9399 57.5524C95.1283 56.7085 94.5371 56.082 93.1666 55.6728Z" fill="#3E3E3E"/>
<path d="M21.3216 97.5391C21.4425 96.9311 24.6427 97.3129 30.9222 98.6845L35.8271 98.9373L36.7948 99.6626C36.4112 100.389 35.8341 100.792 35.0634 100.871L22.3364 100.733C21.4379 100.459 20.8584 99.9459 20.598 99.1938L20.5352 98.5818L21.3216 97.5391ZM42.84 96.2938C44.4268 96.131 46.4564 96.2664 48.9289 96.7L50.1495 97.8804L50.2471 98.8324C50.6575 99.7066 48.9307 100.96 45.0668 102.594C42.4967 104.781 39.1757 110.367 35.1038 119.352C37.424 120.534 41.3623 119.626 46.9187 116.628L45.5186 114.367L45.2919 113.497L46.5979 113.5C48.0451 113.764 49.1948 114.7 50.0469 116.307L50.1236 117.055C50.899 118.808 46.8833 120.526 38.0767 122.208C37.5606 122.536 36.2657 122.417 34.1919 121.851C31.4381 124.928 29.3626 129.035 27.9654 134.171L27.2314 134.384C26.5688 134.177 26.2712 133.956 26.3386 133.72C26.4223 130.963 28.0578 126.809 31.2451 121.26C26.9231 119.321 24.6889 116.297 24.5423 112.189L24.3156 111.319C23.9739 110.667 24.7039 109.745 26.5056 108.552L27.0497 108.496L27.9633 109.364L28.0401 110.112L27.3426 111.352L27.5728 113.596C28.2726 115.953 29.8414 117.624 32.279 118.611C33.7797 116.716 36.4875 111.628 40.4025 103.347C41.2115 102.302 42.2473 101.234 43.5097 100.142L44.2629 99.4463C43.9142 99.6195 43.1603 99.1929 42.0014 98.1665L41.9246 97.4185L42.84 96.2938ZM17.3898 108.113C18.7998 108.014 19.3328 108.074 18.9887 108.292L19.4386 108.658L19.5014 109.27C16.8708 110.869 14.8825 113.592 13.5364 117.441L13.5818 119.223C13.7701 120.166 14.7198 120.939 16.431 121.542L16.5007 122.222C16.3798 122.83 16.0701 123.16 15.5714 123.211L14.7553 123.295C12.8094 123.082 11.5429 121.677 10.9558 119.08L10.7884 117.448C10.9383 113.997 12.9824 110.924 16.9207 108.229L17.3898 108.113Z" fill="#3E3E3E"/>
<path d="M111.373 81.0863C113.031 80.7329 115.006 81.4467 117.296 83.2275C118.02 84.4817 118.054 86.1504 117.397 88.2335C117.253 88.6148 118.409 90.5119 120.867 93.9248L120.944 94.6728C121.169 95.9782 118.042 98.3147 111.561 101.682L108.562 107.281L109.155 107.702C109.884 107.214 113.358 106.469 119.577 105.464C120.792 105.248 121.92 105.751 122.961 106.973L123.094 108.265C122.928 108.877 122.618 109.207 122.164 109.253L120.872 109.386L119.476 108.498C115.577 108.898 111.621 110.083 107.608 112.052L106.508 112.715C105.356 112.65 104.623 112.198 104.308 111.36C103.74 111.189 104.31 109.596 106.016 106.58L106.393 104.893L102.154 107.114L100.59 107.274C100.137 107.321 99.6666 106.98 99.1795 106.251L99.1237 105.707C98.9633 105.036 100.161 104.432 102.717 103.895L108.164 100.725C108.536 100.779 108.996 99.6778 109.544 97.4227L109.617 96.7967L104.576 99.2379L103.828 99.3147L102.581 98.5492L102.477 97.5292C102.158 97.1037 103.143 96.4301 105.43 95.5082C106.59 95.206 108.039 94.1412 109.775 92.3138L110.508 91.414L110.494 91.278L101.34 86.4448L101.043 84.8946C101.436 84.2588 101.886 83.9606 102.394 84.0001C103.428 83.8025 106.261 85.2985 110.895 88.4882L112.569 88.7288L113.676 85.4542L114.415 84.6224C114.387 84.3504 113.657 84.1505 112.223 84.0227L111.172 85.1613L110.764 85.2031C110.365 85.3357 109.53 84.78 108.257 83.5362L108.002 82.3941C108.109 81.6502 109.232 81.2142 111.373 81.0863ZM117.505 93.3076C115.27 93.3994 113.872 94.7339 113.312 97.3111L113.354 97.7191C114.794 97.0216 116.224 96.0044 117.645 94.6676L118.011 94.2177L117.955 93.6737L117.505 93.3076ZM81.4724 89.7196C82.0525 89.5685 82.7127 89.7527 83.4532 90.2723C84.0577 90.8059 83.5654 91.5894 81.9764 92.6228C80.929 92.6844 80.6606 97.6597 81.171 107.549L82.885 107.51L88.4229 105.224C88.7855 105.187 88.8925 104.443 88.7437 102.992C88.9424 102.697 88.8546 101.171 88.4803 98.4151L88.0845 97.906L84.8727 100.091L84.5065 100.541C85.0064 100.948 85.1866 101.364 85.0471 101.791L84.6949 102.377L83.5388 102.495L81.6644 100.97L81.5458 99.8137C83.3708 97.061 85.8764 95.3609 89.0626 94.7134C90.0054 94.525 90.7958 95.0853 91.434 96.3942C91.6944 97.1463 91.6613 100.173 91.3348 105.475C91.6533 105.901 91.7103 106.903 91.5057 108.481L91.9556 108.847C92.7611 108.215 93.2639 107.98 93.4638 108.143L93.9817 108.502C93.9794 109.373 93.2703 110.499 91.8545 111.881L92.9531 118.572C93.4308 119.21 93.8906 120.789 94.3324 123.309C94.2301 124.099 93.9343 124.564 93.4449 124.706L92.4928 124.804C91.263 124.426 90.7108 123.956 90.8363 123.393C91.1444 123.27 90.6061 120.256 89.2216 114.35C88.752 115.132 87.5529 116.171 85.6245 117.468L83.6384 117.534C84.4441 120.475 86.1651 123.185 88.8015 125.663L89.2967 125.131L89.7727 125.083C90.6585 125.679 91.1776 126.496 91.3299 127.534C91.1915 128.419 90.7644 128.944 90.0483 129.109C83.9617 126.939 80.139 119.818 78.5799 107.746C78.0242 103.221 78.2043 98.2781 79.1203 92.9158L80.6913 90.1434L81.4724 89.7196ZM88.4229 107.904L83.79 110.303L82.001 110.281L81.6279 110.663L82.7352 115.428L83.0491 115.808C85.1414 114.769 87.178 113.186 89.1588 111.058L88.8797 108.338L88.4229 107.904ZM112.189 115.843L113.005 115.759C113.558 115.794 114.176 116.234 114.859 117.081L114.914 117.625L113.089 119.255L113.689 119.743C114.807 119.033 116.834 118.252 119.771 117.401L121.811 117.192C122.545 117.208 123.34 117.814 124.196 119.009L124.384 120.845C124.647 122.513 122.541 126.096 118.065 131.595C117.668 132.185 116.734 132.464 115.265 132.432L114.801 131.93L114.676 130.706C116.087 131.065 118.116 128.291 120.763 122.385L120.975 120.439L120.526 120.073L119.506 120.177L113.438 122.655C112.966 122.52 112.468 123.923 111.945 126.863L111.488 129.108L110.986 129.572L110.102 129.663C109.628 128.612 109.506 126.975 109.736 124.753L109.436 124.509C107.52 125.484 105.548 125.457 103.518 124.429L103.113 123.164C103.316 122.456 104.147 122.073 105.607 122.015C106.111 122.467 106.787 122.581 107.635 122.357L110.407 121.248L111.741 116.163L112.189 115.843Z" fill="#3E3E3E"/>
<path d="M163.154 74.7439L163.63 74.6951C165.198 74.351 166.296 79.919 166.924 91.3993L167.974 97.6136L168.786 98.8359L170.2 98.5534C170.217 99.6055 172.03 100.313 175.641 100.675C176.024 101.736 176.995 102.713 178.552 103.606L178.793 104.613C179.193 104.938 177.584 107.119 173.967 111.155C172.899 111.906 172.434 112.961 172.574 114.321L180.373 110.635L182.807 110.248C184.186 110.29 185.26 110.936 186.029 112.185L186.176 113.613L182.572 119.343C183.036 119.845 184.907 120.226 188.186 120.485L188.58 120.307C189.46 120.4 189.976 120.737 190.127 121.317L190.183 121.861C190.181 122.731 188.263 122.791 184.429 122.039L180.802 121.517L175.735 127.053L173.791 127.528C171.705 127.742 170.48 123.836 170.115 115.81L164.101 123.505L163.54 124.731L162.52 124.836L161.92 124.347L161.829 123.463C161.529 123.219 164.365 119.378 170.336 111.94C170.388 110.652 170.54 109.903 170.793 109.694L171.309 109.366L172.207 109.411L173.339 107.715L173.297 107.307L165.521 111.884L162.902 111.809L162.438 111.307L162.375 110.695C162.147 110.26 163.007 109.714 164.956 109.056L166.265 107.753L167.149 107.662L167.735 108.015L174.492 103.542C174.445 103.089 172.754 102.46 169.419 101.657L168.131 100.484L166.989 100.738C166.236 100.999 165.204 99.8677 163.892 97.3452C163.506 97.1557 162.507 98.5867 160.896 101.638L160.026 101.865C159.482 101.921 159.105 101.593 158.894 100.881C158.499 100.601 159.293 98.9622 161.276 95.9642L162.216 93.7376L161.759 93.3034L155.219 97.2041L153.655 97.3645L152.544 96.5851L152.474 95.9051L154.277 93.3837L155.201 93.0141L156.204 94.0794L163.274 89.987L164.647 89.2965L164.162 85.9103C163.936 86.3915 162.341 86.6926 159.375 86.8136C157.23 86.4381 155.877 85.088 155.318 82.7631L155.255 82.1511C155.398 81.3118 155.737 80.8189 156.272 80.6724L156.884 80.6097L158.472 82.0272L158.605 83.3193C158.543 84.0586 159.786 84.1144 162.333 83.4866C162.913 83.3355 163.403 83.4227 163.803 83.7481L164.047 83.4482C163.999 80.7502 163.437 78.1737 162.36 75.7186C162.355 75.2153 162.619 74.8904 163.154 74.7439ZM181.187 112.544C180.235 112.642 178.639 113.378 176.397 114.754L174.87 115.941L174.926 116.485C176.263 117.906 178.133 118.722 180.537 118.933C181.953 117.551 182.993 115.635 183.658 113.184C183.498 112.514 182.674 112.3 181.187 112.544ZM172.978 118.265C172.74 119.069 172.94 121.018 173.578 124.114L174.185 124.67L174.661 124.621C175.386 124.547 176.732 123.378 178.699 121.115L174.375 119.153L173.114 118.252L172.978 118.265ZM175.614 79.6504C175.804 79.2644 177.18 79.5126 179.745 80.3949C180.878 80.2786 181.784 80.6209 182.461 81.4218L182.838 82.414C183.085 83.0301 181.543 83.8525 178.212 84.8813C177.242 84.7976 176.845 86.5105 177.021 90.0199C177.128 91.0626 177.575 91.8414 178.361 92.3564C179.748 92.4889 181.06 92.1023 182.296 91.1968C183.271 91.3258 183.703 91.7396 183.591 92.4382L183.633 92.8463C183.07 94.0494 181.573 94.8672 179.143 95.2997L178.803 95.3345C176.295 94.9963 174.984 93.8252 174.87 91.8211L174.374 86.9929L170.999 88.9197C170.347 89.2615 169.844 88.832 169.492 87.6312C169.064 87.0337 170.712 85.6736 174.434 83.551L174.847 80.2101L175.614 79.6504Z" fill="#3E3E3E"/>
</g>
<defs>
<clipPath id="clip0">
<rect width="190" height="144" fill="white"/>
</clipPath>
</defs>
</svg>
