<svg width="53" height="64" viewBox="0 0 53 64" fill="none" xmlns="http://www.w3.org/2000/svg">
<g clip-path="url(#clip0)">
<path d="M49.9913 9.83487C50.5027 9.93567 51.0157 9.60557 51.119 9.0715C51.2184 8.55721 50.8894 8.04063 50.3583 7.93595L45.0868 6.89695C44.8311 6.84655 44.5759 6.89893 44.3645 7.04206L32.2182 15.2642L12.0958 11.2981C9.87307 10.86 7.71166 12.3232 7.27959 14.5583C6.8437 16.8133 8.30158 18.9898 10.5243 19.4278L11.8225 19.6837C11.7086 24.8153 11.2932 31.6123 10.9002 38.1878C10.4962 44.9255 10.0661 51.9044 9.96035 57.0992C9.95109 57.5696 10.2795 57.9834 10.7319 58.0726L29.9102 61.8525C30.3626 61.9417 30.821 61.683 30.9876 61.2435C32.8243 56.3899 35.0248 49.7599 37.1597 43.3634C39.2247 37.1174 41.371 30.6616 43.1962 25.8673L44.4945 26.1232C46.7172 26.5613 48.8786 25.0982 49.3107 22.863C49.7427 20.6278 48.2848 18.4513 46.0621 18.0133L34.8699 15.8073L45.0896 8.88931L49.9874 9.85465L49.9913 9.83487ZM35.3604 42.7419C33.3533 48.7939 31.2648 55.0559 29.4905 59.7986L11.8858 56.3288C12.0079 51.2604 12.4206 44.6887 12.7989 38.2951C13.1886 31.8421 13.5969 25.1875 13.7305 20.0598L41.2882 25.4913C39.5024 30.2933 37.4024 36.6146 35.3604 42.7419ZM45.6989 19.8924C46.8988 20.1289 47.6752 21.2881 47.442 22.4947C47.2088 23.7013 46.0576 24.4806 44.8577 24.2441L10.8875 17.5487C9.68766 17.3122 8.91119 16.153 9.14442 14.9464C9.37766 13.7398 10.5289 12.9605 11.7287 13.197L45.6989 19.8924Z" fill="#309AB0"/>
<path d="M22.5534 48.3857C26.9175 49.246 31.1438 46.3848 31.9921 41.9958C32.8404 37.6067 29.9898 33.3506 25.6257 32.4903C21.2616 31.6301 17.0353 34.4913 16.187 38.8803C15.3387 43.2693 18.1893 47.5255 22.5534 48.3857ZM25.2627 34.3685C28.5849 35.0234 30.7704 38.2864 30.1246 41.6276C29.4788 44.9688 26.2386 47.1624 22.9164 46.5075C19.5942 45.8527 17.4087 42.5896 18.0545 39.2484C18.7003 35.9072 21.9405 33.7137 25.2627 34.3685Z" fill="#309AB0"/>
</g>
<defs>
<clipPath id="clip0">
<rect width="52" height="64" fill="white" transform="translate(0.303711)"/>
</clipPath>
</defs>
</svg>
