<svg width="192" height="151" viewBox="0 0 192 151" fill="none" xmlns="http://www.w3.org/2000/svg">
<g clip-path="url(#clip0)">
<path d="M80.3392 25.6672L81.4953 25.5487C81.8486 25.4208 82.4642 25.8387 83.3418 26.8023L82.4404 28.063C82.2451 29.7323 83.0118 33.4102 84.7404 39.0968L91.8632 36.8544L95.3854 36.3556C99.4842 36.1184 102.15 37.5401 103.382 40.6205C104.207 44.2008 102.912 48.5483 99.4972 53.6631L98.2191 53.9317C97.5832 53.5388 98.1569 51.762 99.94 48.6013C100.784 47.0029 101.273 45.0744 101.408 42.8158L101.303 41.7958C100.182 39.3454 97.5853 38.3748 93.5145 38.884C90.9397 39.2397 88.2126 40.3441 85.3333 42.197C86.0529 45.1926 87.3293 48.7038 89.1625 52.7304C88.8615 53.815 88.2983 54.3538 87.4729 54.3468L73.9718 52.021L71.6283 50.6121C71.347 50.5494 71.1889 49.9013 71.154 48.668C70.6378 47.2091 74.2472 44.4337 81.982 40.3418C80.6021 36.2687 79.9191 31.6201 79.933 26.3961L80.3392 25.6672ZM82.2749 43.1979C79.5979 44.343 77.1422 46.0838 74.9081 48.4203L74.4948 49.0812C74.4158 50.0971 77.8502 50.7527 84.7981 51.0479L85.0422 50.7479L82.533 43.034L82.2749 43.1979Z" fill="#3E3E3E"/>
<path d="M152.545 2.73012L153.498 2.63246C154.725 2.09423 155.724 4.23659 156.493 9.05954L156.943 9.4257C157.293 9.71049 159.725 8.40736 164.238 5.51631L165.313 5.2687C166.882 5.38259 167.768 5.97891 167.97 7.05765C168.289 11.0564 166.662 15.3005 163.091 19.7899L161.145 19.5772L160.043 22.2328C161.221 21.6539 164.263 21.3877 169.17 21.4341L170.894 22.8377L171.212 24.5918C171.479 26.3053 168.905 28.9057 163.491 32.3931L158.802 36.9284L165.323 33.5107L167.364 33.3014C168.367 33.7025 169.044 34.2744 169.395 35.0172C170.735 36.025 169.285 40.6405 165.043 48.8636L163.385 49.446L161.226 48.4993C161.412 50.3127 160.823 51.4954 159.46 52.0476L157.76 52.222C154.825 51.7443 152.745 49.7815 151.521 46.3338L151.291 44.0897C151.481 40.5884 156.92 34.2124 167.608 24.9615L167.803 24.1856C165.438 23.4661 162.364 24.3083 158.579 26.7123C158.077 27.1761 157.524 27.3702 156.921 27.2947C156.567 27.4226 156.049 27.0634 155.367 26.2171C154.772 25.7743 155.334 24.1131 157.055 21.2337C157.608 21.2686 158.47 18.5003 159.639 12.9287L159.684 12.0307L159.384 11.7866C158.483 12.3829 157.414 12.6759 156.176 12.6654C153.88 12.1679 152.538 9.57979 152.15 4.90098L151.745 3.63683L152.545 2.73012ZM164.219 8.67931L161.714 10.3794C162.281 10.5503 162.733 10.9391 163.07 11.5459L163.158 13.7359L163.43 13.708C163.886 13.2489 164.343 11.8964 164.8 9.65052L164.545 8.50842L164.219 8.67931ZM165.888 36.3389C165.689 36.1762 163.064 37.6136 158.016 40.6511L157.01 40.8917L155.641 40.2762C154.605 41.3445 154.013 42.94 153.864 45.0626C154.35 47.1201 155.556 48.5999 157.481 49.5019L160.654 48.283L160.776 48.1331C159.58 46.744 158.732 44.9527 158.232 42.7592L158.176 42.2152L158.998 41.5125L159.678 41.4427L161.346 42.3023L161.817 42.8725L161.563 44.4104L162.97 46.7399L163.27 46.984C163.985 46.3609 165.07 43.3176 166.525 37.8541C166.613 36.9288 166.401 36.4238 165.888 36.3389ZM137.228 13.5096C137.29 13.2283 139.284 13.459 143.208 14.2018C143.69 14.4273 145.77 14.168 149.451 13.424C150.621 13.6704 151.23 14.0203 151.276 14.4737L151.517 15.4798L150.52 16.4754C150.36 16.2627 147.908 16.4685 143.161 17.0928C140.441 17.3718 138.167 16.643 136.34 14.9063L136.277 14.2943C136.249 14.0223 136.566 13.7607 137.228 13.5096ZM154.648 13.8529L154.989 13.818L155.379 14.9461C155.788 18.9356 151.267 24.2097 141.815 30.7683C140.71 31.1566 139.736 30.8212 138.895 29.7622L138.804 28.8782L141.076 26.24L141.96 26.1493L142.792 26.8886L143.2 26.8468C146.467 24.3126 149.573 21.3141 152.516 17.8511L154.648 13.8529ZM168.196 52.8008C169.89 52.352 172.661 53.236 176.508 55.4527C177.057 55.9003 177.334 56.582 177.336 57.498C177.302 58.5094 176.873 59.0115 176.047 59.0046C175.577 59.3277 174.727 58.6361 173.498 56.9297L168.719 55.2209C167.804 55.6813 167.105 55.3407 166.621 54.1992C166.809 53.3553 167.334 52.8891 168.196 52.8008ZM147.123 55.7182L147.463 55.6833C147.626 55.4834 148.635 56.1587 150.489 57.7094C151.241 59.2357 153.45 60.4521 157.116 61.3588C157.507 61.5936 158.955 61.1931 161.46 60.1573L162.004 60.1015L162.217 60.8356C161.197 62.9559 159.37 63.8993 156.735 63.6657C153.397 63.7331 149.903 61.8239 146.252 57.9379L146.14 56.8498L147.123 55.7182Z" fill="#3E3E3E"/>
<path d="M15.1186 85.8889C15.8091 84.5811 16.9424 84.4649 18.5187 85.5401C19.5649 86.8072 21.9892 88.7804 25.7916 91.4597L25.9032 92.5478C26.4763 93.222 24.7176 94.3873 20.627 96.0439L16.7892 98.1555C16.945 98.7809 18.5247 98.5501 21.5285 97.4632L26.5519 96.192C27.6574 95.8037 28.6513 96.1141 29.5336 97.1231L29.6661 98.4151C29.2895 100.103 27.8952 101.918 25.4832 103.861C25.425 104.187 26.3073 104.303 28.13 104.208L30.9408 104.813L32.0045 105.803L32.137 107.095C32.0928 107.558 31.4611 107.874 30.2417 108.045C30.1161 106.821 28.6299 106.401 25.7831 106.785L23.3455 105.798L16.4738 113.168L15.759 115.578L15.1609 115.777C14.1996 115.784 13.6387 115.452 13.4782 114.781L13.4155 114.169C12.7657 113.64 16.6557 108.912 25.0856 99.9845L25.5668 99.3166L25.5319 98.9766L17.5652 101.031L15.1171 101.282C13.2804 101.241 12.1157 100.605 11.6228 99.3726L11.553 98.6926C11.3298 98.3032 14.1301 96.5729 19.9539 93.5016L21.7934 92.0073C20.4857 91.3168 18.4409 89.6941 15.6592 87.1391C15.2 86.6823 15.0198 86.2655 15.1186 85.8889ZM31.1101 112.492L32.2661 112.373C32.8741 112.494 33.3896 112.83 33.8128 113.383L33.8755 113.995C34.1452 114.837 33.0717 116.207 30.6551 118.104C32.4429 120.349 34.7626 122.196 37.6141 123.644L39.4258 124.558L39.5304 125.578C39.8722 126.23 37.8774 127.328 33.5462 128.872L30.6727 130.334C30.5309 131.632 31.2296 137.103 32.7688 146.749C32.9432 147.556 32.5299 148.217 31.5291 148.732L30.7811 148.809C30.2463 148.955 29.6378 148.605 28.9554 147.759C28.4765 146.663 28.7398 144.986 29.7452 142.73L28.4653 134.272L28.0224 133.974C26.8669 134.321 24.7937 136.664 21.8028 141.002C21.8261 141.229 21.3594 141.368 20.4027 141.421L20.1621 140.415L23.039 134.966L24.0555 133.487C22.6339 134.366 20.645 135.074 18.0888 135.611L15.9127 135.834C14.8421 135.669 13.929 135.03 13.1734 133.916L13.0687 132.896C12.4236 132.413 17.6016 126.842 28.6027 116.185L28.4319 115.859C26.3883 116.481 23.9559 117.555 21.1347 119.081L13.3476 122.216C12.9268 122.58 12.0672 122.462 10.7687 121.862L10.542 120.992C10.3502 120.462 11.4394 119.915 13.8096 119.351C14.2583 119.26 15.0941 118.922 16.317 118.338L17.0441 118.058L17.7101 117.852L21.8618 116.12C23.3694 115.187 26.4522 113.977 31.1101 112.492ZM26.847 121.175L19.0634 128.364L16.2561 131.813L15.7627 133.032C17.425 134.053 21.4685 132.607 27.8933 128.695L27.1399 121.351L26.847 121.175ZM30.125 120.976C29.8368 121.739 29.874 123.888 30.2367 127.424L30.5366 127.668L35.7815 125.206L35.7676 125.07L31.2148 121.552L30.2122 120.486L30.125 120.976Z" fill="#3E3E3E"/>
<path d="M107.384 84.327L108.54 84.2084L109.569 84.8588L109.721 85.6678L109.621 86.7088L109.853 86.9599L113.121 85.319C113.992 85.3213 114.457 85.6172 114.518 86.2065L114.573 86.7506C115.087 87.2934 113.978 88.0943 111.246 89.1534C110.089 88.5849 109.198 90.3943 108.574 94.5814C107.957 94.8279 107.665 95.7741 107.697 97.4201L105.477 99.2283L105.505 99.5003C107.767 101.009 111.954 101.633 118.066 101.373C118.725 101.992 118.99 102.561 118.859 103.078C118.454 104.036 116.686 104.217 113.555 103.622C113.158 104.213 109.751 103.829 103.336 102.472L102.792 102.527C100.804 103.693 98.1827 107.169 94.9279 112.955C95.0884 113.625 94.7995 114.159 94.0614 114.555L93.6673 114.733L92.5705 114.09L92.438 112.798C93.3109 110.143 97.491 104.445 104.978 95.7061C106.565 95.5434 107.125 94.5239 106.657 92.6477L106.716 91.8857L106.417 91.6416L103.393 92.9825C102.522 92.9802 101.866 92.6123 101.424 91.8788L101.334 90.9948C101.297 90.6321 102.236 90.1921 104.153 89.6748L106.776 88.4438L106.751 86.8657C106.544 85.7417 106.755 84.8954 107.384 84.327ZM92.6643 86.8677C93.2443 86.7166 94.2685 87.3216 95.7366 88.6828L100.038 87.0733C102.319 88.7635 101.404 90.1172 97.2938 91.1344C96.7137 91.2855 96.3586 91.6197 96.2284 92.137C96.5167 93.1611 97.6152 94.4915 99.524 96.1282L99.7437 96.9302L99.1334 97.68L98.3854 97.7568C97.4055 97.5824 95.817 96.1648 93.6199 93.504C93.091 94.1539 92.3232 94.4846 91.3166 94.4962L90.2058 93.7168L89.9512 92.5747C90.3395 91.8935 91.1607 91.1908 92.415 90.4666L92 87.7605L92.6643 86.8677ZM73.744 96.0239C73.8928 95.688 74.8774 95.9077 76.6978 96.683C78.1729 97.2188 81.2603 96.9479 85.9601 95.8703C88.557 97.0699 88.0502 98.3817 84.4396 99.8058L76.2428 104.976C75.8162 104.836 75.4227 105.243 75.0624 106.196C75.4297 106.205 75.8459 108.475 76.3109 113.009L76.9945 116.993L77.2944 117.237C77.9093 116.533 78.6475 116.136 79.5088 116.048L79.7704 117.258L77.6833 120.358L79.8019 126.944C79.8996 127.896 80.772 129.479 82.4192 131.692L82.4959 132.44L81.8247 133.265C81.5178 133.846 80.174 133.251 77.7933 131.479C76.4239 131.528 74.0589 130.58 70.6983 128.634L70.1578 127.384C70.1438 125.461 71.7584 122.89 75.0015 119.671L73.0258 107.78C73.6361 107.03 72.745 106.159 70.3527 105.168L69.8139 104.605L70.5201 104.12C71.5 104.294 72.1818 104.018 72.5654 103.291L72.3875 97.5374C72.3491 96.7168 72.8013 96.2122 73.744 96.0239ZM75.3621 98.4005C74.7879 99.055 74.6984 100.416 75.0937 102.482C75.4843 102.717 77.164 101.674 80.1328 99.3542C80.177 98.8916 78.8884 98.6114 76.2671 98.5138L75.3621 98.4005ZM75.4445 122.65C74.4855 123.573 73.8624 124.644 73.5753 125.865L73.673 126.817C73.752 127.588 74.5425 128.148 76.0444 128.498L77.4724 128.351L77.7165 128.051L75.7165 122.622L75.4445 122.65ZM113.932 107.294L114.884 107.197L115.92 107.915L115.996 108.663C116.229 109.143 115.371 109.712 113.423 110.37C111.479 111.073 107.685 113.158 102.039 116.623L100.122 117.369L99.7143 117.411L98.1817 116.538L97.9619 115.736L98.4153 114.796L99.1494 114.583L99.7073 114.663C100.606 114.938 105.347 112.481 113.932 107.294ZM103.728 117.687L104.912 117.84L104.916 119.214L107.151 118.229C107.553 117.684 108.747 117.263 110.733 116.968L111.209 116.919C112.633 116.957 113.659 117.584 114.288 118.802C115.422 119.144 114.769 121.708 112.328 126.494L111.66 128.693C111.883 129.082 113.882 128.465 117.655 126.841L118.218 126.302L119.578 126.162L120.553 126.956L120.637 127.772C120.905 128.157 120.068 128.701 118.124 129.404L112.239 131.657L110.431 132.117C109.36 131.952 108.661 131.382 108.332 130.408C107.846 130.137 108.53 128.326 110.386 124.975L111.47 120.809L111.414 120.265L110.889 119.838C110.499 119.603 109.527 119.955 107.974 120.893L105.47 123.28C105.259 123.898 105.722 125.064 106.86 126.78C107.158 127.895 107.084 128.521 106.64 128.658L105.648 129.034C104.471 129.613 103.219 127.68 101.892 123.235C101.816 121.594 102.303 119.872 103.355 118.069L103.728 117.687Z" fill="#3E3E3E"/>
<path d="M147.349 82.7013L148.165 82.6176L150.147 83.8573L150.203 84.4013C150.39 84.8861 149.723 85.2982 148.2 85.6376L147.792 85.6795C147.509 86.9454 145.581 90.2583 142.008 95.6184L140.995 98.471L140.277 99.5068L139.937 99.5417L139.337 99.0534C138.422 97.7271 140.857 92.438 146.643 83.186L147.349 82.7013ZM159.328 85.5956L159.872 85.5398C161.491 85.6944 162.967 86.4592 164.299 87.8344L164.756 88.2685C165.107 89.0113 164.938 89.6013 164.25 90.0384C163.979 90.5243 162.2 89.699 158.911 87.5624L158.698 86.8284C158.882 85.9391 159.092 85.5282 159.328 85.5956ZM180.593 83.8952L181.477 83.8045L182.785 84.495L182.904 85.651C183.032 86.0044 181.746 86.8693 179.047 88.2457C177.77 89.2012 176.273 89.79 174.555 90.0121L173.603 90.1097C172.547 90.0807 171.829 89.5587 171.45 88.5439C171.666 87.972 172.109 87.6058 172.78 87.4454C174.975 87.4035 177.579 86.2201 180.593 83.8952ZM150.001 90.4693L150.976 91.2626L151.122 92.6907C150.968 92.5233 150.142 93.4096 148.646 95.3498C146.931 96.4878 145.706 98.1711 144.972 100.399C144.782 100.327 144.188 101.236 143.19 103.125L142.305 105.209C143.599 105.763 144.048 106.129 143.654 106.307L144.036 106.68C143.463 109.579 144.472 113.828 147.062 119.426C147.429 119.434 147.853 120.215 148.333 121.77L148.389 122.314L147.431 123.03C145.367 122.555 143.327 118.527 141.313 110.945L141.039 110.286L139.965 110.534L138.662 109.224L138.593 108.544C138.709 106.104 141.672 100.83 147.483 92.7204L150.001 90.4693ZM156.296 91.5415L156.84 91.4857C157.543 91.6426 158.136 92.0628 158.618 92.7463C157.938 92.8161 157.88 94.7004 158.442 98.3993L158.777 98.9834C160.711 98.1894 162.468 97.0014 164.046 95.4193L165.586 96.3608L165.663 97.1089C166.004 97.761 164.203 98.9537 160.257 100.687C159.415 100.957 158.983 101.436 158.962 102.125L160.298 113.808L161.025 116.207L161.907 118.11L161.705 118.817L162.601 120.856L161.998 121.674L160.978 121.778C159.968 122.203 159.216 120.012 158.723 115.206C158.451 115.234 158.23 113.974 158.061 111.426L157.429 109.292L157.307 109.442C155.687 110.616 154.56 113.251 153.926 117.348L153.724 118.056L152.704 118.16L151.722 117.299L151.555 115.667C151.246 115.332 151.74 113.449 153.037 110.017C153.286 107.976 154.738 106.728 157.394 106.272L156.829 103.444L156.679 103.322L152.922 104.875L152.31 104.938C151.694 105.185 150.988 104.776 150.191 103.712L150.149 103.304C150.378 102.41 150.806 101.886 151.431 101.73C152.171 102.249 152.757 102.373 153.187 102.099L156.386 100.466L155.42 92.3872L156.296 91.5415ZM186.552 91.7364C187.132 91.5852 187.642 91.6474 188.083 91.9229L188.187 92.9429C188.515 93.4591 187.44 94.142 184.961 94.9918L180.351 98.2821C179.49 98.3705 179.683 101.145 180.93 106.606C180.958 110.452 181.91 114.592 183.785 119.026C184.411 119.329 184.737 120.051 184.763 121.194L183.766 122.189L183.086 122.259C182.062 122.547 180.654 121.776 178.862 119.944L176.484 118.195L176.868 116.575C177.262 116.397 178.146 116.535 179.522 116.99L180.36 117.797L180.768 117.755C179.507 113.945 178.546 107.927 177.886 99.7033C177.031 100.753 174.998 101.924 171.786 103.215L170.257 103.716C167.813 103.554 167.132 102.501 168.215 100.558L169.398 100.024L170.25 100.968C171.746 100.814 177.18 97.737 186.552 91.7364ZM161.105 104.929C162.112 104.918 162.795 105.329 163.155 106.162L163.082 109.468C163.226 110.873 163.894 112.019 165.084 112.905C165.62 113.216 166.391 113.137 167.396 112.668L168.259 112.373L169.37 113.152L169.276 113.574C168.826 114.995 167.73 115.703 165.989 115.698C163.523 116.226 161.668 113.988 160.421 108.985L160.366 108.441L160.481 105.543L161.105 104.929Z" fill="#3E3E3E"/>
</g>
<defs>
<clipPath id="clip0">
<rect width="192" height="151" fill="white"/>
</clipPath>
</defs>
</svg>
