<svg width="48" height="55" viewBox="0 0 48 55" fill="none" xmlns="http://www.w3.org/2000/svg">
<g clip-path="url(#clip0)">
<path d="M10.8212 21.472C10.7385 25.8947 10.6433 30.473 10.5405 34.9094C10.429 39.5722 10.3219 44.3938 10.2371 49.0092C10.2296 49.4112 10.5116 49.7641 10.8997 49.8392L15.4385 50.7177L23.5037 52.2787L28.0425 53.1572C28.4305 53.2323 28.8234 53.0101 28.9659 52.6342C30.603 48.3193 32.2929 43.8216 33.9229 39.4527C35.4801 35.2802 37.0938 30.9959 38.6613 26.8605C41.848 27.1264 44.7897 24.9412 45.4094 21.7277C45.7159 20.1379 45.4053 18.4812 44.5472 17.1221C44.6897 16.7461 44.7984 16.3636 44.8734 15.9746C45.5387 12.5243 43.2792 9.17456 39.8372 8.50835C38.3861 8.22749 36.9248 8.45345 35.6384 9.13432C34.7875 8.37311 33.7495 7.8564 32.6021 7.63433C32.096 7.53635 31.5767 7.50603 31.0815 7.53298C30.3968 5.36529 28.5731 3.74911 26.2953 3.30823C24.8105 3.02084 23.2719 3.28448 21.9556 4.02973C20.797 4.68272 19.8867 5.68202 19.3417 6.87482C17.6752 7.16634 16.1581 8.1359 15.1896 9.52747C14.7841 9.36126 14.3552 9.22561 13.9165 9.1407C10.4745 8.47448 7.13223 10.74 6.46693 14.1903C5.84729 17.4038 7.76496 20.5295 10.8212 21.472ZM11.8877 48.3461C11.9671 43.9403 12.0792 39.3653 12.1787 34.9458C12.2821 30.5972 12.3811 26.0898 12.4644 21.7549C13.5262 21.785 14.5831 21.5685 15.5137 21.0994L14.8067 48.9111L11.8877 48.3461ZM18.9911 49.721L16.4433 49.2279L17.1681 20.5073C18.8965 21.9823 21.2768 23.1623 23.9607 23.8572L18.9743 49.7178L18.9911 49.721ZM23.1418 50.5244L20.594 50.0313L25.5707 24.2215C28.1724 24.7075 30.7135 24.6906 32.9046 24.2199L23.1418 50.5244ZM32.406 38.8783C30.8553 43.017 29.2617 47.2877 27.6975 51.4062L24.7785 50.8412L34.4619 24.7669C35.168 25.5527 36.0482 26.1617 37.0649 26.5164C35.5105 30.5841 33.9468 34.7904 32.406 38.8783ZM13.6067 10.7475C14.1298 10.8487 14.6365 11.0345 15.09 11.3153C15.2794 11.4221 15.5189 11.4509 15.7409 11.3886C15.963 11.3263 16.1305 11.1833 16.2404 10.9765C16.9694 9.55614 18.4158 8.59043 20.0022 8.44133C20.3223 8.41555 20.5905 8.20431 20.6998 7.90966C21.5048 5.73203 23.7414 4.48065 26.0023 4.91826C27.8752 5.28076 29.3304 6.72035 29.7233 8.58595C29.8137 9.02452 30.2334 9.29875 30.6677 9.22491C31.2299 9.12318 31.7894 9.12621 32.3462 9.23398C33.3586 9.42992 34.2584 9.93743 34.9508 10.7031C35.2258 11.0019 35.6846 11.0732 36.0269 10.8412C37.0738 10.1315 38.3326 9.86633 39.5812 10.108C42.129 10.6011 43.8033 13.0832 43.3108 15.6371C43.2325 16.043 43.1036 16.4391 42.9241 16.8255C42.7843 17.0966 42.8236 17.4376 43.0038 17.683C43.796 18.7487 44.0946 20.1048 43.8435 21.4071C43.351 23.961 40.8745 25.6396 38.3267 25.1465C36.8757 24.8657 35.6699 23.948 35.0007 22.6079C35.0007 22.6079 35.0039 22.591 34.9871 22.5878C34.9734 22.5676 34.9767 22.5507 34.9631 22.5305L34.9495 22.5103C34.9359 22.4901 34.9223 22.4699 34.9054 22.4667L34.8918 22.4465C34.8477 22.4029 34.8036 22.3593 34.7595 22.3156C34.7595 22.3156 34.7426 22.3124 34.7459 22.2955C34.7323 22.2753 34.7154 22.272 34.6985 22.2687C34.6816 22.2655 34.6816 22.2655 34.668 22.2453C34.6512 22.242 34.6375 22.2219 34.6207 22.2186C34.6038 22.2153 34.6038 22.2153 34.5869 22.2121C34.5701 22.2088 34.5701 22.2088 34.5532 22.2055L34.5363 22.2023C34.5194 22.199 34.5194 22.199 34.5026 22.1957C34.4857 22.1925 34.4688 22.1892 34.4519 22.1859L34.4351 22.1827C34.4351 22.1827 34.4351 22.1827 34.4182 22.1794C34.3845 22.1729 34.3507 22.1663 34.3338 22.1631C34.3001 22.1565 34.2631 22.1669 34.2293 22.1604L34.2125 22.1571C34.1956 22.1539 34.1586 22.1642 34.1385 22.1779L34.1216 22.1746C34.0846 22.185 34.0476 22.1954 34.0274 22.209C31.7711 23.018 28.7386 23.1328 25.7352 22.5515C22.31 21.8885 19.2264 20.3618 17.5056 18.4848C17.346 18.3136 17.1196 18.2172 16.8905 18.2254C16.6613 18.2337 16.4328 18.3298 16.2755 18.5099C15.1781 19.7537 13.4731 20.336 11.8533 20.0225C9.25162 19.5365 7.59427 17.0577 8.08998 14.4869C8.58243 11.933 11.042 10.2511 13.6067 10.7475Z" fill="#309AB0"/>
</g>
<defs>
<clipPath id="clip0">
<rect width="48" height="55" fill="white"/>
</clipPath>
</defs>
</svg>
