<svg width="44" height="41" viewBox="0 0 44 41" fill="none" xmlns="http://www.w3.org/2000/svg">
<g clip-path="url(#clip0)">
<path d="M43.203 40.3184L43.9063 1.51653C43.9135 1.11731 43.5981 0.773695 43.1848 0.766234L1.46486 0.0132633C1.05149 0.00580271 0.724136 0.322454 0.716621 0.737037L0.716343 0.752392L0.553249 9.75038L0.0133142 39.539C0.00607794 39.9382 0.321466 40.2818 0.734838 40.2892L42.4701 41.0425C42.8681 41.0497 43.1955 40.733 43.203 40.3184ZM37.9373 2.14608L42.4385 2.22732L42.3016 9.78195L37.8004 9.70071L37.9373 2.14608V2.14608ZM36.4676 2.11956L36.3306 9.67418L31.8295 9.59294L31.9664 2.03832L36.4676 2.11956ZM26.0108 1.93083L30.5119 2.01207L30.375 9.56669L25.8739 9.48546L26.0108 1.93083ZM20.0552 1.82334L24.5563 1.90458L24.4194 9.45921L19.9182 9.37797L20.0552 1.82334ZM14.0843 1.71558L18.5854 1.79681L18.4485 9.35144L13.9473 9.2702L14.0843 1.71558ZM8.12864 1.60809L12.6298 1.68933L12.4929 9.24395L7.99171 9.16272L8.12864 1.60809V1.60809ZM2.17303 1.5006L6.67419 1.58184L6.53725 9.13646L2.0361 9.05523L2.17303 1.5006ZM41.7616 39.5705L1.49616 38.8438L2.00966 10.5139L7.06197 10.6051C7.12294 10.6216 7.16887 10.6224 7.23011 10.6235C7.29135 10.6246 7.35259 10.6257 7.3988 10.6112L13.0176 10.7126C13.0785 10.7291 13.1245 10.7299 13.1857 10.731C13.247 10.7321 13.3082 10.7332 13.3544 10.7187L18.9732 10.8201C19.0342 10.8366 19.0801 10.8374 19.1413 10.8385C19.2026 10.8396 19.2638 10.8407 19.31 10.8262L24.9288 10.9276C24.9898 10.9441 25.0357 10.9449 25.0969 10.946C25.1582 10.9471 25.2194 10.9482 25.2656 10.9337L30.8844 11.0351C30.9454 11.0515 30.9913 11.0524 31.0526 11.0535C31.1138 11.0546 31.175 11.0557 31.2212 11.0412L36.84 11.1426C36.901 11.159 36.9469 11.1599 37.0082 11.161C37.0694 11.1621 37.1307 11.1632 37.1769 11.1487L42.2292 11.2398L41.7157 39.5697L41.7616 39.5705Z" fill="#309AB0"/>
<path d="M31.2062 24.5866L13.5121 13.915C13.2849 13.7727 13.0093 13.7677 12.7772 13.9018C12.545 14.0358 12.4031 14.2637 12.3983 14.5247L12.0225 35.2383C12.0178 35.4993 12.1511 35.7475 12.3785 35.8744C12.4846 35.9378 12.6218 35.971 12.7443 35.9732C12.8668 35.9754 13.0051 35.9472 13.1134 35.8877L31.1831 25.861C31.4153 25.727 31.5572 25.4992 31.562 25.2381C31.567 24.9617 31.4334 24.7289 31.2062 24.5866ZM13.5001 33.9901L13.8296 15.8254L29.3574 25.1984L13.5001 33.9901Z" fill="#309AB0"/>
</g>
<defs>
<clipPath id="clip0">
<rect width="44" height="41" fill="white"/>
</clipPath>
</defs>
</svg>
