<svg width="192" height="151" viewBox="0 0 192 151" fill="none" xmlns="http://www.w3.org/2000/svg">
<path d="M22.4322 20.4871L24.3101 20.7068L24.9849 21.256C23.2134 23.6367 22.7403 26.6172 23.5657 30.1975C24.6457 34.0266 26.8764 36.5694 30.258 37.8259L31.564 37.8294L31.9441 37.5155C29.8122 37.2761 29.5471 35.5854 31.1489 32.4433L31.9631 28.9925L31.6231 29.0274L30.2457 30.3369L29.4837 30.2777L28.2439 29.5802L28.1253 28.4242C27.8928 27.9441 29.1105 27.0862 31.7783 25.8505L34.0607 24.6543C34.6175 24.2765 35.58 23.8342 36.9482 23.3273L37.6683 22.9786C38.8505 22.445 40.3936 22.0806 42.2977 21.8852C42.9405 21.4528 44.0913 21.9532 45.7502 23.3865C46.9917 26.5576 45.3539 30.6883 40.8367 35.7787C40.1393 36.1251 39.3802 37.2109 38.5595 39.0359L32.7462 42.6558L31.7942 42.7535L30.8195 41.9601L31.013 40.4972C25.8471 40.1567 22.3824 36.5264 20.6189 29.6065C20.0226 28.7056 20.1452 26.1046 20.9867 21.8036C20.9449 21.3956 21.4267 20.9568 22.4322 20.4871ZM40.0066 25.0064L35.909 26.595L34.7025 30.9105C34.749 31.3639 35.5499 31.5795 37.1052 31.5574L39.0511 31.7701L39.4871 32.0002L40.1531 31.7945L42.8418 27.1894L43.1033 25.7195L42.4547 24.7553L40.0066 25.0064ZM34.6293 34.2165C33.6679 34.2235 33.1815 34.617 33.1698 35.397L32.4323 36.9157L32.2021 37.3516L33.2222 37.247L34.7549 38.1206C35.2454 38.4367 36.0033 37.7863 37.0286 36.1694L38.338 34.8668L38.3241 34.7308C37.393 34.1392 36.1614 33.9677 34.6293 34.2165ZM6.99756 36.1576C7.83102 35.7972 10.7255 36.3249 15.681 37.7407L16.8754 39.3361L16.11 40.5829C15.4311 41.1106 14.3442 40.7869 12.8493 39.6117L6.01244 39.2822L4.94879 38.2919L4.88601 37.6798C4.96969 36.7092 5.67354 36.2018 6.99756 36.1576ZM15.2958 46.7136L16.5878 46.581L17.6985 47.3604L17.7683 48.0405C18.0008 48.5206 16.7739 49.2878 14.0875 50.3421C12.2369 51.9522 9.72664 53.6069 6.55669 55.3065C5.8232 55.7482 4.87465 55.4332 3.71103 54.3614C4.02952 53.0002 4.75487 52.0325 5.88707 51.4582C6.23814 52.201 8.12012 51.3437 11.533 48.8862L15.2958 46.7136ZM45.2483 47.9703C47.0338 47.5123 48.3747 47.8558 49.271 49.0008L49.1943 50.9327L46.8648 55.0199L40.3489 63.1786C39.8281 63.4611 39.505 63.8836 39.3794 64.4462L39.4073 64.7182L41.0533 64.6868L50.4045 61.3912L51.1107 60.9064L52.6695 61.365L52.7393 62.045C53.045 62.7925 49.5467 64.6402 42.2443 67.5883C38.2595 69.8295 34.0311 70.813 29.5592 70.5387L28.5305 69.8883L28.2236 69.5762L28.1259 68.6242L28.9943 67.7105L31.4563 67.5954C29.0686 66.6492 26.9937 64.7318 25.2314 61.8432L24.4153 59.2469L24.2479 57.6148L24.2374 56.1728C24.3978 53.2702 25.5741 51.3399 27.7665 50.3821C28.2466 50.1496 28.8731 50.4518 29.6461 51.2887L29.695 51.7647C29.8228 52.1181 29.2277 52.5686 27.9095 53.1161C27.4747 53.344 27.2609 53.9385 27.2679 54.8999C29.9798 54.9882 35.7966 52.7423 44.7183 48.1621L45.2483 47.9703ZM45.1333 50.8683L44.4672 51.074C43.0258 51.3135 41.6199 52.122 40.2494 53.4995L40.1012 59.4245L40.0001 59.7784L40.0559 60.3225C40.4418 60.5119 41.7315 58.5701 43.925 54.4968C44.8073 53.7192 45.435 52.6927 45.8081 51.4175L45.7453 50.8055L45.1333 50.8683ZM36.7499 54.8893L33.0882 56.708C32.9348 56.9986 34.1089 58.619 36.6105 61.5692C37.1359 61.3321 37.4073 59.2885 37.4247 55.4385L37.1579 54.8474L36.7499 54.8893ZM27.8259 57.6601L27.0447 58.0838L27.0866 58.4918C27.0622 61.3805 29.265 63.6513 33.6951 65.3042L35.6393 64.8299L35.5835 64.2859C33.9026 63.0839 32.0014 60.8509 29.8799 57.5868L27.8259 57.6601ZM22.2287 55.3481L22.7117 55.3672C23.6963 57.3736 20.4718 61.6671 13.0381 68.2478L11.6309 68.5983C9.21305 68.2507 8.50918 66.9715 9.51931 64.7605L10.3196 63.8538C11.0636 63.9607 11.5977 64.4786 11.9221 65.4074L12.1941 65.3795C14.6712 64.0717 18.0161 60.7279 22.2287 55.3481Z" fill="#3E3E3E"/>
<path d="M101.324 7.7904L103.338 7.99613L104.532 9.59156C103.588 12.8952 101.383 15.9618 97.9168 18.7912L97.9447 19.0632L99.8872 20.5819L100.128 21.588L99.5245 22.4058L98.7765 22.4825L93.2805 19.8165L92.3528 18.8122L92.3179 18.4722C92.3528 17.9189 92.6556 17.5213 93.2264 17.2795L95.3763 17.4713L96.1801 17.9386C97.6157 15.4091 99.2193 12.954 100.991 10.5733C100.768 10.1839 97.9696 11.0435 92.5969 13.1523C90.5277 14.4182 87.5124 15.3918 83.5508 16.073C81.9199 14.9118 82.3145 14.0696 84.7347 13.5465L85.5507 13.4628C87.6024 12.4735 92.8601 10.5827 101.324 7.7904ZM106.098 20.8381L108.682 20.573C108.926 20.2731 109.451 20.7003 110.257 21.8546L110.326 22.5346C108.894 26.4381 106.149 29.3768 102.091 31.3507L103.582 34.4962L103.743 36.0603C103.284 39.1768 101.079 41.579 97.1291 43.2669L95.919 43.5285C95.0483 43.5262 94.3985 42.9973 93.9695 41.9418L93.83 40.5817L94.7873 39.8651L96.8779 40.8188C98.4495 40.0621 99.7945 38.4352 100.913 35.9383L100.864 35.4623C101.415 34.5811 99.9013 33.2246 96.3233 31.3926L96.1873 31.4066C95.7154 33.0584 93.4481 36.6353 89.3855 42.1371C89.153 43.4437 88.8281 44.0726 88.4108 44.0238L86.6619 43.7222L86.2573 42.458L93.3452 31.8356L95.3817 27.5723C93.0685 29.1381 90.1531 30.1931 86.6355 30.7371C84.8733 31.4219 82.3119 31.6846 78.9513 31.5254L77.8336 30.678L77.701 29.3859L78.2642 28.8471C80.0021 29.2644 81.9311 29.0895 84.0514 28.3222C87.6061 28.1408 93.1405 26.2675 100.654 22.7022L103.026 21.703L106.098 20.8381ZM106.328 23.0822L99.9535 25.2479C98.2866 25.9687 97.6891 26.3964 98.1611 26.5313C98.5214 27.3647 98.3738 28.1587 97.7182 28.9131C98.2367 29.5013 99.1469 29.889 100.449 30.0761C102.355 29.0101 104.644 26.7596 107.315 23.3246L107.28 22.9845L106.328 23.0822ZM97.1186 44.5049L97.8666 44.4282C98.728 44.3398 99.0128 45.7766 98.7211 48.7385C101.407 47.6841 104.009 46.2491 106.526 44.4333C107.778 44.5797 108.375 44.8163 108.316 45.1429L108.564 46.217C107.146 46.6832 104.037 48.3077 99.2373 51.0907L99.7116 58.3949L100.266 59.7811L100.985 66.7853C100.992 67.7466 100.564 68.2715 99.7031 68.3599L98.3744 67.4654C98.5952 65.1521 97.975 60.2222 96.5137 52.6757C96.2161 53.3476 93.4274 54.2979 88.1477 55.5267L87.3037 55.3384L86.9097 55.5163L84.887 54.5555L84.6394 53.4814L85.2967 52.5207L89.1677 52.7421C90.4463 52.7025 92.9514 51.6668 96.6828 49.6348L96.6234 45.0367L97.1186 44.5049ZM108.962 55.4532C111.879 56.2075 114.43 57.8471 116.613 60.3719L117.024 61.7041L116.428 62.5898L115.136 62.7224C114.883 62.9316 114.042 62.1017 112.613 60.2325C112.04 59.5583 110.732 58.6388 108.688 57.4741L108.392 55.924L108.962 55.4532ZM85.0928 60.5816L88.5244 61.8788C90.0379 63.2354 92.6214 63.6346 96.275 63.0766L96.4877 63.8107C96.7167 64.7034 95.1038 65.2812 91.6491 65.544L90.8871 65.4847C89.9176 65.859 87.7066 64.8489 84.2542 62.4543L84.0135 61.4482C84.153 61.0216 84.5128 60.7327 85.0928 60.5816Z" fill="#3E3E3E"/>
<path d="M154.254 3.94138L155.696 3.9309C156.495 4.12385 157.11 4.54174 157.543 5.18456C156.952 6.57368 157.043 9.24438 157.815 13.1967C157.894 13.9674 158.35 14.8369 159.182 15.8052L159.259 16.5532C159.351 17.0019 159.156 17.3425 158.676 17.575L157.384 17.7075C154.655 16.1092 153.611 11.5205 154.254 3.94138ZM168.378 4.96644L169.738 4.82693L170.706 5.55228L170.824 6.70832C168.855 8.05562 165.928 12.3416 162.042 19.5662L162.491 19.9323C162.66 20.2357 164.098 19.5156 166.805 17.7719L170.889 16.0473L171.909 15.9427C172.608 16.0543 173.123 16.3908 173.456 16.9523L173.696 17.9584C174.546 18.65 171.134 23.3521 163.461 32.0647L156.178 40.7831L156.492 41.1632C158.256 41.3945 162.729 39.2178 169.909 34.633L173.189 32.4412L173.642 31.5013L172.012 29.6758L171.907 28.6557L172.565 27.695L173.993 27.5485C175.994 28.3052 177.729 30.2575 179.198 33.4053L179.536 35.3635C179.434 37.9394 176.834 39.1682 171.737 39.0497C171.765 39.3217 170.867 39.5054 169.044 39.6007C168.074 39.517 167.594 39.7495 167.604 40.2982C167.525 41.3142 167.865 43.0659 168.624 45.5536L168.774 45.6756C171.079 44.4771 173.447 43.6616 175.876 43.2292L177.712 43.0408C179.985 43.3116 181.405 44.4258 181.972 46.3833C182.732 49.3289 180.838 53.4173 176.29 58.6483L175.147 58.9029C174.643 58.4507 175.63 56.2421 178.11 52.277L179.548 48.2125L179.594 47.3145C179.819 46.8332 179.14 46.2387 177.555 45.5308C174.757 45.4971 171.937 46.5881 169.095 48.8037L170.97 55.6894L171.046 56.4374C171.03 57.1721 170.596 57.6289 169.744 57.808L168.996 57.8847C166.92 58.1893 164.394 56.341 161.418 52.34C161.15 50.6265 162.64 48.8474 165.887 47.0026L164.375 40.973L164.225 40.851L158.457 43.5729L156.227 43.9391C155.266 43.9461 154.251 43.4317 153.182 42.396L152.956 41.5259C152.592 41.1051 154.931 38.231 159.974 32.9034C160.865 32.2164 163.866 28.1978 168.976 20.8477L169.273 19.7178L162.866 22.9175L161.302 23.0779C161.008 23.3371 160.261 22.7495 159.06 21.3151L158.941 20.1591C159.47 17.7226 162.34 12.8699 167.55 5.60115L168.378 4.96644ZM175.573 33.571L170.249 37.2781C170.482 37.7582 171.767 37.7867 174.106 37.3635C174.777 37.2031 175.535 36.5527 176.38 35.4123L176.411 34.3783L175.573 33.571ZM166.358 50.2527L164.954 51.9772C165.014 52.5666 165.823 53.3082 167.381 54.2021L167.625 53.9022L166.616 50.0888L166.358 50.2527Z" fill="#3E3E3E"/>
<path d="M35.9815 97.642C37.0056 97.3537 37.9245 97.6031 38.7383 98.39L38.7208 99.56L36.3408 99.8042C32.3373 101.864 29.5633 106.753 28.0185 114.47L28.7404 117.488L29.1223 117.862L29.5303 117.82L37.7115 114.507C38.3101 114.537 38.3996 113.176 37.9799 110.425C37.8335 109.89 38.0933 109.52 38.7593 109.314L39.5754 109.23C40.4879 109.641 40.8698 110.014 40.721 110.35L40.8152 112.608L41.1151 112.852C42.8913 112.303 45.0761 111.942 47.6695 111.767C48.2949 111.611 48.8104 111.948 49.2161 112.777L49.4358 113.579C49.5149 114.35 47.9648 114.646 44.7855 114.468C43.4394 114.744 42.1415 115.266 40.8919 116.036L39.5721 123.936L38.8311 126.761C40.0854 127.824 41.4925 128.366 43.0525 128.39L43.8685 128.306C44.5672 128.417 45.142 128.885 45.593 129.709L45.6698 130.458C45.3722 131.129 45.0601 131.436 44.7334 131.378C43.0014 131.464 40.8323 130.862 38.2261 129.572L36.0152 132.135C35.5176 132.644 34.7836 132.857 33.8129 132.773L32.7092 132.062L32.6604 131.586C34.2227 130.738 35.1944 129.493 35.5757 127.851C33.1415 126.451 30.6992 124.526 28.2488 122.074L27.417 121.335L21.1887 122.249C19.7182 121.758 19.148 121.336 19.4782 120.981L19.2863 120.451C18.926 119.618 20.2738 119.136 23.3299 119.005L25.8599 118.883L26.1581 118.441L25.5948 116.299L25.4204 114.599C25.5471 109.135 28.4717 103.704 34.1943 98.3064L35.9815 97.642ZM37.5005 117.14L30.9654 120.421L30.7213 120.721C31.2583 121.491 32.6079 122.589 34.7701 124.017L36.3167 125.026L36.4527 125.012L37.7377 119.452L37.8824 117.513L37.5005 117.14Z" fill="#3E3E3E"/>
<path d="M100.467 87.8661L101.405 87.6325C102.104 87.7441 102.524 88.0445 102.666 88.5339C102.836 89.2953 102.715 90.1323 102.305 91.0448L104.69 90.1817C105.496 89.5493 106.067 89.3075 106.403 89.4563C106.947 89.4005 107.525 89.6847 108.139 90.3089L108.373 91.247C108.697 92.1758 107.214 92.9006 103.923 93.4214C101.973 93.1633 100.476 95.1035 99.435 99.2418C97.7565 104.316 94.3913 111.258 89.3395 120.068L88.3334 120.309C87.9708 120.346 87.6412 120.036 87.3448 119.379C86.9588 119.19 87.7737 117.755 89.7893 115.074C91.3981 112.894 93.824 107.514 97.0671 98.9349L97.9302 95.9602L97.6303 95.7161C95.1485 96.9786 92.2191 97.8975 88.8423 98.473C87.4857 98.1998 86.8295 97.8319 86.8737 97.3693L86.7969 96.6212C86.669 96.2679 87.6792 95.8436 89.8274 95.3483C92.3522 94.9519 95.3652 93.9556 98.8665 92.3596C99.5627 91.5551 100.096 90.0573 100.467 87.8661ZM111.285 102.218C112.146 102.13 112.889 102.443 113.512 103.158C114.819 103.848 112.671 108.581 107.065 117.357L105.168 120.3C109.912 124.12 115.686 125.474 122.49 124.364L123.261 125.178L123.351 126.062C123.398 126.516 122.909 126.887 121.885 127.175C115.149 128.049 109.005 126.664 103.454 123.018L99.3099 127.498L97.3326 128.319C96.0574 127.946 95.4302 127.415 95.4511 126.725C95.2861 126.009 95.368 125.245 95.697 124.432L96.241 124.377C96.3107 125.057 96.7182 125.679 97.4633 126.244C97.926 126.288 99.2982 124.704 101.58 121.493L96.3647 116.874L94.8773 115.102C94.8308 114.649 95.1516 114.204 95.8398 113.766L96.3158 113.718C96.5553 113.372 98.0635 114.455 100.841 116.964L103.05 119.074C105.012 116.765 107.17 113.017 109.524 107.827L109.914 106.276C106.677 108.211 103.085 109.587 99.137 110.405C98.4663 110.565 97.7833 110.383 97.0882 109.859L96.8336 108.717C96.6871 108.182 97.8786 107.739 100.408 107.388C101.569 107.544 105.195 105.821 111.285 102.218Z" fill="#3E3E3E"/>
</svg>
