<svg width="193" height="152" viewBox="0 0 193 152" fill="none" xmlns="http://www.w3.org/2000/svg">
<g clip-path="url(#clip0)">
<path d="M8.29944 18.0314C8.64351 17.8129 10.4302 17.8129 13.6594 18.0314C14.7742 17.7338 15.9878 17.9529 17.3002 18.6887L17.914 19.3129L18.0047 20.1969C17.3863 21.314 16.8545 21.7122 16.4092 21.3913C15.4688 20.709 13.8292 20.5794 11.4904 21.0026C10.2396 21.3141 8.93359 21.3107 7.57237 20.9922C6.81329 20.2912 6.4198 19.8048 6.3919 19.5327C6.43954 18.6574 7.07539 18.157 8.29944 18.0314ZM16.2314 23.6773L16.9114 23.6075L17.8862 24.4009L17.9838 25.3529C18.307 25.8237 17.3747 26.5607 15.187 27.5639L11.6073 29.5116C15.7165 29.8231 18.1652 31.5876 18.9534 34.8053C19.6044 35.7922 19.4004 37.5998 18.3415 40.228L19.4871 41.3475L18.8855 42.8522L21.3406 45.3491L21.787 47.0213C20.949 49.123 19.303 50.9411 16.8491 52.4755C16.3051 52.5313 16.3144 54.4087 16.8771 58.1075L17.2188 58.7596C18.2615 58.6527 20.6521 57.1705 24.3904 54.3132L25.679 52.8067L26.5491 52.58C27.5918 52.473 28.3596 53.0356 28.8525 54.2678L28.6362 54.8397C29.2326 55.7406 27.9743 56.6485 24.8613 57.5634C22.4295 58.8665 20.2069 60.4231 18.1936 62.233L17.9164 62.8799L19.6758 67.3035L21.2782 68.8571L21.3968 70.0132C21.634 70.5386 21.3428 71.0495 20.5233 71.5458L20.1152 71.5877C19.8711 71.8876 18.2338 70.8874 15.2033 68.5869C13.9351 67.3885 11.584 66.576 8.15018 66.1494C7.03307 65.531 7.23474 64.5941 8.75519 63.3386C9.84905 63.7303 11.8577 62.7684 14.7812 60.4528L13.9198 56.0745L13.5641 55.2863C12.7144 56.3814 10.8963 57.4154 8.10997 58.3884L7.08993 58.493C5.67524 58.5465 4.77841 58.0659 4.39944 57.0511C4.48313 56.0804 4.99633 55.5009 5.93907 55.3126C6.44357 55.7648 7.11488 55.8334 7.95299 55.5183C9.14914 55.1208 10.9509 53.9281 13.3583 51.9403L12.5108 47.698L8.95203 49.8497C8.01859 50.1287 7.41238 49.8015 7.13338 48.868C6.25572 47.9044 7.99703 46.1223 12.3573 43.5219C13.5255 42.8523 14.624 41.5027 15.6528 39.4731L15.6179 39.1331C14.6705 39.2761 13.4639 39.125 11.998 38.6798L12.3921 38.5019L6.26139 37.6877C5.47209 37.5854 4.76125 37.1315 4.12887 36.3259C3.85686 36.3538 3.70806 35.7965 3.68247 34.6538C3.82196 34.2272 4.36772 33.965 5.31976 33.8674C5.08147 34.6706 7.93817 35.5 13.8899 36.3554L16.4217 36.9204L16.6658 36.6204L16.589 35.8724C15.4045 33.7033 13.4742 32.527 10.7983 32.3433C10.5995 32.6386 10.27 32.3288 9.80964 31.414L9.82706 30.244L8.01889 30.7043L7.05115 29.979C5.85033 28.5446 7.50679 27.2752 12.0205 26.1708C12.7005 26.101 14.1042 25.2698 16.2314 23.6773ZM16.4567 45.3004C15.7325 45.8328 15.5389 47.2957 15.8761 49.6892L16.2841 49.6473L19.1611 46.8783L19.2273 46.1844L17.8167 45.1609L16.4567 45.3004ZM15.5189 64.294L14.6906 64.9287L15.6305 65.3821L16.0385 65.3402L15.9548 64.5242L15.6549 64.2801L15.5189 64.294ZM37.4134 23.8409L38.4474 23.8722C38.9914 23.8164 39.4116 24.1169 39.708 24.7737L39.7638 25.3177C39.8917 25.6711 39.0373 26.7208 37.2007 28.4668C36.4672 28.9085 34.8712 31.6606 32.4127 36.7231C32.0954 36.7556 31.7914 38.4819 31.5009 41.9018L31.5567 42.4458C32.8365 42.8642 37.778 40.5707 46.3812 35.5651L47.8633 35.2756C49.8348 36.631 49.2571 37.6981 46.1301 38.477L45.206 38.8467L41.7832 40.9844L43.5236 56.6111L43.7364 57.3452L44.2229 58.7383C44.4182 60.6424 44.9983 62.2779 45.9631 63.645C45.9933 64.833 45.5685 65.3805 44.6885 65.2875C42.8181 64.4715 41.0011 57.0302 39.2375 42.9635L38.7946 42.6654C37.5729 43.7069 35.9106 44.473 33.8078 44.9636C33.373 45.1914 32.5901 44.9282 31.4591 44.1737L31.0615 45.6576L30.6623 49.1345C30.6228 49.6425 31.2976 51.085 32.6867 53.4622C33.0053 53.8876 33.9527 54.638 35.5289 55.7132L35.7975 56.9913L35.2953 57.4551L34.0713 57.5807C30.1131 56.0626 28.1765 52.3672 28.2612 46.4946L29.7135 34.5261C31.4432 33.5241 33.2281 31.0504 35.0682 27.105L37.4134 23.8409Z" fill="#3E3E3E"/>
<path d="M91.05 22.1871C91.2755 21.7058 93.6835 22.627 98.274 24.9507C98.3019 25.2227 99.2632 25.2157 101.158 24.9297C101.182 25.6144 102.42 25.6248 104.872 24.9611L109.55 24.3437C110.589 24.6494 111.128 24.9836 111.165 25.3463L111.406 26.3524C111.875 27.3579 110.478 28.0281 107.214 28.3629L103.245 29.8695C102.973 29.8974 102.822 30.875 102.79 32.8023L101.76 42.185C101.797 42.5476 101.315 42.9865 100.314 43.5014L99.0223 43.634C97.0369 43.9293 94.5376 41.0017 91.5244 34.8513C89.4821 35.9312 87.2461 36.6874 84.8166 37.1199L85.0259 39.1599C86.214 44.4897 89.0696 47.5411 93.5926 48.314C98.5109 49.3671 105.254 47.6675 113.822 43.2153L114.694 43.6756L114.757 44.2876C115.072 45.1257 112.208 46.6794 106.164 48.9485C103.628 50.125 100.537 50.8085 96.8917 50.9992C89.7252 52.1466 84.8063 48.1845 82.1349 39.1129C82.3348 37.489 81.3421 36.7433 79.1567 36.8758L78.0041 35.6884L77.9135 34.8044C77.7856 34.451 79.0532 33.6338 81.7163 32.3528C81.5141 31.274 81.9285 30.1778 82.9595 29.0642C83.8837 28.6945 85.228 28.6254 86.9926 28.8566L87.5122 29.9028C87.2472 30.8921 86.3847 31.4158 84.9247 31.4739C84.4992 31.7924 84.3609 32.677 84.5097 34.1278C85.5803 34.2928 87.5855 33.7435 90.5253 32.4799L90.8915 32.03C90.6194 32.058 90.3428 30.2539 90.0614 26.6177L90.0927 22.9038L91.05 22.1871ZM93.329 24.9769C92.5722 25.192 92.7315 27.1914 93.8068 30.9751L99.6149 27.9742C99.9171 27.3476 98.9023 26.8333 96.5705 26.4311L93.329 24.9769ZM99.4737 31.2871L94.6839 33.4964C95.0513 35.2912 96.0156 37.3226 97.5768 39.5904L98.2585 40.2077L98.3945 40.1937C99.6232 38.3268 100.083 35.4393 99.7736 31.5312L99.4737 31.2871Z" fill="#3E3E3E"/>
<path d="M175.884 8.46851L176.904 8.36388C179.64 9.13686 181.779 11.231 183.321 14.6462L183.363 15.0542L182.698 15.947L182.358 15.9818C182.01 16.155 180.969 15.1623 179.235 13.0037C179.298 12.7224 177.908 11.9029 175.066 10.5452L174.874 10.0151C174.642 9.53506 174.978 9.01952 175.884 8.46851ZM158.261 14.1932L159.949 14.5698L160.325 15.5619C158.277 16.1385 156.393 17.8665 154.673 20.7459L150.812 27.3265C151.402 27.2661 151.778 29.8159 151.94 34.9759C152.114 38.898 153.489 42.0325 156.066 44.3794C156.519 44.3329 156.826 44.645 156.987 45.3158C156.984 46.1864 156.757 46.645 156.303 46.6915L155.691 46.7543C152.261 45.9151 149.99 41.8646 148.879 34.6028C147.917 34.6098 147.238 34.2443 146.842 33.5061L146.654 31.67C147.136 26.9935 150.24 21.5213 155.965 15.2534L158.261 14.1932ZM165.155 21.1137C165.259 20.7824 167.162 21.0224 170.864 21.8337C172.761 22.4637 175.328 22.4753 178.564 21.8685L180.128 21.708L181.539 22.7315L181.602 23.3436C181.957 24.1317 180.524 24.8972 177.302 25.64L170.4 29.3716L170.442 29.7796C171.2 31.8092 175.145 36.1003 182.277 42.6528L182.413 42.6389L183.98 38.4924L184.986 38.2518L185.6 38.876C186.017 38.9248 185.912 41.2491 185.285 45.8489L184.437 46.9666L183.417 47.0712C182.423 46.7609 181.587 45.9762 180.908 44.7173C176.183 41.079 171.772 36.492 167.677 30.9566L159.96 34.7718L158.001 35.1101L157.041 34.4528L156.936 33.4327C156.79 32.898 158.116 32.2122 160.917 31.3752L165.998 28.655L166.242 28.3551C165.897 28.1156 165.343 26.0651 164.58 22.2035C164.538 21.7954 164.73 21.4322 165.155 21.1137ZM168.012 23.5007L167.638 23.8826L168.625 26.8049L168.857 27.056L173.755 24.5608C173.727 24.2887 172.954 24.1161 171.434 24.0429L168.012 23.5007Z" fill="#3E3E3E"/>
<path d="M29.8694 82.2692L30.4134 82.2134L31.1301 83.1706C30.0944 84.2389 28.9395 85.7089 27.6655 87.5804C27.1145 88.4615 26.8048 89.6844 26.7362 91.2491L26.8548 92.4051C27.6464 95.2101 29.2791 97.0583 31.7528 97.9499L34.2009 97.6988L35.8137 95.3343C34.1968 96.0958 32.1567 96.305 29.6935 95.9621L28.7258 95.2368L28.6072 94.0808L29.4215 93.31C32.7774 93.4239 35.6591 92.4869 38.0665 90.4991L38.1327 89.8052C38.4431 88.8113 36.3902 88.4492 31.9741 88.719L30.8494 87.8036L30.6576 87.2735L31.301 86.1767L37.4631 85.9569C38.8964 86.0848 40.0088 86.6578 40.8005 87.6761C41.3643 88.2597 41.6043 89.0367 41.5206 90.0074L40.9714 93.3622C40.1705 94.0399 39.1738 95.2645 37.9811 97.0361L38.363 97.4092L39.3551 97.0326L40.077 97.3709L40.1816 98.3909C39.5737 100.057 37.4651 100.937 33.8557 101.033C29.593 101.012 26.4486 98.494 24.4224 93.4792L24.2306 92.9492L24.0283 90.9771C23.6365 88.4976 24.9018 85.8711 27.8241 83.0975L29.8694 82.2692ZM44.4013 102.012L45.4214 101.908L46.961 102.849L47.0657 103.869C47.4074 104.521 45.6324 105.528 41.7406 106.889L34.6771 111.05L33.1096 112.516C33.4816 112.57 33.5188 114.719 33.2213 118.964C32.9714 120.548 33.1533 124.331 33.7672 130.316L34.1351 130.553L49.861 119.731L52.5392 119.044C53.3192 119.056 53.9801 119.469 54.5218 120.284C55.5296 120.73 54.1231 123.99 50.3023 130.063L49.5909 131.166C50.2547 131.831 51.6688 132.442 53.8332 132.999C54.4737 133.437 54.7493 133.89 54.6598 134.357L54.0565 135.175C53.967 135.642 52.1408 135.257 48.5779 134.019L47.8159 133.96C46.6151 136.099 44.9035 137.946 42.6809 139.503L41.6888 139.879C41.0262 139.673 40.7286 139.451 40.796 139.215L40.7542 138.807C42.3571 137.91 43.9328 136.076 45.4811 133.306L45.4672 133.17L38.1351 130.692L34.3339 133.831C34.4351 136.157 35.54 139.113 37.6488 142.699L36.8903 144.014L35.8022 144.125C34.4887 144.718 33.4564 142.694 32.7054 138.052L31.5685 135.008L27.4448 137.011C25.9313 137.441 24.5951 137.143 23.4361 136.117L23.2094 135.247C23.1629 134.793 23.5018 134.301 24.2259 133.768L24.906 133.698L26.0376 134.682L27.1518 134.155C23.0112 132.198 20.9722 129.292 21.0349 125.437C20.7327 122.49 22.5756 118.797 26.5639 114.356C24.3146 116.099 21.1708 117.383 17.1325 118.21C16.7617 118.614 15.5935 118.39 13.6278 117.538L13.504 117.001C13.4435 116.412 14.0945 115.612 15.4568 114.602L16.3408 114.511L17.2476 115.312C17.7532 116.222 23.2178 113.668 33.6413 107.652L44.4013 102.012ZM30.2919 114.523L25.9973 118.881L24.9075 120.985L28.8569 119.962L30.5639 119.855C30.8546 120.009 30.8964 119.524 30.6895 118.4L30.7417 114.89L30.2919 114.523ZM28.782 122.581C27.6672 122.878 26.6187 123.375 25.6364 124.072C25.7341 125.024 25.0302 125.531 23.5249 125.594L23.8981 127.892L24.198 128.136C25.615 127.212 27.7893 126.302 30.721 125.406L31.2092 124.806C30.3385 124.803 29.7788 124.036 29.53 122.504L28.782 122.581ZM50.8462 121.967C49.4327 122.478 46.2162 124.618 41.1969 128.385C41.384 128.87 42.6982 129.399 45.1393 129.974L47.0521 130.533C48.5609 128.271 49.8989 125.683 51.0659 122.769L51.1461 122.211L50.8462 121.967ZM30.388 128.188L26.1352 130.274L26.1631 130.546C27.0361 131.464 28.3456 131.948 30.0916 131.998L31.4813 130.138L31.2859 128.234L30.388 128.188Z" fill="#3E3E3E"/>
<path d="M99.6818 72.8402C100.972 72.0207 103.741 73.111 107.989 76.1112L107.727 77.5811C108.657 77.7148 109.198 78.965 109.349 81.3317C108.441 86.3267 103.781 91.363 95.3684 96.4407C95.5195 97.0207 95.9955 96.9719 96.7964 96.2942L97.4485 95.9524L105.884 93.7815L112.17 91.4187L112.944 90.927C113.284 90.6631 113.854 91.0856 114.655 92.1946L114.725 92.8746C114.284 94.3858 110.502 97.7058 103.377 102.835L101.002 105.14L100.608 105.318C100.564 105.78 101.309 106.116 102.842 106.325C103.392 106.773 104.744 107.23 106.899 107.696L107.265 107.246C107.363 106.411 107.162 105.791 106.662 105.384L107.494 103.443L108.732 103.453L111.246 105.188C112.196 105.961 112.596 106.516 112.448 106.852L112.489 107.26C112.579 108.579 111.394 109.754 108.934 110.786C109.023 111.647 109.267 112.24 109.667 112.566C110.889 111.982 112.154 111.578 113.459 111.352L114.19 112.445C113.865 113.303 113.182 113.786 112.139 113.893L109.597 114.566L108.781 114.65L101.078 123.961C101.319 124.532 103.15 124.069 106.57 122.573L109.044 121.907L111.22 121.683L113.046 122.733L113.405 124.895L110.776 128.738L109.107 130.559C109.172 131.193 110.577 131.713 113.322 132.119L113.848 133.233C113.632 133.805 113.066 134.092 112.15 134.095L106.739 132.932C104.958 135.222 102.252 137.424 98.6209 139.537L96.5686 140.297C96.0932 140.575 95.5823 140.284 95.036 139.424L94.9802 138.88L95.3184 138.158L97.0743 138.527C98.99 137.552 101.325 135.526 104.078 132.449L104.065 132.313L99.0933 130.074C98.1041 129.809 96.9312 128.647 95.5746 126.587L95.442 125.295L95.9372 124.763L97.1142 124.848L99.9005 121.195C100.236 121.344 100.7 120.724 101.29 119.335L101.954 118.442L103.072 116.609L99.2378 117.415C97.643 117.945 95.7552 117.406 93.5744 115.797C92.8665 115.595 92.5956 114.294 92.7618 111.895L89.6058 114.624L89.4507 115.121L90.8264 115.804L91.1211 116.667L90.1708 117.452L89.0287 117.706C87.9581 117.541 87.1247 117.008 86.5283 116.108L86.3086 115.305C87.9941 112.979 92.0004 109.384 98.3275 104.521L102.228 100.341C103.331 100.824 104.51 100.038 105.766 97.9854C106.301 97.8389 106.981 97.1049 107.808 95.7831L103.457 96.9166C103.339 96.6539 99.1882 97.9501 91.0058 100.805C90.5152 100.489 89.6173 100.444 88.3118 100.669C87.9131 100.802 87.2296 100.391 86.2613 99.4364L85.9265 98.8523C85.88 98.399 86.2165 97.8834 86.9361 97.3057C91.251 96.4965 95.2608 94.2756 98.9654 90.643L98.9515 90.507C97.2776 90.2664 94.4889 89.43 90.5854 87.998C89.6055 87.8236 88.7807 87.1523 88.1111 85.9841C87.9507 85.3134 88.1622 84.6961 88.7458 84.1323L90.9881 83.2151L92.8521 83.2988L93.6803 82.6641C94.7323 82.6478 97.6628 81.2935 102.472 78.6012C102.934 78.6454 103.362 78.1205 103.753 77.0267C103.076 76.2258 101.685 75.8416 99.5807 75.8742C98.9949 75.522 98.5991 75.0128 98.3933 74.3468C98.8989 73.4703 99.3285 72.9681 99.6818 72.8402ZM105.14 79.1522L104.433 79.6369C104.124 79.3022 101.941 80.1217 97.8825 82.0956L97.9104 82.3676L102.583 85.0493L103.685 85.0737C105.08 84.3808 105.894 83.3811 106.127 82.0745L106.479 81.4887C106.609 80.9714 106.163 80.1925 105.14 79.1522ZM95.2322 83.0546C94.6068 83.2104 93.5385 83.9614 92.0274 85.3075L92.0553 85.5795C93.9942 86.6175 96.6899 87.4405 100.142 88.0484L101.339 87.6508L101.325 87.5148L97.2653 85.4574L95.2322 83.0546ZM98.3066 106.997L94.8594 110.237L95.5865 109.956L97.4854 110.379L97.5272 110.787C97.4528 111.849 96.7722 112.583 95.4854 112.99L95.3163 113.351C95.5965 114.742 97.16 115.246 100.007 114.862L104.357 113.729L105.572 112.848L104.908 111.061L105.45 110.318L105.429 110.114L101.107 108.84C100.208 108.565 99.4789 107.93 98.9186 106.934L98.3066 106.997ZM110.009 123.938L102.2 126.869L101.161 127.457L101.175 127.593C102.353 128.801 104.105 129.583 106.432 129.94C107.677 129.125 109.036 127.405 110.507 124.78L110.458 124.304L110.009 123.938ZM116.23 120.276L116.978 120.199C118.474 120.046 120.286 120.96 122.413 122.94L122.831 124.341C122.959 124.694 122.57 124.917 121.663 125.01C120.73 123.502 118.509 123.066 115.001 123.701C114.419 123.394 114.166 122.71 114.24 121.648C114.452 121.031 115.115 120.574 116.23 120.276Z" fill="#3E3E3E"/>
</g>
<defs>
<clipPath id="clip0">
<rect width="192" height="151" fill="white" transform="translate(0.472168 0.162109)"/>
</clipPath>
</defs>
</svg>
