<svg width="50" height="63" viewBox="0 0 50 63" fill="none" xmlns="http://www.w3.org/2000/svg">
<g clip-path="url(#clip0)">
<path d="M30.1389 1.22725C25.8671 1.19346 22.3708 4.72436 22.3361 9.10719C22.3014 13.49 25.7414 17.0758 30.0132 17.1096C34.285 17.1434 37.7813 13.6125 37.816 9.22967C37.8506 4.84683 34.3895 1.26088 30.1389 1.22725ZM30.0295 15.0484C26.8786 15.0234 24.3405 12.3778 24.3661 9.14495C24.3916 5.91207 26.9713 3.30695 30.1222 3.33188C33.2732 3.35681 35.8324 6.00259 35.8068 9.23547C35.7812 12.4684 33.1805 15.0733 30.0295 15.0484Z" fill="#309AB0"/>
<path d="M30.1103 4.87131C29.5605 4.86696 29.0916 5.31892 29.087 5.90475C29.0825 6.46888 29.5228 6.94973 30.0938 6.95425C31.2781 6.96361 32.2429 7.96938 32.2333 9.18443C32.2289 9.74855 32.6692 10.2294 33.2402 10.2339C33.79 10.2383 34.2588 9.78631 34.2635 9.20049C34.261 6.83533 32.4154 4.88955 30.1103 4.87131Z" fill="#309AB0"/>
<path d="M4.86881 8.96852C4.83413 13.3514 8.27415 16.9371 12.5459 16.9709C16.8177 17.0047 20.314 13.4738 20.3487 9.091C20.3834 4.70816 16.9433 1.12238 12.6716 1.08858C8.39981 1.05478 4.90349 4.58569 4.86881 8.96852ZM18.3397 9.0751C18.3141 12.308 15.7345 14.9131 12.5835 14.8882C9.43259 14.8632 6.89453 12.2176 6.92011 8.98475C6.94568 5.75187 9.52529 3.14675 12.6762 3.17168C15.8061 3.19644 18.3653 5.84222 18.3397 9.0751Z" fill="#309AB0"/>
<path d="M10.4516 9.01261C10.4561 8.44848 10.0157 7.96763 9.44476 7.96311C8.89493 7.95876 8.42608 8.41072 8.42145 8.99654C8.40274 11.3615 10.2696 13.3075 12.5746 13.3257C13.1245 13.3301 13.5933 12.8781 13.598 12.2923C13.6024 11.7282 13.1621 11.2473 12.5911 11.2428C11.4069 11.2334 10.442 10.2276 10.4516 9.01261Z" fill="#309AB0"/>
<path d="M26.7715 23.2675L9.28265 23.1291C8.73282 23.1248 8.26397 23.5767 8.25934 24.1626C8.25487 24.7267 8.69519 25.2075 9.26617 25.2121L26.755 25.3504C27.3049 25.3548 27.7737 24.9028 27.7784 24.317C27.783 23.7312 27.3425 23.272 26.7715 23.2675Z" fill="#309AB0"/>
<path d="M12.7204 32.2917L9.2099 32.2639C8.66007 32.2595 8.19122 32.7115 8.18658 33.2973C8.18212 33.8615 8.62244 34.3423 9.19342 34.3468L12.7039 34.3746C13.2537 34.3789 13.7226 33.927 13.7272 33.3412C13.7317 32.777 13.2702 32.296 12.7204 32.2917Z" fill="#309AB0"/>
<path d="M16.267 27.7638L9.24603 27.7082C8.6962 27.7039 8.22735 28.1558 8.22272 28.7417C8.21825 29.3058 8.65857 29.7866 9.22955 29.7912L16.2505 29.8467C16.8003 29.8511 17.2692 29.3991 17.2738 28.8133C17.2784 28.2274 16.8168 27.7681 16.267 27.7638Z" fill="#309AB0"/>
<path d="M47.7656 21.3728C47.45 21.175 47.0693 21.172 46.7506 21.3647L41.1416 24.6185L41.181 19.6282C41.1855 19.064 40.7452 18.5832 40.1742 18.5787L2.36273 18.2795C1.8129 18.2752 1.34405 18.7271 1.33942 19.313L1.18784 38.4716C1.18337 39.0357 1.62369 39.5166 2.19467 39.5211L16.2788 39.6325L6.08707 60.7731C5.82919 61.2918 6.03585 61.901 6.54133 62.1654C6.68885 62.2316 6.83653 62.2762 6.98457 62.2774C7.36522 62.2804 7.72644 62.0662 7.89854 61.6987L18.5416 39.6504L19.5778 39.6586L19.4063 61.3341C19.4018 61.8982 19.8422 62.3791 20.4131 62.3836C20.963 62.388 21.4318 61.936 21.4365 61.3502L21.6079 39.6747L22.6442 39.6829L32.937 61.8968C33.1033 62.267 33.4611 62.4868 33.8417 62.4899C33.9897 62.491 34.1381 62.4488 34.2867 62.3849C34.7963 62.1285 35.0125 61.5227 34.7629 60.9999L24.886 39.6789L40.0063 39.7985C40.5562 39.8029 41.025 39.3509 41.0296 38.7651L41.0725 33.3408L46.6294 36.6829C46.945 36.8807 47.3257 36.8837 47.6444 36.691C47.9632 36.4982 48.1561 36.1743 48.159 35.8054L48.266 22.2881C48.2477 21.919 48.0601 21.5704 47.7656 21.3728ZM46.1431 33.9885L40.5863 30.6463C40.2706 30.4485 39.89 30.4455 39.5712 30.6383C39.2525 30.8311 39.0596 31.155 39.0566 31.5239L39.0077 37.7076L3.22639 37.4245L3.36149 20.3488L39.164 20.632L39.1183 26.4035C39.1154 26.7724 39.303 27.121 39.6188 27.2971C39.9345 27.4949 40.3151 27.4979 40.6339 27.3051L46.2429 24.0513L46.1643 33.9886L46.1431 33.9885Z" fill="#309AB0"/>
<path d="M33.6232 23.3223L32.164 23.3108C31.6142 23.3064 31.1453 23.7584 31.1407 24.3442C31.1362 24.9083 31.5765 25.3892 32.1475 25.3937L33.6067 25.4052C34.1565 25.4096 34.6254 24.9576 34.63 24.3718C34.6346 23.786 34.1941 23.3268 33.6232 23.3223Z" fill="#309AB0"/>
</g>
<defs>
<clipPath id="clip0">
<rect width="48" height="62" fill="white" transform="translate(1.00293 0.620117) rotate(0.453306)"/>
</clipPath>
</defs>
</svg>
