<svg width="192" height="151" viewBox="0 0 192 151" fill="none" xmlns="http://www.w3.org/2000/svg">
<g clip-path="url(#clip0)">
<path d="M75.2196 13.0616C75.373 12.771 76.3506 12.9227 78.1524 13.5167L79.3921 14.2141L79.4689 14.9622L78.2605 15.9107C79.0743 16.6977 80.1972 16.9261 81.6293 16.5959C82.5325 16.9156 86.1762 15.1446 92.5602 11.2829L93.6709 12.0623L93.7895 13.2183C92.2842 15.0678 88.0198 17.0399 80.9964 19.1347L79.5683 19.2812C77.5317 19.0778 76.0351 18.1089 75.0784 16.3746C74.6506 15.7771 74.4332 14.9977 74.4262 14.0364C74.6471 13.5098 74.9115 13.1849 75.2196 13.0616ZM89.1009 20.4336L90.325 20.3081C90.733 20.2662 91.2259 20.6051 91.8036 21.3246L91.8943 22.2086C92.2314 22.8154 91.2602 23.3961 88.9807 23.9506L79.2773 27.8321C78.2346 27.9391 77.4063 27.6804 76.7925 27.0562L76.7158 26.3082C76.5693 25.7735 77.5795 25.3492 79.7463 25.0353L87.0574 21.9489L89.1009 20.4336ZM97.4688 23.6296L98.8968 23.4831C99.5141 23.6947 99.9936 24.1265 100.335 24.7787C98.9568 33.6702 99.0569 42.6849 100.636 51.8228C101.079 54.8009 102.395 57.1397 104.585 58.8392L105.712 57.7616L106.12 57.7197C107.212 57.6535 108.598 58.8856 110.278 61.4162L110.32 61.8243L109.684 62.989L108.188 63.1425C100.42 61.557 96.8177 53.6804 97.3801 39.5126L97.2788 29.1466L97.1881 28.2625L96.8882 28.0184L81.1658 37.5338L82.1405 38.3271L82.2382 39.2792C82.108 39.7965 81.6035 40.2376 80.7247 40.6026C80.6596 41.7546 81.1589 42.8258 82.2225 43.8162L82.8904 44.2974C83.253 44.2602 83.4588 43.1396 83.5076 40.9356C83.3774 39.6663 83.8342 38.3137 84.878 36.8781C85.3848 36.4596 86.3229 36.226 87.6923 36.1771L92.2868 37.4238L95.34 39.7219L95.6086 41C96.1049 41.8195 92.9687 44.2944 86.1999 48.4246L86.1929 51.0366L86.6707 51.6748C88.6678 50.5995 90.7636 50.0409 92.9583 49.999C93.9104 49.9014 94.8275 50.357 95.7098 51.366C96.6131 53.4723 96.2963 55.5206 94.7596 57.5107L94.1476 57.5735L94.3062 53.0905C93.6192 52.1989 93.149 51.8578 92.8956 52.067C90.7009 52.1089 88.7643 52.8802 87.0857 54.3809L89.4589 59.4288L90.2105 60.726C90.357 61.2608 90.1041 61.699 89.452 62.0408C86.9586 62.2965 83.437 61.2376 78.8871 58.864L78.6186 57.5859C78.5209 56.6339 80.4238 55.0872 84.3273 52.9459L83.8181 50.6617L83.3682 50.2956L79.5514 52.6112L78.2593 52.7438C77.4654 52.5961 77.0428 52.273 76.9917 51.7743L76.9219 51.0943C76.7034 50.7502 77.2782 50.3247 78.6464 49.8179L81.4571 47.7429L82.1354 46.9861C80.1011 45.9121 78.6091 44.0952 77.6594 41.5355L77.4606 40.9375L77.4501 39.4955C76.0052 40.1476 74.2307 40.49 72.1267 40.5226C71.356 40.6016 70.6632 40.1 70.0482 39.0178C70.4772 38.2866 70.909 37.8071 71.3438 37.5793L71.9558 37.5165L72.7195 38.2628C80.1916 36.0761 88.1909 31.6593 96.7173 25.0124L97.4688 23.6296ZM87.2163 38.906C86.3247 39.593 85.7209 41.0751 85.4047 43.3523L85.4187 43.4883L85.6907 43.4604C86.3649 42.8873 87.1297 41.4116 87.9853 39.0332L87.6243 38.8641L87.2163 38.906ZM90.7751 39.4342L88.4003 44.4194L92.4944 41.4569L92.7995 41.082L92.7716 40.81L90.7751 39.4342ZM84.7283 55.5161L82.5366 57.5963L82.5505 57.7323L86.2611 59.0696L84.8504 55.3661L84.7283 55.5161Z" fill="#3E3E3E"/>
<path d="M164.263 1.52256L165.147 1.43188C165.496 1.25867 165.968 1.62251 166.564 2.52339L166.627 3.13541C164.248 5.39523 161.967 8.17174 159.785 11.465L159.667 15.6689L160.423 19.0272C160.575 19.6073 161.253 19.9728 162.46 20.1239L163.081 20.8161C163.409 21.3323 163.031 21.8978 161.949 22.5127L161.065 22.6034C157.895 22.5163 156.407 18.7291 156.601 11.2418C156.041 10.2456 156.769 9.30055 158.784 8.4066C160.365 5.95384 162.191 3.65916 164.263 1.52256ZM146.784 5.3083C147.364 5.15717 147.99 5.2304 148.662 5.52797L149.26 5.32919C150.536 5.70231 151.096 6.03418 150.943 6.32479L151.121 6.71885C150.801 7.62207 149.694 8.21668 147.799 8.50266C146.853 9.10366 145.28 10.9601 143.079 14.072C142.782 14.7439 142.767 15.9365 143.034 17.65L143.606 17.8662C146.646 16.6839 149.817 14.7781 153.121 12.1486L154.49 12.7641L154.601 13.8521C154.643 14.2601 153.802 14.9878 152.077 16.0352L150.973 18.0038C150.717 19.0837 151.807 20.7814 154.244 23.097L154.293 23.573C153.9 24.2089 153.284 24.4553 152.445 24.3123C151.51 24.1333 150.287 22.9302 148.776 20.703L148.037 18.8548L145.149 20.1817L143.979 20.1643L143.735 20.4642L143.777 20.8722C143.856 21.6429 144.706 22.5636 146.328 23.6341C146.826 23.583 147.206 23.9335 147.466 24.6856L147.543 25.4336L146.675 26.3473L146.199 26.3961C142.293 25.8347 140.049 21.5982 139.466 13.6867C139.168 12.1139 140.009 11.1572 141.989 10.8166L146.784 5.3083ZM171.302 6.50409L172.713 7.5276L172.831 8.68364C173.05 9.02772 172.541 9.42354 171.304 9.87109C169.109 9.91297 167.907 12.4872 167.698 17.5938L167.81 18.6818C167.958 20.1326 167.417 21.1044 166.185 21.5973C165.74 21.7344 165.268 21.3706 164.767 20.5058L164.708 18.5877L165.016 14.2268L164.716 13.9827L162.087 15.1458L161.679 15.1876L160.418 14.2862L160.314 13.2662C160.186 12.9128 160.856 12.5233 162.324 12.0979C164.098 10.6332 166.939 8.85286 170.847 6.75693L171.302 6.50409ZM155.311 25.4614L156.467 25.3428L157.306 26.1501C155.762 27.1789 154.763 30.1675 154.309 35.116C153.771 37.4618 154.635 41.1985 156.902 46.3259C157.025 46.634 157.761 47.1083 159.109 47.7487C159.256 48.2835 159.551 48.4822 159.995 48.3451C162.215 47.6592 164.18 46.2666 165.888 44.1672L165.623 41.5831L165.473 41.461L160.68 44.9763L158.246 45.3634L157.278 44.6381L157.052 43.768C157.234 42.4207 158.278 41.8784 160.183 42.1411L164.964 39.1768L165.466 38.713L165.306 37.149L165.006 36.9048C163.427 38.4869 161.268 39.7622 158.527 40.7305L157.022 40.129L156.896 38.9049C156.709 38.4202 157.592 37.8715 159.545 37.2589L165.18 33.2449C165.535 31.7884 165.4 30.4737 164.776 29.3008L157.962 32.5423L157.074 33.939L156.394 34.0088C155.977 33.9599 155.7 33.7135 155.562 33.2695C156.131 30.325 159.587 27.8402 165.93 25.8152C167.005 26.0256 167.656 26.7835 167.881 28.0889L167.981 32.4079C168.768 33.3809 168.717 34.6688 167.827 36.2719L168.888 46.6082C169.225 47.215 168.468 47.4301 166.617 47.2534C166.245 47.2 164.398 48.3973 161.076 50.8454L159.866 51.107C156.132 50.4363 153.608 47.4884 152.293 42.2633L151.355 37.137L152.263 30.5843C152.242 29.4869 153.258 27.7793 155.311 25.4614ZM151.064 53.7279C151.68 53.4814 152.355 54.0307 153.088 55.3756C156.635 57.3482 160.242 57.8945 163.908 57.0145L164.358 57.3806L164.407 57.8566C163.672 59.627 161.105 60.2798 156.705 59.8149C153.988 59.6812 151.704 58.4038 149.852 55.9824L149.796 55.4384C149.831 54.8851 150.254 54.3149 151.064 53.7279ZM171.814 52.3553C172.216 51.8101 174.267 52.6075 177.969 54.7475L178.732 55.4938L178.851 56.6498C178.549 57.2764 178.053 57.5792 177.364 57.5583L171.01 54.568C170.738 54.5959 170.594 54.0839 170.577 53.0319L171.814 52.3553Z" fill="#3E3E3E"/>
<path d="M20.0201 100.636L21.1762 100.517C21.5296 100.389 22.1451 100.807 23.0227 101.771L22.1213 103.032C21.926 104.701 22.6927 108.379 24.4213 114.065L31.5441 111.823L35.0663 111.324C39.1651 111.087 41.8306 112.509 43.0628 115.589C43.8882 119.169 42.5933 123.517 39.1781 128.632L37.9 128.9C37.2641 128.507 37.8378 126.731 39.6209 123.57C40.4648 121.972 40.9542 120.043 41.089 117.784L40.9844 116.764C39.8626 114.314 37.2663 113.343 33.1954 113.853C30.6206 114.208 27.8935 115.313 25.0142 117.166C25.7338 120.161 27.0102 123.672 28.8434 127.699C28.5424 128.784 27.9792 129.322 27.1539 129.315L13.6527 126.99L11.3092 125.581C11.0279 125.518 10.8698 124.87 10.8349 123.637C10.3187 122.178 13.9281 119.402 21.6629 115.31C20.283 111.237 19.6 106.589 19.6139 101.365L20.0201 100.636ZM21.9558 118.167C19.2788 119.312 16.8231 121.052 14.589 123.389L14.1757 124.05C14.0967 125.066 17.5311 125.721 24.479 126.017L24.7231 125.717L22.2139 118.003L21.9558 118.167Z" fill="#3E3E3E"/>
<path d="M101.904 82.2722L102.312 82.2304C103.607 83.2429 104.179 84.5814 104.029 86.246L104.579 88.2512L105.318 87.4195L106.446 87.0289C106.709 86.9103 107.22 87.2015 107.979 87.9024L108.171 88.4325C108.58 88.8486 107.761 89.803 105.716 91.2956C104.55 91.0945 104.198 92.8027 104.661 96.4202L105.424 102.527C105.748 102.997 108.823 101.491 114.65 98.0068L115.56 97.5012C116.916 97.3163 117.776 97.6633 118.141 98.5421C120.068 102.147 118.242 107.786 112.661 115.459C111.93 116.817 110.298 118.107 107.766 119.328L108.408 125.585L109.96 128.655L110.264 130.273C110.333 130.953 110.055 131.371 109.43 131.527L108.138 131.66C106.65 131.446 105.844 128.276 105.719 122.15L105.807 121.66L105.709 120.708C105.711 119.837 105.368 119.391 104.678 119.37C104.062 119.617 103.376 118.954 102.619 117.383L102.291 116.866L102.141 116.744C101.494 118.918 98.8669 122.784 94.2602 128.342C93.8987 128.837 93.3687 129.029 92.67 128.917L92.0842 128.565L91.9865 127.613C96.5955 122.971 99.8944 117.616 101.883 111.548L102.976 108.138L99.9251 109.207L98.7691 109.325C97.2858 109.157 96.2605 108.094 95.6932 106.136C95.4956 105.103 95.6949 102.356 96.2912 97.8972L96.0226 96.6191C95.8715 96.0391 96.53 95.5363 97.9982 95.1109L102.029 91.5363L102.197 90.4884L101.611 84.7761L101.904 82.2722ZM101.78 95.1352L99.2623 97.3863C99.5936 97.4898 99.421 100.05 98.7446 105.067L98.7795 105.407L99.4473 105.888C101.025 105.635 102.363 105.062 103.463 104.171L102.174 94.9574L101.78 95.1352ZM114.772 100.537L107.39 104.936C105.876 105.366 106.054 109.334 107.923 116.838L108.195 116.811C112.115 113.935 114.489 110.278 115.316 105.841C116.309 103.907 116.4 102.111 115.588 100.453L114.772 100.537ZM104.408 112.045L103.069 115.069L102.675 115.247L102.501 116.226L103.031 116.035C103.429 115.902 104.063 116.272 104.931 117.145L105.339 117.103C105.476 115.761 105.166 114.075 104.408 112.045ZM82.7551 95.2314L83.5031 95.1547L85.4857 96.3944L85.4996 96.5304L85.1056 96.7082L85.4194 97.0883C84.8928 96.8675 84.4819 97.551 84.1867 99.1389L83.8362 100.412L84.3471 100.703L84.7342 100.457C87.5136 100.309 89.1579 102.271 89.6671 106.342L90.3611 106.408C91.2166 105.816 91.7444 105.602 91.9443 105.765C93.5194 106.382 92.9871 107.444 90.3472 108.952C89.6753 108.655 89.0145 110.028 88.3647 113.072L87.5539 115.217L91.8242 117.322L93.7335 119.187L93.7893 119.731L92.8739 120.856L91.3099 121.016C90.7658 121.072 90.191 120.604 89.5854 119.613L86.0841 117.636L83.765 120.485C83.5209 120.785 82.945 120.752 82.0371 120.387L81.9952 119.979L83.8382 117.179L83.7964 116.771L80.2672 114.522L75.6727 115.955C74.9113 116.125 74.3667 115.951 74.0389 115.435L73.507 114.94L73.4652 114.532L73.4983 114.185L74.2585 113.557L75.2437 113.113L75.6447 113.003L75.9098 112.907L76.8478 112.673C77.1966 112.5 77.5906 112.322 78.03 112.14C78.6833 112.256 78.8577 111.276 78.5531 109.2L80.9348 101.603L81.1144 100.004C81.026 99.1424 81.2905 97.9242 81.9077 96.3491L82.7551 95.2314ZM83.4387 101.896C82.8273 102.187 82.0927 104.851 81.2348 109.887L81.1477 110.377L81.9916 110.565L86.3193 108.541L87.1877 107.627C87.2492 105.101 86.3698 103.45 84.5494 102.675L83.4387 101.896ZM85.7562 111.759L83.6167 113.01L83.7946 113.404L85.4633 114.263L86.1921 111.99L86.1642 111.718L85.7562 111.759Z" fill="#3E3E3E"/>
<path d="M171.538 75.1292L171.946 75.0874C173.241 76.0998 173.814 77.4384 173.664 79.103L174.213 81.1082L174.953 80.2764L176.081 79.8858C176.343 79.7673 176.854 80.0585 177.613 80.7594L177.805 81.2895C178.214 81.7056 177.396 82.66 175.35 84.1526C174.184 83.9515 173.833 85.6597 174.295 89.2772L175.059 95.3835C175.382 95.8543 178.457 94.3477 184.285 90.8638L185.195 90.3581C186.55 90.1733 187.411 90.5202 187.776 91.399C189.703 95.0037 187.876 100.643 182.295 108.316C181.564 109.674 179.933 110.964 177.401 112.185L178.043 118.442L179.595 121.512L179.898 123.13C179.968 123.81 179.69 124.228 179.065 124.384L177.773 124.516C176.285 124.303 175.479 121.133 175.354 115.007L175.441 114.517L175.344 113.565C175.346 112.694 175.002 112.248 174.313 112.227C173.697 112.474 173.011 111.811 172.254 110.239L171.926 109.723L171.776 109.601C171.129 111.775 168.501 115.641 163.895 121.198C163.533 121.694 163.003 121.886 162.305 121.774L161.719 121.422L161.621 120.47C166.23 115.828 169.529 110.473 171.518 104.405L172.611 100.995L169.56 102.064L168.404 102.182C166.92 102.014 165.895 100.951 165.328 98.993C165.13 97.9596 165.329 95.2133 165.926 90.7542L165.657 89.4761C165.506 88.8961 166.165 88.3933 167.633 87.9678L171.664 84.3933L171.831 83.3453L171.245 77.6331L171.538 75.1292ZM171.415 87.9922L168.897 90.2433C169.228 90.3467 169.056 92.907 168.379 97.9241L168.414 98.2641L169.082 98.7453C170.659 98.4919 171.998 97.9194 173.098 97.0278L171.809 87.8143L171.415 87.9922ZM184.407 93.3938L177.024 97.7932C175.511 98.2233 175.689 102.191 177.558 109.695L177.83 109.667C181.75 106.792 184.123 103.135 184.951 98.698C185.944 96.7637 186.034 94.9677 185.223 93.3101L184.407 93.3938ZM174.043 104.902L172.704 107.926L172.31 108.104L172.135 109.083L172.665 108.892C173.064 108.759 173.697 109.129 174.566 110.002L174.974 109.96C175.111 108.618 174.801 106.932 174.043 104.902ZM152.39 88.0884L153.138 88.0116L155.12 89.2513L155.134 89.3873L154.74 89.5652L155.054 89.9453C154.527 89.7245 154.117 90.408 153.821 91.9959L153.471 93.2687L153.982 93.5599L154.369 93.3141C157.148 93.1664 158.793 95.128 159.302 99.1988L159.996 99.2651C160.851 98.6734 161.379 98.4589 161.579 98.6217C163.154 99.2389 162.622 100.301 159.982 101.809C159.31 101.512 158.649 102.885 157.999 105.929L157.189 108.074L161.459 110.179L163.368 112.044L163.424 112.588L162.509 113.713L160.944 113.873C160.4 113.929 159.826 113.461 159.22 112.47L155.719 110.493L153.4 113.342C153.156 113.642 152.58 113.609 151.672 113.244L151.63 112.836L153.473 110.036L153.431 109.628L149.902 107.378L145.307 108.812C144.546 108.982 144.001 108.808 143.673 108.292L143.142 107.797L143.1 107.389L143.133 107.042L143.893 106.414L144.878 105.97L145.279 105.86L145.544 105.764L146.482 105.53C146.831 105.357 147.225 105.179 147.665 104.997C148.318 105.113 148.492 104.133 148.188 102.057L150.569 94.4597L150.749 92.8608C150.661 91.9994 150.925 90.7812 151.542 89.206L152.39 88.0884ZM153.073 94.7526C152.462 95.0444 151.727 97.7081 150.869 102.744L150.782 103.234L151.626 103.422L155.954 101.398L156.822 100.484C156.884 97.958 156.004 96.3073 154.184 95.532L153.073 94.7526ZM155.391 104.616L153.251 105.867L153.429 106.261L155.098 107.12L155.827 104.847L155.799 104.575L155.391 104.616Z" fill="#3E3E3E"/>
</g>
<defs>
<clipPath id="clip0">
<rect width="192" height="151" fill="white"/>
</clipPath>
</defs>
</svg>
