<svg width="289" height="189" viewBox="0 0 289 189" fill="none" xmlns="http://www.w3.org/2000/svg">
<g clip-path="url(#clip0)">
<path d="M101.604 29.0555C98.6488 19.6802 91.7347 15.7508 95.7727 21.3477C99.7796 26.804 106.422 70.9052 84.2682 87.4478C62.2549 103.959 69.6192 62.5162 66.9294 65.0273C64.5993 67.1641 45.0445 90.8011 39.1154 98.0093C42.2521 88.1735 48.7447 68.1584 56.0447 51.7993C58.5353 46.3828 61.7236 44.7939 63.7285 40.5169C66.9403 33.024 66.8541 27.2917 66.7299 26.7293C66.5143 24.4174 62.8109 25.6776 62.8109 25.6776C62.201 26.2547 53.5242 44.3926 53.5242 44.3926C53.5242 44.3926 43.5449 55.2971 18.9466 54.0933C18.9466 54.0933 11.9341 53.7249 18.2564 56.3103C25.6872 59.2409 35.1229 57.8944 50.7964 52.0736L49.6697 53.6496C40.7211 76.5665 30.4948 109.056 30.4948 109.056C30.9476 109.104 31.291 109.323 31.5722 109.261C31.7749 109.511 32.0561 109.449 32.7592 109.293C33.7435 109.076 34.3223 108.358 34.9012 107.641C42.4538 101.106 63.6175 77.4088 63.6175 77.4088C63.6175 77.4088 56.8935 107.06 84.0749 91.9146C111.225 76.6281 104.388 38.3213 101.604 29.0555ZM142.027 60.9776C142.449 60.8845 145.109 56.9051 144.58 55.8423C144.159 54.6079 139.43 52.5556 136.258 53.551C133.055 54.4058 124.536 59.2365 116.304 71.3773C108.104 83.6586 108.221 89.5315 111.389 91.1913C114.417 92.8822 120.29 92.7649 129.015 85.5292C135.379 80.2896 137.791 75.1853 138.213 75.0922C138.775 74.968 142.91 78.3315 146.579 79.5859C150.732 81.0283 155.215 80.6281 161.186 76.9498C167.048 73.4433 171.257 67.7947 171.445 67.3108C171.492 66.8579 171.198 64.8583 170.636 64.9825C169.933 65.1378 162.453 75.3428 154.908 76.5667C147.393 77.9313 142.683 72.6303 143.169 71.4907C143.936 70.2891 147.52 64.4835 146.693 64.0763C146.006 63.6381 142.602 62.9151 142.242 63.2895C141.852 63.5233 138.03 71.5933 135.965 74.2614C133.759 76.9606 129.723 81.3911 125.597 84.0721C121.579 86.5815 118.126 87.639 116.614 85.466C114.696 82.7926 121.096 73.7108 123.271 70.871C125.477 68.1718 130.796 61.5407 133.594 60.1856C136.532 58.7993 138.782 58.3025 140.591 59.8199C141.512 60.6489 142.027 60.9776 142.027 60.9776ZM216.542 57.2039C213.462 59.9488 200.438 69.756 187.988 71.4733C175.365 73.0811 176.05 63.4919 176.05 63.4919C176.05 63.4919 184.356 53.6941 188.005 46.8422C191.622 39.8496 192.907 36.3214 192.907 36.3214C192.907 36.3214 213.935 32.7099 215.546 31.3219C217.187 30.0745 218.111 28.2483 212.878 29.2567C207.644 30.265 195.02 33.2004 195.02 33.2004C195.02 33.2004 197.035 20.9577 196.383 18.0049C195.762 15.1927 192.971 11.2374 184.32 22.1437C176.826 31.6145 174.693 37.9843 174.693 37.9843C174.693 37.9843 159.774 40.5418 159.023 41.1499C158.413 41.727 156.094 47.2531 158.172 46.6467C160.251 46.0403 173.439 41.6531 173.439 41.6531C173.439 41.6531 169.546 56.0799 169.338 59.8126C169.271 63.5142 170.767 77.6358 182.217 76.7293C193.527 75.8539 214.706 64.2457 220.134 57.4429C225.392 50.5306 219.623 54.459 216.542 57.2039ZM192.974 21.2648C194.223 21.5788 191.583 33.6644 191.583 33.6644L182.443 35.6829C187.034 25.0836 191.584 20.9818 192.974 21.2648ZM180.579 39.9288L189.282 37.2694C189.282 37.2694 180.625 52.1585 178.482 55.1389C176.51 58.2289 175.618 58.8681 175.26 57.9149C173.892 53.0556 180.579 39.9288 180.579 39.9288ZM264.042 44.7968C262.479 45.7319 252.792 59.9637 236.016 61.4567C228.065 62.1803 225.882 58.9755 223.886 56.6144C223.886 56.6144 236.581 47.3222 238.976 42.8115C241.341 38.1601 241.845 35.0995 239.193 32.4407C236.541 29.782 227.497 30.8947 218.936 43.5504C210.126 56.4089 220.152 69.0891 235.495 65.1108C252.666 60.7289 258.188 54.348 264.587 46.5937C264.587 46.5937 266.089 44.0498 264.042 44.7968ZM222.127 51.9889C221.886 45.5535 231.863 35.9766 234.268 36.1828C236.814 36.358 236.622 39.4971 233.493 44.0225C230.394 48.6885 222.001 52.7541 222.127 51.9889ZM262.976 45.7697C261.287 47.4699 261.802 47.7986 262.458 48.0962C263.254 48.3628 263.864 47.7857 263.864 47.7857C268.758 43.903 273.58 35.0221 274.721 34.1802C276.003 33.3072 282.999 34.2692 283.496 36.519C285.684 47.0959 291.052 51.367 297.518 51.2662C303.984 51.1654 309.879 46.4718 313.491 43.4621C317.244 40.4213 319.762 37.8006 321.389 35.8192C323.047 33.9783 321.754 31.4619 319.047 34.5666C316.201 37.7022 307.677 46.5157 297.587 46.2369C289.872 46.0237 287.387 34.7748 287.108 33.5093C286.828 32.2438 278.963 27.3447 276.669 25.6392C274.407 24.0743 271.364 21.6493 271.737 23.3367C272.109 25.024 272.751 35.9426 263.696 45.0209L262.976 45.7697Z" fill="#FFD77F" fill-opacity="0.3"/>
<path d="M157.271 110.581C159.433 105.679 160.952 102.542 160.952 102.542C166.775 92.8503 159.182 94.5271 159.182 94.5271C158.572 95.1042 147.814 116.504 147.814 116.504C147.814 116.504 135.037 128.763 108.427 137.147C108.427 137.147 102.218 143.09 108.874 141.177C115.359 139.155 132.159 131.758 145.196 124.013L143.928 125.62C137.149 138.325 116.979 177.877 116.979 177.877C121.101 179.179 125.931 176.343 127.667 174.189C128.685 172.785 144.849 137.804 154.185 117.309C160.597 111.616 174.137 100.81 184.168 98.1524C195.574 95.0436 186.49 114.009 175.486 120.273C171.156 122.704 168.7 125.606 158.87 129.841C153.885 131.975 153.991 134.458 158.116 133.105C168.383 129.51 184.602 124.159 188.72 128.116C196.005 135.06 179.08 154.577 166.343 160.339C148.542 168.547 145.846 163.686 143.101 160.606C140.356 157.525 139.509 160.367 141.1 162.227C142.316 163.728 153.137 178.003 175.68 162.554C180.808 159.062 188.939 151.81 193.683 143.241C209.855 114.305 175.402 124.568 175.402 124.568C175.402 124.568 195.613 112.584 196.283 102.261C198.157 78.6939 169.937 99.8205 157.271 110.581ZM199.492 146.972C197.803 148.673 198.318 149.001 198.974 149.299C199.77 149.566 200.38 148.988 200.38 148.988C205.274 145.106 210.096 136.225 211.237 135.383C212.519 134.51 219.515 135.472 220.012 137.722C222.2 148.299 227.568 152.57 234.034 152.469C240.5 152.368 246.395 147.675 250.007 144.665C253.76 141.624 256.278 139.003 257.905 137.022C259.563 135.181 258.27 132.665 255.563 135.769C252.717 138.905 244.193 147.719 234.103 147.44C226.388 147.226 223.903 135.978 223.624 134.712C223.344 133.447 215.479 128.547 213.185 126.842C210.922 125.277 207.88 122.852 208.253 124.539C208.625 126.227 209.267 137.145 200.212 146.224L199.492 146.972ZM285.067 116.571C285.488 116.478 288.149 112.499 287.619 111.436C287.199 110.202 282.469 108.149 279.297 109.145C276.094 110 267.576 114.83 259.344 126.971C251.144 139.252 251.261 145.125 254.429 146.785C257.457 148.476 263.33 148.359 272.055 141.123C278.419 135.883 280.831 130.779 281.253 130.686C281.815 130.562 285.95 133.925 289.619 135.18C293.771 136.622 298.254 136.222 304.226 132.544C310.087 129.037 314.296 123.389 314.485 122.905C314.532 122.452 314.238 120.452 313.675 120.576C312.972 120.732 305.493 130.937 297.947 132.16C290.433 133.525 285.723 128.224 286.209 127.084C286.976 125.883 290.56 120.077 289.733 119.67C289.046 119.232 285.642 118.509 285.282 118.883C284.891 119.117 281.07 127.187 279.005 129.855C276.799 132.554 272.763 136.985 268.636 139.666C264.619 142.175 261.166 143.233 259.654 141.06C257.736 138.386 264.136 129.305 266.311 126.465C268.517 123.766 273.836 117.135 276.633 115.779C279.572 114.393 281.821 113.896 283.631 115.414C284.552 116.243 285.067 116.571 285.067 116.571Z" fill="#FFD77F" fill-opacity="0.3"/>
</g>
<defs>
<clipPath id="clip0">
<rect width="289" height="189" fill="white"/>
</clipPath>
</defs>
</svg>
