<svg width="414" height="343" viewBox="0 0 414 343" fill="none" xmlns="http://www.w3.org/2000/svg">
<path d="M46.384 85.048H53.632V86.184H46.384V85.048ZM53.632 79.816V80.888H46.384V79.816H53.632ZM53.632 83.336V84.296H46.384V83.336H53.632ZM53.632 82.568H46.384V81.656H53.632V82.568ZM57.056 86.184H54.816V79H50.208C50.272 78.696 50.336 78.36 50.4 77.992H56.656V76.968H50.576L50.784 75.736L49.52 75.592C49.488 75.992 49.44 76.488 49.376 76.968H43.408V77.992H49.232C49.2 78.36 49.136 78.696 49.072 79H45.232V86.184H42.96V87.192H57.056V86.184ZM47.568 87.512C46.56 88.184 44.56 88.968 42.96 89.4C43.216 89.624 43.584 89.992 43.776 90.232C45.36 89.784 47.344 88.984 48.608 88.184L47.568 87.512ZM51.488 88.232C53.264 88.824 55.072 89.592 56.16 90.2L57.12 89.368C55.952 88.792 54 88.024 52.224 87.464L51.488 88.232ZM63.76 79.64L63.52 79.688H59.2V80.872H63.104C62.336 84.024 60.72 86.424 58.688 87.752C58.976 87.928 59.456 88.392 59.632 88.648C61.888 87.064 63.76 84.104 64.528 79.944L63.76 79.64ZM71.024 78.6C70.256 79.688 69.008 81.096 67.936 82.088C67.44 81.256 67.008 80.376 66.656 79.496V75.656H65.408V88.6C65.408 88.872 65.312 88.952 65.04 88.968C64.8 88.968 63.968 88.968 63.056 88.936C63.248 89.288 63.456 89.88 63.504 90.232C64.72 90.232 65.52 90.2 66 89.976C66.464 89.768 66.656 89.384 66.656 88.6V81.848C68.112 84.728 70.176 87.256 72.656 88.568C72.864 88.216 73.264 87.736 73.536 87.496C71.616 86.6 69.888 84.936 68.528 82.968C69.648 82.024 71.04 80.584 72.096 79.368L71.024 78.6ZM71.1445 102.928V101.744H57.4805V102.928H64.5525C62.9685 105.664 60.2325 108.32 57.0805 109.904C57.3205 110.176 57.7045 110.64 57.8805 110.944C60.1045 109.776 62.0565 108.128 63.6725 106.288V115.184H64.9365V104.688C65.3365 104.096 65.7205 103.52 66.0725 102.928H71.1445ZM65.2565 106.368C67.1445 107.616 69.5125 109.504 70.6485 110.72L71.5925 109.808C70.4245 108.592 67.9925 106.8 66.1365 105.6L65.2565 106.368ZM87.3685 101.408H78.9365V102.496H87.3685V101.408ZM87.2725 108.64C86.8885 107.92 86.1045 106.816 85.3525 105.92C85.8965 105.12 86.5365 104.112 87.0005 103.296L85.9445 103.008C85.5765 103.76 84.8405 104.976 84.1685 105.952C85.0645 107.024 85.9125 108.272 86.3125 109.104L87.2725 108.64ZM83.2085 103.024C82.8405 103.776 82.1365 104.976 81.4805 105.936C82.3445 107.008 83.1285 108.24 83.4645 109.072L84.4565 108.624C84.0885 107.92 83.3525 106.816 82.6485 105.904C83.1765 105.12 83.8005 104.096 84.2485 103.296L83.2085 103.024ZM81.6725 108.688C81.3205 107.968 80.6165 106.848 79.9125 105.92C80.4565 105.12 81.0645 104.096 81.4965 103.28L80.4565 103.008C80.0885 103.76 79.4005 104.976 78.7765 105.952C79.5925 107.04 80.3445 108.272 80.6805 109.104L81.6725 108.688ZM78.7605 109.92C78.6005 109.088 78.1525 107.696 77.7205 106.64L76.8085 106.896C77.0005 107.376 77.1765 107.92 77.3525 108.464L74.8405 108.784C76.1205 107.312 77.3685 105.456 78.3925 103.632L77.3685 103.024C77.0325 103.76 76.6165 104.48 76.2165 105.152L74.5685 105.296C75.4325 104.08 76.2965 102.544 77.0005 101.04L75.9445 100.608C75.2885 102.32 74.1685 104.16 73.8325 104.624C73.4965 105.12 73.2245 105.44 72.9525 105.504C73.0805 105.808 73.2565 106.32 73.3205 106.56C73.5445 106.448 73.8805 106.384 75.5285 106.192C74.9525 107.04 74.4565 107.712 74.2165 108C73.7525 108.576 73.3845 108.976 73.0325 109.056C73.1765 109.344 73.3525 109.92 73.4165 110.16C73.7365 110 74.2165 109.888 77.6085 109.376C77.6885 109.696 77.7525 110 77.7845 110.24L78.7605 109.92ZM73.7205 110.848C73.5605 112.16 73.3205 113.584 72.9525 114.576C73.1925 114.672 73.6885 114.832 73.8965 114.944C74.2485 113.936 74.5525 112.4 74.7125 111.008L73.7205 110.848ZM75.3525 110.96C75.5445 112.048 75.7205 113.44 75.7525 114.336L76.7125 114.176C76.6645 113.248 76.4725 111.872 76.2645 110.816L75.3525 110.96ZM76.9045 110.672C77.2085 111.52 77.5445 112.64 77.6885 113.376L78.5685 113.072C78.4405 112.352 78.0725 111.248 77.7525 110.4L76.9045 110.672ZM83.6405 113.76V110.72H86.8885V109.648H79.2885V110.72H82.4725V113.76H78.3925V114.848H87.5285V113.76H83.6405ZM90.3125 114.8C91.1285 114.048 91.7845 112.864 92.2325 111.904L91.2405 111.456C90.8565 112.384 90.1525 113.536 89.3525 114.24L90.3125 114.8ZM100.169 108.048H92.5205V106.944H100.169V108.048ZM100.169 109.936H92.5205V108.832H100.169V109.936ZM101.337 106.128H91.3845V110.752H95.4005L94.8565 111.264C95.7365 111.776 96.8245 112.528 97.3365 113.056L98.0725 112.32C97.5765 111.856 96.6165 111.184 95.7845 110.752H101.337V106.128ZM95.2405 114.096C94.4085 114.096 94.2645 114.016 94.2645 113.648V111.584H93.0965V113.648C93.0965 114.784 93.5285 115.088 95.1445 115.088H98.1525C99.4325 115.088 99.8005 114.656 99.9285 112.896C99.6245 112.816 99.1605 112.656 98.9045 112.48C98.8245 113.904 98.7285 114.096 98.0405 114.096H95.2405ZM100.153 111.728C100.953 112.592 101.833 113.76 102.185 114.56L103.193 114.048C102.793 113.264 101.897 112.112 101.097 111.312L100.153 111.728ZM98.8885 102.768C98.7125 103.232 98.4245 103.856 98.1525 104.352H94.4565C94.3285 103.888 94.0405 103.248 93.7525 102.768H98.8885ZM99.3685 104.352C99.6085 103.936 99.8645 103.472 100.121 102.976L99.1925 102.768H102.377V101.792H97.2725C97.0805 101.376 96.8245 100.864 96.5525 100.496L95.4005 100.736C95.5925 101.056 95.8005 101.424 95.9605 101.792H90.2485V102.768H93.6565L92.6485 102.992C92.8885 103.408 93.0965 103.936 93.2245 104.352H89.5285V105.328H103.193V104.352H99.3685ZM119.017 103.68C118.729 103.04 118.025 102.064 117.369 101.376L116.569 101.824C117.209 102.544 117.897 103.568 118.169 104.208L119.017 103.68ZM112.489 102.592H109.849C109.673 102.016 109.321 101.216 109.001 100.608L107.913 100.848C108.153 101.392 108.457 102.048 108.633 102.592H105.225V103.648H112.489V102.592ZM106.633 109.616C106.345 110.912 105.833 112.224 105.161 113.12C105.401 113.264 105.833 113.552 106.025 113.696C106.681 112.752 107.289 111.264 107.625 109.824L106.633 109.616ZM107.129 105.888H110.729V107.808H107.129V105.888ZM111.833 108.768V104.912H106.089V108.768H108.489V113.936C108.489 114.096 108.441 114.144 108.265 114.144C108.105 114.16 107.577 114.16 107.017 114.144C107.161 114.416 107.321 114.832 107.353 115.12C108.185 115.136 108.729 115.104 109.081 114.944C109.465 114.768 109.561 114.496 109.561 113.952V108.768H111.833ZM112.233 112.224C112.073 111.456 111.561 110.304 111.049 109.44L110.201 109.824C110.681 110.688 111.177 111.872 111.337 112.64L112.233 112.224ZM119.513 105.824V104.752H115.865C115.961 103.344 115.961 101.952 115.977 100.656H114.857C114.841 101.952 114.841 103.344 114.761 104.752H112.633V105.824H114.697C114.409 109.2 113.609 112.528 111.305 114.544C111.625 114.72 111.977 115.008 112.169 115.248C114.617 113.024 115.465 109.424 115.785 105.824H119.513ZM117.385 113.936C117.225 113.936 117.097 113.904 117.001 113.856C116.905 113.792 116.873 113.584 116.873 113.248V107.088H115.817V113.12C115.817 114.128 115.929 114.384 116.185 114.576C116.425 114.768 116.825 114.848 117.177 114.848H118.201C118.489 114.848 118.873 114.816 119.113 114.688C119.337 114.576 119.513 114.384 119.609 114.064C119.705 113.744 119.769 112.896 119.785 112.176C119.481 112.096 119.081 111.904 118.857 111.696C118.841 112.512 118.825 113.136 118.777 113.424C118.745 113.664 118.665 113.808 118.537 113.856C118.457 113.92 118.265 113.936 118.073 113.936H117.385ZM128.392 111.968C130.601 112.848 133.465 114.288 134.873 115.28L135.433 114.256C133.977 113.296 131.097 111.92 128.905 111.088L128.392 111.968ZM128.873 107.584V106.24H133.993V105.2H128.873V103.904H134.761V102.832H131.353C131.769 102.272 132.249 101.584 132.633 100.928L131.417 100.56C131.081 101.232 130.521 102.176 130.041 102.832H125.833L126.409 102.576C126.153 102 125.593 101.168 125.001 100.56L123.977 100.976C124.457 101.536 124.953 102.272 125.209 102.832H121.833V103.904H127.689V105.2H122.713V106.24H127.689V107.584H121.273V108.64H127.545C127.497 109.072 127.433 109.488 127.337 109.872H121.625V110.912H127.001C126.281 112.56 124.713 113.584 121.017 114.112C121.241 114.384 121.545 114.88 121.641 115.184C125.833 114.464 127.545 113.104 128.297 110.912H135.193V109.872H128.585C128.665 109.488 128.729 109.072 128.777 108.64H135.449V107.584H128.873ZM151.241 101.2H144.825V102.048H151.241V101.2ZM150.793 105.616V102.768H145.193V105.648H146.233V103.52H149.705V105.616H150.793ZM146.905 104.224C147.401 104.608 147.977 105.2 148.249 105.6L148.873 105.024C148.601 104.608 148.009 104.064 147.513 103.696L146.905 104.224ZM144.041 101.2H137.689V102.048H144.041V101.2ZM139.353 108.624H142.009V109.792H139.337C139.353 109.456 139.353 109.152 139.353 108.848V108.624ZM142.009 106.944V107.808H139.353V106.944H142.009ZM145.849 107.808H143.081V106.944H145.849V107.808ZM149.657 108.624V109.792H146.937V108.624H149.657ZM143.081 109.792V108.624H145.849V109.792H143.081ZM147.497 114.08C146.809 114.08 146.681 114 146.681 113.616V112.512H150.585V111.664H146.681V110.608H150.761V107.808H146.937V106.944H151.193V106.064H145.241C145.081 105.696 144.825 105.232 144.585 104.896L143.705 105.184V102.768H138.217V105.648H139.257V103.52H142.633V105.616H143.705V105.536C143.801 105.696 143.897 105.888 143.977 106.064H138.233V108.816C138.233 110.512 138.089 112.864 136.889 114.56C137.113 114.688 137.593 115.072 137.785 115.296C138.729 113.968 139.113 112.192 139.273 110.608H140.457V113.472C140.457 114 140.137 114.112 139.881 114.176C140.025 114.384 140.185 114.848 140.217 115.12C140.536 114.96 141.049 114.864 145.001 114.368C144.985 114.144 144.985 113.76 145.001 113.504L141.577 113.872V112.512H144.969V111.664H141.577V110.608H145.577V113.616C145.577 114.688 145.945 114.976 147.385 114.976H150.025C151.065 114.976 151.401 114.624 151.513 113.328C151.209 113.28 150.777 113.12 150.553 112.96C150.505 113.92 150.409 114.08 149.913 114.08H147.497ZM141.817 105.024C141.561 104.64 141.016 104.096 140.536 103.696L139.929 104.192C140.377 104.608 140.921 105.184 141.161 105.6L141.817 105.024Z" fill="#58595B"/>
</svg>
