<svg width="186" height="55" viewBox="0 0 186 55" fill="none" xmlns="http://www.w3.org/2000/svg">
<g clip-path="url(#clip0)">
<path d="M12.8184 20.0743L13.8915 20.1999L14.2771 20.5137C13.2648 21.8741 12.9945 23.5772 13.4661 25.6231C14.0832 27.8112 15.358 29.2642 17.2903 29.9822L18.0366 29.9842L18.2538 29.8049C17.0355 29.668 16.8841 28.7019 17.7994 26.9064L18.2647 24.9346L18.0704 24.9545L17.2832 25.7028L16.8478 25.6689L16.1394 25.2704L16.0716 24.6098C15.9388 24.3354 16.6346 23.8452 18.159 23.1391L19.4633 22.4556C19.7814 22.2397 20.3314 21.9869 21.1132 21.6973L21.5247 21.498C22.2003 21.1931 23.0821 20.9849 24.1701 20.8733C24.5374 20.6261 25.1951 20.9121 26.1429 21.7311C26.8524 23.5432 25.9165 25.9036 23.3353 28.8124C22.9367 29.0103 22.503 29.6308 22.034 30.6736L18.7121 32.7422L18.1681 32.798L17.6111 32.3446L17.7217 31.5087C14.7698 31.3141 12.79 29.2397 11.7822 25.2854C11.4415 24.7706 11.5115 23.2843 11.9924 20.8266C11.9685 20.5934 12.2438 20.3427 12.8184 20.0743ZM22.8609 22.6568L20.5194 23.5645L19.83 26.0306C19.8565 26.2896 20.3142 26.4128 21.203 26.4002L22.3149 26.5217L22.564 26.6533L22.9447 26.5357L24.481 23.9042L24.6305 23.0643L24.2598 22.5133L22.8609 22.6568ZM19.7882 27.9197C19.2388 27.9237 18.9608 28.1485 18.9542 28.5942L18.5327 29.4621L18.4012 29.7112L18.9841 29.6514L19.8599 30.1506C20.1402 30.3312 20.5733 29.9596 21.1592 29.0356L21.9075 28.2913L21.8995 28.2136C21.3674 27.8755 20.6636 27.7775 19.7882 27.9197ZM3.99861 29.0289C4.47487 28.823 6.12886 29.1245 8.96057 29.9335L9.6431 30.8452L9.2057 31.5576C8.81778 31.8592 8.19671 31.6742 7.34247 31.0027L3.43568 30.8144L2.82788 30.2485L2.79201 29.8987C2.83983 29.3441 3.24202 29.0541 3.99861 29.0289ZM8.74045 35.0609L9.47876 34.9851L10.1135 35.4305L10.1533 35.8191C10.2862 36.0934 9.58506 36.5318 8.04999 37.1343C6.99251 38.0543 5.55808 38.9999 3.74668 39.9711C3.32754 40.2235 2.78551 40.0435 2.12059 39.4311C2.30258 38.6532 2.71707 38.1002 3.36404 37.7721C3.56465 38.1965 4.64007 37.7066 6.59028 36.3024L8.74045 35.0609ZM25.8562 35.779C26.8765 35.5173 27.6427 35.7136 28.1548 36.3678L28.111 37.4718L26.7799 39.8073L23.0565 44.4694C22.7589 44.6309 22.5743 44.8723 22.5025 45.1938L22.5185 45.3492L23.4591 45.3313L28.8026 43.4481L29.2061 43.1711L30.0969 43.4331L30.1367 43.8217C30.3114 44.2488 28.3124 45.3047 24.1396 46.9893C21.8626 48.27 19.4464 48.832 16.891 48.6752L16.3031 48.3036L16.1278 48.1252L16.072 47.5812L16.5681 47.0591L17.975 46.9933C16.6107 46.4527 15.4249 45.357 14.4179 43.7063L13.9516 42.2227L13.8559 41.2901L13.8499 40.4661C13.9416 38.8075 14.6138 37.7045 15.8666 37.1571C16.1409 37.0243 16.4989 37.197 16.9407 37.6752L16.9686 37.9473C17.0416 38.1492 16.7015 38.4066 15.9483 38.7195C15.6999 38.8497 15.5776 39.1894 15.5816 39.7388C17.1313 39.7892 20.4552 38.5058 25.5533 35.8886L25.8562 35.779ZM25.7905 37.435L25.4098 37.5526C24.5862 37.6894 23.7828 38.1514 22.9996 38.9386L22.915 42.3242L22.8572 42.5265L22.8891 42.8374C23.1096 42.9456 23.8466 41.836 25.1 39.5085C25.6042 39.0641 25.9628 38.4775 26.1761 37.7488L26.1402 37.3991L25.7905 37.435ZM20.9999 39.7327L18.9075 40.7719C18.8199 40.938 19.4908 41.864 20.9203 43.5498C21.2205 43.4143 21.3756 42.2465 21.3855 40.0466L21.2331 39.7088L20.9999 39.7327ZM15.9005 41.316L15.4541 41.5581L15.478 41.7913C15.4641 43.442 16.7229 44.7395 19.2544 45.6841L20.3653 45.413L20.3334 45.1022C19.3729 44.4154 18.2865 43.1393 17.0742 41.2741L15.9005 41.316ZM12.7021 39.9949L12.9781 40.0058C13.5407 41.1523 11.6981 43.6057 7.45032 47.3661L6.64625 47.5664C5.2646 47.3678 4.86239 46.6368 5.4396 45.3734L5.89693 44.8553C6.32205 44.9164 6.62728 45.2123 6.81261 45.743L6.96805 45.7271C8.38356 44.9798 10.2949 43.0691 12.7021 39.9949Z" fill="#3E3E3E"/>
<path d="M57.8993 12.8191L59.0501 12.9366L59.7326 13.8483C59.1933 15.7361 57.9332 17.4884 55.9525 19.1052L55.9684 19.2607L57.0784 20.1285L57.2159 20.7034L56.8712 21.1707L56.4437 21.2145L53.3031 19.6911L52.773 19.1172L52.7531 18.9229C52.773 18.6067 52.9461 18.3796 53.2722 18.2414L54.5007 18.351L54.9601 18.618C55.7804 17.1726 56.6967 15.7697 57.709 14.4093C57.5815 14.1868 55.9826 14.678 52.9125 15.883C51.7301 16.6064 50.0071 17.1627 47.7433 17.552C46.8114 16.8884 47.0369 16.4072 48.4198 16.1082L48.8861 16.0604C50.0585 15.4951 53.0629 14.4147 57.8993 12.8191ZM60.6275 20.2749L62.1041 20.1234C62.2436 19.952 62.5435 20.1962 63.0039 20.8557L63.0437 21.2443C62.2254 23.4749 60.6568 25.1541 58.3379 26.2821L59.1898 28.0795L59.2815 28.9733C59.0192 30.7541 57.7594 32.1268 55.5023 33.0913L54.8108 33.2408C54.3133 33.2395 53.942 32.9373 53.6969 32.3341L53.6172 31.557L54.1642 31.1474L55.3588 31.6924C56.2569 31.26 57.0254 30.3304 57.6644 28.9036L57.6365 28.6315C57.9513 28.128 57.0865 27.3529 55.0419 26.306L54.9642 26.314C54.6945 27.2579 53.3989 29.3018 51.0774 32.4458C50.9446 33.1924 50.7589 33.5517 50.5204 33.5238L49.5211 33.3515L49.2899 32.6291L53.3401 26.5591L54.5038 24.123C53.182 25.0178 51.516 25.6206 49.506 25.9315C48.499 26.3227 47.0354 26.4729 45.115 26.3819L44.4763 25.8977L44.4006 25.1594L44.7224 24.8515C45.7155 25.0899 46.8178 24.9899 48.0294 24.5515C50.0607 24.4479 53.2231 23.3774 57.5168 21.3401L58.8719 20.7691L60.6275 20.2749ZM60.759 21.5572L57.1163 22.7948C56.1638 23.2066 55.8223 23.4511 56.092 23.5281C56.298 24.0044 56.2136 24.4581 55.839 24.8892C56.1352 25.2253 56.6553 25.4468 57.3993 25.5537C58.4887 24.9446 59.7966 23.6586 61.323 21.6957L61.303 21.5014L60.759 21.5572ZM55.4963 33.7988L55.9238 33.7549C56.416 33.7044 56.5788 34.5255 56.4121 36.218C57.9471 35.6155 59.4337 34.7954 60.8718 33.7578C61.5872 33.8415 61.9283 33.9767 61.8951 34.1634L62.0366 34.7771C61.2262 35.0435 59.4497 35.9718 56.707 37.5621L56.9781 41.7359L57.2949 42.528L57.7055 46.5304C57.7095 47.0798 57.4654 47.3797 56.9732 47.4302L56.2139 46.919C56.3401 45.5972 55.9857 42.7801 55.1507 38.4678C54.9806 38.8517 53.3871 39.3948 50.3701 40.0969L49.8878 39.9893L49.6627 40.091L48.5069 39.542L48.3654 38.9282L48.741 38.3792L50.9529 38.5057C51.6836 38.4831 53.1151 37.8913 55.2473 36.7301L55.2134 34.1027L55.4963 33.7988ZM62.2638 40.0549C63.9311 40.486 65.3885 41.4229 66.636 42.8656L66.8711 43.6269L66.5304 44.133L65.7921 44.2088C65.6472 44.3283 65.1667 43.8541 64.3503 42.786C64.0228 42.4007 63.2752 41.8753 62.1074 41.2097L61.938 40.3239L62.2638 40.0549ZM48.6245 42.9855L50.5854 43.7267C51.4502 44.5019 52.9265 44.7301 55.0143 44.4112L55.1358 44.8307C55.2667 45.3408 54.345 45.6709 52.3709 45.8211L51.9355 45.7872C51.3815 46.0011 50.1181 45.4239 48.1452 44.0556L48.0077 43.4807C48.0874 43.2369 48.293 43.0718 48.6245 42.9855Z" fill="#3E3E3E"/>
<path d="M88.1452 10.6196L88.9693 10.6136C89.4256 10.7239 89.7773 10.9627 90.0244 11.33C89.687 12.1238 89.7388 13.6499 90.1799 15.9083C90.2251 16.3487 90.4855 16.8456 90.9611 17.3989L91.005 17.8264C91.0574 18.0828 90.9465 18.2774 90.6722 18.4102L89.9339 18.486C88.3742 17.5727 87.778 14.9505 88.1452 10.6196ZM96.2159 11.2054L96.9931 11.1256L97.5461 11.5401L97.6138 12.2007C96.4886 12.9706 94.8157 15.4197 92.5952 19.5481L92.8523 19.7573C92.9486 19.9307 93.7703 19.5192 95.3173 18.5228L97.6508 17.5373L98.2337 17.4775C98.6329 17.5413 98.9275 17.7336 99.1174 18.0544L99.255 18.6293C99.7405 19.0245 97.791 21.7115 93.4063 26.6901L89.2446 31.672L89.4239 31.8892C90.4322 32.0214 92.9879 30.7776 97.091 28.1577L98.9651 26.9052L99.2242 26.3682L98.2926 25.325L98.2328 24.7421L98.6084 24.1931L99.4244 24.1094C100.568 24.5418 101.56 25.6574 102.399 27.4562L102.592 28.5751C102.534 30.0471 101.048 30.7492 98.1352 30.6815C98.1511 30.8369 97.6383 30.9419 96.5968 30.9964C96.0422 30.9486 95.7678 31.0814 95.7738 31.3949C95.7286 31.9755 95.923 32.9765 96.3567 34.398L96.4424 34.4677C97.7596 33.7829 99.1124 33.3169 100.501 33.0698L101.55 32.9621C102.848 33.1169 103.66 33.7536 103.984 34.8722C104.418 36.5554 103.336 38.8916 100.737 41.8807L100.084 42.0262C99.796 41.7678 100.36 40.5057 101.777 38.2399L102.599 35.9174L102.625 35.4042C102.754 35.1292 102.366 34.7895 101.46 34.385C99.8613 34.3657 98.2498 34.9892 96.6258 36.2552L97.6969 40.1899L97.7408 40.6174C97.7315 41.0372 97.4834 41.2982 96.9965 41.4005L96.5691 41.4444C95.3827 41.6184 93.9393 40.5623 92.2388 38.276C92.086 37.2968 92.9372 36.2802 94.7924 35.226L93.9285 31.7806L93.8428 31.7108L90.5468 33.2662L89.2725 33.4755C88.7231 33.4795 88.1433 33.1855 87.5328 32.5937L87.4033 32.0965C87.1953 31.856 88.5321 30.2137 91.4136 27.1694C91.9231 26.7768 93.6378 24.4804 96.5578 20.2803L96.7272 19.6347L93.0665 21.4631L92.1728 21.5548C92.0047 21.7029 91.5776 21.3671 90.8914 20.5475L90.8236 19.8869C91.1259 18.4946 92.7655 15.7217 95.7426 11.5681L96.2159 11.2054ZM100.327 27.5508L97.2853 29.6692C97.4181 29.9435 98.1528 29.9598 99.4893 29.718C99.8725 29.6263 100.306 29.2546 100.789 28.603L100.806 28.0122L100.327 27.5508ZM95.0615 37.0832L94.2594 38.0687C94.294 38.4055 94.7563 38.8292 95.6464 39.34L95.7859 39.1687L95.2089 36.9896L95.0615 37.0832Z" fill="#3E3E3E"/>
<path d="M135.853 12.1264C136.438 11.9617 136.963 12.1042 137.428 12.5539L137.418 13.2224L136.058 13.3619C133.77 14.539 132.185 17.3325 131.302 21.7425L131.715 23.4672L131.933 23.6805L132.166 23.6565L136.841 21.7634C137.183 21.7806 137.235 21.0031 136.995 19.4308C136.911 19.1253 137.059 18.9137 137.44 18.7961L137.906 18.7483C138.428 18.9828 138.646 19.196 138.561 19.388L138.615 20.6783L138.786 20.8178C139.801 20.5042 141.05 20.2976 142.532 20.198C142.889 20.109 143.184 20.3013 143.415 20.7749L143.541 21.2332C143.586 21.6736 142.7 21.843 140.884 21.7414C140.114 21.8988 139.373 22.1974 138.659 22.6372L137.904 27.1517L137.481 28.7659C138.198 29.373 139.002 29.6832 139.893 29.6965L140.36 29.6486C140.759 29.7124 141.087 29.9797 141.345 30.4507L141.389 30.8781C141.219 31.2621 141.04 31.4374 140.854 31.4042C139.864 31.4534 138.625 31.1093 137.135 30.372L135.872 31.8367C135.588 32.1277 135.168 32.2492 134.614 32.2014L133.983 31.7949L133.955 31.5229C134.848 31.0387 135.403 30.3272 135.621 29.3886C134.23 28.5889 132.834 27.4886 131.434 26.0877L130.959 25.6653L127.4 26.1874C126.559 25.9071 126.234 25.6657 126.422 25.4631L126.313 25.1602C126.107 24.6839 126.877 24.4086 128.623 24.3341L130.069 24.2644L130.239 24.0113L129.917 22.7877L129.818 21.8163C129.89 18.6936 131.561 15.5902 134.831 12.5061L135.853 12.1264ZM136.721 23.2679L132.986 25.1431L132.847 25.3145C133.154 25.7542 133.925 26.3819 135.16 27.1976L136.044 27.7745L136.122 27.7665L136.856 24.5891L136.939 23.4811L136.721 23.2679Z" fill="#3E3E3E"/>
<path d="M172.702 6.54021L173.238 6.40669C173.637 6.47045 173.877 6.64216 173.958 6.92181C174.055 7.35689 173.986 7.83515 173.752 8.35659L175.115 7.86336C175.575 7.50201 175.901 7.36384 176.093 7.44886C176.404 7.41697 176.735 7.57937 177.086 7.93607L177.219 8.47212C177.405 9.00285 176.557 9.41702 174.676 9.71464C173.562 9.56719 172.707 10.6758 172.112 13.0406C171.153 15.94 169.23 19.907 166.343 24.9414L165.768 25.0789C165.561 25.1001 165.373 24.9231 165.203 24.5478C164.983 24.4395 165.448 23.6195 166.6 22.0877C167.519 20.8416 168.906 17.7674 170.759 12.8652L171.252 11.1654L171.081 11.0259C169.662 11.7473 167.989 12.2724 166.059 12.6013C165.284 12.4452 164.909 12.2349 164.934 11.9706L164.89 11.5431C164.817 11.3412 165.394 11.0987 166.622 10.8157C168.065 10.5892 169.786 10.0199 171.787 9.10789C172.185 8.64822 172.49 7.79233 172.702 6.54021ZM178.883 14.7413C179.375 14.6908 179.8 14.8698 180.156 15.2783C180.903 15.6729 179.675 18.3774 176.472 23.3919L175.388 25.0738C178.099 27.2564 181.398 28.0306 185.286 27.3962L185.727 27.8615L185.778 28.3666C185.805 28.6257 185.526 28.8376 184.94 29.0023C181.091 29.5019 177.581 28.7102 174.409 26.6271L172.04 29.1868L170.91 29.6562C170.182 29.4429 169.823 29.1394 169.835 28.7455C169.741 28.3363 169.788 27.8996 169.976 27.4352L170.287 27.4034C170.327 27.7919 170.559 28.1476 170.985 28.4705C171.25 28.4957 172.034 27.5907 173.338 25.7553L170.357 23.116L169.507 22.1036C169.481 21.8446 169.664 21.5902 170.057 21.3404L170.329 21.3125C170.466 21.1152 171.328 21.7336 172.915 23.1677L174.178 24.3733C175.299 23.0541 176.532 20.9119 177.877 17.9466L178.1 17.0599C176.25 18.1659 174.197 18.9524 171.942 19.4194C171.558 19.511 171.168 19.4071 170.771 19.1075L170.625 18.4549C170.542 18.1493 171.222 17.8963 172.668 17.6956C173.331 17.7846 175.403 16.7999 178.883 14.7413Z" fill="#3E3E3E"/>
</g>
<defs>
<clipPath id="clip0">
<rect width="186" height="55" fill="white"/>
</clipPath>
</defs>
</svg>
