<svg width="186" height="55" viewBox="0 0 186 55" fill="none" xmlns="http://www.w3.org/2000/svg">
<g clip-path="url(#clip0)">
<path d="M4.57089 19.7093C4.65857 19.5432 5.2172 19.6299 6.24679 19.9693L6.95522 20.3678L6.99907 20.7953L6.30859 21.3373C6.77357 21.787 7.41524 21.9175 8.23359 21.7289C8.74972 21.9115 10.8318 20.8995 14.4798 18.6928L15.1145 19.1382L15.1823 19.7988C14.3221 20.8556 11.8853 21.9826 7.87193 23.1796L7.0559 23.2633C5.89213 23.1471 5.0369 22.5934 4.49021 21.6024C4.24576 21.261 4.12154 20.8156 4.11754 20.2663C4.24375 19.9653 4.39486 19.7797 4.57089 19.7093ZM12.5031 23.9218L13.2025 23.8501C13.4357 23.8262 13.7173 24.0198 14.0475 24.431L14.0993 24.9361C14.2919 25.2829 13.737 25.6147 12.4344 25.9315L6.88958 28.1495C6.29374 28.2107 5.82046 28.0629 5.46973 27.7062L5.42589 27.2787C5.34219 26.9732 5.91942 26.7307 7.15758 26.5513L11.3354 24.7877L12.5031 23.9218ZM17.2847 25.7481L18.1008 25.6644C18.4535 25.7853 18.7275 26.0321 18.9228 26.4047C18.1351 31.4856 18.1923 36.6368 19.0944 41.8585C19.3475 43.5603 20.0998 44.8968 21.3512 45.8679L21.9949 45.2521L22.228 45.2282C22.8524 45.1903 23.6446 45.8944 24.6044 47.3405L24.6283 47.5736L24.2647 48.2392L23.4098 48.3269C18.9712 47.4209 16.9127 42.92 17.234 34.8241L17.1762 28.9007L17.1244 28.3955L16.953 28.256L7.96873 33.6934L8.52571 34.1467L8.58152 34.6907C8.50713 34.9863 8.21884 35.2384 7.71667 35.447C7.67949 36.1053 7.96479 36.7174 8.57259 37.2833L8.9542 37.5583C9.16145 37.537 9.27901 36.8967 9.30689 35.6373C9.23249 34.9119 9.49353 34.139 10.09 33.3187C10.3796 33.0796 10.9157 32.946 11.6982 32.9181L14.3236 33.6305L16.0683 34.9437L16.2217 35.674C16.5054 36.1423 14.7133 37.5565 10.8454 39.9167L10.8414 41.4092L11.1144 41.7739C12.2556 41.1595 13.4532 40.8403 14.7073 40.8163C15.2513 40.7605 15.7754 41.0209 16.2796 41.5975C16.7958 42.8011 16.6148 43.9715 15.7366 45.1087L15.3869 45.1446L15.4775 42.5829C15.085 42.0734 14.8163 41.8785 14.6715 41.998C13.4174 42.022 12.3107 42.4627 11.3516 43.3203L12.7077 46.2048L13.1371 46.9461C13.2208 47.2516 13.0764 47.5021 12.7037 47.6973C11.2789 47.8435 9.26654 47.2384 6.66665 45.882L6.51319 45.1517C6.45739 44.6077 7.54475 43.7239 9.77529 42.5003L9.48433 41.195L9.22726 40.9858L7.04621 42.309L6.3079 42.3848C5.85422 42.3004 5.61276 42.1158 5.58353 41.8308L5.54367 41.4422C5.41878 41.2456 5.74725 41.0025 6.52907 40.7128L8.13521 39.5271L8.5228 39.0947C7.36035 38.4809 6.50777 37.4427 5.96505 35.9801L5.85146 35.6383L5.84547 34.8143C5.01981 35.187 4.00584 35.3826 2.80355 35.4012C2.36315 35.4464 1.96725 35.1598 1.61585 34.5414C1.86096 34.1235 2.10772 33.8495 2.35615 33.7193L2.70588 33.6835L3.14229 34.1099C7.41208 32.8604 11.9831 30.3365 16.8553 26.5383L17.2847 25.7481ZM11.4262 34.4775C10.9167 34.87 10.5716 35.717 10.391 37.0182L10.3989 37.0959L10.5544 37.08C10.9396 36.7525 11.3767 35.9092 11.8656 34.5502L11.6593 34.4535L11.4262 34.4775ZM13.4598 34.7793L12.1028 37.628L14.4422 35.9351L14.6166 35.7209L14.6006 35.5654L13.4598 34.7793ZM10.0045 43.9689L8.75205 45.1576L8.76002 45.2354L10.8803 45.9995L10.0742 43.8833L10.0045 43.9689Z" fill="#3E3E3E"/>
<path d="M55.4527 13.1155L55.9579 13.0637C56.1571 12.9647 56.4272 13.1726 56.7679 13.6874L56.8038 14.0371C55.4441 15.3285 54.1409 16.915 52.8941 18.7969L52.8264 21.1991L53.2588 23.1182C53.3452 23.4496 53.7331 23.6585 54.4226 23.7449L54.7773 24.1404C54.9646 24.4353 54.7491 24.7585 54.1307 25.1099L53.6255 25.1617C51.8141 25.1119 50.9638 22.9478 51.0747 18.6694C50.7545 18.1001 51.1703 17.5601 52.3222 17.0492C53.2255 15.6477 54.269 14.3364 55.4527 13.1155ZM45.4651 15.2788C45.7965 15.1924 46.1542 15.2343 46.5382 15.4043L46.8799 15.2907C47.6086 15.5039 47.9291 15.6936 47.8414 15.8596L47.9431 16.0848C47.7604 16.6009 47.1277 16.9407 46.045 17.1041C45.5043 17.4476 44.6052 18.5084 43.3478 20.2866C43.1778 20.6705 43.1692 21.3521 43.322 22.3312L43.6488 22.4547C45.3858 21.7791 47.1982 20.6901 49.086 19.1875L49.8681 19.5392L49.9319 20.161C49.9558 20.3941 49.4749 20.8099 48.4892 21.4084L47.8585 22.5334C47.7123 23.1505 48.3354 24.1206 49.7277 25.4438L49.7556 25.7158C49.5311 26.0791 49.1791 26.2199 48.6995 26.1382C48.1654 26.036 47.4666 25.3485 46.6031 24.0758L46.1806 23.0196L44.5306 23.7779L43.862 23.7679L43.7225 23.9393L43.7464 24.1725C43.7916 24.6129 44.2775 25.1389 45.2042 25.7507C45.4891 25.7215 45.706 25.9217 45.8548 26.3515L45.8987 26.779L45.4025 27.3011L45.1305 27.329C42.8986 27.0082 41.6162 24.5873 41.2833 20.0664C41.1126 19.1677 41.5932 18.621 42.7251 18.4264L45.4651 15.2788ZM59.4751 15.9621L60.2812 16.547L60.349 17.2076C60.4738 17.4042 60.1829 17.6304 59.4761 17.8861C58.222 17.91 57.5352 19.381 57.4157 22.2991L57.4795 22.9208C57.5645 23.7498 57.255 24.3051 56.5509 24.5868C56.2971 24.6652 56.0271 24.4572 55.7408 23.963L55.7069 22.867L55.8832 20.3751L55.7119 20.2356L54.2093 20.9002L53.9762 20.9241L53.2558 20.409L53.196 19.8261C53.1229 19.6242 53.5059 19.4017 54.3448 19.1585C55.3585 18.3216 56.9819 17.3043 59.2151 16.1066L59.4751 15.9621ZM50.3375 26.7948L50.9981 26.7271L51.4774 27.1884C50.5953 27.7763 50.0244 29.4841 49.7647 32.3118C49.4571 33.6522 49.951 35.7875 51.2464 38.7174C51.3168 38.8935 51.7373 39.1645 52.5078 39.5305C52.5915 39.836 52.7602 39.9496 53.014 39.8712C54.2827 39.4793 55.4053 38.6835 56.3817 37.4839L56.2302 36.0072L56.1445 35.9375L53.4055 37.9462L52.0146 38.1674L51.4616 37.753L51.332 37.2558C51.4363 36.4859 52.0328 36.176 53.1215 36.3261L55.8536 34.6322L56.1405 34.3672L56.0488 33.4735L55.8775 33.334C54.9754 34.238 53.7413 34.9667 52.175 35.5201L51.3151 35.1763L51.2433 34.4769C51.1364 34.1999 51.6409 33.8863 52.7568 33.5363L55.9771 31.2426C56.1796 30.4103 56.1026 29.659 55.7459 28.9888L51.8521 30.8411L51.3449 31.6392L50.9563 31.6791C50.7179 31.6512 50.5594 31.5103 50.4811 31.2566C50.8058 29.574 52.7806 28.1542 56.4054 26.997C57.0199 27.1172 57.3915 27.5503 57.5204 28.2963L57.5772 30.7643C58.0269 31.3203 57.9977 32.0562 57.4896 32.9723L58.0955 38.8788C58.2881 39.2255 57.8557 39.3484 56.7982 39.2474C56.5856 39.2169 55.5301 39.9011 53.6317 41.3L52.9403 41.4495C50.8067 41.0662 49.3642 39.3817 48.6129 36.3959L48.0768 33.4666L48.5959 29.7222C48.5839 29.0952 49.1645 28.1194 50.3375 26.7948ZM47.9106 42.9471C48.2626 42.8063 48.6482 43.1201 49.0674 43.8887C51.094 45.0159 53.1549 45.328 55.2499 44.8252L55.507 45.0344L55.5349 45.3064C55.1151 46.3181 53.6481 46.6911 51.1339 46.4254C49.5815 46.349 48.2763 45.6191 47.2181 44.2354L47.1862 43.9246C47.2061 43.6084 47.4476 43.2826 47.9106 42.9471ZM59.7674 42.1628C59.9973 41.8513 61.1697 42.3069 63.2847 43.5298L63.7211 43.9562L63.7888 44.6168C63.6161 44.9748 63.3328 45.1479 62.9389 45.1359L59.3081 43.4272C59.1527 43.4431 59.0703 43.1505 59.061 42.5494L59.7674 42.1628Z" fill="#3E3E3E"/>
<path d="M88.3202 17.7153L88.9808 17.6475C89.1827 17.5745 89.5345 17.8133 90.036 18.3639L89.5209 19.0843C89.4093 20.0382 89.8474 22.1398 90.8352 25.3893L94.9054 24.1079L96.918 23.823C99.2602 23.6874 100.783 24.4998 101.487 26.26C101.959 28.3059 101.219 30.7902 99.2676 33.7129L98.5373 33.8664C98.1739 33.6419 98.5017 32.6266 99.5207 30.8205C100.003 29.9071 100.283 28.8051 100.36 27.5145L100.3 26.9316C99.6588 25.5314 98.1751 24.9767 95.8489 25.2677C94.3776 25.471 92.8193 26.1021 91.174 27.1609C91.5852 28.8727 92.3145 30.879 93.3621 33.18C93.1901 33.7997 92.8682 34.1076 92.3966 34.1036L84.6817 32.7746L83.3425 31.9695C83.1818 31.9337 83.0914 31.5633 83.0715 30.8586C82.7766 30.0249 84.839 28.439 89.2589 26.1008C88.4704 23.7733 88.0801 21.1169 88.0881 18.1318L88.3202 17.7153ZM89.4263 27.7328C87.8966 28.3872 86.4934 29.3819 85.2167 30.717L84.9806 31.0947C84.9354 31.6752 86.8979 32.0498 90.8682 32.2185L91.0076 32.0471L89.5738 27.6392L89.4263 27.7328Z" fill="#3E3E3E"/>
<path d="M135.111 7.22178L135.344 7.19787C136.084 7.77642 136.411 8.5413 136.325 9.49251L136.639 10.6383L137.062 10.1631L137.706 9.93986C137.857 9.8721 138.149 10.0385 138.582 10.439L138.692 10.7419C138.926 10.9797 138.458 11.5251 137.289 12.378C136.623 12.2631 136.422 13.2392 136.686 15.3064L137.123 18.7957C137.307 19.0647 139.065 18.2038 142.394 16.213L142.915 15.924C143.689 15.8184 144.181 16.0167 144.389 16.5188C145.491 18.5787 144.447 21.8009 141.258 26.1857C140.84 26.9616 139.908 27.6986 138.461 28.3967L138.828 31.9717L139.715 33.7263L139.888 34.6509C139.928 35.0395 139.769 35.2783 139.412 35.3673L138.673 35.4431C137.823 35.3209 137.362 33.5095 137.291 30.0089L137.341 29.7289L137.285 29.1849C137.287 28.6873 137.09 28.4326 136.696 28.4206C136.344 28.5615 135.952 28.1829 135.52 27.2848L135.332 26.9899L135.247 26.9201C134.877 28.1623 133.376 30.3713 130.743 33.5471C130.537 33.8301 130.234 33.9397 129.834 33.8759L129.5 33.6746L129.444 33.1306C132.078 30.4782 133.963 27.4183 135.099 23.9509L135.724 22.002L133.98 22.6128L133.32 22.6806C132.472 22.5843 131.886 21.9768 131.562 20.8582C131.449 20.2677 131.563 18.6984 131.904 16.1504L131.75 15.42C131.664 15.0886 132.04 14.8013 132.879 14.5581L135.183 12.5155L135.278 11.9167L134.943 8.65258L135.111 7.22178ZM135.04 14.572L133.601 15.8584C133.791 15.9175 133.692 17.3805 133.306 20.2474L133.326 20.4417L133.707 20.7167C134.609 20.5719 135.373 20.2447 136.002 19.7353L135.265 14.4704L135.04 14.572ZM142.464 17.6587L138.246 20.1726C137.381 20.4184 137.482 22.6855 138.551 26.9739L138.706 26.9579C140.946 25.3146 142.302 23.2251 142.775 20.6897C143.342 19.5844 143.394 18.5581 142.931 17.6109L142.464 17.6587ZM136.542 24.2349L135.777 25.9626L135.552 26.0642L135.452 26.6242L135.755 26.5146C135.983 26.4389 136.345 26.6504 136.841 27.1493L137.074 27.1254C137.152 26.3581 136.975 25.3947 136.542 24.2349ZM124.169 14.627L124.596 14.5832L125.729 15.2916L125.737 15.3693L125.512 15.4709L125.691 15.6881C125.39 15.5619 125.156 15.9525 124.987 16.8599L124.787 17.5872L125.079 17.7536L125.3 17.6131C126.888 17.5287 127.828 18.6497 128.118 20.9759L128.515 21.0137C129.004 20.6756 129.306 20.553 129.42 20.646C130.32 20.9987 130.016 21.6059 128.507 22.4674C128.123 22.2974 127.746 23.0822 127.374 24.8219L126.911 26.0474L129.351 27.25L130.442 28.3161L130.474 28.627L129.951 29.2697L129.057 29.3613C128.746 29.3932 128.418 29.1259 128.072 28.5593L126.071 27.4294L124.746 29.0575C124.606 29.2289 124.277 29.2103 123.758 29.0017L123.735 28.7686L124.788 27.1684L124.764 26.9352L122.747 25.6499L120.122 26.469C119.687 26.566 119.375 26.467 119.188 26.1721L118.884 25.8891L118.86 25.656L118.879 25.4577L119.314 25.099L119.877 24.8449L120.106 24.7821L120.257 24.7273L120.793 24.5938C120.992 24.4948 121.218 24.3932 121.469 24.2889C121.842 24.3553 121.942 23.7954 121.768 22.609L123.129 18.2678L123.231 17.3541C123.181 16.8619 123.332 16.1658 123.685 15.2657L124.169 14.627ZM124.559 18.4351C124.21 18.6019 123.79 20.124 123.3 23.0016L123.25 23.2815L123.732 23.3891L126.205 22.2323L126.702 21.7102C126.737 20.2668 126.234 19.3236 125.194 18.8805L124.559 18.4351ZM125.884 24.0716L124.661 24.786L124.763 25.0112L125.716 25.5024L126.133 24.2031L126.117 24.0477L125.884 24.0716Z" fill="#3E3E3E"/>
<path d="M174.902 3.14005L175.135 3.11613C175.875 3.69468 176.202 4.45956 176.117 5.41077L176.431 6.5566L176.853 6.08132L177.498 5.85812C177.648 5.79037 177.94 5.95676 178.373 6.35729L178.483 6.66019C178.717 6.89799 178.249 7.44334 177.08 8.29626C176.414 8.18135 176.213 9.15747 176.477 11.2246L176.914 14.7139C177.099 14.9829 178.856 14.122 182.186 12.1312L182.706 11.8423C183.48 11.7367 183.972 11.9349 184.18 12.4371C185.282 14.4969 184.238 17.7192 181.049 22.104C180.631 22.8798 179.699 23.6168 178.252 24.315L178.619 27.89L179.506 29.6446L179.679 30.5692C179.719 30.9578 179.56 31.1966 179.203 31.2856L178.465 31.3613C177.614 31.2391 177.154 29.4277 177.082 25.9271L177.132 25.6471L177.076 25.1031C177.078 24.6056 176.882 24.3509 176.488 24.3389C176.136 24.4797 175.743 24.1011 175.311 23.2031L175.124 22.9081L175.038 22.8384C174.668 24.0805 173.167 26.2895 170.534 29.4654C170.328 29.7483 170.025 29.8579 169.626 29.7942L169.291 29.5929L169.235 29.0489C171.869 26.3965 173.754 23.3366 174.89 19.8692L175.515 17.9203L173.771 18.5311L173.111 18.5988C172.263 18.5025 171.677 17.8951 171.353 16.7765C171.24 16.186 171.354 14.6167 171.695 12.0686L171.541 11.3383C171.455 11.0068 171.831 10.7195 172.67 10.4764L174.974 8.43379L175.07 7.83497L174.735 4.57084L174.902 3.14005ZM174.831 10.4903L173.393 11.7767C173.582 11.8358 173.483 13.2988 173.097 16.1657L173.117 16.36L173.498 16.635C174.4 16.4902 175.165 16.163 175.793 15.6535L175.057 10.3887L174.831 10.4903ZM182.255 13.577L178.037 16.0909C177.172 16.3367 177.274 18.6038 178.342 22.8921L178.497 22.8762C180.737 21.2328 182.093 19.1434 182.566 16.6079C183.134 15.5026 183.185 14.4764 182.722 13.5291L182.255 13.577ZM176.333 20.1531L175.568 21.8809L175.343 21.9825L175.243 22.5425L175.546 22.4329C175.774 22.3571 176.136 22.5687 176.632 23.0675L176.865 23.0436C176.944 22.2764 176.766 21.3129 176.333 20.1531ZM163.96 10.5453L164.387 10.5014L165.52 11.2098L165.528 11.2875L165.303 11.3892L165.482 11.6064C165.182 11.4802 164.947 11.8708 164.778 12.7781L164.578 13.5055L164.87 13.6719L165.091 13.5314C166.679 13.447 167.619 14.5679 167.91 16.8941L168.306 16.932C168.795 16.5939 169.097 16.4713 169.211 16.5643C170.111 16.917 169.807 17.5241 168.298 18.3857C167.914 18.2156 167.537 19.0005 167.165 20.7401L166.702 21.9657L169.142 23.1683L170.233 24.2344L170.265 24.5453L169.742 25.1879L168.848 25.2796C168.538 25.3115 168.209 25.0441 167.863 24.4775L165.862 23.3477L164.537 24.9758C164.398 25.1471 164.068 25.1286 163.55 24.92L163.526 24.6868L164.579 23.0866L164.555 22.8535L162.538 21.5682L159.913 22.3873C159.478 22.4842 159.167 22.3853 158.979 22.0903L158.675 21.8074L158.651 21.5742L158.67 21.376L159.105 21.0172L159.668 20.7632L159.897 20.7004L160.048 20.6456L160.584 20.5121C160.784 20.4131 161.009 20.3115 161.26 20.2072C161.633 20.2736 161.733 19.7136 161.559 18.5273L162.92 14.186L163.022 13.2724C162.972 12.7802 163.123 12.084 163.476 11.184L163.96 10.5453ZM164.351 14.3534C164.001 14.5201 163.581 16.0423 163.091 18.9198L163.041 19.1998L163.524 19.3074L165.997 18.1506L166.493 17.6285C166.528 16.1851 166.026 15.2418 164.985 14.7988L164.351 14.3534ZM165.675 19.9899L164.452 20.7043L164.554 20.9295L165.507 21.4207L165.924 20.1214L165.908 19.966L165.675 19.9899Z" fill="#3E3E3E"/>
</g>
<defs>
<clipPath id="clip0">
<rect width="186" height="55" fill="white"/>
</clipPath>
</defs>
</svg>
