<svg width="186" height="55" viewBox="0 0 186 55" fill="none" xmlns="http://www.w3.org/2000/svg">
<g clip-path="url(#clip0)">
<path d="M4.83745 21.8514C5.03407 21.7265 6.05502 21.7265 7.90031 21.8513C8.53732 21.6813 9.2308 21.8065 9.98075 22.2269L10.3315 22.5836L10.3833 23.0888C10.0299 23.7271 9.72603 23.9546 9.47162 23.7713C8.93424 23.3814 7.99731 23.3073 6.66084 23.5492C5.94611 23.7272 5.19983 23.7252 4.42199 23.5432C3.98822 23.1427 3.76337 22.8647 3.74743 22.7092C3.77465 22.2091 4.13799 21.9231 4.83745 21.8514ZM9.37001 25.0776L9.7586 25.0377L10.3156 25.491L10.3714 26.0351C10.556 26.3041 10.0233 26.7252 8.77321 27.2985L6.72767 28.4115C9.0758 28.5894 10.4751 29.5978 10.9254 31.4364C11.2974 32.0003 11.1809 33.0333 10.5758 34.5351L11.2304 35.1748L10.8867 36.0347L12.2896 37.4615L12.5447 38.417C12.0658 39.618 11.1252 40.6569 9.72297 41.5337C9.4121 41.5656 9.41743 42.6383 9.73896 44.752L9.93425 45.1246C10.5301 45.0635 11.8961 44.2166 14.0323 42.5838L14.7686 41.7229L15.2658 41.5934C15.8616 41.5323 16.3004 41.8538 16.582 42.5579L16.4585 42.8847C16.7993 43.3995 16.0802 43.9183 14.3014 44.441C12.9118 45.1857 11.6417 46.0751 10.4913 47.1094L10.3328 47.4791L11.3382 50.0068L12.2539 50.8946L12.3217 51.5552C12.4572 51.8554 12.2908 52.1474 11.8225 52.431L11.5893 52.4549C11.4498 52.6263 10.5142 52.0547 8.78252 50.7402C8.05782 50.0554 6.71436 49.5911 4.75216 49.3473C4.11381 48.994 4.22905 48.4586 5.09788 47.7412C5.72294 47.965 6.87076 47.4153 8.54133 46.0921L8.04909 43.5902L7.84582 43.1399C7.36026 43.7656 6.32138 44.3565 4.72918 44.9125L4.1463 44.9723C3.33791 45.0028 2.82544 44.7282 2.60888 44.1483C2.6567 43.5936 2.94996 43.2625 3.48867 43.1549C3.77696 43.4133 4.16056 43.4525 4.63948 43.2724C5.32299 43.0453 6.35257 42.3637 7.72822 41.2278L7.24394 38.8037L5.21036 40.0332C4.67697 40.1926 4.33056 40.0057 4.17113 39.4723C3.66961 38.9216 4.66465 37.9033 7.15623 36.4173C7.82379 36.0347 8.4515 35.2635 9.03934 34.1037L9.01941 33.9094C8.47805 33.9911 7.78856 33.9048 6.95093 33.6504L7.17611 33.5488L3.67285 33.0835C3.22182 33.0251 2.81563 32.7657 2.45427 32.3054C2.29884 32.3213 2.21381 32.0028 2.19919 31.3498C2.27889 31.1061 2.59076 30.9563 3.13478 30.9005C2.99861 31.3595 4.63101 31.8334 8.03198 32.3222L9.47872 32.645L9.61822 32.4736L9.57437 32.0462C8.89748 30.8067 7.79448 30.1345 6.26538 30.0296C6.15179 30.1983 5.96347 30.0213 5.70042 29.4985L5.71038 28.83L4.67714 29.093L4.12414 28.6785C3.43796 27.8589 4.38451 27.1335 6.96378 26.5024C7.35237 26.4625 8.15444 25.9876 9.37001 25.0776ZM9.49872 37.4336C9.0849 37.7378 8.97431 38.5738 9.16697 39.9415L9.40012 39.9176L11.0441 38.3353L11.082 37.9387L10.2759 37.3539L9.49872 37.4336ZM8.96283 48.2871L8.48956 48.6498L9.02661 48.9089L9.25976 48.885L9.21193 48.4186L9.04055 48.2792L8.96283 48.2871ZM21.474 25.171L22.0648 25.189C22.3757 25.1571 22.6158 25.3288 22.7852 25.7041L22.8171 26.0149C22.8902 26.2169 22.402 26.8167 21.3525 27.8144C20.9333 28.0668 20.0213 29.6395 18.6165 32.5323C18.4351 32.5509 18.2615 33.5373 18.0954 35.4915L18.1273 35.8024C18.8587 36.0415 21.6824 34.7309 26.5984 31.8706L27.4454 31.7052C28.5719 32.4797 28.2418 33.0895 26.455 33.5345L25.9269 33.7458L23.971 34.9674L24.9656 43.8969L25.0871 44.3163L25.3651 45.1124C25.4767 46.2005 25.8082 47.1351 26.3595 47.9162C26.3768 48.5951 26.134 48.908 25.6312 48.8548C24.5624 48.3885 23.5241 44.1363 22.5164 36.0983L22.2633 35.9279C21.5652 36.5231 20.6153 36.9608 19.4137 37.2412C19.1652 37.3714 18.7179 37.2209 18.0715 36.7898L17.8444 37.6377L17.6162 39.6245C17.5936 39.9148 17.9793 40.7391 18.7731 42.0975C18.9551 42.3406 19.4964 42.7694 20.3972 43.3838L20.5506 44.1141L20.2637 44.3792L19.5642 44.4509C17.3024 43.5835 16.1958 41.4718 16.2442 38.116L17.0741 31.2769C18.0625 30.7043 19.0824 29.2908 20.1339 27.0363L21.474 25.171Z" fill="#3E3E3E"/>
<path d="M52.1235 24.226C52.2523 23.951 53.6283 24.4774 56.2515 25.8052C56.2674 25.9607 56.8168 25.9567 57.8995 25.7932C57.9134 26.1845 58.6209 26.1904 60.0218 25.8111L62.695 25.4584C63.2889 25.6331 63.5964 25.824 63.6177 26.0313L63.7552 26.6062C64.0236 27.1808 63.2251 27.5637 61.3599 27.755L59.0922 28.616C58.9368 28.6319 58.8501 29.1905 58.8322 30.2919L58.2434 35.6534C58.2646 35.8606 57.9893 36.1114 57.4174 36.4056L56.6791 36.4814C55.5446 36.6501 54.1164 34.9772 52.3946 31.4627C51.2275 32.0798 49.9498 32.5119 48.5616 32.759L48.6811 33.9248C49.3601 36.9704 50.9918 38.714 53.5764 39.1557C56.3869 39.7575 60.2402 38.7863 65.1363 36.2421L65.6345 36.5052L65.6704 36.8549C65.8504 37.3338 64.2137 38.2216 60.7603 39.5183C59.3109 40.1905 57.5447 40.5811 55.4616 40.6901C51.3665 41.3458 48.5557 39.0817 47.0292 33.8979C47.1434 32.97 46.5761 32.5438 45.3273 32.6196L44.6687 31.9411L44.6169 31.4359C44.5438 31.234 45.2682 30.767 46.79 30.035C46.6744 29.4185 46.9112 28.7922 47.5004 28.1558C48.0284 27.9446 48.7966 27.905 49.805 28.0372L50.1019 28.635C49.9505 29.2003 49.4576 29.4995 48.6233 29.5328C48.3802 29.7148 48.3011 30.2203 48.3862 31.0493C48.9979 31.1436 50.1438 30.8297 51.8237 30.1076L52.0329 29.8506C51.8775 29.8665 51.7194 28.8356 51.5586 26.7578L51.5765 24.6355L52.1235 24.226ZM53.4258 25.8202C52.9933 25.9431 53.0844 27.0856 53.6988 29.2477L57.0177 27.5329C57.1904 27.1749 56.6105 26.881 55.278 26.6512L53.4258 25.8202ZM56.937 29.426L54.2 30.6885C54.4099 31.7141 54.961 32.8749 55.8531 34.1708L56.2426 34.5235L56.3204 34.5155C57.0225 33.4487 57.2851 31.7987 57.1084 29.5655L56.937 29.426Z" fill="#3E3E3E"/>
<path d="M100.6 16.3868L101.183 16.327C102.747 16.7687 103.969 17.9654 104.85 19.9169L104.874 20.1501L104.494 20.6602L104.3 20.6802C104.1 20.7791 103.506 20.2119 102.515 18.9784C102.551 18.8176 101.757 18.3493 100.133 17.5735L100.023 17.2706C99.8903 16.9963 100.083 16.7017 100.6 16.3868ZM90.5297 19.6581L91.4942 19.8733L91.7094 20.4402C90.539 20.7697 89.4623 21.7571 88.4792 23.4025L86.2733 27.1628C86.6101 27.1283 86.825 28.5853 86.918 31.5339C87.017 33.7751 87.8029 35.5662 89.2755 36.9073C89.5346 36.8808 89.7099 37.0591 89.8016 37.4424C89.8003 37.9399 89.6701 38.202 89.411 38.2285L89.0613 38.2644C87.1011 37.7849 85.8035 35.4703 85.1684 31.3207C84.619 31.3247 84.2311 31.1158 84.0046 30.694L83.897 29.6448C84.1726 26.9726 85.9461 23.8456 89.2175 20.2639L90.5297 19.6581ZM94.4694 23.6126C94.5286 23.4233 95.6159 23.5605 97.7316 24.0241C98.8156 24.3841 100.282 24.3907 102.132 24.044L103.025 23.9523L103.831 24.5371L103.867 24.8869C104.071 25.3372 103.252 25.7746 101.41 26.1991L97.4666 28.3314L97.4905 28.5646C97.9236 29.7244 100.178 32.1764 104.253 35.9207L104.331 35.9127L105.226 33.5434L105.801 33.4058L106.152 33.7625C106.391 33.7904 106.33 35.1186 105.972 37.747L105.488 38.3857L104.905 38.4455C104.337 38.2682 103.859 37.8198 103.471 37.1004C100.771 35.0214 98.2505 32.4003 95.9103 29.2372L91.5003 31.4173L90.3814 31.6106L89.8324 31.235L89.7726 30.6521C89.6889 30.3465 90.4472 29.9546 92.0473 29.4763L94.9507 27.922L95.0902 27.7506C94.893 27.6137 94.5764 26.442 94.1406 24.2354C94.1167 24.0022 94.2263 23.7946 94.4694 23.6126ZM96.1015 24.9766L95.8883 25.1949L96.4523 26.8648L96.5848 27.0083L99.3836 25.5824C99.3676 25.427 98.9256 25.3283 98.0574 25.2865L96.1015 24.9766Z" fill="#3E3E3E"/>
<path d="M132.455 6.52224L132.766 6.49035L133.175 7.03736C132.584 7.64781 131.924 8.48777 131.196 9.55722C130.881 10.0607 130.704 10.7595 130.665 11.6536L130.732 12.3142C131.185 13.917 132.118 14.9732 133.531 15.4826L134.93 15.3391L135.852 13.988C134.928 14.4231 133.762 14.5427 132.354 14.3468L131.801 13.9323L131.734 13.2717L132.199 12.8313C134.117 12.8964 135.763 12.361 137.139 11.2251L137.177 10.8285C137.354 10.2606 136.181 10.0537 133.658 10.2078L133.015 9.68473L132.905 9.38183L133.273 8.75511L136.794 8.62951C137.613 8.70257 138.249 9.03004 138.701 9.61191C139.024 9.94536 139.161 10.3894 139.113 10.9441L138.799 12.8611C138.341 13.2484 137.772 13.9482 137.09 14.9605L137.308 15.1737L137.875 14.9585L138.288 15.1518L138.348 15.7346C138 16.6865 136.795 17.1897 134.733 17.2442C132.297 17.2323 130.5 15.7935 129.342 12.928L129.233 12.6251L129.117 11.4982C128.893 10.0813 129.616 8.58046 131.286 6.99554L132.455 6.52224ZM140.759 17.8041L141.342 17.7443L142.222 18.2823L142.281 18.8652C142.477 19.2378 141.462 19.8131 139.239 20.591L135.202 22.9684L134.307 23.8063C134.519 23.8369 134.54 25.0651 134.37 27.4909C134.228 28.3957 134.332 30.5578 134.682 33.9773L134.893 34.1128L143.879 27.9292L145.409 27.5366C145.855 27.5432 146.233 27.7794 146.542 28.245C147.118 28.5001 146.314 30.3627 144.131 33.8327L143.724 34.4634C144.104 34.8434 144.912 35.1924 146.149 35.5106C146.515 35.761 146.672 36.0197 146.621 36.2868L146.276 36.7541C146.225 37.0211 145.181 36.8009 143.146 36.0935L142.71 36.0596C142.024 37.2819 141.046 38.3377 139.776 39.2272L139.209 39.4424C138.83 39.3242 138.66 39.1976 138.699 39.0628L138.675 38.8296C139.591 38.3168 140.491 37.2689 141.376 35.686L141.368 35.6083L137.178 34.1925L135.006 35.986C135.064 37.3152 135.695 39.0044 136.9 41.0536L136.467 41.8048L135.845 41.8686C135.095 42.2074 134.505 41.0506 134.076 38.3983L133.426 36.6586L131.07 37.8035C130.205 38.0493 129.441 37.8789 128.779 37.2924L128.649 36.7952C128.623 36.5361 128.816 36.2545 129.23 35.9502L129.619 35.9104L130.265 36.4723L130.902 36.1714C128.536 35.0529 127.371 33.3922 127.407 31.1896C127.234 29.5057 128.287 27.395 130.566 24.8576C129.281 25.8533 127.484 26.5873 125.177 27.0596C124.965 27.2908 124.297 27.1629 123.174 26.6761L123.103 26.3692C123.069 26.0324 123.441 25.5754 124.219 24.9982L124.724 24.9463L125.243 25.4037C125.531 25.9238 128.654 24.4647 134.61 21.0265L140.759 17.8041ZM132.696 24.9532L130.242 27.4432L129.62 28.6458L131.876 28.0609L132.852 28.0001C133.018 28.0878 133.042 27.8105 132.924 27.1681L132.953 25.1624L132.696 24.9532ZM131.834 29.5575C131.197 29.7275 130.597 30.0115 130.036 30.4094C130.092 30.9534 129.69 31.2434 128.83 31.2792L129.043 32.5925L129.214 32.732C130.024 32.2039 131.266 31.6837 132.942 31.1716L133.221 30.8288C132.723 30.8275 132.403 30.3891 132.261 29.5136L131.834 29.5575ZM144.442 29.2066C143.634 29.4988 141.796 30.7214 138.928 32.8743C139.035 33.1513 139.786 33.4538 141.181 33.782L142.274 34.1018C143.136 32.8091 143.9 31.3302 144.567 29.6649L144.613 29.346L144.442 29.2066ZM132.751 32.7618L130.321 33.9535L130.337 34.1089C130.836 34.6337 131.584 34.9103 132.582 34.9389L133.376 33.8757L133.264 32.7877L132.751 32.7618Z" fill="#3E3E3E"/>
<path d="M172.348 1.13426C173.085 0.66595 174.667 1.28899 177.095 3.00339L176.945 3.84334C177.477 3.91972 177.785 4.63411 177.872 5.98653C177.353 8.84082 174.69 11.7187 169.883 14.6202C169.969 14.9517 170.241 14.9238 170.699 14.5365L171.072 14.3412L175.892 13.1007L179.484 11.7505L179.926 11.4696C180.12 11.3188 180.446 11.5602 180.904 12.1939L180.944 12.5825C180.692 13.446 178.531 15.3431 174.459 18.2739L173.102 19.5911L172.877 19.6927C172.852 19.9571 173.277 20.1491 174.154 20.2686C174.468 20.5244 175.241 20.7854 176.472 21.0517L176.681 20.7947C176.737 20.3177 176.622 19.963 176.337 19.7306L176.812 18.6216L177.519 18.6275L178.956 19.6189C179.499 20.0606 179.728 20.3775 179.643 20.5695L179.666 20.8026C179.718 21.5565 179.04 22.2281 177.635 22.8173C177.685 23.3095 177.825 23.6486 178.053 23.8346C178.752 23.5011 179.475 23.27 180.221 23.1411L180.638 23.7658C180.453 24.256 180.062 24.5317 179.466 24.5928L178.014 24.9774L177.547 25.0253L173.145 30.346C173.284 30.6721 174.33 30.4077 176.284 29.5528L177.698 29.1722L178.941 29.0446L179.984 29.6444L180.19 30.8799L178.687 33.076L177.734 34.1162C177.771 34.4789 178.574 34.7761 180.142 35.0079L180.443 35.6446C180.319 35.9714 179.996 36.1355 179.472 36.1368L176.381 35.4723C175.363 36.7809 173.817 38.039 171.742 39.2466L170.569 39.6811C170.297 39.8398 170.005 39.6734 169.693 39.1819L169.661 38.871L169.854 38.4585L170.858 38.6697C171.952 38.1124 173.287 36.9546 174.86 35.1963L174.852 35.1186L172.012 33.8393C171.446 33.6879 170.776 33.0236 170.001 31.8466L169.925 31.1083L170.208 30.8044L170.881 30.8532L172.473 28.7657C172.665 28.8508 172.929 28.4964 173.267 27.7026L173.646 27.1925L174.285 26.1452L172.094 26.6056C171.183 26.9085 170.104 26.6003 168.858 25.681C168.453 25.5654 168.299 24.8222 168.394 23.4511L166.59 25.0105L166.501 25.2945L167.288 25.685L167.456 26.1782L166.913 26.6266L166.26 26.7721C165.649 26.6778 165.172 26.3732 164.832 25.8584L164.706 25.4001C165.669 24.0709 167.958 22.0167 171.574 19.2374L173.803 16.8491C174.433 17.1247 175.107 16.676 175.824 15.5029C176.13 15.4192 176.519 14.9998 176.991 14.2445L174.505 14.8922C174.437 14.7421 172.066 15.4827 167.39 17.1142C167.11 16.9335 166.597 16.9076 165.851 17.0365C165.623 17.1122 165.232 16.8774 164.679 16.3321L164.488 15.9983C164.461 15.7392 164.653 15.4446 165.065 15.1145C167.53 14.6522 169.822 13.3831 171.938 11.3073L171.93 11.2295C170.974 11.0921 169.38 10.6142 167.15 9.79583C166.59 9.6962 166.119 9.3126 165.736 8.64503C165.644 8.26176 165.765 7.90904 166.099 7.58688L167.38 7.06276L168.445 7.11058L168.918 6.74789C169.52 6.73858 171.194 5.9647 173.942 4.42626C174.206 4.4515 174.451 4.15158 174.674 3.52652C174.287 3.06886 173.492 2.84933 172.29 2.86795C171.955 2.66669 171.729 2.37575 171.612 1.99514C171.9 1.49429 172.146 1.20733 172.348 1.13426ZM175.467 4.74109L175.063 5.01809C174.886 4.82679 173.639 5.2951 171.32 6.42303L171.336 6.57847L174.006 8.11086L174.636 8.1248C175.433 7.72889 175.898 7.15763 176.031 6.41101L176.232 6.07622C176.306 5.78063 176.051 5.33559 175.467 4.74109ZM169.805 6.97106C169.448 7.06008 168.837 7.48919 167.974 8.25841L167.99 8.41384C169.098 9.007 170.638 9.47727 172.611 9.82464L173.294 9.59746L173.287 9.51974L170.967 8.34405L169.805 6.97106ZM171.562 20.6523L169.592 22.5036L170.008 22.3431L171.093 22.5852L171.117 22.8184C171.074 23.4249 170.685 23.8443 169.95 24.0768L169.853 24.2831C170.013 25.0782 170.907 25.3661 172.533 25.1469L175.019 24.4992L175.714 23.996L175.334 22.9748L175.644 22.5503L175.632 22.4337L173.162 21.7054C172.649 21.5487 172.232 21.1857 171.912 20.6164L171.562 20.6523ZM178.249 30.333L173.787 32.0079L173.193 32.3437L173.201 32.4214C173.874 33.1116 174.875 33.5586 176.205 33.7625C176.917 33.2969 177.693 32.3141 178.534 30.8142L178.506 30.5422L178.249 30.333ZM181.804 28.2405L182.231 28.1967C183.086 28.109 184.121 28.6311 185.337 29.7629L185.576 30.563C185.649 30.7649 185.427 30.8925 184.909 30.9456C184.375 30.0841 183.106 29.8347 181.101 30.1974C180.769 30.0221 180.624 29.6311 180.667 29.0247C180.788 28.672 181.167 28.4106 181.804 28.2405Z" fill="#3E3E3E"/>
</g>
<defs>
<clipPath id="clip0">
<rect width="186" height="55" fill="white"/>
</clipPath>
</defs>
</svg>
