<svg width="186" height="55" viewBox="0 0 186 55" fill="none" xmlns="http://www.w3.org/2000/svg">
<g clip-path="url(#clip0)">
<path d="M7.57807 28.1482L8.23867 28.0804C8.4406 28.0074 8.79232 28.2462 9.29384 28.7968L8.77872 29.5172C8.66714 30.4711 9.10525 32.5727 10.093 35.8222L14.1632 34.5408L16.1759 34.2559C18.518 34.1203 20.0412 34.9327 20.7453 36.6929C21.2169 38.7388 20.477 41.2231 18.5255 44.1458L17.7951 44.2993C17.4318 44.0748 17.7596 43.0595 18.7785 41.2534C19.2608 40.34 19.5404 39.238 19.6174 37.9474L19.5576 37.3645C18.9166 35.9643 17.433 35.4096 15.1068 35.7006C13.6355 35.9039 12.0772 36.535 10.4318 37.5938C10.843 39.3056 11.5724 41.3119 12.62 43.6129C12.4479 44.2326 12.1261 44.5405 11.6545 44.5365L3.93953 43.2075L2.60039 42.4024C2.43964 42.3666 2.34929 41.9962 2.32936 41.2915C2.03442 40.4578 4.09689 38.8719 8.51678 36.5337C7.72828 34.2062 7.33799 31.5498 7.34592 28.5647L7.57807 28.1482ZM8.6842 38.1657C7.15444 38.82 5.75122 39.8148 4.47455 41.1499L4.23842 41.5276C4.19326 42.1081 6.15579 42.4827 10.126 42.6514L10.2655 42.48L8.83166 38.0721L8.6842 38.1657Z" fill="#3E3E3E"/>
<path d="M48.8388 15.0413L49.3828 14.9855C50.0843 14.6779 50.6549 15.9021 51.0946 18.6581L51.3517 18.8673C51.5516 19.0301 52.9412 18.2854 55.5205 16.6334L56.1343 16.4919C57.031 16.557 57.5372 16.8977 57.6528 17.5141C57.8348 19.7992 56.9056 22.2244 54.865 24.7897L53.7531 24.6682L53.1234 26.1857C53.7963 25.8549 55.5346 25.7027 58.3384 25.7293L59.3238 26.5313L59.5052 27.5337C59.658 28.5128 58.1873 29.9987 55.0933 31.9915L52.4141 34.5831L56.1405 32.6302L57.3062 32.5106C57.8795 32.7398 58.2664 33.0666 58.467 33.491C59.2329 34.0669 58.404 36.7043 55.9802 41.4033L55.0327 41.7361L53.7991 41.1951C53.9054 42.2313 53.569 42.9072 52.7898 43.2227L51.8184 43.3224C50.1411 43.0494 48.9528 41.9278 48.2533 39.9576L48.1217 38.6753C48.2307 36.6746 51.3386 33.0311 57.4457 27.7449L57.5573 27.3015C56.2062 26.8904 54.4492 27.3717 52.2865 28.7454C51.9995 29.0104 51.6836 29.1213 51.3389 29.0782C51.137 29.1512 50.841 28.946 50.4511 28.4624C50.111 28.2093 50.4325 27.2601 51.4156 25.6148C51.7318 25.6347 52.2239 24.0528 52.8921 20.869L52.918 20.3559L52.7467 20.2164C52.2319 20.5572 51.6208 20.7246 50.9133 20.7186C49.6014 20.4343 48.8345 18.9554 48.6126 16.2818L48.3815 15.5594L48.8388 15.0413ZM55.5096 18.4408L54.0778 19.4123C54.402 19.5099 54.6604 19.7321 54.853 20.0789L54.9028 21.3303L55.0583 21.3144C55.3193 21.052 55.5803 20.2791 55.8414 18.9958L55.6959 18.3432L55.5096 18.4408ZM56.4633 34.2463C56.3491 34.1533 54.8496 34.9747 51.9647 36.7104L51.3898 36.8479L50.6077 36.4962C50.0158 37.1067 49.6774 38.0183 49.5924 39.2313C49.8701 40.407 50.5589 41.2526 51.6589 41.768L53.4723 41.0715L53.5421 40.9858C52.8585 40.1921 52.374 39.1685 52.0883 37.915L52.0564 37.6041L52.5257 37.2026L52.9143 37.1627L53.8678 37.6539L54.1369 37.9798L53.9914 38.8586L54.7955 40.1897L54.9669 40.3292C55.3754 39.9731 55.9954 38.2341 56.827 35.1121C56.8775 34.5834 56.7563 34.2948 56.4633 34.2463ZM40.0857 21.201C40.1216 21.0402 41.2608 21.1721 43.5033 21.5965C43.7783 21.7254 44.9673 21.5772 47.0703 21.1521C47.7392 21.2929 48.087 21.4928 48.1135 21.7519L48.251 22.3268L47.6811 22.8957C47.5901 22.7742 46.1885 22.8917 43.4764 23.2485C41.9221 23.4079 40.6228 22.9915 39.5786 21.9991L39.5427 21.6494C39.5268 21.4939 39.7078 21.3445 40.0857 21.201ZM50.0405 21.3971L50.2348 21.3772L50.458 22.0219C50.6919 24.3016 48.1083 27.3153 42.7073 31.0631C42.0756 31.2849 41.5193 31.0933 41.0384 30.4882L40.9866 29.983L42.2848 28.4755L42.79 28.4237L43.2653 28.8461L43.4984 28.8222C45.3656 27.3741 47.1401 25.6607 48.822 23.6818L50.0405 21.3971ZM57.7817 43.6531C58.7502 43.3966 60.3334 43.9018 62.5314 45.1685C62.8456 45.4242 63.0034 45.8138 63.0047 46.3372C62.9855 46.9151 62.74 47.2021 62.2684 47.1981C61.9994 47.3828 61.5138 46.9875 60.8117 46.0124L58.0806 45.036C57.5579 45.2991 57.1583 45.1045 56.882 44.4522C56.9896 43.9699 57.2895 43.7035 57.7817 43.6531ZM45.7405 45.3202L45.9348 45.3002C46.0278 45.186 46.604 45.5719 47.6635 46.458C48.0933 47.3302 49.3557 48.0253 51.4508 48.5434C51.674 48.6775 52.5013 48.4487 53.9327 47.8568L54.2436 47.8249L54.3652 48.2444C53.7826 49.456 52.7385 49.9951 51.2326 49.8616C49.3255 49.9001 47.3288 48.8091 45.2423 46.5886L45.1786 45.9668L45.7405 45.3202Z" fill="#3E3E3E"/>
<path d="M85.601 10.5242C85.9956 9.77687 86.6432 9.71044 87.5439 10.3249C88.1418 11.0489 89.5271 12.1764 91.6999 13.7075L91.7636 14.3292C92.0911 14.7145 91.0861 15.3804 88.7486 16.327L86.5556 17.5336C86.6446 17.891 87.5474 17.7591 89.2638 17.138L92.1343 16.4116C92.766 16.1898 93.334 16.3671 93.8381 16.9437L93.9139 17.682C93.6987 18.6465 92.9019 19.6837 91.5236 20.7937C91.4904 20.9804 91.9946 21.0465 93.0361 20.992L94.6423 21.3377L95.2501 21.9036L95.3258 22.6419C95.3006 22.9063 94.9395 23.0873 94.2428 23.185C94.171 22.4855 93.3218 22.2454 91.695 22.4646L90.3021 21.9007L86.3754 26.1124L85.9669 27.4894L85.6252 27.603C85.0758 27.607 84.7553 27.4174 84.6637 27.0341L84.6278 26.6844C84.2565 26.3822 86.4793 23.6803 91.2964 18.5788L91.5714 18.1972L91.5515 18.0029L86.999 19.1767L85.6001 19.3202C84.5506 19.2969 83.885 18.9333 83.6034 18.2292L83.5635 17.8406C83.436 17.6181 85.0361 16.6293 88.364 14.8743L89.4152 14.0204C88.6679 13.6258 87.4995 12.6986 85.9099 11.2386C85.6475 10.9775 85.5445 10.7394 85.601 10.5242ZM94.739 25.7257L95.3996 25.658C95.747 25.727 96.0416 25.9193 96.2834 26.2349L96.3192 26.5846C96.4734 27.0662 95.8599 27.849 94.479 28.9331C95.5006 30.2157 96.8261 31.2709 98.4556 32.0985L99.4908 32.6206L99.5506 33.2035C99.7459 33.5761 98.606 34.2035 96.1311 35.0857L94.489 35.9216C94.408 36.6629 94.8073 39.7896 95.6868 45.3015C95.7865 45.7625 95.5503 46.1401 94.9784 46.4344L94.551 46.4782C94.2454 46.5619 93.8977 46.362 93.5078 45.8784C93.2341 45.2521 93.3845 44.2942 93.9591 43.0049L93.2277 38.1715L92.9746 38.0011C92.3143 38.1997 91.1296 39.5385 89.4206 42.0175C89.4339 42.1471 89.1672 42.2268 88.6205 42.2567L88.483 41.6818L90.1269 38.5681L90.7078 37.7231C89.8955 38.2253 88.7589 38.6299 87.2982 38.9368L86.0548 39.0643C85.443 38.97 84.9212 38.6047 84.4894 37.9683L84.4297 37.3855C84.061 37.1091 87.0198 33.926 93.3062 27.8361L93.2086 27.6498C92.0408 28.0051 90.6509 28.6189 89.0388 29.4911L84.589 31.2827C84.3485 31.4906 83.8573 31.4232 83.1153 31.0804L82.9858 30.5832C82.8762 30.2803 83.4986 29.9678 84.853 29.6456C85.1094 29.5931 85.587 29.4002 86.2858 29.0667L86.7013 28.9063L87.0819 28.7887L89.4542 27.7993C90.3158 27.2659 92.0773 26.5747 94.739 25.7257ZM92.3029 30.6877L87.8552 34.7958L86.251 36.7667L85.9691 37.4632C86.9189 38.0464 89.2295 37.2203 92.9008 34.9851L92.4703 30.7883L92.3029 30.6877ZM94.1761 30.5741C94.0114 31.0099 94.0326 32.2381 94.2399 34.2587L94.4113 34.3982L97.4084 32.9913L97.4004 32.9135L94.7988 30.9029L94.2259 30.2941L94.1761 30.5741Z" fill="#3E3E3E"/>
<path d="M138.324 9.63163L138.985 9.56387L139.573 9.93551L139.659 10.3978L139.603 10.9927L139.735 11.1361L141.602 10.1985C142.1 10.1998 142.366 10.3689 142.4 10.7057L142.432 11.0165C142.726 11.3267 142.092 11.7844 140.531 12.3896C139.87 12.0648 139.36 13.0987 139.004 15.4913C138.652 15.6321 138.485 16.1728 138.503 17.1134L137.234 18.1467L137.25 18.3021C138.543 19.1643 140.936 19.521 144.428 19.3721C144.805 19.7262 144.956 20.051 144.882 20.3466C144.65 20.8939 143.639 20.9975 141.851 20.6575C141.623 20.9949 139.677 20.7757 136.011 20L135.7 20.0318C134.564 20.6981 133.066 22.6842 131.206 25.9902C131.298 26.3735 131.133 26.6784 130.711 26.9049L130.486 27.0065L129.859 26.6389L129.784 25.9006C130.282 24.3834 132.671 21.1279 136.949 16.134C137.856 16.041 138.176 15.4584 137.909 14.3863L137.943 13.9509L137.771 13.8114L136.044 14.5777C135.546 14.5764 135.171 14.3661 134.919 13.947L134.867 13.4418C134.846 13.2346 135.383 12.9832 136.478 12.6875L137.977 11.9841L137.963 11.0824C137.844 10.44 137.965 9.95646 138.324 9.63163ZM129.913 11.0835C130.244 10.9971 130.829 11.3429 131.668 12.1207L134.126 11.201C135.43 12.1668 134.907 12.9403 132.558 13.5216C132.227 13.6079 132.024 13.7989 131.949 14.0945C132.114 14.6797 132.742 15.4399 133.833 16.3752L133.958 16.8335L133.609 17.2619L133.182 17.3058C132.622 17.2062 131.714 16.3961 130.459 14.8757C130.157 15.247 129.718 15.436 129.143 15.4426L128.508 14.9973L128.363 14.3446C128.584 13.9554 129.054 13.5538 129.77 13.14L129.533 11.5936L129.913 11.0835ZM119.101 16.3156C119.186 16.1236 119.749 16.2492 120.789 16.6922C121.632 16.9984 123.396 16.8436 126.082 16.2278C127.566 16.9133 127.276 17.6629 125.213 18.4767L120.529 21.431C120.285 21.3513 120.06 21.5838 119.855 22.1284C120.064 22.1331 120.302 23.4307 120.568 26.0213L120.959 28.298L121.13 28.4375C121.481 28.0349 121.903 27.8084 122.395 27.7579L122.545 28.4494L121.352 30.221L122.563 33.9843C122.619 34.5283 123.117 35.4327 124.058 36.6974L124.102 37.1248L123.719 37.5961C123.543 37.9283 122.776 37.5882 121.415 36.5759C120.633 36.6038 119.281 36.0618 117.361 34.9498L117.052 34.2354C117.044 33.1368 117.967 31.6678 119.82 29.8284L118.691 23.0332C119.04 22.6047 118.53 22.1072 117.163 21.5406L116.855 21.2188L117.259 20.9418C117.819 21.0414 118.209 20.8837 118.428 20.4685L118.326 17.1805C118.304 16.7115 118.563 16.4232 119.101 16.3156ZM120.026 17.6736C119.698 18.0476 119.647 18.8251 119.872 20.0062C120.096 20.1403 121.055 19.5445 122.752 18.2186C122.777 17.9543 122.041 17.7942 120.543 17.7384L120.026 17.6736ZM120.073 31.5302C119.525 32.0577 119.169 32.6701 119.005 33.3676L119.061 33.9116C119.106 34.352 119.558 34.6722 120.416 34.8721L121.232 34.7884L121.371 34.617L120.228 31.5143L120.073 31.5302ZM142.066 22.7558L142.61 22.7L143.202 23.1105L143.246 23.538C143.378 23.8123 142.888 24.1375 141.775 24.5134C140.664 24.9153 138.496 26.1064 135.27 28.0865L134.175 28.513L133.941 28.5369L133.066 28.0378L132.94 27.5794L133.199 27.0424L133.619 26.9208L133.937 26.9666C134.451 27.1234 137.16 25.7198 142.066 22.7558ZM136.235 28.6943L136.912 28.782L136.914 29.5671L138.191 29.0042C138.421 28.6926 139.103 28.4525 140.238 28.2838L140.51 28.2559C141.323 28.2771 141.91 28.6358 142.269 29.3319C142.917 29.5272 142.544 30.9922 141.149 33.7269L140.768 34.9834C140.895 35.2059 142.037 34.8532 144.193 33.9252L144.515 33.6173L145.292 33.5376L145.849 33.9909L145.897 34.4572C146.05 34.6771 145.572 34.988 144.461 35.3898L141.099 36.6772L140.065 36.9403C139.453 36.846 139.054 36.5205 138.866 35.9638C138.588 35.8091 138.979 34.7742 140.039 32.8591L140.659 30.4788L140.627 30.1679L140.327 29.9238C140.104 29.7896 139.549 29.9906 138.661 30.5266L137.231 31.8907C137.11 32.2434 137.374 32.91 138.025 33.8904C138.195 34.5274 138.153 34.8851 137.899 34.9635L137.332 35.1787C136.659 35.5095 135.944 34.4049 135.186 31.8648C135.142 30.9269 135.421 29.9428 136.022 28.9125L136.235 28.6943Z" fill="#3E3E3E"/>
<path d="M161.161 8.70268L161.627 8.65484L162.76 9.36325L162.792 9.67412C162.899 9.95111 162.518 10.1866 161.647 10.3806L161.414 10.4045C161.253 11.1279 160.151 13.021 158.109 16.0839L157.53 17.714L157.12 18.3058L156.926 18.3257L156.583 18.0468C156.06 17.2889 157.452 14.2665 160.758 8.97968L161.161 8.70268ZM168.006 10.3566L168.317 10.3247C169.242 10.413 170.086 10.8501 170.847 11.6359L171.108 11.884C171.309 12.3084 171.212 12.6455 170.819 12.8953C170.664 13.1729 169.647 12.7013 167.768 11.4805L167.647 11.061C167.752 10.5529 167.871 10.318 168.006 10.3566ZM180.158 9.38492L180.663 9.3331L181.41 9.72765L181.478 10.3882C181.551 10.5902 180.817 11.0844 179.274 11.8709C178.545 12.4169 177.689 12.7534 176.708 12.8803L176.164 12.9361C175.56 12.9195 175.15 12.6212 174.933 12.0413C175.057 11.7145 175.31 11.5053 175.693 11.4136C176.947 11.3897 178.436 10.7134 180.158 9.38492ZM162.677 13.1415L163.234 13.5949L163.317 14.4109C163.229 14.3152 162.757 14.8217 161.903 15.9304C160.922 16.5807 160.222 17.5425 159.803 18.8159C159.694 18.7747 159.355 19.2938 158.785 20.3733L158.279 21.5639C159.018 21.8808 159.275 22.09 159.05 22.1916L159.268 22.4049C158.941 24.0615 159.517 26.4893 160.997 29.6883C161.207 29.693 161.449 30.1394 161.723 31.0275L161.755 31.3383L161.208 31.7478C160.029 31.4762 158.863 29.1742 157.712 24.842L157.555 24.4654L156.942 24.6069L156.197 23.8586L156.158 23.47C156.224 22.0758 157.917 19.0617 161.238 14.4279L162.677 13.1415ZM166.274 13.7542L166.584 13.7223C166.986 13.812 167.325 14.0521 167.601 14.4427C167.212 14.4826 167.179 15.5593 167.5 17.673L167.692 18.0067C168.797 17.553 169.8 16.8742 170.703 15.9701L171.582 16.5081L171.626 16.9356C171.821 17.3082 170.792 17.9898 168.537 18.9802C168.056 19.1343 167.809 19.4083 167.797 19.8022L168.56 26.4779L168.976 27.8489L169.48 28.936L169.365 29.3405L169.877 30.5052L169.532 30.9725L168.949 31.0323C168.372 31.2748 167.942 30.023 167.661 27.277C167.505 27.293 167.379 26.5729 167.282 25.1169L166.921 23.8973L166.852 23.983C165.926 24.6539 165.282 26.1598 164.92 28.5006L164.804 28.9051L164.221 28.9649L163.66 28.4727L163.565 27.5401C163.388 27.3488 163.67 26.2727 164.412 24.3119C164.554 23.1454 165.384 22.432 166.901 22.1716L166.579 20.5555L166.493 20.4857L164.346 21.3735L163.996 21.4094C163.644 21.5502 163.24 21.3168 162.785 20.709L162.761 20.4758C162.892 19.965 163.136 19.6651 163.494 19.5761C163.917 19.873 164.251 19.9434 164.497 19.7873L166.325 18.8537L165.773 14.2375L166.274 13.7542ZM183.563 13.8656C183.894 13.7792 184.186 13.8147 184.438 13.9722L184.497 14.555C184.685 14.85 184.07 15.2402 182.654 15.7258L180.02 17.606C179.527 17.6565 179.638 19.2421 180.351 22.3627C180.366 24.56 180.91 26.9258 181.982 29.4599C182.34 29.6326 182.526 30.0454 182.541 30.6984L181.971 31.2673L181.582 31.3072C180.997 31.4719 180.193 31.0308 179.169 29.984L177.81 28.9847L178.029 28.059C178.254 27.9574 178.76 28.0364 179.546 28.2961L180.025 28.7575L180.258 28.7335C179.537 26.5561 178.988 23.1176 178.611 18.4181C178.123 19.0179 176.961 19.6868 175.125 20.4248L174.252 20.7108C172.855 20.6185 172.466 20.017 173.085 18.9064L173.76 18.6015L174.248 19.1405C175.103 19.0528 178.208 17.2945 183.563 13.8656ZM169.022 21.4044C169.597 21.3977 169.988 21.6325 170.193 22.1088L170.152 23.9979C170.234 24.801 170.615 25.4556 171.296 25.9617C171.602 26.1398 172.042 26.0946 172.617 25.8262L173.11 25.6578L173.745 26.1032L173.691 26.3443C173.434 27.156 172.808 27.5606 171.813 27.5579C170.404 27.8595 169.343 26.5809 168.631 23.7219L168.599 23.4111L168.665 21.7551L169.022 21.4044Z" fill="#3E3E3E"/>
</g>
<defs>
<clipPath id="clip0">
<rect width="186" height="55" fill="white"/>
</clipPath>
</defs>
</svg>
